<svg width="1036" height="1043" viewBox="0 0 1036 1043" fill="none" xmlns="http://www.w3.org/2000/svg">
<path fill-rule="evenodd" clip-rule="evenodd" d="M775.554 366.358C781.405 375.068 781.011 386.54 774.568 394.822C771.882 398.566 769.58 401.523 769.58 401.523C769.58 401.523 690.539 501.919 498.903 500.989C420.945 500.612 330.925 528.818 275.047 577.403C267.6 583.919 256.947 585.297 248.089 580.877C239.232 576.457 233.926 567.124 234.661 557.24C240.211 480.359 275.501 356.247 426.959 295.394C563.525 240.529 710.556 273.09 775.554 366.358Z" fill="#322214"/>
<path fill-rule="evenodd" clip-rule="evenodd" d="M260.369 677.381C254.228 668.316 254.615 656.322 261.345 647.683C263.814 644.201 265.872 641.543 265.872 641.543C265.872 641.543 344.913 541.147 536.549 542.077C613.806 542.452 702.91 514.748 758.884 466.974C766.674 460.306 777.726 458.984 786.86 463.656C796.006 468.324 801.426 478.043 800.585 488.266C794.487 565.326 758.35 687.462 608.493 747.672C472.259 802.391 325.618 770.131 260.369 677.381Z" fill="#322214"/>
</svg>
