<svg width="877" height="908" viewBox="0 0 877 908" fill="none" xmlns="http://www.w3.org/2000/svg">
<g clip-path="url(#clip0_426_70)">
<path d="M88.2305 179.61C88.3705 179.62 88.5205 179.64 88.6605 179.66C88.8705 178.11 89.0705 176.56 89.2805 175.01C88.9505 176.56 88.6005 178.09 88.2305 179.61Z" fill="black"/>
<path d="M794.6 835.46H719.64C719.71 835.13 736.5 835.78 736.5 835.46V289.92C736.5 289.42 736.5 286 736.5 286C727 295 723.5 295.967 715 296L162.5 289.92C162.76 301.94 153.39 283.78 153.36 295.8C153.36 297.45 152.67 298.69 151.66 299.51V834.35C151.66 834.74 151.66 835.07 151.73 835.46H79.24C74.69 835.46 71 839.15 71 843.7V898.77C71 903.32 74.69 907.01 79.24 907.01H794.6C799.15 907.01 802.84 903.32 802.84 898.77V843.7C802.84 839.15 799.15 835.46 794.6 835.46ZM380.31 363.82C380.31 359.27 378.95 292.352 383.5 292.352L503.88 293.677V415.57C503.88 420.12 500.19 423.81 495.64 423.81H388.55C384 423.81 380.31 420.12 380.31 415.57V363.82ZM547.06 835.45C540.2 835.45 536.34 827.56 540.56 822.15L554.46 804.31C558.68 798.9 554.82 791.01 547.96 791.01H340.23C333.23 791.01 329.42 799.18 333.92 804.55L348.49 821.92C352.99 827.28 349.17 835.46 342.17 835.46L173.47 835.4C173.54 835.07 173.54 834.68 173.54 834.29V289.92C173.54 285.37 179.95 289.92 184.5 289.92L222 290.575C226.55 290.575 223.782 290.594 230.5 290.668L234 290.707C238.5 290.756 241.45 290.839 246 290.839L368.59 292.188V421.42C368.59 429.21 374.9 435.52 382.69 435.52H393.88C398.43 435.52 402.12 439.21 402.12 443.76V463.41C402.12 467.96 405.81 471.65 410.36 471.65H419.34C423.89 471.65 427.58 467.96 427.58 463.41V443.76C427.58 439.21 431.27 435.52 435.82 435.52H448.38C452.93 435.52 456.62 439.21 456.62 443.76V463.41C456.62 467.96 460.31 471.65 464.86 471.65H473.84C478.39 471.65 482.08 467.96 482.08 463.41V443.76C482.08 439.21 485.77 435.52 490.32 435.52H501.44C509.23 435.52 515.54 429.21 515.54 421.42V293.805L606 294.801C610.55 294.801 638 295.153 645 295.23L646.68 295.698C652.5 295.312 660.45 295.45 665 295.45L687.5 295.698C692.05 295.698 709 295.934 715 296V834.5C715 834.83 715 835.14 715 835.46L547.06 835.45Z" fill="black"/>
<path d="M117 264.89C117.12 263.18 117.21 261.46 117.3 259.74H116.25C116.53 261.46 116.78 263.17 117 264.89Z" fill="black"/>
<path d="M635.35 566.01C629.82 560.48 615.81 556.75 607.35 556.75H575.59C571.04 556.75 567.35 553.06 567.35 548.51C567.35 543.82 565.47 538.13 562.35 535.01C559.23 531.95 551.54 531.88 546.85 531.88H327.85C323.1 531.88 321.97 534.45 318.85 537.51C315.79 540.63 315.85 544.52 315.85 548.51V603.01C315.85 673.26 341.63 709.93 387.85 729.01C405.88 736.5 421.98 740.67 441.71 740.54C461.44 740.41 481.69 736.43 499.85 729.01C533.42 715.36 549.89 695.46 562.92 659.01C564.1 655.72 567.2 653.51 570.69 653.51H617.36C627.06 653.51 628.97 651.39 635.35 645.01C641.67 638.63 642.17 632.92 642.17 623.29V587.41C642.17 579.34 642.56 573.54 637.35 568.01C637.15 567.75 635.54 566.21 635.35 566.01ZM545.85 560.5V612.01C545.85 668.98 531.24 691.91 490.35 708.51C474.46 714.96 458.77 718.94 441.71 719.01C424.65 719.14 411.41 714.96 395.85 708.51C356.72 692.36 337.85 668.14 337.85 607.47V560.5C337.85 555.95 341.54 552.26 346.09 552.26H554.09C549.54 552.26 545.85 555.95 545.85 560.5ZM621.72 587.41V623.28C621.72 627.32 620.03 631.33 617.36 634C614.69 636.67 609.89 638.12 605.85 638.12H575.59C571.04 638.12 567.35 634.43 567.35 629.88V585.42C567.35 580.87 571.04 577.18 575.59 577.18H615.06C616.54 577.18 617.99 577.58 619.26 578.33C619.82 578.66 620.3 578.95 620.35 579C622.04 580.83 621.72 584.74 621.72 587.41Z" fill="black"/>
<path fill-rule="evenodd" clip-rule="evenodd" d="M645.92 690.67C645.7 687.16 643.09 684.28 639.45 683.52C637.87 683.13 636.57 682.86 636.57 682.86C636.57 682.86 592.14 673.88 537.55 715.3C515.34 732.15 483.47 744.2 456.93 743.64C453.38 743.55 450.04 745.49 448.47 748.53C446.9 751.58 447.41 755.13 449.77 757.53C468.07 776.22 505.14 800.74 561.68 783.94C612.65 768.78 647.61 728.76 645.92 690.67ZM629.04 698.42C624.6 729.99 596.53 756.13 556.91 767.93C525.44 777.3 495.17 768.1 476.65 756.6C497.35 754.42 523.34 747.26 548.5 728.18C580.55 703.85 614.93 698.86 629.04 698.42Z" fill="black"/>
<path fill-rule="evenodd" clip-rule="evenodd" d="M248.319 693.65C248.489 690.17 251.039 687.27 254.639 686.47C256.199 686.06 257.489 685.78 257.489 685.78C257.489 685.78 301.419 676.28 356.099 716.63C378.339 733.04 410.109 744.57 436.409 743.66C439.929 743.53 443.269 745.4 444.869 748.4C446.469 751.4 446.009 754.93 443.699 757.34C425.799 776.12 389.359 800.92 333.079 785.01C282.349 770.66 247.149 731.45 248.319 693.65ZM265.159 701.11C269.979 732.36 298.159 757.91 337.599 769.08C368.929 777.96 398.819 768.43 417.039 756.78C396.479 754.9 370.619 748.14 345.419 729.55C313.319 705.86 279.159 701.36 265.159 701.11Z" fill="black"/>
<path d="M584.85 820.51H295.85V835.51H584.85V820.51Z" fill="#F5F5F5"/>
<path d="M101.58 880.03C102.21 880.03 102.53 880.44 102.53 881.25C102.53 882.06 102.52 882.67 102.49 883.07C102.39 883.98 101.98 884.5 101.27 884.63C99.0201 884.96 97.3401 885.12 96.2501 885.12C92.4801 885.12 89.8801 884.06 88.4601 881.93C87.0401 879.8 86.3301 875.96 86.3301 870.42C86.3301 866.37 86.6301 863.28 87.2401 861.15C87.8701 859 88.8701 857.49 90.2401 856.63C91.6301 855.77 93.7001 855.34 96.4301 855.34C99.1901 855.34 101.21 855.77 102.47 856.63C102.72 856.81 102.85 857.02 102.85 857.28C102.85 857.53 102.72 858.01 102.47 858.72C102.24 859.4 102.01 859.9 101.79 860.2C101.59 860.48 101.37 860.62 101.14 860.62C100.91 860.62 100.73 860.61 100.61 860.58C98.7101 860.2 97.0601 860.01 95.6701 860.01C94.3001 860.01 93.4001 860.77 92.9701 862.29C92.5601 863.81 92.3601 866.28 92.3601 869.7C92.3601 873.1 92.4501 875.46 92.6301 876.81C92.8101 878.15 93.1401 879.09 93.6201 879.62C94.1001 880.15 94.8601 880.42 95.9001 880.42C96.9601 880.42 98.1501 880.36 99.4701 880.23C100.83 880.09 101.53 880.03 101.58 880.03Z" fill="black"/>
<path d="M571.18 367H663.18C674.23 367 683.18 372.46 683.18 383.51V396.51C683.18 407.56 674.23 412 663.18 412H571.18C560.13 412 551.18 407.56 551.18 396.51V383.51C551.18 372.46 560.13 367 571.18 367Z" fill="black"/>
<path d="M592.18 382.51H515.18V398.51H592.18V382.51Z" fill="black"/>
<path d="M877 238H13V354H877V238Z" fill="#F5F5F5"/>
<path d="M867.963 293C866.779 288.382 836.593 283.133 829.895 282.47L732.488 265.5C732.789 264.27 796.051 273.92 745.703 266.97V236.117C745.703 227.187 734.037 220.206 723.128 216.592L674.121 42.6004C671.337 30.3631 623.996 15.6025 609.43 8.43367C594.864 1.2634 577.163 -1.46565 559.591 0.752061L429.089 17.2104L298.588 0.752061C281.01 -1.4671 263.315 1.2634 248.749 8.43367C234.182 15.6039 196.93 26.2913 194.147 38.5286L155.973 216.592C145.064 220.206 135.049 227.187 135.049 236.117V270C131.746 269.5 128.992 270 124.587 270L42.4312 282.47C35.7338 283.133 1.20988 288.263 0.0236874 292.881C-1.16041 297.5 42.4427 315.5 42.4427 315.5C47.6532 317.445 85.4076 352 429.089 352C772.771 352 830.667 311.945 835.877 310C841.831 307.775 869.147 297.619 867.963 293ZM195.191 260.742C194.614 260.742 185.157 261.5 183.505 260V236.117C173.5 270 191.115 270 196.306 270L429.089 265.5L668 270C668.576 270 719.013 270.383 708 270L693.944 260.742C693.944 261.142 679.102 260.742 678.526 260.742H195.191ZM218.195 41.9167C219.655 35.5069 259.247 29.9083 266.878 26.1522C274.507 22.3976 283.777 20.9665 292.983 22.1282L425.942 38.8965C447.018 42.1021 453.316 38.8965 464.329 37C467.094 38.3761 469.427 35.5 472.589 35.5C477.465 35.5 469.285 36.3502 476.443 34.5C481.486 29.6242 480.848 31.3267 475.342 34.7968C471.487 30.2968 499.019 31 482.443 32.5649L565.196 22.1282C574.4 20.9693 583.672 22.3976 591.301 26.1522C598.932 29.9083 643.478 36.1906 644.937 42.6004L693.944 216.592H181.853L218.195 41.9167ZM429.087 330.272C218.887 330.272 146.97 312.637 81.0425 299.43L196.306 282.47H661.869L784.204 299.43C718.615 312.636 640.286 330.272 429.087 330.272Z" fill="black"/>
<path d="M174 326H151V846H174V326Z" fill="black"/>
<path d="M736 326H713V841H736V326Z" fill="black"/>
<path d="M332.552 162.512H337.16V97.104H333.32C331.613 97.0187 330.461 96.464 329.864 95.44C329.267 94.2453 328.968 92.0693 328.968 88.912C328.968 84.1333 330.376 81.744 333.192 81.744H355.848C359.603 81.744 361.48 83.0667 361.48 85.712C361.48 93.3067 359.987 97.104 357 97.104H353.8L355.08 122.704L355.208 162.512H359.048C362.035 162.597 363.528 163.963 363.528 166.608C363.357 174.203 361.267 178 357.256 178H333.064C331.528 177.915 330.461 177.36 329.864 176.336C329.267 175.141 328.968 172.923 328.968 169.68C328.968 164.901 330.163 162.512 332.552 162.512ZM448.033 162.896C450.166 162.896 451.233 164.261 451.233 166.992C451.233 169.723 451.19 171.771 451.105 173.136C450.764 176.208 449.398 177.957 447.009 178.384C439.414 179.493 433.782 180.048 430.113 180.048C417.398 180.048 408.652 176.464 403.873 169.296C399.094 162.128 396.705 149.2 396.705 130.512C396.705 116.859 397.729 106.448 399.777 99.28C401.91 92.0267 405.281 86.9493 409.889 84.048C414.582 81.1467 421.537 79.696 430.753 79.696C440.054 79.696 446.838 81.1467 451.105 84.048C451.958 84.6453 452.385 85.3707 452.385 86.224C452.385 87.0773 451.958 88.6987 451.105 91.088C450.337 93.392 449.569 95.056 448.801 96.08C448.118 97.0187 447.393 97.488 446.625 97.488C445.857 97.488 445.26 97.4453 444.833 97.36C438.433 96.08 432.886 95.44 428.193 95.44C423.585 95.44 420.556 98 419.105 103.12C417.74 108.24 417.057 116.56 417.057 128.08C417.057 139.515 417.356 147.493 417.953 152.016C418.55 156.539 419.66 159.696 421.281 161.488C422.902 163.28 425.462 164.176 428.961 164.176C432.545 164.176 436.556 163.963 440.993 163.536C445.516 163.109 447.862 162.896 448.033 162.896ZM487.719 168.656C485.927 166.437 485.031 164.773 485.031 163.664C485.031 162.469 486.012 160.891 487.975 158.928C490.023 156.88 491.346 155.771 491.943 155.6C492.626 155.429 493.266 155.344 493.863 155.344C494.46 155.344 495.442 155.728 496.807 156.496C503.122 161.445 508.668 163.92 513.447 163.92C518.226 163.92 521.34 162.811 522.791 160.592C524.242 158.373 524.967 155.472 524.967 151.888C524.967 148.304 523.687 145.403 521.127 143.184C518.567 140.965 514.343 138.277 508.455 135.12C502.652 131.963 497.575 127.867 493.223 122.832C488.871 117.797 486.695 112.592 486.695 107.216C486.695 97.6587 489.17 90.704 494.119 86.352C499.154 81.9147 506.492 79.696 516.135 79.696C522.023 79.696 527.783 81.104 533.415 83.92C536.402 85.1147 537.81 86.352 537.639 87.632C537.554 88.144 537.468 88.912 537.383 89.936C535.762 94.544 534.524 97.1893 533.671 97.872C533.415 98.0427 532.818 98.128 531.879 98.128C531.026 98.128 528.679 97.4453 524.839 96.08C520.999 94.6293 517.714 93.904 514.983 93.904C512.338 93.904 510.119 94.8427 508.327 96.72C506.535 98.5973 505.639 101.243 505.639 104.656C505.639 108.069 507.175 111.184 510.247 114C513.319 116.731 518.055 119.589 524.455 122.576C531.196 126.075 536.231 129.701 539.559 133.456C542.972 137.211 544.679 142.245 544.679 148.56C544.679 169.552 535.804 180.048 518.055 180.048C504.828 180.048 494.716 176.251 487.719 168.656Z" fill="#322214"/>
<path d="M105.124 882.644H106.42V864.248H105.34C104.86 864.224 104.536 864.068 104.368 863.78C104.2 863.444 104.116 862.832 104.116 861.944C104.116 860.6 104.512 859.928 105.304 859.928H111.676C112.732 859.928 113.26 860.3 113.26 861.044C113.26 863.18 112.84 864.248 112 864.248H111.1L111.46 871.448L111.496 882.644H112.576C113.416 882.668 113.836 883.052 113.836 883.796C113.788 885.932 113.2 887 112.072 887H105.268C104.836 886.976 104.536 886.82 104.368 886.532C104.2 886.196 104.116 885.572 104.116 884.66C104.116 883.316 104.452 882.644 105.124 882.644ZM137.603 882.752C138.203 882.752 138.503 883.136 138.503 883.904C138.503 884.672 138.491 885.248 138.467 885.632C138.371 886.496 137.987 886.988 137.315 887.108C135.179 887.42 133.595 887.576 132.563 887.576C128.987 887.576 126.527 886.568 125.183 884.552C123.839 882.536 123.167 878.9 123.167 873.644C123.167 869.804 123.455 866.876 124.031 864.86C124.631 862.82 125.579 861.392 126.875 860.576C128.195 859.76 130.151 859.352 132.743 859.352C135.359 859.352 137.267 859.76 138.467 860.576C138.707 860.744 138.827 860.948 138.827 861.188C138.827 861.428 138.707 861.884 138.467 862.556C138.251 863.204 138.035 863.672 137.819 863.96C137.627 864.224 137.423 864.356 137.207 864.356C136.991 864.356 136.823 864.344 136.703 864.32C134.903 863.96 133.343 863.78 132.023 863.78C130.727 863.78 129.875 864.5 129.467 865.94C129.083 867.38 128.891 869.72 128.891 872.96C128.891 876.176 128.975 878.42 129.143 879.692C129.311 880.964 129.623 881.852 130.079 882.356C130.535 882.86 131.255 883.112 132.239 883.112C133.247 883.112 134.375 883.052 135.623 882.932C136.895 882.812 137.555 882.752 137.603 882.752ZM148.765 884.372C148.261 883.748 148.009 883.28 148.009 882.968C148.009 882.632 148.285 882.188 148.837 881.636C149.413 881.06 149.785 880.748 149.953 880.7C150.145 880.652 150.325 880.628 150.493 880.628C150.661 880.628 150.937 880.736 151.321 880.952C153.097 882.344 154.657 883.04 156.001 883.04C157.345 883.04 158.221 882.728 158.629 882.104C159.037 881.48 159.241 880.664 159.241 879.656C159.241 878.648 158.881 877.832 158.161 877.208C157.441 876.584 156.253 875.828 154.597 874.94C152.965 874.052 151.537 872.9 150.313 871.484C149.089 870.068 148.477 868.604 148.477 867.092C148.477 864.404 149.173 862.448 150.565 861.224C151.981 859.976 154.045 859.352 156.757 859.352C158.413 859.352 160.033 859.748 161.617 860.54C162.457 860.876 162.853 861.224 162.805 861.584C162.781 861.728 162.757 861.944 162.733 862.232C162.277 863.528 161.929 864.272 161.689 864.464C161.617 864.512 161.449 864.536 161.185 864.536C160.945 864.536 160.285 864.344 159.205 863.96C158.125 863.552 157.201 863.348 156.433 863.348C155.689 863.348 155.065 863.612 154.561 864.14C154.057 864.668 153.805 865.412 153.805 866.372C153.805 867.332 154.237 868.208 155.101 869C155.965 869.768 157.297 870.572 159.097 871.412C160.993 872.396 162.409 873.416 163.345 874.472C164.305 875.528 164.785 876.944 164.785 878.72C164.785 884.624 162.289 887.576 157.297 887.576C153.577 887.576 150.733 886.508 148.765 884.372ZM191.932 882.644H193.228V864.248H192.148C191.668 864.224 191.344 864.068 191.176 863.78C191.008 863.444 190.924 862.832 190.924 861.944C190.924 860.6 191.32 859.928 192.112 859.928H198.484C199.54 859.928 200.068 860.3 200.068 861.044C200.068 863.18 199.648 864.248 198.808 864.248H197.908L198.268 871.448L198.304 882.644H199.384C200.224 882.668 200.644 883.052 200.644 883.796C200.596 885.932 200.008 887 198.88 887H192.076C191.644 886.976 191.344 886.82 191.176 886.532C191.008 886.196 190.924 885.572 190.924 884.66C190.924 883.316 191.26 882.644 191.932 882.644ZM224.411 882.752C225.011 882.752 225.311 883.136 225.311 883.904C225.311 884.672 225.299 885.248 225.275 885.632C225.179 886.496 224.795 886.988 224.123 887.108C221.987 887.42 220.403 887.576 219.371 887.576C215.795 887.576 213.335 886.568 211.991 884.552C210.647 882.536 209.975 878.9 209.975 873.644C209.975 869.804 210.263 866.876 210.839 864.86C211.439 862.82 212.387 861.392 213.683 860.576C215.003 859.76 216.959 859.352 219.551 859.352C222.167 859.352 224.075 859.76 225.275 860.576C225.515 860.744 225.635 860.948 225.635 861.188C225.635 861.428 225.515 861.884 225.275 862.556C225.059 863.204 224.843 863.672 224.627 863.96C224.435 864.224 224.231 864.356 224.015 864.356C223.799 864.356 223.631 864.344 223.511 864.32C221.711 863.96 220.151 863.78 218.831 863.78C217.535 863.78 216.683 864.5 216.275 865.94C215.891 867.38 215.699 869.72 215.699 872.96C215.699 876.176 215.783 878.42 215.951 879.692C216.119 880.964 216.431 881.852 216.887 882.356C217.343 882.86 218.063 883.112 219.047 883.112C220.055 883.112 221.183 883.052 222.431 882.932C223.703 882.812 224.363 882.752 224.411 882.752ZM235.573 884.372C235.069 883.748 234.817 883.28 234.817 882.968C234.817 882.632 235.093 882.188 235.645 881.636C236.221 881.06 236.593 880.748 236.761 880.7C236.953 880.652 237.133 880.628 237.301 880.628C237.469 880.628 237.745 880.736 238.129 880.952C239.905 882.344 241.465 883.04 242.809 883.04C244.153 883.04 245.029 882.728 245.437 882.104C245.845 881.48 246.049 880.664 246.049 879.656C246.049 878.648 245.689 877.832 244.969 877.208C244.249 876.584 243.061 875.828 241.405 874.94C239.773 874.052 238.345 872.9 237.121 871.484C235.897 870.068 235.285 868.604 235.285 867.092C235.285 864.404 235.981 862.448 237.373 861.224C238.789 859.976 240.853 859.352 243.565 859.352C245.221 859.352 246.841 859.748 248.425 860.54C249.265 860.876 249.661 861.224 249.613 861.584C249.589 861.728 249.565 861.944 249.541 862.232C249.085 863.528 248.737 864.272 248.497 864.464C248.425 864.512 248.257 864.536 247.993 864.536C247.753 864.536 247.093 864.344 246.013 863.96C244.933 863.552 244.009 863.348 243.241 863.348C242.497 863.348 241.873 863.612 241.369 864.14C240.865 864.668 240.613 865.412 240.613 866.372C240.613 867.332 241.045 868.208 241.909 869C242.773 869.768 244.105 870.572 245.905 871.412C247.801 872.396 249.217 873.416 250.153 874.472C251.113 875.528 251.593 876.944 251.593 878.72C251.593 884.624 249.097 887.576 244.105 887.576C240.385 887.576 237.541 886.508 235.573 884.372ZM278.74 882.644H280.036V864.248H278.956C278.476 864.224 278.152 864.068 277.984 863.78C277.816 863.444 277.732 862.832 277.732 861.944C277.732 860.6 278.128 859.928 278.92 859.928H285.292C286.348 859.928 286.876 860.3 286.876 861.044C286.876 863.18 286.456 864.248 285.616 864.248H284.716L285.076 871.448L285.112 882.644H286.192C287.032 882.668 287.452 883.052 287.452 883.796C287.404 885.932 286.816 887 285.688 887H278.884C278.452 886.976 278.152 886.82 277.984 886.532C277.816 886.196 277.732 885.572 277.732 884.66C277.732 883.316 278.068 882.644 278.74 882.644ZM311.219 882.752C311.819 882.752 312.119 883.136 312.119 883.904C312.119 884.672 312.107 885.248 312.083 885.632C311.987 886.496 311.603 886.988 310.931 887.108C308.795 887.42 307.211 887.576 306.179 887.576C302.603 887.576 300.143 886.568 298.799 884.552C297.455 882.536 296.783 878.9 296.783 873.644C296.783 869.804 297.071 866.876 297.647 864.86C298.247 862.82 299.195 861.392 300.491 860.576C301.811 859.76 303.767 859.352 306.359 859.352C308.975 859.352 310.883 859.76 312.083 860.576C312.323 860.744 312.443 860.948 312.443 861.188C312.443 861.428 312.323 861.884 312.083 862.556C311.867 863.204 311.651 863.672 311.435 863.96C311.243 864.224 311.039 864.356 310.823 864.356C310.607 864.356 310.439 864.344 310.319 864.32C308.519 863.96 306.959 863.78 305.639 863.78C304.343 863.78 303.491 864.5 303.083 865.94C302.699 867.38 302.507 869.72 302.507 872.96C302.507 876.176 302.591 878.42 302.759 879.692C302.927 880.964 303.239 881.852 303.695 882.356C304.151 882.86 304.871 883.112 305.855 883.112C306.863 883.112 307.991 883.052 309.239 882.932C310.511 882.812 311.171 882.752 311.219 882.752ZM322.38 884.372C321.876 883.748 321.624 883.28 321.624 882.968C321.624 882.632 321.9 882.188 322.452 881.636C323.028 881.06 323.4 880.748 323.568 880.7C323.76 880.652 323.94 880.628 324.108 880.628C324.276 880.628 324.552 880.736 324.936 880.952C326.712 882.344 328.272 883.04 329.616 883.04C330.96 883.04 331.836 882.728 332.244 882.104C332.652 881.48 332.856 880.664 332.856 879.656C332.856 878.648 332.496 877.832 331.776 877.208C331.056 876.584 329.868 875.828 328.212 874.94C326.58 874.052 325.152 872.9 323.928 871.484C322.704 870.068 322.092 868.604 322.092 867.092C322.092 864.404 322.788 862.448 324.18 861.224C325.596 859.976 327.66 859.352 330.372 859.352C332.028 859.352 333.648 859.748 335.232 860.54C336.072 860.876 336.468 861.224 336.42 861.584C336.396 861.728 336.372 861.944 336.348 862.232C335.892 863.528 335.544 864.272 335.304 864.464C335.232 864.512 335.064 864.536 334.8 864.536C334.56 864.536 333.9 864.344 332.82 863.96C331.74 863.552 330.816 863.348 330.048 863.348C329.304 863.348 328.68 863.612 328.176 864.14C327.672 864.668 327.42 865.412 327.42 866.372C327.42 867.332 327.852 868.208 328.716 869C329.58 869.768 330.912 870.572 332.712 871.412C334.608 872.396 336.024 873.416 336.96 874.472C337.92 875.528 338.4 876.944 338.4 878.72C338.4 884.624 335.904 887.576 330.912 887.576C327.192 887.576 324.348 886.508 322.38 884.372ZM365.547 882.644H366.843V864.248H365.763C365.283 864.224 364.959 864.068 364.791 863.78C364.623 863.444 364.539 862.832 364.539 861.944C364.539 860.6 364.935 859.928 365.727 859.928H372.099C373.155 859.928 373.683 860.3 373.683 861.044C373.683 863.18 373.263 864.248 372.423 864.248H371.523L371.883 871.448L371.919 882.644H372.999C373.839 882.668 374.259 883.052 374.259 883.796C374.211 885.932 373.623 887 372.495 887H365.691C365.259 886.976 364.959 886.82 364.791 886.532C364.623 886.196 364.539 885.572 364.539 884.66C364.539 883.316 364.875 882.644 365.547 882.644ZM398.026 882.752C398.626 882.752 398.926 883.136 398.926 883.904C398.926 884.672 398.914 885.248 398.89 885.632C398.794 886.496 398.41 886.988 397.738 887.108C395.602 887.42 394.018 887.576 392.986 887.576C389.41 887.576 386.95 886.568 385.606 884.552C384.262 882.536 383.59 878.9 383.59 873.644C383.59 869.804 383.878 866.876 384.454 864.86C385.054 862.82 386.002 861.392 387.298 860.576C388.618 859.76 390.574 859.352 393.166 859.352C395.782 859.352 397.69 859.76 398.89 860.576C399.13 860.744 399.25 860.948 399.25 861.188C399.25 861.428 399.13 861.884 398.89 862.556C398.674 863.204 398.458 863.672 398.242 863.96C398.05 864.224 397.846 864.356 397.63 864.356C397.414 864.356 397.246 864.344 397.126 864.32C395.326 863.96 393.766 863.78 392.446 863.78C391.15 863.78 390.298 864.5 389.89 865.94C389.506 867.38 389.314 869.72 389.314 872.96C389.314 876.176 389.398 878.42 389.566 879.692C389.734 880.964 390.046 881.852 390.502 882.356C390.958 882.86 391.678 883.112 392.662 883.112C393.67 883.112 394.798 883.052 396.046 882.932C397.318 882.812 397.978 882.752 398.026 882.752ZM409.188 884.372C408.684 883.748 408.432 883.28 408.432 882.968C408.432 882.632 408.708 882.188 409.26 881.636C409.836 881.06 410.208 880.748 410.376 880.7C410.568 880.652 410.748 880.628 410.916 880.628C411.084 880.628 411.36 880.736 411.744 880.952C413.52 882.344 415.08 883.04 416.424 883.04C417.768 883.04 418.644 882.728 419.052 882.104C419.46 881.48 419.664 880.664 419.664 879.656C419.664 878.648 419.304 877.832 418.584 877.208C417.864 876.584 416.676 875.828 415.02 874.94C413.388 874.052 411.96 872.9 410.736 871.484C409.512 870.068 408.9 868.604 408.9 867.092C408.9 864.404 409.596 862.448 410.988 861.224C412.404 859.976 414.468 859.352 417.18 859.352C418.836 859.352 420.456 859.748 422.04 860.54C422.88 860.876 423.276 861.224 423.228 861.584C423.204 861.728 423.18 861.944 423.156 862.232C422.7 863.528 422.352 864.272 422.112 864.464C422.04 864.512 421.872 864.536 421.608 864.536C421.368 864.536 420.708 864.344 419.628 863.96C418.548 863.552 417.624 863.348 416.856 863.348C416.112 863.348 415.488 863.612 414.984 864.14C414.48 864.668 414.228 865.412 414.228 866.372C414.228 867.332 414.66 868.208 415.524 869C416.388 869.768 417.72 870.572 419.52 871.412C421.416 872.396 422.832 873.416 423.768 874.472C424.728 875.528 425.208 876.944 425.208 878.72C425.208 884.624 422.712 887.576 417.72 887.576C414 887.576 411.156 886.508 409.188 884.372ZM452.355 882.644H453.651V864.248H452.571C452.091 864.224 451.767 864.068 451.599 863.78C451.431 863.444 451.347 862.832 451.347 861.944C451.347 860.6 451.743 859.928 452.535 859.928H458.907C459.963 859.928 460.491 860.3 460.491 861.044C460.491 863.18 460.071 864.248 459.231 864.248H458.331L458.691 871.448L458.727 882.644H459.807C460.647 882.668 461.067 883.052 461.067 883.796C461.019 885.932 460.431 887 459.303 887H452.499C452.067 886.976 451.767 886.82 451.599 886.532C451.431 886.196 451.347 885.572 451.347 884.66C451.347 883.316 451.683 882.644 452.355 882.644ZM484.834 882.752C485.434 882.752 485.734 883.136 485.734 883.904C485.734 884.672 485.722 885.248 485.698 885.632C485.602 886.496 485.218 886.988 484.546 887.108C482.41 887.42 480.826 887.576 479.794 887.576C476.218 887.576 473.758 886.568 472.414 884.552C471.07 882.536 470.398 878.9 470.398 873.644C470.398 869.804 470.686 866.876 471.262 864.86C471.862 862.82 472.81 861.392 474.106 860.576C475.426 859.76 477.382 859.352 479.974 859.352C482.59 859.352 484.498 859.76 485.698 860.576C485.938 860.744 486.058 860.948 486.058 861.188C486.058 861.428 485.938 861.884 485.698 862.556C485.482 863.204 485.266 863.672 485.05 863.96C484.858 864.224 484.654 864.356 484.438 864.356C484.222 864.356 484.054 864.344 483.934 864.32C482.134 863.96 480.574 863.78 479.254 863.78C477.958 863.78 477.106 864.5 476.698 865.94C476.314 867.38 476.122 869.72 476.122 872.96C476.122 876.176 476.206 878.42 476.374 879.692C476.542 880.964 476.854 881.852 477.31 882.356C477.766 882.86 478.486 883.112 479.47 883.112C480.478 883.112 481.606 883.052 482.854 882.932C484.126 882.812 484.786 882.752 484.834 882.752ZM495.996 884.372C495.492 883.748 495.24 883.28 495.24 882.968C495.24 882.632 495.516 882.188 496.068 881.636C496.644 881.06 497.016 880.748 497.184 880.7C497.376 880.652 497.556 880.628 497.724 880.628C497.892 880.628 498.168 880.736 498.552 880.952C500.328 882.344 501.888 883.04 503.232 883.04C504.576 883.04 505.452 882.728 505.86 882.104C506.268 881.48 506.472 880.664 506.472 879.656C506.472 878.648 506.112 877.832 505.392 877.208C504.672 876.584 503.484 875.828 501.828 874.94C500.196 874.052 498.768 872.9 497.544 871.484C496.32 870.068 495.708 868.604 495.708 867.092C495.708 864.404 496.404 862.448 497.796 861.224C499.212 859.976 501.276 859.352 503.988 859.352C505.644 859.352 507.264 859.748 508.848 860.54C509.688 860.876 510.084 861.224 510.036 861.584C510.012 861.728 509.988 861.944 509.964 862.232C509.508 863.528 509.16 864.272 508.92 864.464C508.848 864.512 508.68 864.536 508.416 864.536C508.176 864.536 507.516 864.344 506.436 863.96C505.356 863.552 504.432 863.348 503.664 863.348C502.92 863.348 502.296 863.612 501.792 864.14C501.288 864.668 501.036 865.412 501.036 866.372C501.036 867.332 501.468 868.208 502.332 869C503.196 869.768 504.528 870.572 506.328 871.412C508.224 872.396 509.64 873.416 510.576 874.472C511.536 875.528 512.016 876.944 512.016 878.72C512.016 884.624 509.52 887.576 504.528 887.576C500.808 887.576 497.964 886.508 495.996 884.372ZM539.163 882.644H540.459V864.248H539.379C538.899 864.224 538.575 864.068 538.407 863.78C538.239 863.444 538.155 862.832 538.155 861.944C538.155 860.6 538.551 859.928 539.343 859.928H545.715C546.771 859.928 547.299 860.3 547.299 861.044C547.299 863.18 546.879 864.248 546.039 864.248H545.139L545.499 871.448L545.535 882.644H546.615C547.455 882.668 547.875 883.052 547.875 883.796C547.827 885.932 547.239 887 546.111 887H539.307C538.875 886.976 538.575 886.82 538.407 886.532C538.239 886.196 538.155 885.572 538.155 884.66C538.155 883.316 538.491 882.644 539.163 882.644ZM571.642 882.752C572.242 882.752 572.542 883.136 572.542 883.904C572.542 884.672 572.53 885.248 572.506 885.632C572.41 886.496 572.026 886.988 571.354 887.108C569.218 887.42 567.634 887.576 566.602 887.576C563.026 887.576 560.566 886.568 559.222 884.552C557.878 882.536 557.206 878.9 557.206 873.644C557.206 869.804 557.494 866.876 558.07 864.86C558.67 862.82 559.618 861.392 560.914 860.576C562.234 859.76 564.19 859.352 566.782 859.352C569.398 859.352 571.306 859.76 572.506 860.576C572.746 860.744 572.866 860.948 572.866 861.188C572.866 861.428 572.746 861.884 572.506 862.556C572.29 863.204 572.074 863.672 571.858 863.96C571.666 864.224 571.462 864.356 571.246 864.356C571.03 864.356 570.862 864.344 570.742 864.32C568.942 863.96 567.382 863.78 566.062 863.78C564.766 863.78 563.914 864.5 563.506 865.94C563.122 867.38 562.93 869.72 562.93 872.96C562.93 876.176 563.014 878.42 563.182 879.692C563.35 880.964 563.662 881.852 564.118 882.356C564.574 882.86 565.294 883.112 566.278 883.112C567.286 883.112 568.414 883.052 569.662 882.932C570.934 882.812 571.594 882.752 571.642 882.752ZM582.804 884.372C582.3 883.748 582.048 883.28 582.048 882.968C582.048 882.632 582.324 882.188 582.876 881.636C583.452 881.06 583.824 880.748 583.992 880.7C584.184 880.652 584.364 880.628 584.532 880.628C584.7 880.628 584.976 880.736 585.36 880.952C587.136 882.344 588.696 883.04 590.04 883.04C591.384 883.04 592.26 882.728 592.668 882.104C593.076 881.48 593.28 880.664 593.28 879.656C593.28 878.648 592.92 877.832 592.2 877.208C591.48 876.584 590.292 875.828 588.636 874.94C587.004 874.052 585.576 872.9 584.352 871.484C583.128 870.068 582.516 868.604 582.516 867.092C582.516 864.404 583.212 862.448 584.604 861.224C586.02 859.976 588.084 859.352 590.796 859.352C592.452 859.352 594.072 859.748 595.656 860.54C596.496 860.876 596.892 861.224 596.844 861.584C596.82 861.728 596.796 861.944 596.772 862.232C596.316 863.528 595.968 864.272 595.728 864.464C595.656 864.512 595.488 864.536 595.224 864.536C594.984 864.536 594.324 864.344 593.244 863.96C592.164 863.552 591.24 863.348 590.472 863.348C589.728 863.348 589.104 863.612 588.6 864.14C588.096 864.668 587.844 865.412 587.844 866.372C587.844 867.332 588.276 868.208 589.14 869C590.004 869.768 591.336 870.572 593.136 871.412C595.032 872.396 596.448 873.416 597.384 874.472C598.344 875.528 598.824 876.944 598.824 878.72C598.824 884.624 596.328 887.576 591.336 887.576C587.616 887.576 584.772 886.508 582.804 884.372ZM625.971 882.644H627.267V864.248H626.187C625.707 864.224 625.383 864.068 625.215 863.78C625.047 863.444 624.963 862.832 624.963 861.944C624.963 860.6 625.359 859.928 626.151 859.928H632.523C633.579 859.928 634.107 860.3 634.107 861.044C634.107 863.18 633.687 864.248 632.847 864.248H631.947L632.307 871.448L632.343 882.644H633.423C634.263 882.668 634.683 883.052 634.683 883.796C634.635 885.932 634.047 887 632.919 887H626.115C625.683 886.976 625.383 886.82 625.215 886.532C625.047 886.196 624.963 885.572 624.963 884.66C624.963 883.316 625.299 882.644 625.971 882.644ZM658.45 882.752C659.05 882.752 659.35 883.136 659.35 883.904C659.35 884.672 659.338 885.248 659.314 885.632C659.218 886.496 658.834 886.988 658.162 887.108C656.026 887.42 654.442 887.576 653.41 887.576C649.834 887.576 647.374 886.568 646.03 884.552C644.686 882.536 644.014 878.9 644.014 873.644C644.014 869.804 644.302 866.876 644.878 864.86C645.478 862.82 646.426 861.392 647.722 860.576C649.042 859.76 650.998 859.352 653.59 859.352C656.206 859.352 658.114 859.76 659.314 860.576C659.554 860.744 659.674 860.948 659.674 861.188C659.674 861.428 659.554 861.884 659.314 862.556C659.098 863.204 658.882 863.672 658.666 863.96C658.474 864.224 658.27 864.356 658.054 864.356C657.838 864.356 657.67 864.344 657.55 864.32C655.75 863.96 654.19 863.78 652.87 863.78C651.574 863.78 650.722 864.5 650.314 865.94C649.93 867.38 649.738 869.72 649.738 872.96C649.738 876.176 649.822 878.42 649.99 879.692C650.158 880.964 650.47 881.852 650.926 882.356C651.382 882.86 652.102 883.112 653.086 883.112C654.094 883.112 655.222 883.052 656.47 882.932C657.742 882.812 658.402 882.752 658.45 882.752ZM669.612 884.372C669.108 883.748 668.856 883.28 668.856 882.968C668.856 882.632 669.132 882.188 669.684 881.636C670.26 881.06 670.632 880.748 670.8 880.7C670.992 880.652 671.172 880.628 671.34 880.628C671.508 880.628 671.784 880.736 672.168 880.952C673.944 882.344 675.504 883.04 676.848 883.04C678.192 883.04 679.068 882.728 679.476 882.104C679.884 881.48 680.088 880.664 680.088 879.656C680.088 878.648 679.728 877.832 679.008 877.208C678.288 876.584 677.1 875.828 675.444 874.94C673.812 874.052 672.384 872.9 671.16 871.484C669.936 870.068 669.324 868.604 669.324 867.092C669.324 864.404 670.02 862.448 671.412 861.224C672.828 859.976 674.892 859.352 677.604 859.352C679.26 859.352 680.88 859.748 682.464 860.54C683.304 860.876 683.7 861.224 683.652 861.584C683.628 861.728 683.604 861.944 683.58 862.232C683.124 863.528 682.776 864.272 682.536 864.464C682.464 864.512 682.296 864.536 682.032 864.536C681.792 864.536 681.132 864.344 680.052 863.96C678.972 863.552 678.048 863.348 677.28 863.348C676.536 863.348 675.912 863.612 675.408 864.14C674.904 864.668 674.652 865.412 674.652 866.372C674.652 867.332 675.084 868.208 675.948 869C676.812 869.768 678.144 870.572 679.944 871.412C681.84 872.396 683.256 873.416 684.192 874.472C685.152 875.528 685.632 876.944 685.632 878.72C685.632 884.624 683.136 887.576 678.144 887.576C674.424 887.576 671.58 886.508 669.612 884.372ZM712.779 882.644H714.075V864.248H712.995C712.515 864.224 712.191 864.068 712.023 863.78C711.855 863.444 711.771 862.832 711.771 861.944C711.771 860.6 712.167 859.928 712.959 859.928H719.331C720.387 859.928 720.915 860.3 720.915 861.044C720.915 863.18 720.495 864.248 719.655 864.248H718.755L719.115 871.448L719.151 882.644H720.231C721.071 882.668 721.491 883.052 721.491 883.796C721.443 885.932 720.855 887 719.727 887H712.923C712.491 886.976 712.191 886.82 712.023 886.532C711.855 886.196 711.771 885.572 711.771 884.66C711.771 883.316 712.107 882.644 712.779 882.644ZM745.258 882.752C745.858 882.752 746.158 883.136 746.158 883.904C746.158 884.672 746.146 885.248 746.122 885.632C746.026 886.496 745.642 886.988 744.97 887.108C742.834 887.42 741.25 887.576 740.218 887.576C736.642 887.576 734.182 886.568 732.838 884.552C731.494 882.536 730.822 878.9 730.822 873.644C730.822 869.804 731.11 866.876 731.686 864.86C732.286 862.82 733.234 861.392 734.53 860.576C735.85 859.76 737.806 859.352 740.398 859.352C743.014 859.352 744.922 859.76 746.122 860.576C746.362 860.744 746.482 860.948 746.482 861.188C746.482 861.428 746.362 861.884 746.122 862.556C745.906 863.204 745.69 863.672 745.474 863.96C745.282 864.224 745.078 864.356 744.862 864.356C744.646 864.356 744.478 864.344 744.358 864.32C742.558 863.96 740.998 863.78 739.678 863.78C738.382 863.78 737.53 864.5 737.122 865.94C736.738 867.38 736.546 869.72 736.546 872.96C736.546 876.176 736.63 878.42 736.798 879.692C736.966 880.964 737.278 881.852 737.734 882.356C738.19 882.86 738.91 883.112 739.894 883.112C740.902 883.112 742.03 883.052 743.278 882.932C744.55 882.812 745.21 882.752 745.258 882.752ZM756.419 884.372C755.915 883.748 755.663 883.28 755.663 882.968C755.663 882.632 755.939 882.188 756.491 881.636C757.067 881.06 757.439 880.748 757.607 880.7C757.799 880.652 757.979 880.628 758.147 880.628C758.315 880.628 758.591 880.736 758.975 880.952C760.751 882.344 762.311 883.04 763.655 883.04C764.999 883.04 765.875 882.728 766.283 882.104C766.691 881.48 766.895 880.664 766.895 879.656C766.895 878.648 766.535 877.832 765.815 877.208C765.095 876.584 763.907 875.828 762.251 874.94C760.619 874.052 759.191 872.9 757.967 871.484C756.743 870.068 756.131 868.604 756.131 867.092C756.131 864.404 756.827 862.448 758.219 861.224C759.635 859.976 761.699 859.352 764.411 859.352C766.067 859.352 767.687 859.748 769.271 860.54C770.111 860.876 770.507 861.224 770.459 861.584C770.435 861.728 770.411 861.944 770.387 862.232C769.931 863.528 769.583 864.272 769.343 864.464C769.271 864.512 769.103 864.536 768.839 864.536C768.599 864.536 767.939 864.344 766.859 863.96C765.779 863.552 764.855 863.348 764.087 863.348C763.343 863.348 762.719 863.612 762.215 864.14C761.711 864.668 761.459 865.412 761.459 866.372C761.459 867.332 761.891 868.208 762.755 869C763.619 869.768 764.951 870.572 766.751 871.412C768.647 872.396 770.063 873.416 770.999 874.472C771.959 875.528 772.439 876.944 772.439 878.72C772.439 884.624 769.943 887.576 764.951 887.576C761.231 887.576 758.387 886.508 756.419 884.372Z" fill="white"/>
</g>
<defs>
<clipPath id="clip0_426_70">
<rect width="877" height="908" fill="white"/>
</clipPath>
</defs>
</svg>
