<svg width="906" height="943" viewBox="0 0 906 943" fill="none" xmlns="http://www.w3.org/2000/svg">
<g clip-path="url(#clip0_426_36)">
<path d="M103.23 214.61C103.37 214.62 103.52 214.64 103.66 214.66C103.87 213.11 104.07 211.56 104.28 210.01C103.95 211.56 103.6 213.09 103.23 214.61Z" fill="#D8D2CD"/>
<path d="M809.6 870.46H734.64C734.71 870.13 751.5 870.78 751.5 870.46V324.92C751.5 324.42 751.5 321 751.5 321C742 330 738.5 330.967 730 331L177.5 324.92C177.76 336.94 168.39 318.78 168.36 330.8C168.36 332.45 167.67 333.69 166.66 334.51V869.35C166.66 869.74 166.66 870.07 166.73 870.46H94.24C89.69 870.46 86 874.15 86 878.7V933.77C86 938.32 89.69 942.01 94.24 942.01H809.6C814.15 942.01 817.84 938.32 817.84 933.77V878.7C817.84 874.15 814.15 870.46 809.6 870.46ZM395.31 398.82C395.31 394.27 393.95 327.352 398.5 327.352L518.88 328.677V450.57C518.88 455.12 515.19 458.81 510.64 458.81H403.55C399 458.81 395.31 455.12 395.31 450.57V398.82ZM562.06 870.45C555.2 870.45 551.34 862.56 555.56 857.15L569.46 839.31C573.68 833.9 569.82 826.01 562.96 826.01H355.23C348.23 826.01 344.42 834.18 348.92 839.55L363.49 856.92C367.99 862.28 364.17 870.46 357.17 870.46L188.47 870.4C188.54 870.07 188.54 869.68 188.54 869.29V324.92C188.54 320.37 194.95 324.92 199.5 324.92L237 325.575C241.55 325.575 238.782 325.594 245.5 325.668L249 325.707C253.5 325.756 256.45 325.839 261 325.839L383.59 327.188V456.42C383.59 464.21 389.9 470.52 397.69 470.52H408.88C413.43 470.52 417.12 474.21 417.12 478.76V498.41C417.12 502.96 420.81 506.65 425.36 506.65H434.34C438.89 506.65 442.58 502.96 442.58 498.41V478.76C442.58 474.21 446.27 470.52 450.82 470.52H463.38C467.93 470.52 471.62 474.21 471.62 478.76V498.41C471.62 502.96 475.31 506.65 479.86 506.65H488.84C493.39 506.65 497.08 502.96 497.08 498.41V478.76C497.08 474.21 500.77 470.52 505.32 470.52H516.44C524.23 470.52 530.54 464.21 530.54 456.42V328.805L621 329.801C625.55 329.801 653 330.153 660 330.23L661.68 330.698C667.5 330.312 675.45 330.45 680 330.45L702.5 330.698C707.05 330.698 724 330.934 730 331V869.5C730 869.83 730 870.14 730 870.46L562.06 870.45Z" fill="#D8D2CD"/>
<path d="M132 299.89C132.12 298.18 132.21 296.46 132.3 294.74H131.25C131.53 296.46 131.78 298.17 132 299.89Z" fill="#D8D2CD"/>
<path d="M650.35 601.01C644.82 595.48 630.81 591.75 622.35 591.75H590.59C586.04 591.75 582.35 588.06 582.35 583.51C582.35 578.82 580.47 573.13 577.35 570.01C574.23 566.95 566.54 566.88 561.85 566.88H342.85C338.1 566.88 336.97 569.45 333.85 572.51C330.79 575.63 330.85 579.52 330.85 583.51V638.01C330.85 708.26 356.63 744.93 402.85 764.01C420.88 771.5 436.98 775.67 456.71 775.54C476.44 775.41 496.69 771.43 514.85 764.01C548.42 750.36 564.89 730.46 577.92 694.01C579.1 690.72 582.2 688.51 585.69 688.51H632.36C642.06 688.51 643.97 686.39 650.35 680.01C656.67 673.63 657.17 667.92 657.17 658.29V622.41C657.17 614.34 657.56 608.54 652.35 603.01C652.15 602.75 650.54 601.21 650.35 601.01ZM560.85 595.5V647.01C560.85 703.98 546.24 726.91 505.35 743.51C489.46 749.96 473.77 753.94 456.71 754.01C439.65 754.14 426.41 749.96 410.85 743.51C371.72 727.36 352.85 703.14 352.85 642.47V595.5C352.85 590.95 356.54 587.26 361.09 587.26H569.09C564.54 587.26 560.85 590.95 560.85 595.5ZM636.72 622.41V658.28C636.72 662.32 635.03 666.33 632.36 669C629.69 671.67 624.89 673.12 620.85 673.12H590.59C586.04 673.12 582.35 669.43 582.35 664.88V620.42C582.35 615.87 586.04 612.18 590.59 612.18H630.06C631.54 612.18 632.99 612.58 634.26 613.33C634.82 613.66 635.3 613.95 635.35 614C637.04 615.83 636.72 619.74 636.72 622.41Z" fill="#D8D2CD"/>
<path fill-rule="evenodd" clip-rule="evenodd" d="M660.92 725.67C660.7 722.16 658.09 719.28 654.45 718.52C652.87 718.13 651.57 717.86 651.57 717.86C651.57 717.86 607.14 708.88 552.55 750.3C530.34 767.15 498.47 779.2 471.93 778.64C468.38 778.55 465.04 780.49 463.47 783.53C461.9 786.58 462.41 790.13 464.77 792.53C483.07 811.22 520.14 835.74 576.68 818.94C627.65 803.78 662.61 763.76 660.92 725.67ZM644.04 733.42C639.6 764.99 611.53 791.13 571.91 802.93C540.44 812.3 510.17 803.1 491.65 791.6C512.35 789.42 538.34 782.26 563.5 763.18C595.55 738.85 629.93 733.86 644.04 733.42Z" fill="#D8D2CD"/>
<path fill-rule="evenodd" clip-rule="evenodd" d="M263.319 728.65C263.489 725.17 266.039 722.27 269.639 721.47C271.199 721.06 272.489 720.78 272.489 720.78C272.489 720.78 316.419 711.28 371.099 751.63C393.339 768.04 425.109 779.57 451.409 778.66C454.929 778.53 458.269 780.4 459.869 783.4C461.469 786.4 461.009 789.93 458.699 792.34C440.799 811.12 404.359 835.92 348.079 820.01C297.349 805.66 262.149 766.45 263.319 728.65ZM280.159 736.11C284.979 767.36 313.159 792.91 352.599 804.08C383.929 812.96 413.819 803.43 432.039 791.78C411.479 789.9 385.619 783.14 360.419 764.55C328.319 740.86 294.159 736.36 280.159 736.11Z" fill="#D8D2CD"/>
<path d="M599.85 855.51H310.85V870.51H599.85V855.51Z" fill="#140504"/>
<path d="M116.58 915.03C117.21 915.03 117.53 915.44 117.53 916.25C117.53 917.06 117.52 917.67 117.49 918.07C117.39 918.98 116.98 919.5 116.27 919.63C114.02 919.96 112.34 920.12 111.25 920.12C107.48 920.12 104.88 919.06 103.46 916.93C102.04 914.8 101.33 910.96 101.33 905.42C101.33 901.37 101.63 898.28 102.24 896.15C102.87 894 103.87 892.49 105.24 891.63C106.63 890.77 108.7 890.34 111.43 890.34C114.19 890.34 116.21 890.77 117.47 891.63C117.72 891.81 117.85 892.02 117.85 892.28C117.85 892.53 117.72 893.01 117.47 893.72C117.24 894.4 117.01 894.9 116.79 895.2C116.59 895.48 116.37 895.62 116.14 895.62C115.91 895.62 115.73 895.61 115.61 895.58C113.71 895.2 112.06 895.01 110.67 895.01C109.3 895.01 108.4 895.77 107.97 897.29C107.56 898.81 107.36 901.28 107.36 904.7C107.36 908.1 107.45 910.46 107.63 911.81C107.81 913.15 108.14 914.09 108.62 914.62C109.1 915.15 109.86 915.42 110.9 915.42C111.96 915.42 113.15 915.36 114.47 915.23C115.83 915.09 116.53 915.03 116.58 915.03Z" fill="#D8D2CD"/>
<path d="M586.18 402H678.18C689.23 402 698.18 407.46 698.18 418.51V431.51C698.18 442.56 689.23 447 678.18 447H586.18C575.13 447 566.18 442.56 566.18 431.51V418.51C566.18 407.46 575.13 402 586.18 402Z" fill="#D8D2CD"/>
<path d="M607.18 417.51H530.18V433.51H607.18V417.51Z" fill="#D8D2CD"/>
<path d="M892 273H28V389H892V273Z" fill="#140504"/>
<path d="M873.642 195.024C859.641 195.024 842.082 199.904 819.846 206.07C798.445 212.013 774.193 218.76 746.419 223.088C732.794 225.206 722.726 225.277 712.429 223.325C713.346 218.473 713.795 213.621 713.795 208.819V100.243C713.795 44.9751 656.35 0.0071737 585.747 0.0071737H583.061L580.796 1.14125C580.191 1.44989 518.794 31.8328 450.877 32.5721L448.521 32.5865C382.228 32.5865 326.13 1.65804 325.571 1.34222L323.169 0H320.235C249.622 0 192.187 44.9679 192.187 100.236V208.805C192.187 213.434 192.59 218.071 193.406 222.658C178.965 226.096 165.733 226.512 154.373 223.863C139.06 220.289 124.93 216.643 111.277 213.126C79.5062 204.95 54.4192 198.498 35.7599 198.498C19.4479 198.498 0 203.881 0 229.512C0 277.007 200.879 398 452.995 398C694.274 398 906 292.991 906 229.512C906 220.985 906 195.024 873.642 195.024ZM317.456 14.384C329.761 20.8151 383.722 46.9346 448.53 46.9346L451.143 46.9202C517.262 46.2024 575.771 20.3055 588.305 14.3768C647.639 15.4391 695.475 53.5452 695.475 100.236V208.812C695.475 209.027 695.429 209.257 695.429 209.472C656.864 232.799 561.192 249.243 453.005 249.243C342.571 249.243 248.366 232.125 211.451 208.029C211.13 208.238 210.855 208.467 210.543 208.675V100.243C210.534 53.617 258.251 15.5468 317.456 14.384ZM453.005 383.645C213.918 383.645 18.3476 267.281 18.3476 229.527C18.3476 215.509 24.4726 212.86 35.7691 212.86C51.4851 212.86 76.5445 219.306 105.556 226.777C118.695 230.158 133.586 233.984 149.146 237.616C163.212 240.91 179.12 240.63 196.047 236.955C208.939 269.212 319.043 294.391 453.005 294.391C586.132 294.391 695.686 269.52 709.715 237.558C721.855 239.69 734.463 239.604 750.023 237.164C779.089 232.627 805.102 225.399 826.008 219.6C845.758 214.116 862.813 209.379 873.66 209.379C879.584 209.379 887.68 209.379 887.68 229.527C887.662 274.214 699.537 383.645 453.005 383.645Z" fill="#D8D2CD"/>
<path d="M189 339H166V878H189V339Z" fill="#D8D2CD"/>
<path d="M753 339H730V877H753V339Z" fill="#D8D2CD"/>
<path d="M357.552 175.512H362.16V110.104H358.32C356.613 110.019 355.461 109.464 354.864 108.44C354.267 107.245 353.968 105.069 353.968 101.912C353.968 97.1333 355.376 94.744 358.192 94.744H380.848C384.603 94.744 386.48 96.0667 386.48 98.712C386.48 106.307 384.987 110.104 382 110.104H378.8L380.08 135.704L380.208 175.512H384.048C387.035 175.597 388.528 176.963 388.528 179.608C388.357 187.203 386.267 191 382.256 191H358.064C356.528 190.915 355.461 190.36 354.864 189.336C354.267 188.141 353.968 185.923 353.968 182.68C353.968 177.901 355.163 175.512 357.552 175.512ZM473.033 175.896C475.166 175.896 476.233 177.261 476.233 179.992C476.233 182.723 476.19 184.771 476.105 186.136C475.764 189.208 474.398 190.957 472.009 191.384C464.414 192.493 458.782 193.048 455.113 193.048C442.398 193.048 433.652 189.464 428.873 182.296C424.094 175.128 421.705 162.2 421.705 143.512C421.705 129.859 422.729 119.448 424.777 112.28C426.91 105.027 430.281 99.9493 434.889 97.048C439.582 94.1467 446.537 92.696 455.753 92.696C465.054 92.696 471.838 94.1467 476.105 97.048C476.958 97.6453 477.385 98.3707 477.385 99.224C477.385 100.077 476.958 101.699 476.105 104.088C475.337 106.392 474.569 108.056 473.801 109.08C473.118 110.019 472.393 110.488 471.625 110.488C470.857 110.488 470.26 110.445 469.833 110.36C463.433 109.08 457.886 108.44 453.193 108.44C448.585 108.44 445.556 111 444.105 116.12C442.74 121.24 442.057 129.56 442.057 141.08C442.057 152.515 442.356 160.493 442.953 165.016C443.55 169.539 444.66 172.696 446.281 174.488C447.902 176.28 450.462 177.176 453.961 177.176C457.545 177.176 461.556 176.963 465.993 176.536C470.516 176.109 472.862 175.896 473.033 175.896ZM512.719 181.656C510.927 179.437 510.031 177.773 510.031 176.664C510.031 175.469 511.012 173.891 512.975 171.928C515.023 169.88 516.346 168.771 516.943 168.6C517.626 168.429 518.266 168.344 518.863 168.344C519.46 168.344 520.442 168.728 521.807 169.496C528.122 174.445 533.668 176.92 538.447 176.92C543.226 176.92 546.34 175.811 547.791 173.592C549.242 171.373 549.967 168.472 549.967 164.888C549.967 161.304 548.687 158.403 546.127 156.184C543.567 153.965 539.343 151.277 533.455 148.12C527.652 144.963 522.575 140.867 518.223 135.832C513.871 130.797 511.695 125.592 511.695 120.216C511.695 110.659 514.17 103.704 519.119 99.352C524.154 94.9147 531.492 92.696 541.135 92.696C547.023 92.696 552.783 94.104 558.415 96.92C561.402 98.1147 562.81 99.352 562.639 100.632C562.554 101.144 562.468 101.912 562.383 102.936C560.762 107.544 559.524 110.189 558.671 110.872C558.415 111.043 557.818 111.128 556.879 111.128C556.026 111.128 553.679 110.445 549.839 109.08C545.999 107.629 542.714 106.904 539.983 106.904C537.338 106.904 535.119 107.843 533.327 109.72C531.535 111.597 530.639 114.243 530.639 117.656C530.639 121.069 532.175 124.184 535.247 127C538.319 129.731 543.055 132.589 549.455 135.576C556.196 139.075 561.231 142.701 564.559 146.456C567.972 150.211 569.679 155.245 569.679 161.56C569.679 182.552 560.804 193.048 543.055 193.048C529.828 193.048 519.716 189.251 512.719 181.656Z" fill="#D8D2CD"/>
<path d="M118.124 916.644H119.42V898.248H118.34C117.86 898.224 117.536 898.068 117.368 897.78C117.2 897.444 117.116 896.832 117.116 895.944C117.116 894.6 117.512 893.928 118.304 893.928H124.676C125.732 893.928 126.26 894.3 126.26 895.044C126.26 897.18 125.84 898.248 125 898.248H124.1L124.46 905.448L124.496 916.644H125.576C126.416 916.668 126.836 917.052 126.836 917.796C126.788 919.932 126.2 921 125.072 921H118.268C117.836 920.976 117.536 920.82 117.368 920.532C117.2 920.196 117.116 919.572 117.116 918.66C117.116 917.316 117.452 916.644 118.124 916.644ZM150.603 916.752C151.203 916.752 151.503 917.136 151.503 917.904C151.503 918.672 151.491 919.248 151.467 919.632C151.371 920.496 150.987 920.988 150.315 921.108C148.179 921.42 146.595 921.576 145.563 921.576C141.987 921.576 139.527 920.568 138.183 918.552C136.839 916.536 136.167 912.9 136.167 907.644C136.167 903.804 136.455 900.876 137.031 898.86C137.631 896.82 138.579 895.392 139.875 894.576C141.195 893.76 143.151 893.352 145.743 893.352C148.359 893.352 150.267 893.76 151.467 894.576C151.707 894.744 151.827 894.948 151.827 895.188C151.827 895.428 151.707 895.884 151.467 896.556C151.251 897.204 151.035 897.672 150.819 897.96C150.627 898.224 150.423 898.356 150.207 898.356C149.991 898.356 149.823 898.344 149.703 898.32C147.903 897.96 146.343 897.78 145.023 897.78C143.727 897.78 142.875 898.5 142.467 899.94C142.083 901.38 141.891 903.72 141.891 906.96C141.891 910.176 141.975 912.42 142.143 913.692C142.311 914.964 142.623 915.852 143.079 916.356C143.535 916.86 144.255 917.112 145.239 917.112C146.247 917.112 147.375 917.052 148.623 916.932C149.895 916.812 150.555 916.752 150.603 916.752ZM161.765 918.372C161.261 917.748 161.009 917.28 161.009 916.968C161.009 916.632 161.285 916.188 161.837 915.636C162.413 915.06 162.785 914.748 162.953 914.7C163.145 914.652 163.325 914.628 163.493 914.628C163.661 914.628 163.937 914.736 164.321 914.952C166.097 916.344 167.657 917.04 169.001 917.04C170.345 917.04 171.221 916.728 171.629 916.104C172.037 915.48 172.241 914.664 172.241 913.656C172.241 912.648 171.881 911.832 171.161 911.208C170.441 910.584 169.253 909.828 167.597 908.94C165.965 908.052 164.537 906.9 163.313 905.484C162.089 904.068 161.477 902.604 161.477 901.092C161.477 898.404 162.173 896.448 163.565 895.224C164.981 893.976 167.045 893.352 169.757 893.352C171.413 893.352 173.033 893.748 174.617 894.54C175.457 894.876 175.853 895.224 175.805 895.584C175.781 895.728 175.757 895.944 175.733 896.232C175.277 897.528 174.929 898.272 174.689 898.464C174.617 898.512 174.449 898.536 174.185 898.536C173.945 898.536 173.285 898.344 172.205 897.96C171.125 897.552 170.201 897.348 169.433 897.348C168.689 897.348 168.065 897.612 167.561 898.14C167.057 898.668 166.805 899.412 166.805 900.372C166.805 901.332 167.237 902.208 168.101 903C168.965 903.768 170.297 904.572 172.097 905.412C173.993 906.396 175.409 907.416 176.345 908.472C177.305 909.528 177.785 910.944 177.785 912.72C177.785 918.624 175.289 921.576 170.297 921.576C166.577 921.576 163.733 920.508 161.765 918.372ZM204.932 916.644H206.228V898.248H205.148C204.668 898.224 204.344 898.068 204.176 897.78C204.008 897.444 203.924 896.832 203.924 895.944C203.924 894.6 204.32 893.928 205.112 893.928H211.484C212.54 893.928 213.068 894.3 213.068 895.044C213.068 897.18 212.648 898.248 211.808 898.248H210.908L211.268 905.448L211.304 916.644H212.384C213.224 916.668 213.644 917.052 213.644 917.796C213.596 919.932 213.008 921 211.88 921H205.076C204.644 920.976 204.344 920.82 204.176 920.532C204.008 920.196 203.924 919.572 203.924 918.66C203.924 917.316 204.26 916.644 204.932 916.644ZM237.411 916.752C238.011 916.752 238.311 917.136 238.311 917.904C238.311 918.672 238.299 919.248 238.275 919.632C238.179 920.496 237.795 920.988 237.123 921.108C234.987 921.42 233.403 921.576 232.371 921.576C228.795 921.576 226.335 920.568 224.991 918.552C223.647 916.536 222.975 912.9 222.975 907.644C222.975 903.804 223.263 900.876 223.839 898.86C224.439 896.82 225.387 895.392 226.683 894.576C228.003 893.76 229.959 893.352 232.551 893.352C235.167 893.352 237.075 893.76 238.275 894.576C238.515 894.744 238.635 894.948 238.635 895.188C238.635 895.428 238.515 895.884 238.275 896.556C238.059 897.204 237.843 897.672 237.627 897.96C237.435 898.224 237.231 898.356 237.015 898.356C236.799 898.356 236.631 898.344 236.511 898.32C234.711 897.96 233.151 897.78 231.831 897.78C230.535 897.78 229.683 898.5 229.275 899.94C228.891 901.38 228.699 903.72 228.699 906.96C228.699 910.176 228.783 912.42 228.951 913.692C229.119 914.964 229.431 915.852 229.887 916.356C230.343 916.86 231.063 917.112 232.047 917.112C233.055 917.112 234.183 917.052 235.431 916.932C236.703 916.812 237.363 916.752 237.411 916.752ZM248.573 918.372C248.069 917.748 247.817 917.28 247.817 916.968C247.817 916.632 248.093 916.188 248.645 915.636C249.221 915.06 249.593 914.748 249.761 914.7C249.953 914.652 250.133 914.628 250.301 914.628C250.469 914.628 250.745 914.736 251.129 914.952C252.905 916.344 254.465 917.04 255.809 917.04C257.153 917.04 258.029 916.728 258.437 916.104C258.845 915.48 259.049 914.664 259.049 913.656C259.049 912.648 258.689 911.832 257.969 911.208C257.249 910.584 256.061 909.828 254.405 908.94C252.773 908.052 251.345 906.9 250.121 905.484C248.897 904.068 248.285 902.604 248.285 901.092C248.285 898.404 248.981 896.448 250.373 895.224C251.789 893.976 253.853 893.352 256.565 893.352C258.221 893.352 259.841 893.748 261.425 894.54C262.265 894.876 262.661 895.224 262.613 895.584C262.589 895.728 262.565 895.944 262.541 896.232C262.085 897.528 261.737 898.272 261.497 898.464C261.425 898.512 261.257 898.536 260.993 898.536C260.753 898.536 260.093 898.344 259.013 897.96C257.933 897.552 257.009 897.348 256.241 897.348C255.497 897.348 254.873 897.612 254.369 898.14C253.865 898.668 253.613 899.412 253.613 900.372C253.613 901.332 254.045 902.208 254.909 903C255.773 903.768 257.105 904.572 258.905 905.412C260.801 906.396 262.217 907.416 263.153 908.472C264.113 909.528 264.593 910.944 264.593 912.72C264.593 918.624 262.097 921.576 257.105 921.576C253.385 921.576 250.541 920.508 248.573 918.372ZM291.74 916.644H293.036V898.248H291.956C291.476 898.224 291.152 898.068 290.984 897.78C290.816 897.444 290.732 896.832 290.732 895.944C290.732 894.6 291.128 893.928 291.92 893.928H298.292C299.348 893.928 299.876 894.3 299.876 895.044C299.876 897.18 299.456 898.248 298.616 898.248H297.716L298.076 905.448L298.112 916.644H299.192C300.032 916.668 300.452 917.052 300.452 917.796C300.404 919.932 299.816 921 298.688 921H291.884C291.452 920.976 291.152 920.82 290.984 920.532C290.816 920.196 290.732 919.572 290.732 918.66C290.732 917.316 291.068 916.644 291.74 916.644ZM324.219 916.752C324.819 916.752 325.119 917.136 325.119 917.904C325.119 918.672 325.107 919.248 325.083 919.632C324.987 920.496 324.603 920.988 323.931 921.108C321.795 921.42 320.211 921.576 319.179 921.576C315.603 921.576 313.143 920.568 311.799 918.552C310.455 916.536 309.783 912.9 309.783 907.644C309.783 903.804 310.071 900.876 310.647 898.86C311.247 896.82 312.195 895.392 313.491 894.576C314.811 893.76 316.767 893.352 319.359 893.352C321.975 893.352 323.883 893.76 325.083 894.576C325.323 894.744 325.443 894.948 325.443 895.188C325.443 895.428 325.323 895.884 325.083 896.556C324.867 897.204 324.651 897.672 324.435 897.96C324.243 898.224 324.039 898.356 323.823 898.356C323.607 898.356 323.439 898.344 323.319 898.32C321.519 897.96 319.959 897.78 318.639 897.78C317.343 897.78 316.491 898.5 316.083 899.94C315.699 901.38 315.507 903.72 315.507 906.96C315.507 910.176 315.591 912.42 315.759 913.692C315.927 914.964 316.239 915.852 316.695 916.356C317.151 916.86 317.871 917.112 318.855 917.112C319.863 917.112 320.991 917.052 322.239 916.932C323.511 916.812 324.171 916.752 324.219 916.752ZM335.38 918.372C334.876 917.748 334.624 917.28 334.624 916.968C334.624 916.632 334.9 916.188 335.452 915.636C336.028 915.06 336.4 914.748 336.568 914.7C336.76 914.652 336.94 914.628 337.108 914.628C337.276 914.628 337.552 914.736 337.936 914.952C339.712 916.344 341.272 917.04 342.616 917.04C343.96 917.04 344.836 916.728 345.244 916.104C345.652 915.48 345.856 914.664 345.856 913.656C345.856 912.648 345.496 911.832 344.776 911.208C344.056 910.584 342.868 909.828 341.212 908.94C339.58 908.052 338.152 906.9 336.928 905.484C335.704 904.068 335.092 902.604 335.092 901.092C335.092 898.404 335.788 896.448 337.18 895.224C338.596 893.976 340.66 893.352 343.372 893.352C345.028 893.352 346.648 893.748 348.232 894.54C349.072 894.876 349.468 895.224 349.42 895.584C349.396 895.728 349.372 895.944 349.348 896.232C348.892 897.528 348.544 898.272 348.304 898.464C348.232 898.512 348.064 898.536 347.8 898.536C347.56 898.536 346.9 898.344 345.82 897.96C344.74 897.552 343.816 897.348 343.048 897.348C342.304 897.348 341.68 897.612 341.176 898.14C340.672 898.668 340.42 899.412 340.42 900.372C340.42 901.332 340.852 902.208 341.716 903C342.58 903.768 343.912 904.572 345.712 905.412C347.608 906.396 349.024 907.416 349.96 908.472C350.92 909.528 351.4 910.944 351.4 912.72C351.4 918.624 348.904 921.576 343.912 921.576C340.192 921.576 337.348 920.508 335.38 918.372ZM378.547 916.644H379.843V898.248H378.763C378.283 898.224 377.959 898.068 377.791 897.78C377.623 897.444 377.539 896.832 377.539 895.944C377.539 894.6 377.935 893.928 378.727 893.928H385.099C386.155 893.928 386.683 894.3 386.683 895.044C386.683 897.18 386.263 898.248 385.423 898.248H384.523L384.883 905.448L384.919 916.644H385.999C386.839 916.668 387.259 917.052 387.259 917.796C387.211 919.932 386.623 921 385.495 921H378.691C378.259 920.976 377.959 920.82 377.791 920.532C377.623 920.196 377.539 919.572 377.539 918.66C377.539 917.316 377.875 916.644 378.547 916.644ZM411.026 916.752C411.626 916.752 411.926 917.136 411.926 917.904C411.926 918.672 411.914 919.248 411.89 919.632C411.794 920.496 411.41 920.988 410.738 921.108C408.602 921.42 407.018 921.576 405.986 921.576C402.41 921.576 399.95 920.568 398.606 918.552C397.262 916.536 396.59 912.9 396.59 907.644C396.59 903.804 396.878 900.876 397.454 898.86C398.054 896.82 399.002 895.392 400.298 894.576C401.618 893.76 403.574 893.352 406.166 893.352C408.782 893.352 410.69 893.76 411.89 894.576C412.13 894.744 412.25 894.948 412.25 895.188C412.25 895.428 412.13 895.884 411.89 896.556C411.674 897.204 411.458 897.672 411.242 897.96C411.05 898.224 410.846 898.356 410.63 898.356C410.414 898.356 410.246 898.344 410.126 898.32C408.326 897.96 406.766 897.78 405.446 897.78C404.15 897.78 403.298 898.5 402.89 899.94C402.506 901.38 402.314 903.72 402.314 906.96C402.314 910.176 402.398 912.42 402.566 913.692C402.734 914.964 403.046 915.852 403.502 916.356C403.958 916.86 404.678 917.112 405.662 917.112C406.67 917.112 407.798 917.052 409.046 916.932C410.318 916.812 410.978 916.752 411.026 916.752ZM422.188 918.372C421.684 917.748 421.432 917.28 421.432 916.968C421.432 916.632 421.708 916.188 422.26 915.636C422.836 915.06 423.208 914.748 423.376 914.7C423.568 914.652 423.748 914.628 423.916 914.628C424.084 914.628 424.36 914.736 424.744 914.952C426.52 916.344 428.08 917.04 429.424 917.04C430.768 917.04 431.644 916.728 432.052 916.104C432.46 915.48 432.664 914.664 432.664 913.656C432.664 912.648 432.304 911.832 431.584 911.208C430.864 910.584 429.676 909.828 428.02 908.94C426.388 908.052 424.96 906.9 423.736 905.484C422.512 904.068 421.9 902.604 421.9 901.092C421.9 898.404 422.596 896.448 423.988 895.224C425.404 893.976 427.468 893.352 430.18 893.352C431.836 893.352 433.456 893.748 435.04 894.54C435.88 894.876 436.276 895.224 436.228 895.584C436.204 895.728 436.18 895.944 436.156 896.232C435.7 897.528 435.352 898.272 435.112 898.464C435.04 898.512 434.872 898.536 434.608 898.536C434.368 898.536 433.708 898.344 432.628 897.96C431.548 897.552 430.624 897.348 429.856 897.348C429.112 897.348 428.488 897.612 427.984 898.14C427.48 898.668 427.228 899.412 427.228 900.372C427.228 901.332 427.66 902.208 428.524 903C429.388 903.768 430.72 904.572 432.52 905.412C434.416 906.396 435.832 907.416 436.768 908.472C437.728 909.528 438.208 910.944 438.208 912.72C438.208 918.624 435.712 921.576 430.72 921.576C427 921.576 424.156 920.508 422.188 918.372ZM465.355 916.644H466.651V898.248H465.571C465.091 898.224 464.767 898.068 464.599 897.78C464.431 897.444 464.347 896.832 464.347 895.944C464.347 894.6 464.743 893.928 465.535 893.928H471.907C472.963 893.928 473.491 894.3 473.491 895.044C473.491 897.18 473.071 898.248 472.231 898.248H471.331L471.691 905.448L471.727 916.644H472.807C473.647 916.668 474.067 917.052 474.067 917.796C474.019 919.932 473.431 921 472.303 921H465.499C465.067 920.976 464.767 920.82 464.599 920.532C464.431 920.196 464.347 919.572 464.347 918.66C464.347 917.316 464.683 916.644 465.355 916.644ZM497.834 916.752C498.434 916.752 498.734 917.136 498.734 917.904C498.734 918.672 498.722 919.248 498.698 919.632C498.602 920.496 498.218 920.988 497.546 921.108C495.41 921.42 493.826 921.576 492.794 921.576C489.218 921.576 486.758 920.568 485.414 918.552C484.07 916.536 483.398 912.9 483.398 907.644C483.398 903.804 483.686 900.876 484.262 898.86C484.862 896.82 485.81 895.392 487.106 894.576C488.426 893.76 490.382 893.352 492.974 893.352C495.59 893.352 497.498 893.76 498.698 894.576C498.938 894.744 499.058 894.948 499.058 895.188C499.058 895.428 498.938 895.884 498.698 896.556C498.482 897.204 498.266 897.672 498.05 897.96C497.858 898.224 497.654 898.356 497.438 898.356C497.222 898.356 497.054 898.344 496.934 898.32C495.134 897.96 493.574 897.78 492.254 897.78C490.958 897.78 490.106 898.5 489.698 899.94C489.314 901.38 489.122 903.72 489.122 906.96C489.122 910.176 489.206 912.42 489.374 913.692C489.542 914.964 489.854 915.852 490.31 916.356C490.766 916.86 491.486 917.112 492.47 917.112C493.478 917.112 494.606 917.052 495.854 916.932C497.126 916.812 497.786 916.752 497.834 916.752ZM508.996 918.372C508.492 917.748 508.24 917.28 508.24 916.968C508.24 916.632 508.516 916.188 509.068 915.636C509.644 915.06 510.016 914.748 510.184 914.7C510.376 914.652 510.556 914.628 510.724 914.628C510.892 914.628 511.168 914.736 511.552 914.952C513.328 916.344 514.888 917.04 516.232 917.04C517.576 917.04 518.452 916.728 518.86 916.104C519.268 915.48 519.472 914.664 519.472 913.656C519.472 912.648 519.112 911.832 518.392 911.208C517.672 910.584 516.484 909.828 514.828 908.94C513.196 908.052 511.768 906.9 510.544 905.484C509.32 904.068 508.708 902.604 508.708 901.092C508.708 898.404 509.404 896.448 510.796 895.224C512.212 893.976 514.276 893.352 516.988 893.352C518.644 893.352 520.264 893.748 521.848 894.54C522.688 894.876 523.084 895.224 523.036 895.584C523.012 895.728 522.988 895.944 522.964 896.232C522.508 897.528 522.16 898.272 521.92 898.464C521.848 898.512 521.68 898.536 521.416 898.536C521.176 898.536 520.516 898.344 519.436 897.96C518.356 897.552 517.432 897.348 516.664 897.348C515.92 897.348 515.296 897.612 514.792 898.14C514.288 898.668 514.036 899.412 514.036 900.372C514.036 901.332 514.468 902.208 515.332 903C516.196 903.768 517.528 904.572 519.328 905.412C521.224 906.396 522.64 907.416 523.576 908.472C524.536 909.528 525.016 910.944 525.016 912.72C525.016 918.624 522.52 921.576 517.528 921.576C513.808 921.576 510.964 920.508 508.996 918.372ZM552.163 916.644H553.459V898.248H552.379C551.899 898.224 551.575 898.068 551.407 897.78C551.239 897.444 551.155 896.832 551.155 895.944C551.155 894.6 551.551 893.928 552.343 893.928H558.715C559.771 893.928 560.299 894.3 560.299 895.044C560.299 897.18 559.879 898.248 559.039 898.248H558.139L558.499 905.448L558.535 916.644H559.615C560.455 916.668 560.875 917.052 560.875 917.796C560.827 919.932 560.239 921 559.111 921H552.307C551.875 920.976 551.575 920.82 551.407 920.532C551.239 920.196 551.155 919.572 551.155 918.66C551.155 917.316 551.491 916.644 552.163 916.644ZM584.642 916.752C585.242 916.752 585.542 917.136 585.542 917.904C585.542 918.672 585.53 919.248 585.506 919.632C585.41 920.496 585.026 920.988 584.354 921.108C582.218 921.42 580.634 921.576 579.602 921.576C576.026 921.576 573.566 920.568 572.222 918.552C570.878 916.536 570.206 912.9 570.206 907.644C570.206 903.804 570.494 900.876 571.07 898.86C571.67 896.82 572.618 895.392 573.914 894.576C575.234 893.76 577.19 893.352 579.782 893.352C582.398 893.352 584.306 893.76 585.506 894.576C585.746 894.744 585.866 894.948 585.866 895.188C585.866 895.428 585.746 895.884 585.506 896.556C585.29 897.204 585.074 897.672 584.858 897.96C584.666 898.224 584.462 898.356 584.246 898.356C584.03 898.356 583.862 898.344 583.742 898.32C581.942 897.96 580.382 897.78 579.062 897.78C577.766 897.78 576.914 898.5 576.506 899.94C576.122 901.38 575.93 903.72 575.93 906.96C575.93 910.176 576.014 912.42 576.182 913.692C576.35 914.964 576.662 915.852 577.118 916.356C577.574 916.86 578.294 917.112 579.278 917.112C580.286 917.112 581.414 917.052 582.662 916.932C583.934 916.812 584.594 916.752 584.642 916.752ZM595.804 918.372C595.3 917.748 595.048 917.28 595.048 916.968C595.048 916.632 595.324 916.188 595.876 915.636C596.452 915.06 596.824 914.748 596.992 914.7C597.184 914.652 597.364 914.628 597.532 914.628C597.7 914.628 597.976 914.736 598.36 914.952C600.136 916.344 601.696 917.04 603.04 917.04C604.384 917.04 605.26 916.728 605.668 916.104C606.076 915.48 606.28 914.664 606.28 913.656C606.28 912.648 605.92 911.832 605.2 911.208C604.48 910.584 603.292 909.828 601.636 908.94C600.004 908.052 598.576 906.9 597.352 905.484C596.128 904.068 595.516 902.604 595.516 901.092C595.516 898.404 596.212 896.448 597.604 895.224C599.02 893.976 601.084 893.352 603.796 893.352C605.452 893.352 607.072 893.748 608.656 894.54C609.496 894.876 609.892 895.224 609.844 895.584C609.82 895.728 609.796 895.944 609.772 896.232C609.316 897.528 608.968 898.272 608.728 898.464C608.656 898.512 608.488 898.536 608.224 898.536C607.984 898.536 607.324 898.344 606.244 897.96C605.164 897.552 604.24 897.348 603.472 897.348C602.728 897.348 602.104 897.612 601.6 898.14C601.096 898.668 600.844 899.412 600.844 900.372C600.844 901.332 601.276 902.208 602.14 903C603.004 903.768 604.336 904.572 606.136 905.412C608.032 906.396 609.448 907.416 610.384 908.472C611.344 909.528 611.824 910.944 611.824 912.72C611.824 918.624 609.328 921.576 604.336 921.576C600.616 921.576 597.772 920.508 595.804 918.372ZM638.971 916.644H640.267V898.248H639.187C638.707 898.224 638.383 898.068 638.215 897.78C638.047 897.444 637.963 896.832 637.963 895.944C637.963 894.6 638.359 893.928 639.151 893.928H645.523C646.579 893.928 647.107 894.3 647.107 895.044C647.107 897.18 646.687 898.248 645.847 898.248H644.947L645.307 905.448L645.343 916.644H646.423C647.263 916.668 647.683 917.052 647.683 917.796C647.635 919.932 647.047 921 645.919 921H639.115C638.683 920.976 638.383 920.82 638.215 920.532C638.047 920.196 637.963 919.572 637.963 918.66C637.963 917.316 638.299 916.644 638.971 916.644ZM671.45 916.752C672.05 916.752 672.35 917.136 672.35 917.904C672.35 918.672 672.338 919.248 672.314 919.632C672.218 920.496 671.834 920.988 671.162 921.108C669.026 921.42 667.442 921.576 666.41 921.576C662.834 921.576 660.374 920.568 659.03 918.552C657.686 916.536 657.014 912.9 657.014 907.644C657.014 903.804 657.302 900.876 657.878 898.86C658.478 896.82 659.426 895.392 660.722 894.576C662.042 893.76 663.998 893.352 666.59 893.352C669.206 893.352 671.114 893.76 672.314 894.576C672.554 894.744 672.674 894.948 672.674 895.188C672.674 895.428 672.554 895.884 672.314 896.556C672.098 897.204 671.882 897.672 671.666 897.96C671.474 898.224 671.27 898.356 671.054 898.356C670.838 898.356 670.67 898.344 670.55 898.32C668.75 897.96 667.19 897.78 665.87 897.78C664.574 897.78 663.722 898.5 663.314 899.94C662.93 901.38 662.738 903.72 662.738 906.96C662.738 910.176 662.822 912.42 662.99 913.692C663.158 914.964 663.47 915.852 663.926 916.356C664.382 916.86 665.102 917.112 666.086 917.112C667.094 917.112 668.222 917.052 669.47 916.932C670.742 916.812 671.402 916.752 671.45 916.752ZM682.612 918.372C682.108 917.748 681.856 917.28 681.856 916.968C681.856 916.632 682.132 916.188 682.684 915.636C683.26 915.06 683.632 914.748 683.8 914.7C683.992 914.652 684.172 914.628 684.34 914.628C684.508 914.628 684.784 914.736 685.168 914.952C686.944 916.344 688.504 917.04 689.848 917.04C691.192 917.04 692.068 916.728 692.476 916.104C692.884 915.48 693.088 914.664 693.088 913.656C693.088 912.648 692.728 911.832 692.008 911.208C691.288 910.584 690.1 909.828 688.444 908.94C686.812 908.052 685.384 906.9 684.16 905.484C682.936 904.068 682.324 902.604 682.324 901.092C682.324 898.404 683.02 896.448 684.412 895.224C685.828 893.976 687.892 893.352 690.604 893.352C692.26 893.352 693.88 893.748 695.464 894.54C696.304 894.876 696.7 895.224 696.652 895.584C696.628 895.728 696.604 895.944 696.58 896.232C696.124 897.528 695.776 898.272 695.536 898.464C695.464 898.512 695.296 898.536 695.032 898.536C694.792 898.536 694.132 898.344 693.052 897.96C691.972 897.552 691.048 897.348 690.28 897.348C689.536 897.348 688.912 897.612 688.408 898.14C687.904 898.668 687.652 899.412 687.652 900.372C687.652 901.332 688.084 902.208 688.948 903C689.812 903.768 691.144 904.572 692.944 905.412C694.84 906.396 696.256 907.416 697.192 908.472C698.152 909.528 698.632 910.944 698.632 912.72C698.632 918.624 696.136 921.576 691.144 921.576C687.424 921.576 684.58 920.508 682.612 918.372ZM725.779 916.644H727.075V898.248H725.995C725.515 898.224 725.191 898.068 725.023 897.78C724.855 897.444 724.771 896.832 724.771 895.944C724.771 894.6 725.167 893.928 725.959 893.928H732.331C733.387 893.928 733.915 894.3 733.915 895.044C733.915 897.18 733.495 898.248 732.655 898.248H731.755L732.115 905.448L732.151 916.644H733.231C734.071 916.668 734.491 917.052 734.491 917.796C734.443 919.932 733.855 921 732.727 921H725.923C725.491 920.976 725.191 920.82 725.023 920.532C724.855 920.196 724.771 919.572 724.771 918.66C724.771 917.316 725.107 916.644 725.779 916.644ZM758.258 916.752C758.858 916.752 759.158 917.136 759.158 917.904C759.158 918.672 759.146 919.248 759.122 919.632C759.026 920.496 758.642 920.988 757.97 921.108C755.834 921.42 754.25 921.576 753.218 921.576C749.642 921.576 747.182 920.568 745.838 918.552C744.494 916.536 743.822 912.9 743.822 907.644C743.822 903.804 744.11 900.876 744.686 898.86C745.286 896.82 746.234 895.392 747.53 894.576C748.85 893.76 750.806 893.352 753.398 893.352C756.014 893.352 757.922 893.76 759.122 894.576C759.362 894.744 759.482 894.948 759.482 895.188C759.482 895.428 759.362 895.884 759.122 896.556C758.906 897.204 758.69 897.672 758.474 897.96C758.282 898.224 758.078 898.356 757.862 898.356C757.646 898.356 757.478 898.344 757.358 898.32C755.558 897.96 753.998 897.78 752.678 897.78C751.382 897.78 750.53 898.5 750.122 899.94C749.738 901.38 749.546 903.72 749.546 906.96C749.546 910.176 749.63 912.42 749.798 913.692C749.966 914.964 750.278 915.852 750.734 916.356C751.19 916.86 751.91 917.112 752.894 917.112C753.902 917.112 755.03 917.052 756.278 916.932C757.55 916.812 758.21 916.752 758.258 916.752ZM769.419 918.372C768.915 917.748 768.663 917.28 768.663 916.968C768.663 916.632 768.939 916.188 769.491 915.636C770.067 915.06 770.439 914.748 770.607 914.7C770.799 914.652 770.979 914.628 771.147 914.628C771.315 914.628 771.591 914.736 771.975 914.952C773.751 916.344 775.311 917.04 776.655 917.04C777.999 917.04 778.875 916.728 779.283 916.104C779.691 915.48 779.895 914.664 779.895 913.656C779.895 912.648 779.535 911.832 778.815 911.208C778.095 910.584 776.907 909.828 775.251 908.94C773.619 908.052 772.191 906.9 770.967 905.484C769.743 904.068 769.131 902.604 769.131 901.092C769.131 898.404 769.827 896.448 771.219 895.224C772.635 893.976 774.699 893.352 777.411 893.352C779.067 893.352 780.687 893.748 782.271 894.54C783.111 894.876 783.507 895.224 783.459 895.584C783.435 895.728 783.411 895.944 783.387 896.232C782.931 897.528 782.583 898.272 782.343 898.464C782.271 898.512 782.103 898.536 781.839 898.536C781.599 898.536 780.939 898.344 779.859 897.96C778.779 897.552 777.855 897.348 777.087 897.348C776.343 897.348 775.719 897.612 775.215 898.14C774.711 898.668 774.459 899.412 774.459 900.372C774.459 901.332 774.891 902.208 775.755 903C776.619 903.768 777.951 904.572 779.751 905.412C781.647 906.396 783.063 907.416 783.999 908.472C784.959 909.528 785.439 910.944 785.439 912.72C785.439 918.624 782.943 921.576 777.951 921.576C774.231 921.576 771.387 920.508 769.419 918.372Z" fill="#140504"/>
</g>
<defs>
<clipPath id="clip0_426_36">
<rect width="906" height="943" fill="white"/>
</clipPath>
</defs>
</svg>
