<svg width="906" height="943" viewBox="0 0 906 943" fill="none" xmlns="http://www.w3.org/2000/svg">
<g clip-path="url(#clip0_426_19)">
<path d="M103.23 214.61C103.37 214.62 103.52 214.64 103.66 214.66C103.87 213.11 104.07 211.56 104.28 210.01C103.95 211.56 103.6 213.09 103.23 214.61Z" fill="#D8D2CD"/>
<path d="M809.6 870.46L745 870.45C765 870.831 751.5 870.78 751.5 870.46V324.92C751.5 324.42 751.5 321 751.5 321C742 330 750 334.477 741.5 334.51L177.5 324.92C177.76 336.94 168.39 318.78 168.36 330.8C168.36 332.45 167.67 333.69 166.66 334.51V869.35C166.66 869.74 166.66 870.07 166.73 870.46H94.24C89.69 870.46 86 874.15 86 878.7V933.77C86 938.32 89.69 942.01 94.24 942.01H809.6C814.15 942.01 817.84 938.32 817.84 933.77V878.7C817.84 874.15 814.15 870.46 809.6 870.46ZM395.31 398.82C395.31 394.27 393.95 327.352 398.5 327.352L518.88 328.677V450.57C518.88 455.12 515.19 458.81 510.64 458.81H403.55C399 458.81 395.31 455.12 395.31 450.57V398.82ZM562.06 870.45C555.2 870.45 551.34 862.56 555.56 857.15L569.46 839.31C573.68 833.9 569.82 826.01 562.96 826.01H355.23C348.23 826.01 344.42 834.18 348.92 839.55L363.49 856.92C367.99 862.28 364.17 870.46 357.17 870.46L188.47 870.4C187 870.5 178.358 870.4 177.5 870.4V324.92C177.5 320.37 194.95 324.92 199.5 324.92L237 325.575C241.55 325.575 238.782 325.594 245.5 325.668L249 325.707C253.5 325.756 256.45 325.839 261 325.839L383.59 327.188V456.42C383.59 464.21 389.9 470.52 397.69 470.52H408.88C413.43 470.52 417.12 474.21 417.12 478.76V498.41C417.12 502.96 420.81 506.65 425.36 506.65H434.34C438.89 506.65 442.58 502.96 442.58 498.41V478.76C442.58 474.21 446.27 470.52 450.82 470.52H463.38C467.93 470.52 471.62 474.21 471.62 478.76V498.41C471.62 502.96 475.31 506.65 479.86 506.65H488.84C493.39 506.65 497.08 502.96 497.08 498.41V478.76C497.08 474.21 500.77 470.52 505.32 470.52H516.44C524.23 470.52 530.54 464.21 530.54 456.42V328.805L621 329.8C625.55 329.8 653 330.153 660 330.23L661.68 330.698C667.5 330.312 675.45 330.45 680 330.45L702.5 330.698C707.05 330.698 735.5 334.444 741.5 334.51V870.46C738.5 870.46 729.5 870.5 728 870.46L562.06 870.45Z" fill="#D8D2CD"/>
<path d="M132 299.89C132.12 298.18 132.21 296.46 132.3 294.74H131.25C131.53 296.46 131.78 298.17 132 299.89Z" fill="#D8D2CD"/>
<path d="M648 602.5C642.47 596.97 630.96 595.5 622.5 595.5H590.59C586.04 595.5 582.35 588.06 582.35 583.51C582.35 578.82 580.47 573.13 577.35 570.01C574.23 566.95 566.54 566.88 561.85 566.88H342.85C338.1 566.88 336.97 569.45 333.85 572.51C330.79 575.63 330.85 579.52 330.85 583.51V638.01C330.85 708.26 356.63 744.93 402.85 764.01C420.88 771.5 436.98 775.67 456.71 775.54C476.44 775.41 496.69 771.43 514.85 764.01C548.42 750.36 564.89 730.46 577.92 694.01C579.1 690.72 582.2 688.51 585.69 688.51H632.36C642.06 688.51 638.62 685.38 645 679C651.32 672.62 652.35 667.91 652.35 658.28V620.42C652.35 612.35 652.35 615.99 652.35 609C652.5 608.5 648.19 602.7 648 602.5ZM567 595.5V647C567 703.97 547.89 730.9 507 747.5C491.11 753.95 473.77 756.93 456.71 757C439.65 757.13 424.06 753.95 408.5 747.5C369.37 731.35 347.5 698.68 347.5 638.01V595.5C347.5 590.95 342.95 579.5 347.5 579.5H567C562.45 579.5 567 590.95 567 595.5ZM636.72 622.41V658.28C636.72 662.32 635.03 666.33 632.36 669C629.69 671.67 624.89 673.12 620.85 673.12H590.59C586.04 673.12 582.35 669.43 582.35 664.88V620.42C582.35 615.87 586.04 612.18 590.59 612.18H630.06C631.54 612.18 632.99 612.58 634.26 613.33C634.82 613.66 635.3 613.95 635.35 614C637.04 615.83 636.72 619.74 636.72 622.41Z" fill="#D8D2CD"/>
<path fill-rule="evenodd" clip-rule="evenodd" d="M660.92 725.67C660.7 722.16 658.09 719.28 654.45 718.52C652.87 718.13 651.57 717.86 651.57 717.86C651.57 717.86 607.14 708.88 552.55 750.3C530.34 767.15 498.47 779.2 471.93 778.64C468.38 778.55 465.04 780.49 463.47 783.53C461.9 786.58 462.41 790.13 464.77 792.53C483.07 811.22 520.14 835.74 576.68 818.94C627.65 803.78 662.61 763.76 660.92 725.67ZM647 729.5C642.56 761.07 612.62 793.7 573 805.5C541.53 814.87 503.02 804.03 484.5 792.53C505.2 790.35 535.34 778.08 560.5 759C592.55 734.67 632.89 729.94 647 729.5Z" fill="#D8D2CD"/>
<path fill-rule="evenodd" clip-rule="evenodd" d="M263.319 728.65C263.489 725.17 266.039 722.27 269.639 721.47C271.199 721.06 272.489 720.78 272.489 720.78C272.489 720.78 316.419 711.28 371.099 751.63C393.339 768.04 425.109 779.57 451.409 778.66C454.929 778.53 458.269 780.4 459.869 783.4C461.469 786.4 461.009 789.93 458.699 792.34C440.799 811.12 404.359 835.92 348.079 820.01C297.349 805.66 262.149 766.45 263.319 728.65ZM276.5 732.5C281.32 763.75 313.56 794.33 353 805.5C384.33 814.38 418.78 803.99 437 792.34C416.44 790.46 386.7 778.09 361.5 759.5C329.4 735.81 290.5 732.75 276.5 732.5Z" fill="#D8D2CD"/>
<path d="M599.85 855.51H310.85V870.51H599.85V855.51Z" fill="#140504"/>
<path d="M116.58 915.03C117.21 915.03 117.53 915.44 117.53 916.25C117.53 917.06 117.52 917.67 117.49 918.07C117.39 918.98 116.98 919.5 116.27 919.63C114.02 919.96 112.34 920.12 111.25 920.12C107.48 920.12 104.88 919.06 103.46 916.93C102.04 914.8 101.33 910.96 101.33 905.42C101.33 901.37 101.63 898.28 102.24 896.15C102.87 894 103.87 892.49 105.24 891.63C106.63 890.77 108.7 890.34 111.43 890.34C114.19 890.34 116.21 890.77 117.47 891.63C117.72 891.81 117.85 892.02 117.85 892.28C117.85 892.53 117.72 893.01 117.47 893.72C117.24 894.4 117.01 894.9 116.79 895.2C116.59 895.48 116.37 895.62 116.14 895.62C115.91 895.62 115.73 895.61 115.61 895.58C113.71 895.2 112.06 895.01 110.67 895.01C109.3 895.01 108.4 895.77 107.97 897.29C107.56 898.81 107.36 901.28 107.36 904.7C107.36 908.1 107.45 910.46 107.63 911.81C107.81 913.15 108.14 914.09 108.62 914.62C109.1 915.15 109.86 915.42 110.9 915.42C111.96 915.42 113.15 915.36 114.47 915.23C115.83 915.09 116.53 915.03 116.58 915.03Z" fill="#D8D2CD"/>
<path d="M586.18 402H678.18C689.23 402 698.18 407.46 698.18 418.51V431.51C698.18 442.56 689.23 447 678.18 447H586.18C575.13 447 566.18 442.56 566.18 431.51V418.51C566.18 407.46 575.13 402 586.18 402Z" fill="#D8D2CD"/>
<path d="M607.18 417.51H530.18V433.51H607.18V417.51Z" fill="#D8D2CD"/>
<path d="M892 273H28V389H892V273Z" fill="#140504"/>
<path d="M873.642 195.024C859.641 195.024 842.082 199.904 819.846 206.07C798.445 212.013 774.193 218.76 746.419 223.088C732.794 225.206 722.726 225.277 712.429 223.325C713.346 218.473 709.715 213.614 709.715 208.812V100.236C709.715 44.9679 656.35 0.0071737 585.747 0.0071737H583.061L580.796 1.14125C580.191 1.44989 518.794 31.8328 450.877 32.5721L448.521 32.5865C382.228 32.5865 326.13 1.65804 325.571 1.34222L323.169 0H320.234C249.622 0 196.047 44.9679 196.047 100.236V208.812C196.047 213.441 192.59 218.071 193.406 222.658C178.965 226.096 165.733 226.512 154.373 223.863C139.06 220.289 124.93 216.643 111.277 213.126C79.5062 204.95 54.4192 198.498 35.7599 198.498C19.4479 198.498 0 203.881 0 229.512C0 277.007 200.879 398 452.995 398C694.274 398 906 292.991 906 229.512C906 220.985 906 195.024 873.642 195.024ZM317.456 14.384C329.761 20.8151 383.722 46.9346 448.53 46.9346L451.143 46.9202C517.262 46.2024 575.771 20.3055 588.305 14.3768C647.639 15.4391 695.475 53.5452 695.475 100.236V208.812C695.475 209.027 695.429 209.257 695.429 209.472C656.864 232.799 561.192 249.243 453.005 249.243C342.571 249.243 248.366 232.125 211.451 208.029C211.13 208.238 210.855 208.467 210.543 208.675V100.243C210.534 53.617 258.251 15.5468 317.456 14.384ZM453.005 383.645C213.918 383.645 18.3476 267.281 18.3476 229.527C18.3476 215.509 24.4726 212.86 35.7691 212.86C51.4851 212.86 76.5445 219.306 105.556 226.777C118.695 230.158 133.586 233.984 149.146 237.616C163.212 240.91 179.12 240.63 196.047 236.955C208.939 269.212 319.043 294.391 453.005 294.391C586.132 294.391 695.686 269.52 709.715 237.558C721.855 239.69 734.463 239.604 750.023 237.164C779.089 232.627 805.102 225.399 826.008 219.6C845.758 214.116 862.813 209.379 873.66 209.379C879.584 209.379 887.68 209.379 887.68 229.527C887.662 274.214 699.537 383.645 453.005 383.645Z" fill="#D8D2CD"/>
<path d="M180 339H166V878H180V339Z" fill="#D8D2CD"/>
<path d="M753 339H739V877H753V339Z" fill="#D8D2CD"/>
<path d="M353.552 182.512H358.16V117.104H354.32C352.613 117.019 351.461 116.464 350.864 115.44C350.267 114.245 349.968 112.069 349.968 108.912C349.968 104.133 351.376 101.744 354.192 101.744H376.848C380.603 101.744 382.48 103.067 382.48 105.712C382.48 113.307 380.987 117.104 378 117.104H374.8L376.08 142.704L376.208 182.512H380.048C383.035 182.597 384.528 183.963 384.528 186.608C384.357 194.203 382.267 198 378.256 198H354.064C352.528 197.915 351.461 197.36 350.864 196.336C350.267 195.141 349.968 192.923 349.968 189.68C349.968 184.901 351.163 182.512 353.552 182.512ZM469.033 182.896C471.166 182.896 472.233 184.261 472.233 186.992C472.233 189.723 472.19 191.771 472.105 193.136C471.764 196.208 470.398 197.957 468.009 198.384C460.414 199.493 454.782 200.048 451.113 200.048C438.398 200.048 429.652 196.464 424.873 189.296C420.094 182.128 417.705 169.2 417.705 150.512C417.705 136.859 418.729 126.448 420.777 119.28C422.91 112.027 426.281 106.949 430.889 104.048C435.582 101.147 442.537 99.696 451.753 99.696C461.054 99.696 467.838 101.147 472.105 104.048C472.958 104.645 473.385 105.371 473.385 106.224C473.385 107.077 472.958 108.699 472.105 111.088C471.337 113.392 470.569 115.056 469.801 116.08C469.118 117.019 468.393 117.488 467.625 117.488C466.857 117.488 466.26 117.445 465.833 117.36C459.433 116.08 453.886 115.44 449.193 115.44C444.585 115.44 441.556 118 440.105 123.12C438.74 128.24 438.057 136.56 438.057 148.08C438.057 159.515 438.356 167.493 438.953 172.016C439.55 176.539 440.66 179.696 442.281 181.488C443.902 183.28 446.462 184.176 449.961 184.176C453.545 184.176 457.556 183.963 461.993 183.536C466.516 183.109 468.862 182.896 469.033 182.896ZM508.719 188.656C506.927 186.437 506.031 184.773 506.031 183.664C506.031 182.469 507.012 180.891 508.975 178.928C511.023 176.88 512.346 175.771 512.943 175.6C513.626 175.429 514.266 175.344 514.863 175.344C515.46 175.344 516.442 175.728 517.807 176.496C524.122 181.445 529.668 183.92 534.447 183.92C539.226 183.92 542.34 182.811 543.791 180.592C545.242 178.373 545.967 175.472 545.967 171.888C545.967 168.304 544.687 165.403 542.127 163.184C539.567 160.965 535.343 158.277 529.455 155.12C523.652 151.963 518.575 147.867 514.223 142.832C509.871 137.797 507.695 132.592 507.695 127.216C507.695 117.659 510.17 110.704 515.119 106.352C520.154 101.915 527.492 99.696 537.135 99.696C543.023 99.696 548.783 101.104 554.415 103.92C557.402 105.115 558.81 106.352 558.639 107.632C558.554 108.144 558.468 108.912 558.383 109.936C556.762 114.544 555.524 117.189 554.671 117.872C554.415 118.043 553.818 118.128 552.879 118.128C552.026 118.128 549.679 117.445 545.839 116.08C541.999 114.629 538.714 113.904 535.983 113.904C533.338 113.904 531.119 114.843 529.327 116.72C527.535 118.597 526.639 121.243 526.639 124.656C526.639 128.069 528.175 131.184 531.247 134C534.319 136.731 539.055 139.589 545.455 142.576C552.196 146.075 557.231 149.701 560.559 153.456C563.972 157.211 565.679 162.245 565.679 168.56C565.679 189.552 556.804 200.048 539.055 200.048C525.828 200.048 515.716 196.251 508.719 188.656Z" fill="#D8D2CD"/>
<path d="M119.124 914.644H120.42V896.248H119.34C118.86 896.224 118.536 896.068 118.368 895.78C118.2 895.444 118.116 894.832 118.116 893.944C118.116 892.6 118.512 891.928 119.304 891.928H125.676C126.732 891.928 127.26 892.3 127.26 893.044C127.26 895.18 126.84 896.248 126 896.248H125.1L125.46 903.448L125.496 914.644H126.576C127.416 914.668 127.836 915.052 127.836 915.796C127.788 917.932 127.2 919 126.072 919H119.268C118.836 918.976 118.536 918.82 118.368 918.532C118.2 918.196 118.116 917.572 118.116 916.66C118.116 915.316 118.452 914.644 119.124 914.644ZM151.603 914.752C152.203 914.752 152.503 915.136 152.503 915.904C152.503 916.672 152.491 917.248 152.467 917.632C152.371 918.496 151.987 918.988 151.315 919.108C149.179 919.42 147.595 919.576 146.563 919.576C142.987 919.576 140.527 918.568 139.183 916.552C137.839 914.536 137.167 910.9 137.167 905.644C137.167 901.804 137.455 898.876 138.031 896.86C138.631 894.82 139.579 893.392 140.875 892.576C142.195 891.76 144.151 891.352 146.743 891.352C149.359 891.352 151.267 891.76 152.467 892.576C152.707 892.744 152.827 892.948 152.827 893.188C152.827 893.428 152.707 893.884 152.467 894.556C152.251 895.204 152.035 895.672 151.819 895.96C151.627 896.224 151.423 896.356 151.207 896.356C150.991 896.356 150.823 896.344 150.703 896.32C148.903 895.96 147.343 895.78 146.023 895.78C144.727 895.78 143.875 896.5 143.467 897.94C143.083 899.38 142.891 901.72 142.891 904.96C142.891 908.176 142.975 910.42 143.143 911.692C143.311 912.964 143.623 913.852 144.079 914.356C144.535 914.86 145.255 915.112 146.239 915.112C147.247 915.112 148.375 915.052 149.623 914.932C150.895 914.812 151.555 914.752 151.603 914.752ZM162.765 916.372C162.261 915.748 162.009 915.28 162.009 914.968C162.009 914.632 162.285 914.188 162.837 913.636C163.413 913.06 163.785 912.748 163.953 912.7C164.145 912.652 164.325 912.628 164.493 912.628C164.661 912.628 164.937 912.736 165.321 912.952C167.097 914.344 168.657 915.04 170.001 915.04C171.345 915.04 172.221 914.728 172.629 914.104C173.037 913.48 173.241 912.664 173.241 911.656C173.241 910.648 172.881 909.832 172.161 909.208C171.441 908.584 170.253 907.828 168.597 906.94C166.965 906.052 165.537 904.9 164.313 903.484C163.089 902.068 162.477 900.604 162.477 899.092C162.477 896.404 163.173 894.448 164.565 893.224C165.981 891.976 168.045 891.352 170.757 891.352C172.413 891.352 174.033 891.748 175.617 892.54C176.457 892.876 176.853 893.224 176.805 893.584C176.781 893.728 176.757 893.944 176.733 894.232C176.277 895.528 175.929 896.272 175.689 896.464C175.617 896.512 175.449 896.536 175.185 896.536C174.945 896.536 174.285 896.344 173.205 895.96C172.125 895.552 171.201 895.348 170.433 895.348C169.689 895.348 169.065 895.612 168.561 896.14C168.057 896.668 167.805 897.412 167.805 898.372C167.805 899.332 168.237 900.208 169.101 901C169.965 901.768 171.297 902.572 173.097 903.412C174.993 904.396 176.409 905.416 177.345 906.472C178.305 907.528 178.785 908.944 178.785 910.72C178.785 916.624 176.289 919.576 171.297 919.576C167.577 919.576 164.733 918.508 162.765 916.372ZM205.932 914.644H207.228V896.248H206.148C205.668 896.224 205.344 896.068 205.176 895.78C205.008 895.444 204.924 894.832 204.924 893.944C204.924 892.6 205.32 891.928 206.112 891.928H212.484C213.54 891.928 214.068 892.3 214.068 893.044C214.068 895.18 213.648 896.248 212.808 896.248H211.908L212.268 903.448L212.304 914.644H213.384C214.224 914.668 214.644 915.052 214.644 915.796C214.596 917.932 214.008 919 212.88 919H206.076C205.644 918.976 205.344 918.82 205.176 918.532C205.008 918.196 204.924 917.572 204.924 916.66C204.924 915.316 205.26 914.644 205.932 914.644ZM238.411 914.752C239.011 914.752 239.311 915.136 239.311 915.904C239.311 916.672 239.299 917.248 239.275 917.632C239.179 918.496 238.795 918.988 238.123 919.108C235.987 919.42 234.403 919.576 233.371 919.576C229.795 919.576 227.335 918.568 225.991 916.552C224.647 914.536 223.975 910.9 223.975 905.644C223.975 901.804 224.263 898.876 224.839 896.86C225.439 894.82 226.387 893.392 227.683 892.576C229.003 891.76 230.959 891.352 233.551 891.352C236.167 891.352 238.075 891.76 239.275 892.576C239.515 892.744 239.635 892.948 239.635 893.188C239.635 893.428 239.515 893.884 239.275 894.556C239.059 895.204 238.843 895.672 238.627 895.96C238.435 896.224 238.231 896.356 238.015 896.356C237.799 896.356 237.631 896.344 237.511 896.32C235.711 895.96 234.151 895.78 232.831 895.78C231.535 895.78 230.683 896.5 230.275 897.94C229.891 899.38 229.699 901.72 229.699 904.96C229.699 908.176 229.783 910.42 229.951 911.692C230.119 912.964 230.431 913.852 230.887 914.356C231.343 914.86 232.063 915.112 233.047 915.112C234.055 915.112 235.183 915.052 236.431 914.932C237.703 914.812 238.363 914.752 238.411 914.752ZM249.573 916.372C249.069 915.748 248.817 915.28 248.817 914.968C248.817 914.632 249.093 914.188 249.645 913.636C250.221 913.06 250.593 912.748 250.761 912.7C250.953 912.652 251.133 912.628 251.301 912.628C251.469 912.628 251.745 912.736 252.129 912.952C253.905 914.344 255.465 915.04 256.809 915.04C258.153 915.04 259.029 914.728 259.437 914.104C259.845 913.48 260.049 912.664 260.049 911.656C260.049 910.648 259.689 909.832 258.969 909.208C258.249 908.584 257.061 907.828 255.405 906.94C253.773 906.052 252.345 904.9 251.121 903.484C249.897 902.068 249.285 900.604 249.285 899.092C249.285 896.404 249.981 894.448 251.373 893.224C252.789 891.976 254.853 891.352 257.565 891.352C259.221 891.352 260.841 891.748 262.425 892.54C263.265 892.876 263.661 893.224 263.613 893.584C263.589 893.728 263.565 893.944 263.541 894.232C263.085 895.528 262.737 896.272 262.497 896.464C262.425 896.512 262.257 896.536 261.993 896.536C261.753 896.536 261.093 896.344 260.013 895.96C258.933 895.552 258.009 895.348 257.241 895.348C256.497 895.348 255.873 895.612 255.369 896.14C254.865 896.668 254.613 897.412 254.613 898.372C254.613 899.332 255.045 900.208 255.909 901C256.773 901.768 258.105 902.572 259.905 903.412C261.801 904.396 263.217 905.416 264.153 906.472C265.113 907.528 265.593 908.944 265.593 910.72C265.593 916.624 263.097 919.576 258.105 919.576C254.385 919.576 251.541 918.508 249.573 916.372ZM292.74 914.644H294.036V896.248H292.956C292.476 896.224 292.152 896.068 291.984 895.78C291.816 895.444 291.732 894.832 291.732 893.944C291.732 892.6 292.128 891.928 292.92 891.928H299.292C300.348 891.928 300.876 892.3 300.876 893.044C300.876 895.18 300.456 896.248 299.616 896.248H298.716L299.076 903.448L299.112 914.644H300.192C301.032 914.668 301.452 915.052 301.452 915.796C301.404 917.932 300.816 919 299.688 919H292.884C292.452 918.976 292.152 918.82 291.984 918.532C291.816 918.196 291.732 917.572 291.732 916.66C291.732 915.316 292.068 914.644 292.74 914.644ZM325.219 914.752C325.819 914.752 326.119 915.136 326.119 915.904C326.119 916.672 326.107 917.248 326.083 917.632C325.987 918.496 325.603 918.988 324.931 919.108C322.795 919.42 321.211 919.576 320.179 919.576C316.603 919.576 314.143 918.568 312.799 916.552C311.455 914.536 310.783 910.9 310.783 905.644C310.783 901.804 311.071 898.876 311.647 896.86C312.247 894.82 313.195 893.392 314.491 892.576C315.811 891.76 317.767 891.352 320.359 891.352C322.975 891.352 324.883 891.76 326.083 892.576C326.323 892.744 326.443 892.948 326.443 893.188C326.443 893.428 326.323 893.884 326.083 894.556C325.867 895.204 325.651 895.672 325.435 895.96C325.243 896.224 325.039 896.356 324.823 896.356C324.607 896.356 324.439 896.344 324.319 896.32C322.519 895.96 320.959 895.78 319.639 895.78C318.343 895.78 317.491 896.5 317.083 897.94C316.699 899.38 316.507 901.72 316.507 904.96C316.507 908.176 316.591 910.42 316.759 911.692C316.927 912.964 317.239 913.852 317.695 914.356C318.151 914.86 318.871 915.112 319.855 915.112C320.863 915.112 321.991 915.052 323.239 914.932C324.511 914.812 325.171 914.752 325.219 914.752ZM336.38 916.372C335.876 915.748 335.624 915.28 335.624 914.968C335.624 914.632 335.9 914.188 336.452 913.636C337.028 913.06 337.4 912.748 337.568 912.7C337.76 912.652 337.94 912.628 338.108 912.628C338.276 912.628 338.552 912.736 338.936 912.952C340.712 914.344 342.272 915.04 343.616 915.04C344.96 915.04 345.836 914.728 346.244 914.104C346.652 913.48 346.856 912.664 346.856 911.656C346.856 910.648 346.496 909.832 345.776 909.208C345.056 908.584 343.868 907.828 342.212 906.94C340.58 906.052 339.152 904.9 337.928 903.484C336.704 902.068 336.092 900.604 336.092 899.092C336.092 896.404 336.788 894.448 338.18 893.224C339.596 891.976 341.66 891.352 344.372 891.352C346.028 891.352 347.648 891.748 349.232 892.54C350.072 892.876 350.468 893.224 350.42 893.584C350.396 893.728 350.372 893.944 350.348 894.232C349.892 895.528 349.544 896.272 349.304 896.464C349.232 896.512 349.064 896.536 348.8 896.536C348.56 896.536 347.9 896.344 346.82 895.96C345.74 895.552 344.816 895.348 344.048 895.348C343.304 895.348 342.68 895.612 342.176 896.14C341.672 896.668 341.42 897.412 341.42 898.372C341.42 899.332 341.852 900.208 342.716 901C343.58 901.768 344.912 902.572 346.712 903.412C348.608 904.396 350.024 905.416 350.96 906.472C351.92 907.528 352.4 908.944 352.4 910.72C352.4 916.624 349.904 919.576 344.912 919.576C341.192 919.576 338.348 918.508 336.38 916.372ZM379.547 914.644H380.843V896.248H379.763C379.283 896.224 378.959 896.068 378.791 895.78C378.623 895.444 378.539 894.832 378.539 893.944C378.539 892.6 378.935 891.928 379.727 891.928H386.099C387.155 891.928 387.683 892.3 387.683 893.044C387.683 895.18 387.263 896.248 386.423 896.248H385.523L385.883 903.448L385.919 914.644H386.999C387.839 914.668 388.259 915.052 388.259 915.796C388.211 917.932 387.623 919 386.495 919H379.691C379.259 918.976 378.959 918.82 378.791 918.532C378.623 918.196 378.539 917.572 378.539 916.66C378.539 915.316 378.875 914.644 379.547 914.644ZM412.026 914.752C412.626 914.752 412.926 915.136 412.926 915.904C412.926 916.672 412.914 917.248 412.89 917.632C412.794 918.496 412.41 918.988 411.738 919.108C409.602 919.42 408.018 919.576 406.986 919.576C403.41 919.576 400.95 918.568 399.606 916.552C398.262 914.536 397.59 910.9 397.59 905.644C397.59 901.804 397.878 898.876 398.454 896.86C399.054 894.82 400.002 893.392 401.298 892.576C402.618 891.76 404.574 891.352 407.166 891.352C409.782 891.352 411.69 891.76 412.89 892.576C413.13 892.744 413.25 892.948 413.25 893.188C413.25 893.428 413.13 893.884 412.89 894.556C412.674 895.204 412.458 895.672 412.242 895.96C412.05 896.224 411.846 896.356 411.63 896.356C411.414 896.356 411.246 896.344 411.126 896.32C409.326 895.96 407.766 895.78 406.446 895.78C405.15 895.78 404.298 896.5 403.89 897.94C403.506 899.38 403.314 901.72 403.314 904.96C403.314 908.176 403.398 910.42 403.566 911.692C403.734 912.964 404.046 913.852 404.502 914.356C404.958 914.86 405.678 915.112 406.662 915.112C407.67 915.112 408.798 915.052 410.046 914.932C411.318 914.812 411.978 914.752 412.026 914.752ZM423.188 916.372C422.684 915.748 422.432 915.28 422.432 914.968C422.432 914.632 422.708 914.188 423.26 913.636C423.836 913.06 424.208 912.748 424.376 912.7C424.568 912.652 424.748 912.628 424.916 912.628C425.084 912.628 425.36 912.736 425.744 912.952C427.52 914.344 429.08 915.04 430.424 915.04C431.768 915.04 432.644 914.728 433.052 914.104C433.46 913.48 433.664 912.664 433.664 911.656C433.664 910.648 433.304 909.832 432.584 909.208C431.864 908.584 430.676 907.828 429.02 906.94C427.388 906.052 425.96 904.9 424.736 903.484C423.512 902.068 422.9 900.604 422.9 899.092C422.9 896.404 423.596 894.448 424.988 893.224C426.404 891.976 428.468 891.352 431.18 891.352C432.836 891.352 434.456 891.748 436.04 892.54C436.88 892.876 437.276 893.224 437.228 893.584C437.204 893.728 437.18 893.944 437.156 894.232C436.7 895.528 436.352 896.272 436.112 896.464C436.04 896.512 435.872 896.536 435.608 896.536C435.368 896.536 434.708 896.344 433.628 895.96C432.548 895.552 431.624 895.348 430.856 895.348C430.112 895.348 429.488 895.612 428.984 896.14C428.48 896.668 428.228 897.412 428.228 898.372C428.228 899.332 428.66 900.208 429.524 901C430.388 901.768 431.72 902.572 433.52 903.412C435.416 904.396 436.832 905.416 437.768 906.472C438.728 907.528 439.208 908.944 439.208 910.72C439.208 916.624 436.712 919.576 431.72 919.576C428 919.576 425.156 918.508 423.188 916.372ZM466.355 914.644H467.651V896.248H466.571C466.091 896.224 465.767 896.068 465.599 895.78C465.431 895.444 465.347 894.832 465.347 893.944C465.347 892.6 465.743 891.928 466.535 891.928H472.907C473.963 891.928 474.491 892.3 474.491 893.044C474.491 895.18 474.071 896.248 473.231 896.248H472.331L472.691 903.448L472.727 914.644H473.807C474.647 914.668 475.067 915.052 475.067 915.796C475.019 917.932 474.431 919 473.303 919H466.499C466.067 918.976 465.767 918.82 465.599 918.532C465.431 918.196 465.347 917.572 465.347 916.66C465.347 915.316 465.683 914.644 466.355 914.644ZM498.834 914.752C499.434 914.752 499.734 915.136 499.734 915.904C499.734 916.672 499.722 917.248 499.698 917.632C499.602 918.496 499.218 918.988 498.546 919.108C496.41 919.42 494.826 919.576 493.794 919.576C490.218 919.576 487.758 918.568 486.414 916.552C485.07 914.536 484.398 910.9 484.398 905.644C484.398 901.804 484.686 898.876 485.262 896.86C485.862 894.82 486.81 893.392 488.106 892.576C489.426 891.76 491.382 891.352 493.974 891.352C496.59 891.352 498.498 891.76 499.698 892.576C499.938 892.744 500.058 892.948 500.058 893.188C500.058 893.428 499.938 893.884 499.698 894.556C499.482 895.204 499.266 895.672 499.05 895.96C498.858 896.224 498.654 896.356 498.438 896.356C498.222 896.356 498.054 896.344 497.934 896.32C496.134 895.96 494.574 895.78 493.254 895.78C491.958 895.78 491.106 896.5 490.698 897.94C490.314 899.38 490.122 901.72 490.122 904.96C490.122 908.176 490.206 910.42 490.374 911.692C490.542 912.964 490.854 913.852 491.31 914.356C491.766 914.86 492.486 915.112 493.47 915.112C494.478 915.112 495.606 915.052 496.854 914.932C498.126 914.812 498.786 914.752 498.834 914.752ZM509.996 916.372C509.492 915.748 509.24 915.28 509.24 914.968C509.24 914.632 509.516 914.188 510.068 913.636C510.644 913.06 511.016 912.748 511.184 912.7C511.376 912.652 511.556 912.628 511.724 912.628C511.892 912.628 512.168 912.736 512.552 912.952C514.328 914.344 515.888 915.04 517.232 915.04C518.576 915.04 519.452 914.728 519.86 914.104C520.268 913.48 520.472 912.664 520.472 911.656C520.472 910.648 520.112 909.832 519.392 909.208C518.672 908.584 517.484 907.828 515.828 906.94C514.196 906.052 512.768 904.9 511.544 903.484C510.32 902.068 509.708 900.604 509.708 899.092C509.708 896.404 510.404 894.448 511.796 893.224C513.212 891.976 515.276 891.352 517.988 891.352C519.644 891.352 521.264 891.748 522.848 892.54C523.688 892.876 524.084 893.224 524.036 893.584C524.012 893.728 523.988 893.944 523.964 894.232C523.508 895.528 523.16 896.272 522.92 896.464C522.848 896.512 522.68 896.536 522.416 896.536C522.176 896.536 521.516 896.344 520.436 895.96C519.356 895.552 518.432 895.348 517.664 895.348C516.92 895.348 516.296 895.612 515.792 896.14C515.288 896.668 515.036 897.412 515.036 898.372C515.036 899.332 515.468 900.208 516.332 901C517.196 901.768 518.528 902.572 520.328 903.412C522.224 904.396 523.64 905.416 524.576 906.472C525.536 907.528 526.016 908.944 526.016 910.72C526.016 916.624 523.52 919.576 518.528 919.576C514.808 919.576 511.964 918.508 509.996 916.372ZM553.163 914.644H554.459V896.248H553.379C552.899 896.224 552.575 896.068 552.407 895.78C552.239 895.444 552.155 894.832 552.155 893.944C552.155 892.6 552.551 891.928 553.343 891.928H559.715C560.771 891.928 561.299 892.3 561.299 893.044C561.299 895.18 560.879 896.248 560.039 896.248H559.139L559.499 903.448L559.535 914.644H560.615C561.455 914.668 561.875 915.052 561.875 915.796C561.827 917.932 561.239 919 560.111 919H553.307C552.875 918.976 552.575 918.82 552.407 918.532C552.239 918.196 552.155 917.572 552.155 916.66C552.155 915.316 552.491 914.644 553.163 914.644ZM585.642 914.752C586.242 914.752 586.542 915.136 586.542 915.904C586.542 916.672 586.53 917.248 586.506 917.632C586.41 918.496 586.026 918.988 585.354 919.108C583.218 919.42 581.634 919.576 580.602 919.576C577.026 919.576 574.566 918.568 573.222 916.552C571.878 914.536 571.206 910.9 571.206 905.644C571.206 901.804 571.494 898.876 572.07 896.86C572.67 894.82 573.618 893.392 574.914 892.576C576.234 891.76 578.19 891.352 580.782 891.352C583.398 891.352 585.306 891.76 586.506 892.576C586.746 892.744 586.866 892.948 586.866 893.188C586.866 893.428 586.746 893.884 586.506 894.556C586.29 895.204 586.074 895.672 585.858 895.96C585.666 896.224 585.462 896.356 585.246 896.356C585.03 896.356 584.862 896.344 584.742 896.32C582.942 895.96 581.382 895.78 580.062 895.78C578.766 895.78 577.914 896.5 577.506 897.94C577.122 899.38 576.93 901.72 576.93 904.96C576.93 908.176 577.014 910.42 577.182 911.692C577.35 912.964 577.662 913.852 578.118 914.356C578.574 914.86 579.294 915.112 580.278 915.112C581.286 915.112 582.414 915.052 583.662 914.932C584.934 914.812 585.594 914.752 585.642 914.752ZM596.804 916.372C596.3 915.748 596.048 915.28 596.048 914.968C596.048 914.632 596.324 914.188 596.876 913.636C597.452 913.06 597.824 912.748 597.992 912.7C598.184 912.652 598.364 912.628 598.532 912.628C598.7 912.628 598.976 912.736 599.36 912.952C601.136 914.344 602.696 915.04 604.04 915.04C605.384 915.04 606.26 914.728 606.668 914.104C607.076 913.48 607.28 912.664 607.28 911.656C607.28 910.648 606.92 909.832 606.2 909.208C605.48 908.584 604.292 907.828 602.636 906.94C601.004 906.052 599.576 904.9 598.352 903.484C597.128 902.068 596.516 900.604 596.516 899.092C596.516 896.404 597.212 894.448 598.604 893.224C600.02 891.976 602.084 891.352 604.796 891.352C606.452 891.352 608.072 891.748 609.656 892.54C610.496 892.876 610.892 893.224 610.844 893.584C610.82 893.728 610.796 893.944 610.772 894.232C610.316 895.528 609.968 896.272 609.728 896.464C609.656 896.512 609.488 896.536 609.224 896.536C608.984 896.536 608.324 896.344 607.244 895.96C606.164 895.552 605.24 895.348 604.472 895.348C603.728 895.348 603.104 895.612 602.6 896.14C602.096 896.668 601.844 897.412 601.844 898.372C601.844 899.332 602.276 900.208 603.14 901C604.004 901.768 605.336 902.572 607.136 903.412C609.032 904.396 610.448 905.416 611.384 906.472C612.344 907.528 612.824 908.944 612.824 910.72C612.824 916.624 610.328 919.576 605.336 919.576C601.616 919.576 598.772 918.508 596.804 916.372ZM639.971 914.644H641.267V896.248H640.187C639.707 896.224 639.383 896.068 639.215 895.78C639.047 895.444 638.963 894.832 638.963 893.944C638.963 892.6 639.359 891.928 640.151 891.928H646.523C647.579 891.928 648.107 892.3 648.107 893.044C648.107 895.18 647.687 896.248 646.847 896.248H645.947L646.307 903.448L646.343 914.644H647.423C648.263 914.668 648.683 915.052 648.683 915.796C648.635 917.932 648.047 919 646.919 919H640.115C639.683 918.976 639.383 918.82 639.215 918.532C639.047 918.196 638.963 917.572 638.963 916.66C638.963 915.316 639.299 914.644 639.971 914.644ZM672.45 914.752C673.05 914.752 673.35 915.136 673.35 915.904C673.35 916.672 673.338 917.248 673.314 917.632C673.218 918.496 672.834 918.988 672.162 919.108C670.026 919.42 668.442 919.576 667.41 919.576C663.834 919.576 661.374 918.568 660.03 916.552C658.686 914.536 658.014 910.9 658.014 905.644C658.014 901.804 658.302 898.876 658.878 896.86C659.478 894.82 660.426 893.392 661.722 892.576C663.042 891.76 664.998 891.352 667.59 891.352C670.206 891.352 672.114 891.76 673.314 892.576C673.554 892.744 673.674 892.948 673.674 893.188C673.674 893.428 673.554 893.884 673.314 894.556C673.098 895.204 672.882 895.672 672.666 895.96C672.474 896.224 672.27 896.356 672.054 896.356C671.838 896.356 671.67 896.344 671.55 896.32C669.75 895.96 668.19 895.78 666.87 895.78C665.574 895.78 664.722 896.5 664.314 897.94C663.93 899.38 663.738 901.72 663.738 904.96C663.738 908.176 663.822 910.42 663.99 911.692C664.158 912.964 664.47 913.852 664.926 914.356C665.382 914.86 666.102 915.112 667.086 915.112C668.094 915.112 669.222 915.052 670.47 914.932C671.742 914.812 672.402 914.752 672.45 914.752ZM683.612 916.372C683.108 915.748 682.856 915.28 682.856 914.968C682.856 914.632 683.132 914.188 683.684 913.636C684.26 913.06 684.632 912.748 684.8 912.7C684.992 912.652 685.172 912.628 685.34 912.628C685.508 912.628 685.784 912.736 686.168 912.952C687.944 914.344 689.504 915.04 690.848 915.04C692.192 915.04 693.068 914.728 693.476 914.104C693.884 913.48 694.088 912.664 694.088 911.656C694.088 910.648 693.728 909.832 693.008 909.208C692.288 908.584 691.1 907.828 689.444 906.94C687.812 906.052 686.384 904.9 685.16 903.484C683.936 902.068 683.324 900.604 683.324 899.092C683.324 896.404 684.02 894.448 685.412 893.224C686.828 891.976 688.892 891.352 691.604 891.352C693.26 891.352 694.88 891.748 696.464 892.54C697.304 892.876 697.7 893.224 697.652 893.584C697.628 893.728 697.604 893.944 697.58 894.232C697.124 895.528 696.776 896.272 696.536 896.464C696.464 896.512 696.296 896.536 696.032 896.536C695.792 896.536 695.132 896.344 694.052 895.96C692.972 895.552 692.048 895.348 691.28 895.348C690.536 895.348 689.912 895.612 689.408 896.14C688.904 896.668 688.652 897.412 688.652 898.372C688.652 899.332 689.084 900.208 689.948 901C690.812 901.768 692.144 902.572 693.944 903.412C695.84 904.396 697.256 905.416 698.192 906.472C699.152 907.528 699.632 908.944 699.632 910.72C699.632 916.624 697.136 919.576 692.144 919.576C688.424 919.576 685.58 918.508 683.612 916.372ZM726.779 914.644H728.075V896.248H726.995C726.515 896.224 726.191 896.068 726.023 895.78C725.855 895.444 725.771 894.832 725.771 893.944C725.771 892.6 726.167 891.928 726.959 891.928H733.331C734.387 891.928 734.915 892.3 734.915 893.044C734.915 895.18 734.495 896.248 733.655 896.248H732.755L733.115 903.448L733.151 914.644H734.231C735.071 914.668 735.491 915.052 735.491 915.796C735.443 917.932 734.855 919 733.727 919H726.923C726.491 918.976 726.191 918.82 726.023 918.532C725.855 918.196 725.771 917.572 725.771 916.66C725.771 915.316 726.107 914.644 726.779 914.644ZM759.258 914.752C759.858 914.752 760.158 915.136 760.158 915.904C760.158 916.672 760.146 917.248 760.122 917.632C760.026 918.496 759.642 918.988 758.97 919.108C756.834 919.42 755.25 919.576 754.218 919.576C750.642 919.576 748.182 918.568 746.838 916.552C745.494 914.536 744.822 910.9 744.822 905.644C744.822 901.804 745.11 898.876 745.686 896.86C746.286 894.82 747.234 893.392 748.53 892.576C749.85 891.76 751.806 891.352 754.398 891.352C757.014 891.352 758.922 891.76 760.122 892.576C760.362 892.744 760.482 892.948 760.482 893.188C760.482 893.428 760.362 893.884 760.122 894.556C759.906 895.204 759.69 895.672 759.474 895.96C759.282 896.224 759.078 896.356 758.862 896.356C758.646 896.356 758.478 896.344 758.358 896.32C756.558 895.96 754.998 895.78 753.678 895.78C752.382 895.78 751.53 896.5 751.122 897.94C750.738 899.38 750.546 901.72 750.546 904.96C750.546 908.176 750.63 910.42 750.798 911.692C750.966 912.964 751.278 913.852 751.734 914.356C752.19 914.86 752.91 915.112 753.894 915.112C754.902 915.112 756.03 915.052 757.278 914.932C758.55 914.812 759.21 914.752 759.258 914.752ZM770.419 916.372C769.915 915.748 769.663 915.28 769.663 914.968C769.663 914.632 769.939 914.188 770.491 913.636C771.067 913.06 771.439 912.748 771.607 912.7C771.799 912.652 771.979 912.628 772.147 912.628C772.315 912.628 772.591 912.736 772.975 912.952C774.751 914.344 776.311 915.04 777.655 915.04C778.999 915.04 779.875 914.728 780.283 914.104C780.691 913.48 780.895 912.664 780.895 911.656C780.895 910.648 780.535 909.832 779.815 909.208C779.095 908.584 777.907 907.828 776.251 906.94C774.619 906.052 773.191 904.9 771.967 903.484C770.743 902.068 770.131 900.604 770.131 899.092C770.131 896.404 770.827 894.448 772.219 893.224C773.635 891.976 775.699 891.352 778.411 891.352C780.067 891.352 781.687 891.748 783.271 892.54C784.111 892.876 784.507 893.224 784.459 893.584C784.435 893.728 784.411 893.944 784.387 894.232C783.931 895.528 783.583 896.272 783.343 896.464C783.271 896.512 783.103 896.536 782.839 896.536C782.599 896.536 781.939 896.344 780.859 895.96C779.779 895.552 778.855 895.348 778.087 895.348C777.343 895.348 776.719 895.612 776.215 896.14C775.711 896.668 775.459 897.412 775.459 898.372C775.459 899.332 775.891 900.208 776.755 901C777.619 901.768 778.951 902.572 780.751 903.412C782.647 904.396 784.063 905.416 784.999 906.472C785.959 907.528 786.439 908.944 786.439 910.72C786.439 916.624 783.943 919.576 778.951 919.576C775.231 919.576 772.387 918.508 770.419 916.372Z" fill="#140504"/>
</g>
<defs>
<clipPath id="clip0_426_19">
<rect width="906" height="943" fill="white"/>
</clipPath>
</defs>
</svg>
