<svg width="906" height="943" viewBox="0 0 906 943" fill="none" xmlns="http://www.w3.org/2000/svg">
<g clip-path="url(#clip0_426_2)">
<path d="M103.23 214.61C103.37 214.62 103.52 214.64 103.66 214.66C103.87 213.11 104.07 211.56 104.28 210.01C103.95 211.56 103.6 213.09 103.23 214.61Z" fill="#322214"/>
<path d="M809.6 870.46H734.64C734.71 870.13 751.5 870.78 751.5 870.46V324.92C751.5 324.42 751.5 321 751.5 321C742 330 738.5 330.967 730 331L177.5 324.92C177.76 336.94 168.39 318.78 168.36 330.8C168.36 332.45 167.67 333.69 166.66 334.51V869.35C166.66 869.74 166.66 870.07 166.73 870.46H94.24C89.69 870.46 86 874.15 86 878.7V933.77C86 938.32 89.69 942.01 94.24 942.01H809.6C814.15 942.01 817.84 938.32 817.84 933.77V878.7C817.84 874.15 814.15 870.46 809.6 870.46ZM395.31 398.82C395.31 394.27 393.95 327.352 398.5 327.352L518.88 328.677V450.57C518.88 455.12 515.19 458.81 510.64 458.81H403.55C399 458.81 395.31 455.12 395.31 450.57V398.82ZM562.06 870.45C555.2 870.45 551.34 862.56 555.56 857.15L569.46 839.31C573.68 833.9 569.82 826.01 562.96 826.01H355.23C348.23 826.01 344.42 834.18 348.92 839.55L363.49 856.92C367.99 862.28 364.17 870.46 357.17 870.46L188.47 870.4C188.54 870.07 188.54 869.68 188.54 869.29V324.92C188.54 320.37 194.95 324.92 199.5 324.92L237 325.575C241.55 325.575 238.782 325.594 245.5 325.668L249 325.707C253.5 325.756 256.45 325.839 261 325.839L383.59 327.188V456.42C383.59 464.21 389.9 470.52 397.69 470.52H408.88C413.43 470.52 417.12 474.21 417.12 478.76V498.41C417.12 502.96 420.81 506.65 425.36 506.65H434.34C438.89 506.65 442.58 502.96 442.58 498.41V478.76C442.58 474.21 446.27 470.52 450.82 470.52H463.38C467.93 470.52 471.62 474.21 471.62 478.76V498.41C471.62 502.96 475.31 506.65 479.86 506.65H488.84C493.39 506.65 497.08 502.96 497.08 498.41V478.76C497.08 474.21 500.77 470.52 505.32 470.52H516.44C524.23 470.52 530.54 464.21 530.54 456.42V328.805L621 329.801C625.55 329.801 653 330.153 660 330.23L661.68 330.698C667.5 330.312 675.45 330.45 680 330.45L702.5 330.698C707.05 330.698 724 330.934 730 331V869.5C730 869.83 730 870.14 730 870.46L562.06 870.45Z" fill="#322214"/>
<path d="M132 299.89C132.12 298.18 132.21 296.46 132.3 294.74H131.25C131.53 296.46 131.78 298.17 132 299.89Z" fill="#322214"/>
<path d="M650.35 601.01C644.82 595.48 630.81 591.75 622.35 591.75H590.59C586.04 591.75 582.35 588.06 582.35 583.51C582.35 578.82 580.47 573.13 577.35 570.01C574.23 566.95 566.54 566.88 561.85 566.88H342.85C338.1 566.88 336.97 569.45 333.85 572.51C330.79 575.63 330.85 579.52 330.85 583.51V638.01C330.85 708.26 356.63 744.93 402.85 764.01C420.88 771.5 436.98 775.67 456.71 775.54C476.44 775.41 496.69 771.43 514.85 764.01C548.42 750.36 564.89 730.46 577.92 694.01C579.1 690.72 582.2 688.51 585.69 688.51H632.36C642.06 688.51 643.97 686.39 650.35 680.01C656.67 673.63 657.17 667.92 657.17 658.29V622.41C657.17 614.34 657.56 608.54 652.35 603.01C652.15 602.75 650.54 601.21 650.35 601.01ZM560.85 595.5V647.01C560.85 703.98 546.24 726.91 505.35 743.51C489.46 749.96 473.77 753.94 456.71 754.01C439.65 754.14 426.41 749.96 410.85 743.51C371.72 727.36 352.85 703.14 352.85 642.47V595.5C352.85 590.95 356.54 587.26 361.09 587.26H569.09C564.54 587.26 560.85 590.95 560.85 595.5ZM636.72 622.41V658.28C636.72 662.32 635.03 666.33 632.36 669C629.69 671.67 624.89 673.12 620.85 673.12H590.59C586.04 673.12 582.35 669.43 582.35 664.88V620.42C582.35 615.87 586.04 612.18 590.59 612.18H630.06C631.54 612.18 632.99 612.58 634.26 613.33C634.82 613.66 635.3 613.95 635.35 614C637.04 615.83 636.72 619.74 636.72 622.41Z" fill="#322214"/>
<path fill-rule="evenodd" clip-rule="evenodd" d="M660.92 725.67C660.7 722.16 658.09 719.28 654.45 718.52C652.87 718.13 651.57 717.86 651.57 717.86C651.57 717.86 607.14 708.88 552.55 750.3C530.34 767.15 498.47 779.2 471.93 778.64C468.38 778.55 465.04 780.49 463.47 783.53C461.9 786.58 462.41 790.13 464.77 792.53C483.07 811.22 520.14 835.74 576.68 818.94C627.65 803.78 662.61 763.76 660.92 725.67ZM644.04 733.42C639.6 764.99 611.53 791.13 571.91 802.93C540.44 812.3 510.17 803.1 491.65 791.6C512.35 789.42 538.34 782.26 563.5 763.18C595.55 738.85 629.93 733.86 644.04 733.42Z" fill="#322214"/>
<path fill-rule="evenodd" clip-rule="evenodd" d="M263.319 728.65C263.489 725.17 266.039 722.27 269.639 721.47C271.199 721.06 272.489 720.78 272.489 720.78C272.489 720.78 316.419 711.28 371.099 751.63C393.339 768.04 425.109 779.57 451.409 778.66C454.929 778.53 458.269 780.4 459.869 783.4C461.469 786.4 461.009 789.93 458.699 792.34C440.799 811.12 404.359 835.92 348.079 820.01C297.349 805.66 262.149 766.45 263.319 728.65ZM280.159 736.11C284.979 767.36 313.159 792.91 352.599 804.08C383.929 812.96 413.819 803.43 432.039 791.78C411.479 789.9 385.619 783.14 360.419 764.55C328.319 740.86 294.159 736.36 280.159 736.11Z" fill="#322214"/>
<path d="M599.85 855.51H310.85V870.51H599.85V855.51Z" fill="#D8D2CD"/>
<path d="M116.58 915.03C117.21 915.03 117.53 915.44 117.53 916.25C117.53 917.06 117.52 917.67 117.49 918.07C117.39 918.98 116.98 919.5 116.27 919.63C114.02 919.96 112.34 920.12 111.25 920.12C107.48 920.12 104.88 919.06 103.46 916.93C102.04 914.8 101.33 910.96 101.33 905.42C101.33 901.37 101.63 898.28 102.24 896.15C102.87 894 103.87 892.49 105.24 891.63C106.63 890.77 108.7 890.34 111.43 890.34C114.19 890.34 116.21 890.77 117.47 891.63C117.72 891.81 117.85 892.02 117.85 892.28C117.85 892.53 117.72 893.01 117.47 893.72C117.24 894.4 117.01 894.9 116.79 895.2C116.59 895.48 116.37 895.62 116.14 895.62C115.91 895.62 115.73 895.61 115.61 895.58C113.71 895.2 112.06 895.01 110.67 895.01C109.3 895.01 108.4 895.77 107.97 897.29C107.56 898.81 107.36 901.28 107.36 904.7C107.36 908.1 107.45 910.46 107.63 911.81C107.81 913.15 108.14 914.09 108.62 914.62C109.1 915.15 109.86 915.42 110.9 915.42C111.96 915.42 113.15 915.36 114.47 915.23C115.83 915.09 116.53 915.03 116.58 915.03Z" fill="#322214"/>
<path d="M586.18 402H678.18C689.23 402 698.18 407.46 698.18 418.51V431.51C698.18 442.56 689.23 447 678.18 447H586.18C575.13 447 566.18 442.56 566.18 431.51V418.51C566.18 407.46 575.13 402 586.18 402Z" fill="#322214"/>
<path d="M607.18 417.51H530.18V433.51H607.18V417.51Z" fill="#322214"/>
<path d="M892 273H28V389H892V273Z" fill="#D8D2CD"/>
<path d="M873.642 195.024C859.641 195.024 842.082 199.904 819.846 206.07C798.445 212.013 774.193 218.76 746.419 223.088C732.794 225.206 722.726 225.277 712.429 223.325C713.346 218.473 713.795 213.621 713.795 208.819V100.243C713.795 44.9751 656.35 0.0071737 585.747 0.0071737H583.061L580.796 1.14125C580.191 1.44989 518.794 31.8328 450.877 32.5721L448.521 32.5865C382.228 32.5865 326.13 1.65804 325.571 1.34222L323.169 0H320.235C249.622 0 192.187 44.9679 192.187 100.236V208.805C192.187 213.434 192.59 218.071 193.406 222.658C178.965 226.096 165.733 226.512 154.373 223.863C139.06 220.289 124.93 216.643 111.277 213.126C79.5062 204.95 54.4192 198.498 35.7599 198.498C19.4479 198.498 0 203.881 0 229.512C0 277.007 200.879 398 452.995 398C694.274 398 906 292.991 906 229.512C906 220.985 906 195.024 873.642 195.024ZM317.456 14.384C329.761 20.8151 383.722 46.9346 448.53 46.9346L451.143 46.9202C517.262 46.2024 575.771 20.3055 588.305 14.3768C647.639 15.4391 695.475 53.5452 695.475 100.236V208.812C695.475 209.027 695.429 209.257 695.429 209.472C656.864 232.799 561.192 249.243 453.005 249.243C342.571 249.243 248.366 232.125 211.451 208.029C211.13 208.238 210.855 208.467 210.543 208.675V100.243C210.534 53.617 258.251 15.5468 317.456 14.384ZM453.005 383.645C213.918 383.645 18.3476 267.281 18.3476 229.527C18.3476 215.509 24.4726 212.86 35.7691 212.86C51.4851 212.86 76.5445 219.306 105.556 226.777C118.695 230.158 133.586 233.984 149.146 237.616C163.212 240.91 179.12 240.63 196.047 236.955C208.939 269.212 319.043 294.391 453.005 294.391C586.132 294.391 695.686 269.52 709.715 237.558C721.855 239.69 734.463 239.604 750.023 237.164C779.089 232.627 805.102 225.399 826.008 219.6C845.758 214.116 862.813 209.379 873.66 209.379C879.584 209.379 887.68 209.379 887.68 229.527C887.662 274.214 699.537 383.645 453.005 383.645Z" fill="#322214"/>
<path d="M189 339H166V878H189V339Z" fill="#322214"/>
<path d="M753 339H730V877H753V339Z" fill="#322214"/>
<path d="M117.124 915.644H118.42V897.248H117.34C116.86 897.224 116.536 897.068 116.368 896.78C116.2 896.444 116.116 895.832 116.116 894.944C116.116 893.6 116.512 892.928 117.304 892.928H123.676C124.732 892.928 125.26 893.3 125.26 894.044C125.26 896.18 124.84 897.248 124 897.248H123.1L123.46 904.448L123.496 915.644H124.576C125.416 915.668 125.836 916.052 125.836 916.796C125.788 918.932 125.2 920 124.072 920H117.268C116.836 919.976 116.536 919.82 116.368 919.532C116.2 919.196 116.116 918.572 116.116 917.66C116.116 916.316 116.452 915.644 117.124 915.644ZM149.603 915.752C150.203 915.752 150.503 916.136 150.503 916.904C150.503 917.672 150.491 918.248 150.467 918.632C150.371 919.496 149.987 919.988 149.315 920.108C147.179 920.42 145.595 920.576 144.563 920.576C140.987 920.576 138.527 919.568 137.183 917.552C135.839 915.536 135.167 911.9 135.167 906.644C135.167 902.804 135.455 899.876 136.031 897.86C136.631 895.82 137.579 894.392 138.875 893.576C140.195 892.76 142.151 892.352 144.743 892.352C147.359 892.352 149.267 892.76 150.467 893.576C150.707 893.744 150.827 893.948 150.827 894.188C150.827 894.428 150.707 894.884 150.467 895.556C150.251 896.204 150.035 896.672 149.819 896.96C149.627 897.224 149.423 897.356 149.207 897.356C148.991 897.356 148.823 897.344 148.703 897.32C146.903 896.96 145.343 896.78 144.023 896.78C142.727 896.78 141.875 897.5 141.467 898.94C141.083 900.38 140.891 902.72 140.891 905.96C140.891 909.176 140.975 911.42 141.143 912.692C141.311 913.964 141.623 914.852 142.079 915.356C142.535 915.86 143.255 916.112 144.239 916.112C145.247 916.112 146.375 916.052 147.623 915.932C148.895 915.812 149.555 915.752 149.603 915.752ZM160.765 917.372C160.261 916.748 160.009 916.28 160.009 915.968C160.009 915.632 160.285 915.188 160.837 914.636C161.413 914.06 161.785 913.748 161.953 913.7C162.145 913.652 162.325 913.628 162.493 913.628C162.661 913.628 162.937 913.736 163.321 913.952C165.097 915.344 166.657 916.04 168.001 916.04C169.345 916.04 170.221 915.728 170.629 915.104C171.037 914.48 171.241 913.664 171.241 912.656C171.241 911.648 170.881 910.832 170.161 910.208C169.441 909.584 168.253 908.828 166.597 907.94C164.965 907.052 163.537 905.9 162.313 904.484C161.089 903.068 160.477 901.604 160.477 900.092C160.477 897.404 161.173 895.448 162.565 894.224C163.981 892.976 166.045 892.352 168.757 892.352C170.413 892.352 172.033 892.748 173.617 893.54C174.457 893.876 174.853 894.224 174.805 894.584C174.781 894.728 174.757 894.944 174.733 895.232C174.277 896.528 173.929 897.272 173.689 897.464C173.617 897.512 173.449 897.536 173.185 897.536C172.945 897.536 172.285 897.344 171.205 896.96C170.125 896.552 169.201 896.348 168.433 896.348C167.689 896.348 167.065 896.612 166.561 897.14C166.057 897.668 165.805 898.412 165.805 899.372C165.805 900.332 166.237 901.208 167.101 902C167.965 902.768 169.297 903.572 171.097 904.412C172.993 905.396 174.409 906.416 175.345 907.472C176.305 908.528 176.785 909.944 176.785 911.72C176.785 917.624 174.289 920.576 169.297 920.576C165.577 920.576 162.733 919.508 160.765 917.372ZM203.932 915.644H205.228V897.248H204.148C203.668 897.224 203.344 897.068 203.176 896.78C203.008 896.444 202.924 895.832 202.924 894.944C202.924 893.6 203.32 892.928 204.112 892.928H210.484C211.54 892.928 212.068 893.3 212.068 894.044C212.068 896.18 211.648 897.248 210.808 897.248H209.908L210.268 904.448L210.304 915.644H211.384C212.224 915.668 212.644 916.052 212.644 916.796C212.596 918.932 212.008 920 210.88 920H204.076C203.644 919.976 203.344 919.82 203.176 919.532C203.008 919.196 202.924 918.572 202.924 917.66C202.924 916.316 203.26 915.644 203.932 915.644ZM236.411 915.752C237.011 915.752 237.311 916.136 237.311 916.904C237.311 917.672 237.299 918.248 237.275 918.632C237.179 919.496 236.795 919.988 236.123 920.108C233.987 920.42 232.403 920.576 231.371 920.576C227.795 920.576 225.335 919.568 223.991 917.552C222.647 915.536 221.975 911.9 221.975 906.644C221.975 902.804 222.263 899.876 222.839 897.86C223.439 895.82 224.387 894.392 225.683 893.576C227.003 892.76 228.959 892.352 231.551 892.352C234.167 892.352 236.075 892.76 237.275 893.576C237.515 893.744 237.635 893.948 237.635 894.188C237.635 894.428 237.515 894.884 237.275 895.556C237.059 896.204 236.843 896.672 236.627 896.96C236.435 897.224 236.231 897.356 236.015 897.356C235.799 897.356 235.631 897.344 235.511 897.32C233.711 896.96 232.151 896.78 230.831 896.78C229.535 896.78 228.683 897.5 228.275 898.94C227.891 900.38 227.699 902.72 227.699 905.96C227.699 909.176 227.783 911.42 227.951 912.692C228.119 913.964 228.431 914.852 228.887 915.356C229.343 915.86 230.063 916.112 231.047 916.112C232.055 916.112 233.183 916.052 234.431 915.932C235.703 915.812 236.363 915.752 236.411 915.752ZM247.573 917.372C247.069 916.748 246.817 916.28 246.817 915.968C246.817 915.632 247.093 915.188 247.645 914.636C248.221 914.06 248.593 913.748 248.761 913.7C248.953 913.652 249.133 913.628 249.301 913.628C249.469 913.628 249.745 913.736 250.129 913.952C251.905 915.344 253.465 916.04 254.809 916.04C256.153 916.04 257.029 915.728 257.437 915.104C257.845 914.48 258.049 913.664 258.049 912.656C258.049 911.648 257.689 910.832 256.969 910.208C256.249 909.584 255.061 908.828 253.405 907.94C251.773 907.052 250.345 905.9 249.121 904.484C247.897 903.068 247.285 901.604 247.285 900.092C247.285 897.404 247.981 895.448 249.373 894.224C250.789 892.976 252.853 892.352 255.565 892.352C257.221 892.352 258.841 892.748 260.425 893.54C261.265 893.876 261.661 894.224 261.613 894.584C261.589 894.728 261.565 894.944 261.541 895.232C261.085 896.528 260.737 897.272 260.497 897.464C260.425 897.512 260.257 897.536 259.993 897.536C259.753 897.536 259.093 897.344 258.013 896.96C256.933 896.552 256.009 896.348 255.241 896.348C254.497 896.348 253.873 896.612 253.369 897.14C252.865 897.668 252.613 898.412 252.613 899.372C252.613 900.332 253.045 901.208 253.909 902C254.773 902.768 256.105 903.572 257.905 904.412C259.801 905.396 261.217 906.416 262.153 907.472C263.113 908.528 263.593 909.944 263.593 911.72C263.593 917.624 261.097 920.576 256.105 920.576C252.385 920.576 249.541 919.508 247.573 917.372ZM290.74 915.644H292.036V897.248H290.956C290.476 897.224 290.152 897.068 289.984 896.78C289.816 896.444 289.732 895.832 289.732 894.944C289.732 893.6 290.128 892.928 290.92 892.928H297.292C298.348 892.928 298.876 893.3 298.876 894.044C298.876 896.18 298.456 897.248 297.616 897.248H296.716L297.076 904.448L297.112 915.644H298.192C299.032 915.668 299.452 916.052 299.452 916.796C299.404 918.932 298.816 920 297.688 920H290.884C290.452 919.976 290.152 919.82 289.984 919.532C289.816 919.196 289.732 918.572 289.732 917.66C289.732 916.316 290.068 915.644 290.74 915.644ZM323.219 915.752C323.819 915.752 324.119 916.136 324.119 916.904C324.119 917.672 324.107 918.248 324.083 918.632C323.987 919.496 323.603 919.988 322.931 920.108C320.795 920.42 319.211 920.576 318.179 920.576C314.603 920.576 312.143 919.568 310.799 917.552C309.455 915.536 308.783 911.9 308.783 906.644C308.783 902.804 309.071 899.876 309.647 897.86C310.247 895.82 311.195 894.392 312.491 893.576C313.811 892.76 315.767 892.352 318.359 892.352C320.975 892.352 322.883 892.76 324.083 893.576C324.323 893.744 324.443 893.948 324.443 894.188C324.443 894.428 324.323 894.884 324.083 895.556C323.867 896.204 323.651 896.672 323.435 896.96C323.243 897.224 323.039 897.356 322.823 897.356C322.607 897.356 322.439 897.344 322.319 897.32C320.519 896.96 318.959 896.78 317.639 896.78C316.343 896.78 315.491 897.5 315.083 898.94C314.699 900.38 314.507 902.72 314.507 905.96C314.507 909.176 314.591 911.42 314.759 912.692C314.927 913.964 315.239 914.852 315.695 915.356C316.151 915.86 316.871 916.112 317.855 916.112C318.863 916.112 319.991 916.052 321.239 915.932C322.511 915.812 323.171 915.752 323.219 915.752ZM334.38 917.372C333.876 916.748 333.624 916.28 333.624 915.968C333.624 915.632 333.9 915.188 334.452 914.636C335.028 914.06 335.4 913.748 335.568 913.7C335.76 913.652 335.94 913.628 336.108 913.628C336.276 913.628 336.552 913.736 336.936 913.952C338.712 915.344 340.272 916.04 341.616 916.04C342.96 916.04 343.836 915.728 344.244 915.104C344.652 914.48 344.856 913.664 344.856 912.656C344.856 911.648 344.496 910.832 343.776 910.208C343.056 909.584 341.868 908.828 340.212 907.94C338.58 907.052 337.152 905.9 335.928 904.484C334.704 903.068 334.092 901.604 334.092 900.092C334.092 897.404 334.788 895.448 336.18 894.224C337.596 892.976 339.66 892.352 342.372 892.352C344.028 892.352 345.648 892.748 347.232 893.54C348.072 893.876 348.468 894.224 348.42 894.584C348.396 894.728 348.372 894.944 348.348 895.232C347.892 896.528 347.544 897.272 347.304 897.464C347.232 897.512 347.064 897.536 346.8 897.536C346.56 897.536 345.9 897.344 344.82 896.96C343.74 896.552 342.816 896.348 342.048 896.348C341.304 896.348 340.68 896.612 340.176 897.14C339.672 897.668 339.42 898.412 339.42 899.372C339.42 900.332 339.852 901.208 340.716 902C341.58 902.768 342.912 903.572 344.712 904.412C346.608 905.396 348.024 906.416 348.96 907.472C349.92 908.528 350.4 909.944 350.4 911.72C350.4 917.624 347.904 920.576 342.912 920.576C339.192 920.576 336.348 919.508 334.38 917.372ZM377.547 915.644H378.843V897.248H377.763C377.283 897.224 376.959 897.068 376.791 896.78C376.623 896.444 376.539 895.832 376.539 894.944C376.539 893.6 376.935 892.928 377.727 892.928H384.099C385.155 892.928 385.683 893.3 385.683 894.044C385.683 896.18 385.263 897.248 384.423 897.248H383.523L383.883 904.448L383.919 915.644H384.999C385.839 915.668 386.259 916.052 386.259 916.796C386.211 918.932 385.623 920 384.495 920H377.691C377.259 919.976 376.959 919.82 376.791 919.532C376.623 919.196 376.539 918.572 376.539 917.66C376.539 916.316 376.875 915.644 377.547 915.644ZM410.026 915.752C410.626 915.752 410.926 916.136 410.926 916.904C410.926 917.672 410.914 918.248 410.89 918.632C410.794 919.496 410.41 919.988 409.738 920.108C407.602 920.42 406.018 920.576 404.986 920.576C401.41 920.576 398.95 919.568 397.606 917.552C396.262 915.536 395.59 911.9 395.59 906.644C395.59 902.804 395.878 899.876 396.454 897.86C397.054 895.82 398.002 894.392 399.298 893.576C400.618 892.76 402.574 892.352 405.166 892.352C407.782 892.352 409.69 892.76 410.89 893.576C411.13 893.744 411.25 893.948 411.25 894.188C411.25 894.428 411.13 894.884 410.89 895.556C410.674 896.204 410.458 896.672 410.242 896.96C410.05 897.224 409.846 897.356 409.63 897.356C409.414 897.356 409.246 897.344 409.126 897.32C407.326 896.96 405.766 896.78 404.446 896.78C403.15 896.78 402.298 897.5 401.89 898.94C401.506 900.38 401.314 902.72 401.314 905.96C401.314 909.176 401.398 911.42 401.566 912.692C401.734 913.964 402.046 914.852 402.502 915.356C402.958 915.86 403.678 916.112 404.662 916.112C405.67 916.112 406.798 916.052 408.046 915.932C409.318 915.812 409.978 915.752 410.026 915.752ZM421.188 917.372C420.684 916.748 420.432 916.28 420.432 915.968C420.432 915.632 420.708 915.188 421.26 914.636C421.836 914.06 422.208 913.748 422.376 913.7C422.568 913.652 422.748 913.628 422.916 913.628C423.084 913.628 423.36 913.736 423.744 913.952C425.52 915.344 427.08 916.04 428.424 916.04C429.768 916.04 430.644 915.728 431.052 915.104C431.46 914.48 431.664 913.664 431.664 912.656C431.664 911.648 431.304 910.832 430.584 910.208C429.864 909.584 428.676 908.828 427.02 907.94C425.388 907.052 423.96 905.9 422.736 904.484C421.512 903.068 420.9 901.604 420.9 900.092C420.9 897.404 421.596 895.448 422.988 894.224C424.404 892.976 426.468 892.352 429.18 892.352C430.836 892.352 432.456 892.748 434.04 893.54C434.88 893.876 435.276 894.224 435.228 894.584C435.204 894.728 435.18 894.944 435.156 895.232C434.7 896.528 434.352 897.272 434.112 897.464C434.04 897.512 433.872 897.536 433.608 897.536C433.368 897.536 432.708 897.344 431.628 896.96C430.548 896.552 429.624 896.348 428.856 896.348C428.112 896.348 427.488 896.612 426.984 897.14C426.48 897.668 426.228 898.412 426.228 899.372C426.228 900.332 426.66 901.208 427.524 902C428.388 902.768 429.72 903.572 431.52 904.412C433.416 905.396 434.832 906.416 435.768 907.472C436.728 908.528 437.208 909.944 437.208 911.72C437.208 917.624 434.712 920.576 429.72 920.576C426 920.576 423.156 919.508 421.188 917.372ZM464.355 915.644H465.651V897.248H464.571C464.091 897.224 463.767 897.068 463.599 896.78C463.431 896.444 463.347 895.832 463.347 894.944C463.347 893.6 463.743 892.928 464.535 892.928H470.907C471.963 892.928 472.491 893.3 472.491 894.044C472.491 896.18 472.071 897.248 471.231 897.248H470.331L470.691 904.448L470.727 915.644H471.807C472.647 915.668 473.067 916.052 473.067 916.796C473.019 918.932 472.431 920 471.303 920H464.499C464.067 919.976 463.767 919.82 463.599 919.532C463.431 919.196 463.347 918.572 463.347 917.66C463.347 916.316 463.683 915.644 464.355 915.644ZM496.834 915.752C497.434 915.752 497.734 916.136 497.734 916.904C497.734 917.672 497.722 918.248 497.698 918.632C497.602 919.496 497.218 919.988 496.546 920.108C494.41 920.42 492.826 920.576 491.794 920.576C488.218 920.576 485.758 919.568 484.414 917.552C483.07 915.536 482.398 911.9 482.398 906.644C482.398 902.804 482.686 899.876 483.262 897.86C483.862 895.82 484.81 894.392 486.106 893.576C487.426 892.76 489.382 892.352 491.974 892.352C494.59 892.352 496.498 892.76 497.698 893.576C497.938 893.744 498.058 893.948 498.058 894.188C498.058 894.428 497.938 894.884 497.698 895.556C497.482 896.204 497.266 896.672 497.05 896.96C496.858 897.224 496.654 897.356 496.438 897.356C496.222 897.356 496.054 897.344 495.934 897.32C494.134 896.96 492.574 896.78 491.254 896.78C489.958 896.78 489.106 897.5 488.698 898.94C488.314 900.38 488.122 902.72 488.122 905.96C488.122 909.176 488.206 911.42 488.374 912.692C488.542 913.964 488.854 914.852 489.31 915.356C489.766 915.86 490.486 916.112 491.47 916.112C492.478 916.112 493.606 916.052 494.854 915.932C496.126 915.812 496.786 915.752 496.834 915.752ZM507.996 917.372C507.492 916.748 507.24 916.28 507.24 915.968C507.24 915.632 507.516 915.188 508.068 914.636C508.644 914.06 509.016 913.748 509.184 913.7C509.376 913.652 509.556 913.628 509.724 913.628C509.892 913.628 510.168 913.736 510.552 913.952C512.328 915.344 513.888 916.04 515.232 916.04C516.576 916.04 517.452 915.728 517.86 915.104C518.268 914.48 518.472 913.664 518.472 912.656C518.472 911.648 518.112 910.832 517.392 910.208C516.672 909.584 515.484 908.828 513.828 907.94C512.196 907.052 510.768 905.9 509.544 904.484C508.32 903.068 507.708 901.604 507.708 900.092C507.708 897.404 508.404 895.448 509.796 894.224C511.212 892.976 513.276 892.352 515.988 892.352C517.644 892.352 519.264 892.748 520.848 893.54C521.688 893.876 522.084 894.224 522.036 894.584C522.012 894.728 521.988 894.944 521.964 895.232C521.508 896.528 521.16 897.272 520.92 897.464C520.848 897.512 520.68 897.536 520.416 897.536C520.176 897.536 519.516 897.344 518.436 896.96C517.356 896.552 516.432 896.348 515.664 896.348C514.92 896.348 514.296 896.612 513.792 897.14C513.288 897.668 513.036 898.412 513.036 899.372C513.036 900.332 513.468 901.208 514.332 902C515.196 902.768 516.528 903.572 518.328 904.412C520.224 905.396 521.64 906.416 522.576 907.472C523.536 908.528 524.016 909.944 524.016 911.72C524.016 917.624 521.52 920.576 516.528 920.576C512.808 920.576 509.964 919.508 507.996 917.372ZM551.163 915.644H552.459V897.248H551.379C550.899 897.224 550.575 897.068 550.407 896.78C550.239 896.444 550.155 895.832 550.155 894.944C550.155 893.6 550.551 892.928 551.343 892.928H557.715C558.771 892.928 559.299 893.3 559.299 894.044C559.299 896.18 558.879 897.248 558.039 897.248H557.139L557.499 904.448L557.535 915.644H558.615C559.455 915.668 559.875 916.052 559.875 916.796C559.827 918.932 559.239 920 558.111 920H551.307C550.875 919.976 550.575 919.82 550.407 919.532C550.239 919.196 550.155 918.572 550.155 917.66C550.155 916.316 550.491 915.644 551.163 915.644ZM583.642 915.752C584.242 915.752 584.542 916.136 584.542 916.904C584.542 917.672 584.53 918.248 584.506 918.632C584.41 919.496 584.026 919.988 583.354 920.108C581.218 920.42 579.634 920.576 578.602 920.576C575.026 920.576 572.566 919.568 571.222 917.552C569.878 915.536 569.206 911.9 569.206 906.644C569.206 902.804 569.494 899.876 570.07 897.86C570.67 895.82 571.618 894.392 572.914 893.576C574.234 892.76 576.19 892.352 578.782 892.352C581.398 892.352 583.306 892.76 584.506 893.576C584.746 893.744 584.866 893.948 584.866 894.188C584.866 894.428 584.746 894.884 584.506 895.556C584.29 896.204 584.074 896.672 583.858 896.96C583.666 897.224 583.462 897.356 583.246 897.356C583.03 897.356 582.862 897.344 582.742 897.32C580.942 896.96 579.382 896.78 578.062 896.78C576.766 896.78 575.914 897.5 575.506 898.94C575.122 900.38 574.93 902.72 574.93 905.96C574.93 909.176 575.014 911.42 575.182 912.692C575.35 913.964 575.662 914.852 576.118 915.356C576.574 915.86 577.294 916.112 578.278 916.112C579.286 916.112 580.414 916.052 581.662 915.932C582.934 915.812 583.594 915.752 583.642 915.752ZM594.804 917.372C594.3 916.748 594.048 916.28 594.048 915.968C594.048 915.632 594.324 915.188 594.876 914.636C595.452 914.06 595.824 913.748 595.992 913.7C596.184 913.652 596.364 913.628 596.532 913.628C596.7 913.628 596.976 913.736 597.36 913.952C599.136 915.344 600.696 916.04 602.04 916.04C603.384 916.04 604.26 915.728 604.668 915.104C605.076 914.48 605.28 913.664 605.28 912.656C605.28 911.648 604.92 910.832 604.2 910.208C603.48 909.584 602.292 908.828 600.636 907.94C599.004 907.052 597.576 905.9 596.352 904.484C595.128 903.068 594.516 901.604 594.516 900.092C594.516 897.404 595.212 895.448 596.604 894.224C598.02 892.976 600.084 892.352 602.796 892.352C604.452 892.352 606.072 892.748 607.656 893.54C608.496 893.876 608.892 894.224 608.844 894.584C608.82 894.728 608.796 894.944 608.772 895.232C608.316 896.528 607.968 897.272 607.728 897.464C607.656 897.512 607.488 897.536 607.224 897.536C606.984 897.536 606.324 897.344 605.244 896.96C604.164 896.552 603.24 896.348 602.472 896.348C601.728 896.348 601.104 896.612 600.6 897.14C600.096 897.668 599.844 898.412 599.844 899.372C599.844 900.332 600.276 901.208 601.14 902C602.004 902.768 603.336 903.572 605.136 904.412C607.032 905.396 608.448 906.416 609.384 907.472C610.344 908.528 610.824 909.944 610.824 911.72C610.824 917.624 608.328 920.576 603.336 920.576C599.616 920.576 596.772 919.508 594.804 917.372ZM637.971 915.644H639.267V897.248H638.187C637.707 897.224 637.383 897.068 637.215 896.78C637.047 896.444 636.963 895.832 636.963 894.944C636.963 893.6 637.359 892.928 638.151 892.928H644.523C645.579 892.928 646.107 893.3 646.107 894.044C646.107 896.18 645.687 897.248 644.847 897.248H643.947L644.307 904.448L644.343 915.644H645.423C646.263 915.668 646.683 916.052 646.683 916.796C646.635 918.932 646.047 920 644.919 920H638.115C637.683 919.976 637.383 919.82 637.215 919.532C637.047 919.196 636.963 918.572 636.963 917.66C636.963 916.316 637.299 915.644 637.971 915.644ZM670.45 915.752C671.05 915.752 671.35 916.136 671.35 916.904C671.35 917.672 671.338 918.248 671.314 918.632C671.218 919.496 670.834 919.988 670.162 920.108C668.026 920.42 666.442 920.576 665.41 920.576C661.834 920.576 659.374 919.568 658.03 917.552C656.686 915.536 656.014 911.9 656.014 906.644C656.014 902.804 656.302 899.876 656.878 897.86C657.478 895.82 658.426 894.392 659.722 893.576C661.042 892.76 662.998 892.352 665.59 892.352C668.206 892.352 670.114 892.76 671.314 893.576C671.554 893.744 671.674 893.948 671.674 894.188C671.674 894.428 671.554 894.884 671.314 895.556C671.098 896.204 670.882 896.672 670.666 896.96C670.474 897.224 670.27 897.356 670.054 897.356C669.838 897.356 669.67 897.344 669.55 897.32C667.75 896.96 666.19 896.78 664.87 896.78C663.574 896.78 662.722 897.5 662.314 898.94C661.93 900.38 661.738 902.72 661.738 905.96C661.738 909.176 661.822 911.42 661.99 912.692C662.158 913.964 662.47 914.852 662.926 915.356C663.382 915.86 664.102 916.112 665.086 916.112C666.094 916.112 667.222 916.052 668.47 915.932C669.742 915.812 670.402 915.752 670.45 915.752ZM681.612 917.372C681.108 916.748 680.856 916.28 680.856 915.968C680.856 915.632 681.132 915.188 681.684 914.636C682.26 914.06 682.632 913.748 682.8 913.7C682.992 913.652 683.172 913.628 683.34 913.628C683.508 913.628 683.784 913.736 684.168 913.952C685.944 915.344 687.504 916.04 688.848 916.04C690.192 916.04 691.068 915.728 691.476 915.104C691.884 914.48 692.088 913.664 692.088 912.656C692.088 911.648 691.728 910.832 691.008 910.208C690.288 909.584 689.1 908.828 687.444 907.94C685.812 907.052 684.384 905.9 683.16 904.484C681.936 903.068 681.324 901.604 681.324 900.092C681.324 897.404 682.02 895.448 683.412 894.224C684.828 892.976 686.892 892.352 689.604 892.352C691.26 892.352 692.88 892.748 694.464 893.54C695.304 893.876 695.7 894.224 695.652 894.584C695.628 894.728 695.604 894.944 695.58 895.232C695.124 896.528 694.776 897.272 694.536 897.464C694.464 897.512 694.296 897.536 694.032 897.536C693.792 897.536 693.132 897.344 692.052 896.96C690.972 896.552 690.048 896.348 689.28 896.348C688.536 896.348 687.912 896.612 687.408 897.14C686.904 897.668 686.652 898.412 686.652 899.372C686.652 900.332 687.084 901.208 687.948 902C688.812 902.768 690.144 903.572 691.944 904.412C693.84 905.396 695.256 906.416 696.192 907.472C697.152 908.528 697.632 909.944 697.632 911.72C697.632 917.624 695.136 920.576 690.144 920.576C686.424 920.576 683.58 919.508 681.612 917.372ZM724.779 915.644H726.075V897.248H724.995C724.515 897.224 724.191 897.068 724.023 896.78C723.855 896.444 723.771 895.832 723.771 894.944C723.771 893.6 724.167 892.928 724.959 892.928H731.331C732.387 892.928 732.915 893.3 732.915 894.044C732.915 896.18 732.495 897.248 731.655 897.248H730.755L731.115 904.448L731.151 915.644H732.231C733.071 915.668 733.491 916.052 733.491 916.796C733.443 918.932 732.855 920 731.727 920H724.923C724.491 919.976 724.191 919.82 724.023 919.532C723.855 919.196 723.771 918.572 723.771 917.66C723.771 916.316 724.107 915.644 724.779 915.644ZM757.258 915.752C757.858 915.752 758.158 916.136 758.158 916.904C758.158 917.672 758.146 918.248 758.122 918.632C758.026 919.496 757.642 919.988 756.97 920.108C754.834 920.42 753.25 920.576 752.218 920.576C748.642 920.576 746.182 919.568 744.838 917.552C743.494 915.536 742.822 911.9 742.822 906.644C742.822 902.804 743.11 899.876 743.686 897.86C744.286 895.82 745.234 894.392 746.53 893.576C747.85 892.76 749.806 892.352 752.398 892.352C755.014 892.352 756.922 892.76 758.122 893.576C758.362 893.744 758.482 893.948 758.482 894.188C758.482 894.428 758.362 894.884 758.122 895.556C757.906 896.204 757.69 896.672 757.474 896.96C757.282 897.224 757.078 897.356 756.862 897.356C756.646 897.356 756.478 897.344 756.358 897.32C754.558 896.96 752.998 896.78 751.678 896.78C750.382 896.78 749.53 897.5 749.122 898.94C748.738 900.38 748.546 902.72 748.546 905.96C748.546 909.176 748.63 911.42 748.798 912.692C748.966 913.964 749.278 914.852 749.734 915.356C750.19 915.86 750.91 916.112 751.894 916.112C752.902 916.112 754.03 916.052 755.278 915.932C756.55 915.812 757.21 915.752 757.258 915.752ZM768.419 917.372C767.915 916.748 767.663 916.28 767.663 915.968C767.663 915.632 767.939 915.188 768.491 914.636C769.067 914.06 769.439 913.748 769.607 913.7C769.799 913.652 769.979 913.628 770.147 913.628C770.315 913.628 770.591 913.736 770.975 913.952C772.751 915.344 774.311 916.04 775.655 916.04C776.999 916.04 777.875 915.728 778.283 915.104C778.691 914.48 778.895 913.664 778.895 912.656C778.895 911.648 778.535 910.832 777.815 910.208C777.095 909.584 775.907 908.828 774.251 907.94C772.619 907.052 771.191 905.9 769.967 904.484C768.743 903.068 768.131 901.604 768.131 900.092C768.131 897.404 768.827 895.448 770.219 894.224C771.635 892.976 773.699 892.352 776.411 892.352C778.067 892.352 779.687 892.748 781.271 893.54C782.111 893.876 782.507 894.224 782.459 894.584C782.435 894.728 782.411 894.944 782.387 895.232C781.931 896.528 781.583 897.272 781.343 897.464C781.271 897.512 781.103 897.536 780.839 897.536C780.599 897.536 779.939 897.344 778.859 896.96C777.779 896.552 776.855 896.348 776.087 896.348C775.343 896.348 774.719 896.612 774.215 897.14C773.711 897.668 773.459 898.412 773.459 899.372C773.459 900.332 773.891 901.208 774.755 902C775.619 902.768 776.951 903.572 778.751 904.412C780.647 905.396 782.063 906.416 782.999 907.472C783.959 908.528 784.439 909.944 784.439 911.72C784.439 917.624 781.943 920.576 776.951 920.576C773.231 920.576 770.387 919.508 768.419 917.372Z" fill="white"/>
<path d="M343.552 180.512H348.16V115.104H344.32C342.613 115.019 341.461 114.464 340.864 113.44C340.267 112.245 339.968 110.069 339.968 106.912C339.968 102.133 341.376 99.744 344.192 99.744H366.848C370.603 99.744 372.48 101.067 372.48 103.712C372.48 111.307 370.987 115.104 368 115.104H364.8L366.08 140.704L366.208 180.512H370.048C373.035 180.597 374.528 181.963 374.528 184.608C374.357 192.203 372.267 196 368.256 196H344.064C342.528 195.915 341.461 195.36 340.864 194.336C340.267 193.141 339.968 190.923 339.968 187.68C339.968 182.901 341.163 180.512 343.552 180.512ZM459.033 180.896C461.166 180.896 462.233 182.261 462.233 184.992C462.233 187.723 462.19 189.771 462.105 191.136C461.764 194.208 460.398 195.957 458.009 196.384C450.414 197.493 444.782 198.048 441.113 198.048C428.398 198.048 419.652 194.464 414.873 187.296C410.094 180.128 407.705 167.2 407.705 148.512C407.705 134.859 408.729 124.448 410.777 117.28C412.91 110.027 416.281 104.949 420.889 102.048C425.582 99.1467 432.537 97.696 441.753 97.696C451.054 97.696 457.838 99.1467 462.105 102.048C462.958 102.645 463.385 103.371 463.385 104.224C463.385 105.077 462.958 106.699 462.105 109.088C461.337 111.392 460.569 113.056 459.801 114.08C459.118 115.019 458.393 115.488 457.625 115.488C456.857 115.488 456.26 115.445 455.833 115.36C449.433 114.08 443.886 113.44 439.193 113.44C434.585 113.44 431.556 116 430.105 121.12C428.74 126.24 428.057 134.56 428.057 146.08C428.057 157.515 428.356 165.493 428.953 170.016C429.55 174.539 430.66 177.696 432.281 179.488C433.902 181.28 436.462 182.176 439.961 182.176C443.545 182.176 447.556 181.963 451.993 181.536C456.516 181.109 458.862 180.896 459.033 180.896ZM498.719 186.656C496.927 184.437 496.031 182.773 496.031 181.664C496.031 180.469 497.012 178.891 498.975 176.928C501.023 174.88 502.346 173.771 502.943 173.6C503.626 173.429 504.266 173.344 504.863 173.344C505.46 173.344 506.442 173.728 507.807 174.496C514.122 179.445 519.668 181.92 524.447 181.92C529.226 181.92 532.34 180.811 533.791 178.592C535.242 176.373 535.967 173.472 535.967 169.888C535.967 166.304 534.687 163.403 532.127 161.184C529.567 158.965 525.343 156.277 519.455 153.12C513.652 149.963 508.575 145.867 504.223 140.832C499.871 135.797 497.695 130.592 497.695 125.216C497.695 115.659 500.17 108.704 505.119 104.352C510.154 99.9147 517.492 97.696 527.135 97.696C533.023 97.696 538.783 99.104 544.415 101.92C547.402 103.115 548.81 104.352 548.639 105.632C548.554 106.144 548.468 106.912 548.383 107.936C546.762 112.544 545.524 115.189 544.671 115.872C544.415 116.043 543.818 116.128 542.879 116.128C542.026 116.128 539.679 115.445 535.839 114.08C531.999 112.629 528.714 111.904 525.983 111.904C523.338 111.904 521.119 112.843 519.327 114.72C517.535 116.597 516.639 119.243 516.639 122.656C516.639 126.069 518.175 129.184 521.247 132C524.319 134.731 529.055 137.589 535.455 140.576C542.196 144.075 547.231 147.701 550.559 151.456C553.972 155.211 555.679 160.245 555.679 166.56C555.679 187.552 546.804 198.048 529.055 198.048C515.828 198.048 505.716 194.251 498.719 186.656Z" fill="#322214"/>
</g>
<defs>
<clipPath id="clip0_426_2">
<rect width="906" height="943" fill="white"/>
</clipPath>
</defs>
</svg>
