<svg width="939" height="969" viewBox="0 0 939 969" fill="none" xmlns="http://www.w3.org/2000/svg">
<g clip-path="url(#clip0_426_162)">
<path d="M114.23 240.61C114.37 240.62 114.52 240.64 114.66 240.66C114.87 239.11 115.07 237.56 115.28 236.01C114.95 237.56 114.6 239.09 114.23 240.61Z" fill="black"/>
<path d="M820.6 896.46H745.64C745.71 896.13 762.5 896.78 762.5 896.46V350.92C762.5 350.42 762.5 347 762.5 347C753 356 749.5 356.967 741 357L188.5 350.92C188.76 362.94 179.39 344.78 179.36 356.8C179.36 358.45 178.67 359.69 177.66 360.51V895.35C177.66 895.74 177.66 896.07 177.73 896.46H105.24C100.69 896.46 97 900.15 97 904.7V959.77C97 964.32 100.69 968.01 105.24 968.01H820.6C825.15 968.01 828.84 964.32 828.84 959.77V904.7C828.84 900.15 825.15 896.46 820.6 896.46ZM406.31 424.82C406.31 420.27 404.95 353.352 409.5 353.352L529.88 354.677V476.57C529.88 481.12 526.19 484.81 521.64 484.81H414.55C410 484.81 406.31 481.12 406.31 476.57V424.82ZM573.06 896.45C566.2 896.45 562.34 888.56 566.56 883.15L580.46 865.31C584.68 859.9 580.82 852.01 573.96 852.01H366.23C359.23 852.01 355.42 860.18 359.92 865.55L374.49 882.92C378.99 888.28 375.17 896.46 368.17 896.46L199.47 896.4C199.54 896.07 199.54 895.68 199.54 895.29V350.92C199.54 346.37 205.95 350.92 210.5 350.92L248 351.575C252.55 351.575 249.782 351.594 256.5 351.668L260 351.707C264.5 351.756 267.45 351.839 272 351.839L394.59 353.188V482.42C394.59 490.21 400.9 496.52 408.69 496.52H419.88C424.43 496.52 428.12 500.21 428.12 504.76V524.41C428.12 528.96 431.81 532.65 436.36 532.65H445.34C449.89 532.65 453.58 528.96 453.58 524.41V504.76C453.58 500.21 457.27 496.52 461.82 496.52H474.38C478.93 496.52 482.62 500.21 482.62 504.76V524.41C482.62 528.96 486.31 532.65 490.86 532.65H499.84C504.39 532.65 508.08 528.96 508.08 524.41V504.76C508.08 500.21 511.77 496.52 516.32 496.52H527.44C535.23 496.52 541.54 490.21 541.54 482.42V354.805L632 355.801C636.55 355.801 664 356.153 671 356.23L672.68 356.698C678.5 356.312 686.45 356.45 691 356.45L713.5 356.698C718.05 356.698 735 356.934 741 357V895.5C741 895.83 741 896.14 741 896.46L573.06 896.45Z" fill="#322214"/>
<path d="M143 325.89C143.12 324.18 143.21 322.46 143.3 320.74H142.25C142.53 322.46 142.78 324.17 143 325.89Z" fill="black"/>
<path d="M661.35 627.01C655.82 621.48 641.81 617.75 633.35 617.75H601.59C597.04 617.75 593.35 614.06 593.35 609.51C593.35 604.82 591.47 599.13 588.35 596.01C585.23 592.95 577.54 592.88 572.85 592.88H353.85C349.1 592.88 347.97 595.45 344.85 598.51C341.79 601.63 341.85 605.52 341.85 609.51V664.01C341.85 734.26 367.63 770.93 413.85 790.01C431.88 797.5 447.98 801.67 467.71 801.54C487.44 801.41 507.69 797.43 525.85 790.01C559.42 776.36 575.89 756.46 588.92 720.01C590.1 716.72 593.2 714.51 596.69 714.51H643.36C653.06 714.51 654.97 712.39 661.35 706.01C667.67 699.63 668.17 693.92 668.17 684.29V648.41C668.17 640.34 668.56 634.54 663.35 629.01C663.15 628.75 661.54 627.21 661.35 627.01ZM571.85 621.5V673.01C571.85 729.98 557.24 752.91 516.35 769.51C500.46 775.96 484.77 779.94 467.71 780.01C450.65 780.14 437.41 775.96 421.85 769.51C382.72 753.36 363.85 729.14 363.85 668.47V621.5C363.85 616.95 367.54 613.26 372.09 613.26H580.09C575.54 613.26 571.85 616.95 571.85 621.5ZM647.72 648.41V684.28C647.72 688.32 646.03 692.33 643.36 695C640.69 697.67 635.89 699.12 631.85 699.12H601.59C597.04 699.12 593.35 695.43 593.35 690.88V646.42C593.35 641.87 597.04 638.18 601.59 638.18H641.06C642.54 638.18 643.99 638.58 645.26 639.33C645.82 639.66 646.3 639.95 646.35 640C648.04 641.83 647.72 645.74 647.72 648.41Z" fill="black"/>
<path fill-rule="evenodd" clip-rule="evenodd" d="M671.92 751.67C671.7 748.16 669.09 745.28 665.45 744.52C663.87 744.13 662.57 743.86 662.57 743.86C662.57 743.86 618.14 734.88 563.55 776.3C541.34 793.15 509.47 805.2 482.93 804.64C479.38 804.55 476.04 806.49 474.47 809.53C472.9 812.58 473.41 816.13 475.77 818.53C494.07 837.22 531.14 861.74 587.68 844.94C638.65 829.78 673.61 789.76 671.92 751.67ZM655.04 759.42C650.6 790.99 622.53 817.13 582.91 828.93C551.44 838.3 521.17 829.1 502.65 817.6C523.35 815.42 549.34 808.26 574.5 789.18C606.55 764.85 640.93 759.86 655.04 759.42Z" fill="black"/>
<path fill-rule="evenodd" clip-rule="evenodd" d="M274.319 754.65C274.489 751.17 277.039 748.27 280.639 747.47C282.199 747.06 283.489 746.78 283.489 746.78C283.489 746.78 327.419 737.28 382.099 777.63C404.339 794.04 436.109 805.57 462.409 804.66C465.929 804.53 469.269 806.4 470.869 809.4C472.469 812.4 472.009 815.93 469.699 818.34C451.799 837.12 415.359 861.92 359.079 846.01C308.349 831.66 273.149 792.45 274.319 754.65ZM291.159 762.11C295.979 793.36 324.159 818.91 363.599 830.08C394.929 838.96 424.819 829.43 443.039 817.78C422.479 815.9 396.619 809.14 371.419 790.55C339.319 766.86 305.159 762.36 291.159 762.11Z" fill="black"/>
<path d="M610.85 881.51H321.85V896.51H610.85V881.51Z" fill="#F5F5F5"/>
<path d="M127.58 941.03C128.21 941.03 128.53 941.44 128.53 942.25C128.53 943.06 128.52 943.67 128.49 944.07C128.39 944.98 127.98 945.5 127.27 945.63C125.02 945.96 123.34 946.12 122.25 946.12C118.48 946.12 115.88 945.06 114.46 942.93C113.04 940.8 112.33 936.96 112.33 931.42C112.33 927.37 112.63 924.28 113.24 922.15C113.87 920 114.87 918.49 116.24 917.63C117.63 916.77 119.7 916.34 122.43 916.34C125.19 916.34 127.21 916.77 128.47 917.63C128.72 917.81 128.85 918.02 128.85 918.28C128.85 918.53 128.72 919.01 128.47 919.72C128.24 920.4 128.01 920.9 127.79 921.2C127.59 921.48 127.37 921.62 127.14 921.62C126.91 921.62 126.73 921.61 126.61 921.58C124.71 921.2 123.06 921.01 121.67 921.01C120.3 921.01 119.4 921.77 118.97 923.29C118.56 924.81 118.36 927.28 118.36 930.7C118.36 934.1 118.45 936.46 118.63 937.81C118.81 939.15 119.14 940.09 119.62 940.62C120.1 941.15 120.86 941.42 121.9 941.42C122.96 941.42 124.15 941.36 125.47 941.23C126.83 941.09 127.53 941.03 127.58 941.03Z" fill="black"/>
<path d="M597.18 428H689.18C700.23 428 709.18 433.46 709.18 444.51V457.51C709.18 468.56 700.23 473 689.18 473H597.18C586.13 473 577.18 468.56 577.18 457.51V444.51C577.18 433.46 586.13 428 597.18 428Z" fill="black"/>
<path d="M618.18 443.51H541.18V459.51H618.18V443.51Z" fill="black"/>
<path d="M903 299H39V415H903V299Z" fill="#F5F5F5"/>
<path d="M718.928 230.661C705.004 173.822 660.985 0 575.575 0C555.033 0 536.707 5.87298 521.286 13.8654C506.407 21.5214 488.215 25.668 469.505 25.668C450.796 25.668 432.604 21.5214 417.725 13.8654C402.304 5.94231 383.978 0 363.436 0C278.04 0 234.021 173.783 220.068 230.641C276.998 243.11 357.581 253.538 469.491 253.538C581.4 253.538 662.042 243.13 718.928 230.661ZM928.603 193.838C924.227 191.854 918.989 190.921 913.732 191.19C908.475 191.46 903.506 192.916 899.624 195.324C898.157 196.215 751.033 285.231 469.476 285.231C189.489 285.231 40.7071 196.156 39.2105 195.264C35.3184 192.892 30.3617 191.468 25.1306 191.218C19.8995 190.969 14.6953 191.909 10.3479 193.888C6.00042 195.868 2.76002 198.773 1.14338 202.14C-0.473256 205.507 -0.373048 209.143 1.42803 212.467C2.49914 214.468 114.878 412 469.491 412C824.103 412 936.482 214.468 937.553 212.467C939.371 209.135 939.479 205.488 937.859 202.11C936.238 198.731 932.984 195.819 928.618 193.838H928.603Z" fill="#322214"/>
<path d="M200 326H177V907H200V326Z" fill="black"/>
<path d="M763 323H740V904H763V323Z" fill="black"/>
<path d="M360.552 171.512H365.16V106.104H361.32C359.613 106.019 358.461 105.464 357.864 104.44C357.267 103.245 356.968 101.069 356.968 97.912C356.968 93.1333 358.376 90.744 361.192 90.744H383.848C387.603 90.744 389.48 92.0667 389.48 94.712C389.48 102.307 387.987 106.104 385 106.104H381.8L383.08 131.704L383.208 171.512H387.048C390.035 171.597 391.528 172.963 391.528 175.608C391.357 183.203 389.267 187 385.256 187H361.064C359.528 186.915 358.461 186.36 357.864 185.336C357.267 184.141 356.968 181.923 356.968 178.68C356.968 173.901 358.163 171.512 360.552 171.512ZM476.033 171.896C478.166 171.896 479.233 173.261 479.233 175.992C479.233 178.723 479.19 180.771 479.105 182.136C478.764 185.208 477.398 186.957 475.009 187.384C467.414 188.493 461.782 189.048 458.113 189.048C445.398 189.048 436.652 185.464 431.873 178.296C427.094 171.128 424.705 158.2 424.705 139.512C424.705 125.859 425.729 115.448 427.777 108.28C429.91 101.027 433.281 95.9493 437.889 93.048C442.582 90.1467 449.537 88.696 458.753 88.696C468.054 88.696 474.838 90.1467 479.105 93.048C479.958 93.6453 480.385 94.3707 480.385 95.224C480.385 96.0773 479.958 97.6987 479.105 100.088C478.337 102.392 477.569 104.056 476.801 105.08C476.118 106.019 475.393 106.488 474.625 106.488C473.857 106.488 473.26 106.445 472.833 106.36C466.433 105.08 460.886 104.44 456.193 104.44C451.585 104.44 448.556 107 447.105 112.12C445.74 117.24 445.057 125.56 445.057 137.08C445.057 148.515 445.356 156.493 445.953 161.016C446.55 165.539 447.66 168.696 449.281 170.488C450.902 172.28 453.462 173.176 456.961 173.176C460.545 173.176 464.556 172.963 468.993 172.536C473.516 172.109 475.862 171.896 476.033 171.896ZM515.719 177.656C513.927 175.437 513.031 173.773 513.031 172.664C513.031 171.469 514.012 169.891 515.975 167.928C518.023 165.88 519.346 164.771 519.943 164.6C520.626 164.429 521.266 164.344 521.863 164.344C522.46 164.344 523.442 164.728 524.807 165.496C531.122 170.445 536.668 172.92 541.447 172.92C546.226 172.92 549.34 171.811 550.791 169.592C552.242 167.373 552.967 164.472 552.967 160.888C552.967 157.304 551.687 154.403 549.127 152.184C546.567 149.965 542.343 147.277 536.455 144.12C530.652 140.963 525.575 136.867 521.223 131.832C516.871 126.797 514.695 121.592 514.695 116.216C514.695 106.659 517.17 99.704 522.119 95.352C527.154 90.9147 534.492 88.696 544.135 88.696C550.023 88.696 555.783 90.104 561.415 92.92C564.402 94.1147 565.81 95.352 565.639 96.632C565.554 97.144 565.468 97.912 565.383 98.936C563.762 103.544 562.524 106.189 561.671 106.872C561.415 107.043 560.818 107.128 559.879 107.128C559.026 107.128 556.679 106.445 552.839 105.08C548.999 103.629 545.714 102.904 542.983 102.904C540.338 102.904 538.119 103.843 536.327 105.72C534.535 107.597 533.639 110.243 533.639 113.656C533.639 117.069 535.175 120.184 538.247 123C541.319 125.731 546.055 128.589 552.455 131.576C559.196 135.075 564.231 138.701 567.559 142.456C570.972 146.211 572.679 151.245 572.679 157.56C572.679 178.552 563.804 189.048 546.055 189.048C532.828 189.048 522.716 185.251 515.719 177.656Z" fill="#D8D2CD"/>
<path d="M130.124 941.644H131.42V923.248H130.34C129.86 923.224 129.536 923.068 129.368 922.78C129.2 922.444 129.116 921.832 129.116 920.944C129.116 919.6 129.512 918.928 130.304 918.928H136.676C137.732 918.928 138.26 919.3 138.26 920.044C138.26 922.18 137.84 923.248 137 923.248H136.1L136.46 930.448L136.496 941.644H137.576C138.416 941.668 138.836 942.052 138.836 942.796C138.788 944.932 138.2 946 137.072 946H130.268C129.836 945.976 129.536 945.82 129.368 945.532C129.2 945.196 129.116 944.572 129.116 943.66C129.116 942.316 129.452 941.644 130.124 941.644ZM162.603 941.752C163.203 941.752 163.503 942.136 163.503 942.904C163.503 943.672 163.491 944.248 163.467 944.632C163.371 945.496 162.987 945.988 162.315 946.108C160.179 946.42 158.595 946.576 157.563 946.576C153.987 946.576 151.527 945.568 150.183 943.552C148.839 941.536 148.167 937.9 148.167 932.644C148.167 928.804 148.455 925.876 149.031 923.86C149.631 921.82 150.579 920.392 151.875 919.576C153.195 918.76 155.151 918.352 157.743 918.352C160.359 918.352 162.267 918.76 163.467 919.576C163.707 919.744 163.827 919.948 163.827 920.188C163.827 920.428 163.707 920.884 163.467 921.556C163.251 922.204 163.035 922.672 162.819 922.96C162.627 923.224 162.423 923.356 162.207 923.356C161.991 923.356 161.823 923.344 161.703 923.32C159.903 922.96 158.343 922.78 157.023 922.78C155.727 922.78 154.875 923.5 154.467 924.94C154.083 926.38 153.891 928.72 153.891 931.96C153.891 935.176 153.975 937.42 154.143 938.692C154.311 939.964 154.623 940.852 155.079 941.356C155.535 941.86 156.255 942.112 157.239 942.112C158.247 942.112 159.375 942.052 160.623 941.932C161.895 941.812 162.555 941.752 162.603 941.752ZM173.765 943.372C173.261 942.748 173.009 942.28 173.009 941.968C173.009 941.632 173.285 941.188 173.837 940.636C174.413 940.06 174.785 939.748 174.953 939.7C175.145 939.652 175.325 939.628 175.493 939.628C175.661 939.628 175.937 939.736 176.321 939.952C178.097 941.344 179.657 942.04 181.001 942.04C182.345 942.04 183.221 941.728 183.629 941.104C184.037 940.48 184.241 939.664 184.241 938.656C184.241 937.648 183.881 936.832 183.161 936.208C182.441 935.584 181.253 934.828 179.597 933.94C177.965 933.052 176.537 931.9 175.313 930.484C174.089 929.068 173.477 927.604 173.477 926.092C173.477 923.404 174.173 921.448 175.565 920.224C176.981 918.976 179.045 918.352 181.757 918.352C183.413 918.352 185.033 918.748 186.617 919.54C187.457 919.876 187.853 920.224 187.805 920.584C187.781 920.728 187.757 920.944 187.733 921.232C187.277 922.528 186.929 923.272 186.689 923.464C186.617 923.512 186.449 923.536 186.185 923.536C185.945 923.536 185.285 923.344 184.205 922.96C183.125 922.552 182.201 922.348 181.433 922.348C180.689 922.348 180.065 922.612 179.561 923.14C179.057 923.668 178.805 924.412 178.805 925.372C178.805 926.332 179.237 927.208 180.101 928C180.965 928.768 182.297 929.572 184.097 930.412C185.993 931.396 187.409 932.416 188.345 933.472C189.305 934.528 189.785 935.944 189.785 937.72C189.785 943.624 187.289 946.576 182.297 946.576C178.577 946.576 175.733 945.508 173.765 943.372ZM216.932 941.644H218.228V923.248H217.148C216.668 923.224 216.344 923.068 216.176 922.78C216.008 922.444 215.924 921.832 215.924 920.944C215.924 919.6 216.32 918.928 217.112 918.928H223.484C224.54 918.928 225.068 919.3 225.068 920.044C225.068 922.18 224.648 923.248 223.808 923.248H222.908L223.268 930.448L223.304 941.644H224.384C225.224 941.668 225.644 942.052 225.644 942.796C225.596 944.932 225.008 946 223.88 946H217.076C216.644 945.976 216.344 945.82 216.176 945.532C216.008 945.196 215.924 944.572 215.924 943.66C215.924 942.316 216.26 941.644 216.932 941.644ZM249.411 941.752C250.011 941.752 250.311 942.136 250.311 942.904C250.311 943.672 250.299 944.248 250.275 944.632C250.179 945.496 249.795 945.988 249.123 946.108C246.987 946.42 245.403 946.576 244.371 946.576C240.795 946.576 238.335 945.568 236.991 943.552C235.647 941.536 234.975 937.9 234.975 932.644C234.975 928.804 235.263 925.876 235.839 923.86C236.439 921.82 237.387 920.392 238.683 919.576C240.003 918.76 241.959 918.352 244.551 918.352C247.167 918.352 249.075 918.76 250.275 919.576C250.515 919.744 250.635 919.948 250.635 920.188C250.635 920.428 250.515 920.884 250.275 921.556C250.059 922.204 249.843 922.672 249.627 922.96C249.435 923.224 249.231 923.356 249.015 923.356C248.799 923.356 248.631 923.344 248.511 923.32C246.711 922.96 245.151 922.78 243.831 922.78C242.535 922.78 241.683 923.5 241.275 924.94C240.891 926.38 240.699 928.72 240.699 931.96C240.699 935.176 240.783 937.42 240.951 938.692C241.119 939.964 241.431 940.852 241.887 941.356C242.343 941.86 243.063 942.112 244.047 942.112C245.055 942.112 246.183 942.052 247.431 941.932C248.703 941.812 249.363 941.752 249.411 941.752ZM260.573 943.372C260.069 942.748 259.817 942.28 259.817 941.968C259.817 941.632 260.093 941.188 260.645 940.636C261.221 940.06 261.593 939.748 261.761 939.7C261.953 939.652 262.133 939.628 262.301 939.628C262.469 939.628 262.745 939.736 263.129 939.952C264.905 941.344 266.465 942.04 267.809 942.04C269.153 942.04 270.029 941.728 270.437 941.104C270.845 940.48 271.049 939.664 271.049 938.656C271.049 937.648 270.689 936.832 269.969 936.208C269.249 935.584 268.061 934.828 266.405 933.94C264.773 933.052 263.345 931.9 262.121 930.484C260.897 929.068 260.285 927.604 260.285 926.092C260.285 923.404 260.981 921.448 262.373 920.224C263.789 918.976 265.853 918.352 268.565 918.352C270.221 918.352 271.841 918.748 273.425 919.54C274.265 919.876 274.661 920.224 274.613 920.584C274.589 920.728 274.565 920.944 274.541 921.232C274.085 922.528 273.737 923.272 273.497 923.464C273.425 923.512 273.257 923.536 272.993 923.536C272.753 923.536 272.093 923.344 271.013 922.96C269.933 922.552 269.009 922.348 268.241 922.348C267.497 922.348 266.873 922.612 266.369 923.14C265.865 923.668 265.613 924.412 265.613 925.372C265.613 926.332 266.045 927.208 266.909 928C267.773 928.768 269.105 929.572 270.905 930.412C272.801 931.396 274.217 932.416 275.153 933.472C276.113 934.528 276.593 935.944 276.593 937.72C276.593 943.624 274.097 946.576 269.105 946.576C265.385 946.576 262.541 945.508 260.573 943.372ZM303.74 941.644H305.036V923.248H303.956C303.476 923.224 303.152 923.068 302.984 922.78C302.816 922.444 302.732 921.832 302.732 920.944C302.732 919.6 303.128 918.928 303.92 918.928H310.292C311.348 918.928 311.876 919.3 311.876 920.044C311.876 922.18 311.456 923.248 310.616 923.248H309.716L310.076 930.448L310.112 941.644H311.192C312.032 941.668 312.452 942.052 312.452 942.796C312.404 944.932 311.816 946 310.688 946H303.884C303.452 945.976 303.152 945.82 302.984 945.532C302.816 945.196 302.732 944.572 302.732 943.66C302.732 942.316 303.068 941.644 303.74 941.644ZM336.219 941.752C336.819 941.752 337.119 942.136 337.119 942.904C337.119 943.672 337.107 944.248 337.083 944.632C336.987 945.496 336.603 945.988 335.931 946.108C333.795 946.42 332.211 946.576 331.179 946.576C327.603 946.576 325.143 945.568 323.799 943.552C322.455 941.536 321.783 937.9 321.783 932.644C321.783 928.804 322.071 925.876 322.647 923.86C323.247 921.82 324.195 920.392 325.491 919.576C326.811 918.76 328.767 918.352 331.359 918.352C333.975 918.352 335.883 918.76 337.083 919.576C337.323 919.744 337.443 919.948 337.443 920.188C337.443 920.428 337.323 920.884 337.083 921.556C336.867 922.204 336.651 922.672 336.435 922.96C336.243 923.224 336.039 923.356 335.823 923.356C335.607 923.356 335.439 923.344 335.319 923.32C333.519 922.96 331.959 922.78 330.639 922.78C329.343 922.78 328.491 923.5 328.083 924.94C327.699 926.38 327.507 928.72 327.507 931.96C327.507 935.176 327.591 937.42 327.759 938.692C327.927 939.964 328.239 940.852 328.695 941.356C329.151 941.86 329.871 942.112 330.855 942.112C331.863 942.112 332.991 942.052 334.239 941.932C335.511 941.812 336.171 941.752 336.219 941.752ZM347.38 943.372C346.876 942.748 346.624 942.28 346.624 941.968C346.624 941.632 346.9 941.188 347.452 940.636C348.028 940.06 348.4 939.748 348.568 939.7C348.76 939.652 348.94 939.628 349.108 939.628C349.276 939.628 349.552 939.736 349.936 939.952C351.712 941.344 353.272 942.04 354.616 942.04C355.96 942.04 356.836 941.728 357.244 941.104C357.652 940.48 357.856 939.664 357.856 938.656C357.856 937.648 357.496 936.832 356.776 936.208C356.056 935.584 354.868 934.828 353.212 933.94C351.58 933.052 350.152 931.9 348.928 930.484C347.704 929.068 347.092 927.604 347.092 926.092C347.092 923.404 347.788 921.448 349.18 920.224C350.596 918.976 352.66 918.352 355.372 918.352C357.028 918.352 358.648 918.748 360.232 919.54C361.072 919.876 361.468 920.224 361.42 920.584C361.396 920.728 361.372 920.944 361.348 921.232C360.892 922.528 360.544 923.272 360.304 923.464C360.232 923.512 360.064 923.536 359.8 923.536C359.56 923.536 358.9 923.344 357.82 922.96C356.74 922.552 355.816 922.348 355.048 922.348C354.304 922.348 353.68 922.612 353.176 923.14C352.672 923.668 352.42 924.412 352.42 925.372C352.42 926.332 352.852 927.208 353.716 928C354.58 928.768 355.912 929.572 357.712 930.412C359.608 931.396 361.024 932.416 361.96 933.472C362.92 934.528 363.4 935.944 363.4 937.72C363.4 943.624 360.904 946.576 355.912 946.576C352.192 946.576 349.348 945.508 347.38 943.372ZM390.547 941.644H391.843V923.248H390.763C390.283 923.224 389.959 923.068 389.791 922.78C389.623 922.444 389.539 921.832 389.539 920.944C389.539 919.6 389.935 918.928 390.727 918.928H397.099C398.155 918.928 398.683 919.3 398.683 920.044C398.683 922.18 398.263 923.248 397.423 923.248H396.523L396.883 930.448L396.919 941.644H397.999C398.839 941.668 399.259 942.052 399.259 942.796C399.211 944.932 398.623 946 397.495 946H390.691C390.259 945.976 389.959 945.82 389.791 945.532C389.623 945.196 389.539 944.572 389.539 943.66C389.539 942.316 389.875 941.644 390.547 941.644ZM423.026 941.752C423.626 941.752 423.926 942.136 423.926 942.904C423.926 943.672 423.914 944.248 423.89 944.632C423.794 945.496 423.41 945.988 422.738 946.108C420.602 946.42 419.018 946.576 417.986 946.576C414.41 946.576 411.95 945.568 410.606 943.552C409.262 941.536 408.59 937.9 408.59 932.644C408.59 928.804 408.878 925.876 409.454 923.86C410.054 921.82 411.002 920.392 412.298 919.576C413.618 918.76 415.574 918.352 418.166 918.352C420.782 918.352 422.69 918.76 423.89 919.576C424.13 919.744 424.25 919.948 424.25 920.188C424.25 920.428 424.13 920.884 423.89 921.556C423.674 922.204 423.458 922.672 423.242 922.96C423.05 923.224 422.846 923.356 422.63 923.356C422.414 923.356 422.246 923.344 422.126 923.32C420.326 922.96 418.766 922.78 417.446 922.78C416.15 922.78 415.298 923.5 414.89 924.94C414.506 926.38 414.314 928.72 414.314 931.96C414.314 935.176 414.398 937.42 414.566 938.692C414.734 939.964 415.046 940.852 415.502 941.356C415.958 941.86 416.678 942.112 417.662 942.112C418.67 942.112 419.798 942.052 421.046 941.932C422.318 941.812 422.978 941.752 423.026 941.752ZM434.188 943.372C433.684 942.748 433.432 942.28 433.432 941.968C433.432 941.632 433.708 941.188 434.26 940.636C434.836 940.06 435.208 939.748 435.376 939.7C435.568 939.652 435.748 939.628 435.916 939.628C436.084 939.628 436.36 939.736 436.744 939.952C438.52 941.344 440.08 942.04 441.424 942.04C442.768 942.04 443.644 941.728 444.052 941.104C444.46 940.48 444.664 939.664 444.664 938.656C444.664 937.648 444.304 936.832 443.584 936.208C442.864 935.584 441.676 934.828 440.02 933.94C438.388 933.052 436.96 931.9 435.736 930.484C434.512 929.068 433.9 927.604 433.9 926.092C433.9 923.404 434.596 921.448 435.988 920.224C437.404 918.976 439.468 918.352 442.18 918.352C443.836 918.352 445.456 918.748 447.04 919.54C447.88 919.876 448.276 920.224 448.228 920.584C448.204 920.728 448.18 920.944 448.156 921.232C447.7 922.528 447.352 923.272 447.112 923.464C447.04 923.512 446.872 923.536 446.608 923.536C446.368 923.536 445.708 923.344 444.628 922.96C443.548 922.552 442.624 922.348 441.856 922.348C441.112 922.348 440.488 922.612 439.984 923.14C439.48 923.668 439.228 924.412 439.228 925.372C439.228 926.332 439.66 927.208 440.524 928C441.388 928.768 442.72 929.572 444.52 930.412C446.416 931.396 447.832 932.416 448.768 933.472C449.728 934.528 450.208 935.944 450.208 937.72C450.208 943.624 447.712 946.576 442.72 946.576C439 946.576 436.156 945.508 434.188 943.372ZM477.355 941.644H478.651V923.248H477.571C477.091 923.224 476.767 923.068 476.599 922.78C476.431 922.444 476.347 921.832 476.347 920.944C476.347 919.6 476.743 918.928 477.535 918.928H483.907C484.963 918.928 485.491 919.3 485.491 920.044C485.491 922.18 485.071 923.248 484.231 923.248H483.331L483.691 930.448L483.727 941.644H484.807C485.647 941.668 486.067 942.052 486.067 942.796C486.019 944.932 485.431 946 484.303 946H477.499C477.067 945.976 476.767 945.82 476.599 945.532C476.431 945.196 476.347 944.572 476.347 943.66C476.347 942.316 476.683 941.644 477.355 941.644ZM509.834 941.752C510.434 941.752 510.734 942.136 510.734 942.904C510.734 943.672 510.722 944.248 510.698 944.632C510.602 945.496 510.218 945.988 509.546 946.108C507.41 946.42 505.826 946.576 504.794 946.576C501.218 946.576 498.758 945.568 497.414 943.552C496.07 941.536 495.398 937.9 495.398 932.644C495.398 928.804 495.686 925.876 496.262 923.86C496.862 921.82 497.81 920.392 499.106 919.576C500.426 918.76 502.382 918.352 504.974 918.352C507.59 918.352 509.498 918.76 510.698 919.576C510.938 919.744 511.058 919.948 511.058 920.188C511.058 920.428 510.938 920.884 510.698 921.556C510.482 922.204 510.266 922.672 510.05 922.96C509.858 923.224 509.654 923.356 509.438 923.356C509.222 923.356 509.054 923.344 508.934 923.32C507.134 922.96 505.574 922.78 504.254 922.78C502.958 922.78 502.106 923.5 501.698 924.94C501.314 926.38 501.122 928.72 501.122 931.96C501.122 935.176 501.206 937.42 501.374 938.692C501.542 939.964 501.854 940.852 502.31 941.356C502.766 941.86 503.486 942.112 504.47 942.112C505.478 942.112 506.606 942.052 507.854 941.932C509.126 941.812 509.786 941.752 509.834 941.752ZM520.996 943.372C520.492 942.748 520.24 942.28 520.24 941.968C520.24 941.632 520.516 941.188 521.068 940.636C521.644 940.06 522.016 939.748 522.184 939.7C522.376 939.652 522.556 939.628 522.724 939.628C522.892 939.628 523.168 939.736 523.552 939.952C525.328 941.344 526.888 942.04 528.232 942.04C529.576 942.04 530.452 941.728 530.86 941.104C531.268 940.48 531.472 939.664 531.472 938.656C531.472 937.648 531.112 936.832 530.392 936.208C529.672 935.584 528.484 934.828 526.828 933.94C525.196 933.052 523.768 931.9 522.544 930.484C521.32 929.068 520.708 927.604 520.708 926.092C520.708 923.404 521.404 921.448 522.796 920.224C524.212 918.976 526.276 918.352 528.988 918.352C530.644 918.352 532.264 918.748 533.848 919.54C534.688 919.876 535.084 920.224 535.036 920.584C535.012 920.728 534.988 920.944 534.964 921.232C534.508 922.528 534.16 923.272 533.92 923.464C533.848 923.512 533.68 923.536 533.416 923.536C533.176 923.536 532.516 923.344 531.436 922.96C530.356 922.552 529.432 922.348 528.664 922.348C527.92 922.348 527.296 922.612 526.792 923.14C526.288 923.668 526.036 924.412 526.036 925.372C526.036 926.332 526.468 927.208 527.332 928C528.196 928.768 529.528 929.572 531.328 930.412C533.224 931.396 534.64 932.416 535.576 933.472C536.536 934.528 537.016 935.944 537.016 937.72C537.016 943.624 534.52 946.576 529.528 946.576C525.808 946.576 522.964 945.508 520.996 943.372ZM564.163 941.644H565.459V923.248H564.379C563.899 923.224 563.575 923.068 563.407 922.78C563.239 922.444 563.155 921.832 563.155 920.944C563.155 919.6 563.551 918.928 564.343 918.928H570.715C571.771 918.928 572.299 919.3 572.299 920.044C572.299 922.18 571.879 923.248 571.039 923.248H570.139L570.499 930.448L570.535 941.644H571.615C572.455 941.668 572.875 942.052 572.875 942.796C572.827 944.932 572.239 946 571.111 946H564.307C563.875 945.976 563.575 945.82 563.407 945.532C563.239 945.196 563.155 944.572 563.155 943.66C563.155 942.316 563.491 941.644 564.163 941.644ZM596.642 941.752C597.242 941.752 597.542 942.136 597.542 942.904C597.542 943.672 597.53 944.248 597.506 944.632C597.41 945.496 597.026 945.988 596.354 946.108C594.218 946.42 592.634 946.576 591.602 946.576C588.026 946.576 585.566 945.568 584.222 943.552C582.878 941.536 582.206 937.9 582.206 932.644C582.206 928.804 582.494 925.876 583.07 923.86C583.67 921.82 584.618 920.392 585.914 919.576C587.234 918.76 589.19 918.352 591.782 918.352C594.398 918.352 596.306 918.76 597.506 919.576C597.746 919.744 597.866 919.948 597.866 920.188C597.866 920.428 597.746 920.884 597.506 921.556C597.29 922.204 597.074 922.672 596.858 922.96C596.666 923.224 596.462 923.356 596.246 923.356C596.03 923.356 595.862 923.344 595.742 923.32C593.942 922.96 592.382 922.78 591.062 922.78C589.766 922.78 588.914 923.5 588.506 924.94C588.122 926.38 587.93 928.72 587.93 931.96C587.93 935.176 588.014 937.42 588.182 938.692C588.35 939.964 588.662 940.852 589.118 941.356C589.574 941.86 590.294 942.112 591.278 942.112C592.286 942.112 593.414 942.052 594.662 941.932C595.934 941.812 596.594 941.752 596.642 941.752ZM607.804 943.372C607.3 942.748 607.048 942.28 607.048 941.968C607.048 941.632 607.324 941.188 607.876 940.636C608.452 940.06 608.824 939.748 608.992 939.7C609.184 939.652 609.364 939.628 609.532 939.628C609.7 939.628 609.976 939.736 610.36 939.952C612.136 941.344 613.696 942.04 615.04 942.04C616.384 942.04 617.26 941.728 617.668 941.104C618.076 940.48 618.28 939.664 618.28 938.656C618.28 937.648 617.92 936.832 617.2 936.208C616.48 935.584 615.292 934.828 613.636 933.94C612.004 933.052 610.576 931.9 609.352 930.484C608.128 929.068 607.516 927.604 607.516 926.092C607.516 923.404 608.212 921.448 609.604 920.224C611.02 918.976 613.084 918.352 615.796 918.352C617.452 918.352 619.072 918.748 620.656 919.54C621.496 919.876 621.892 920.224 621.844 920.584C621.82 920.728 621.796 920.944 621.772 921.232C621.316 922.528 620.968 923.272 620.728 923.464C620.656 923.512 620.488 923.536 620.224 923.536C619.984 923.536 619.324 923.344 618.244 922.96C617.164 922.552 616.24 922.348 615.472 922.348C614.728 922.348 614.104 922.612 613.6 923.14C613.096 923.668 612.844 924.412 612.844 925.372C612.844 926.332 613.276 927.208 614.14 928C615.004 928.768 616.336 929.572 618.136 930.412C620.032 931.396 621.448 932.416 622.384 933.472C623.344 934.528 623.824 935.944 623.824 937.72C623.824 943.624 621.328 946.576 616.336 946.576C612.616 946.576 609.772 945.508 607.804 943.372ZM650.971 941.644H652.267V923.248H651.187C650.707 923.224 650.383 923.068 650.215 922.78C650.047 922.444 649.963 921.832 649.963 920.944C649.963 919.6 650.359 918.928 651.151 918.928H657.523C658.579 918.928 659.107 919.3 659.107 920.044C659.107 922.18 658.687 923.248 657.847 923.248H656.947L657.307 930.448L657.343 941.644H658.423C659.263 941.668 659.683 942.052 659.683 942.796C659.635 944.932 659.047 946 657.919 946H651.115C650.683 945.976 650.383 945.82 650.215 945.532C650.047 945.196 649.963 944.572 649.963 943.66C649.963 942.316 650.299 941.644 650.971 941.644ZM683.45 941.752C684.05 941.752 684.35 942.136 684.35 942.904C684.35 943.672 684.338 944.248 684.314 944.632C684.218 945.496 683.834 945.988 683.162 946.108C681.026 946.42 679.442 946.576 678.41 946.576C674.834 946.576 672.374 945.568 671.03 943.552C669.686 941.536 669.014 937.9 669.014 932.644C669.014 928.804 669.302 925.876 669.878 923.86C670.478 921.82 671.426 920.392 672.722 919.576C674.042 918.76 675.998 918.352 678.59 918.352C681.206 918.352 683.114 918.76 684.314 919.576C684.554 919.744 684.674 919.948 684.674 920.188C684.674 920.428 684.554 920.884 684.314 921.556C684.098 922.204 683.882 922.672 683.666 922.96C683.474 923.224 683.27 923.356 683.054 923.356C682.838 923.356 682.67 923.344 682.55 923.32C680.75 922.96 679.19 922.78 677.87 922.78C676.574 922.78 675.722 923.5 675.314 924.94C674.93 926.38 674.738 928.72 674.738 931.96C674.738 935.176 674.822 937.42 674.99 938.692C675.158 939.964 675.47 940.852 675.926 941.356C676.382 941.86 677.102 942.112 678.086 942.112C679.094 942.112 680.222 942.052 681.47 941.932C682.742 941.812 683.402 941.752 683.45 941.752ZM694.612 943.372C694.108 942.748 693.856 942.28 693.856 941.968C693.856 941.632 694.132 941.188 694.684 940.636C695.26 940.06 695.632 939.748 695.8 939.7C695.992 939.652 696.172 939.628 696.34 939.628C696.508 939.628 696.784 939.736 697.168 939.952C698.944 941.344 700.504 942.04 701.848 942.04C703.192 942.04 704.068 941.728 704.476 941.104C704.884 940.48 705.088 939.664 705.088 938.656C705.088 937.648 704.728 936.832 704.008 936.208C703.288 935.584 702.1 934.828 700.444 933.94C698.812 933.052 697.384 931.9 696.16 930.484C694.936 929.068 694.324 927.604 694.324 926.092C694.324 923.404 695.02 921.448 696.412 920.224C697.828 918.976 699.892 918.352 702.604 918.352C704.26 918.352 705.88 918.748 707.464 919.54C708.304 919.876 708.7 920.224 708.652 920.584C708.628 920.728 708.604 920.944 708.58 921.232C708.124 922.528 707.776 923.272 707.536 923.464C707.464 923.512 707.296 923.536 707.032 923.536C706.792 923.536 706.132 923.344 705.052 922.96C703.972 922.552 703.048 922.348 702.28 922.348C701.536 922.348 700.912 922.612 700.408 923.14C699.904 923.668 699.652 924.412 699.652 925.372C699.652 926.332 700.084 927.208 700.948 928C701.812 928.768 703.144 929.572 704.944 930.412C706.84 931.396 708.256 932.416 709.192 933.472C710.152 934.528 710.632 935.944 710.632 937.72C710.632 943.624 708.136 946.576 703.144 946.576C699.424 946.576 696.58 945.508 694.612 943.372ZM737.779 941.644H739.075V923.248H737.995C737.515 923.224 737.191 923.068 737.023 922.78C736.855 922.444 736.771 921.832 736.771 920.944C736.771 919.6 737.167 918.928 737.959 918.928H744.331C745.387 918.928 745.915 919.3 745.915 920.044C745.915 922.18 745.495 923.248 744.655 923.248H743.755L744.115 930.448L744.151 941.644H745.231C746.071 941.668 746.491 942.052 746.491 942.796C746.443 944.932 745.855 946 744.727 946H737.923C737.491 945.976 737.191 945.82 737.023 945.532C736.855 945.196 736.771 944.572 736.771 943.66C736.771 942.316 737.107 941.644 737.779 941.644ZM770.258 941.752C770.858 941.752 771.158 942.136 771.158 942.904C771.158 943.672 771.146 944.248 771.122 944.632C771.026 945.496 770.642 945.988 769.97 946.108C767.834 946.42 766.25 946.576 765.218 946.576C761.642 946.576 759.182 945.568 757.838 943.552C756.494 941.536 755.822 937.9 755.822 932.644C755.822 928.804 756.11 925.876 756.686 923.86C757.286 921.82 758.234 920.392 759.53 919.576C760.85 918.76 762.806 918.352 765.398 918.352C768.014 918.352 769.922 918.76 771.122 919.576C771.362 919.744 771.482 919.948 771.482 920.188C771.482 920.428 771.362 920.884 771.122 921.556C770.906 922.204 770.69 922.672 770.474 922.96C770.282 923.224 770.078 923.356 769.862 923.356C769.646 923.356 769.478 923.344 769.358 923.32C767.558 922.96 765.998 922.78 764.678 922.78C763.382 922.78 762.53 923.5 762.122 924.94C761.738 926.38 761.546 928.72 761.546 931.96C761.546 935.176 761.63 937.42 761.798 938.692C761.966 939.964 762.278 940.852 762.734 941.356C763.19 941.86 763.91 942.112 764.894 942.112C765.902 942.112 767.03 942.052 768.278 941.932C769.55 941.812 770.21 941.752 770.258 941.752ZM781.419 943.372C780.915 942.748 780.663 942.28 780.663 941.968C780.663 941.632 780.939 941.188 781.491 940.636C782.067 940.06 782.439 939.748 782.607 939.7C782.799 939.652 782.979 939.628 783.147 939.628C783.315 939.628 783.591 939.736 783.975 939.952C785.751 941.344 787.311 942.04 788.655 942.04C789.999 942.04 790.875 941.728 791.283 941.104C791.691 940.48 791.895 939.664 791.895 938.656C791.895 937.648 791.535 936.832 790.815 936.208C790.095 935.584 788.907 934.828 787.251 933.94C785.619 933.052 784.191 931.9 782.967 930.484C781.743 929.068 781.131 927.604 781.131 926.092C781.131 923.404 781.827 921.448 783.219 920.224C784.635 918.976 786.699 918.352 789.411 918.352C791.067 918.352 792.687 918.748 794.271 919.54C795.111 919.876 795.507 920.224 795.459 920.584C795.435 920.728 795.411 920.944 795.387 921.232C794.931 922.528 794.583 923.272 794.343 923.464C794.271 923.512 794.103 923.536 793.839 923.536C793.599 923.536 792.939 923.344 791.859 922.96C790.779 922.552 789.855 922.348 789.087 922.348C788.343 922.348 787.719 922.612 787.215 923.14C786.711 923.668 786.459 924.412 786.459 925.372C786.459 926.332 786.891 927.208 787.755 928C788.619 928.768 789.951 929.572 791.751 930.412C793.647 931.396 795.063 932.416 795.999 933.472C796.959 934.528 797.439 935.944 797.439 937.72C797.439 943.624 794.943 946.576 789.951 946.576C786.231 946.576 783.387 945.508 781.419 943.372Z" fill="white"/>
</g>
<defs>
<clipPath id="clip0_426_162">
<rect width="939" height="969" fill="white"/>
</clipPath>
</defs>
</svg>
