<svg width="877" height="908" viewBox="0 0 877 908" fill="none" xmlns="http://www.w3.org/2000/svg">
<g clip-path="url(#clip0_426_53)">
<path d="M88.2305 179.61C88.3705 179.62 88.5205 179.64 88.6605 179.66C88.8705 178.11 89.0705 176.56 89.2805 175.01C88.9505 176.56 88.6005 178.09 88.2305 179.61Z" fill="#D8D2CD"/>
<path d="M794.6 835.46H719.64C719.71 835.13 736.5 835.78 736.5 835.46V289.92C736.5 289.42 736.5 286 736.5 286C727 295 723.5 295.967 715 296L162.5 289.92C162.76 301.94 153.39 283.78 153.36 295.8C153.36 297.45 152.67 298.69 151.66 299.51V834.35C151.66 834.74 151.66 835.07 151.73 835.46H79.24C74.69 835.46 71 839.15 71 843.7V898.77C71 903.32 74.69 907.01 79.24 907.01H794.6C799.15 907.01 802.84 903.32 802.84 898.77V843.7C802.84 839.15 799.15 835.46 794.6 835.46ZM380.31 363.82C380.31 359.27 378.95 292.352 383.5 292.352L503.88 293.677V415.57C503.88 420.12 500.19 423.81 495.64 423.81H388.55C384 423.81 380.31 420.12 380.31 415.57V363.82ZM547.06 835.45C540.2 835.45 536.34 827.56 540.56 822.15L554.46 804.31C558.68 798.9 554.82 791.01 547.96 791.01H340.23C333.23 791.01 329.42 799.18 333.92 804.55L348.49 821.92C352.99 827.28 349.17 835.46 342.17 835.46L173.47 835.4C173.54 835.07 173.54 834.68 173.54 834.29V289.92C173.54 285.37 179.95 289.92 184.5 289.92L222 290.575C226.55 290.575 223.782 290.594 230.5 290.668L234 290.707C238.5 290.756 241.45 290.839 246 290.839L368.59 292.188V421.42C368.59 429.21 374.9 435.52 382.69 435.52H393.88C398.43 435.52 402.12 439.21 402.12 443.76V463.41C402.12 467.96 405.81 471.65 410.36 471.65H419.34C423.89 471.65 427.58 467.96 427.58 463.41V443.76C427.58 439.21 431.27 435.52 435.82 435.52H448.38C452.93 435.52 456.62 439.21 456.62 443.76V463.41C456.62 467.96 460.31 471.65 464.86 471.65H473.84C478.39 471.65 482.08 467.96 482.08 463.41V443.76C482.08 439.21 485.77 435.52 490.32 435.52H501.44C509.23 435.52 515.54 429.21 515.54 421.42V293.805L606 294.801C610.55 294.801 638 295.153 645 295.23L646.68 295.698C652.5 295.312 660.45 295.45 665 295.45L687.5 295.698C692.05 295.698 709 295.934 715 296V834.5C715 834.83 715 835.14 715 835.46L547.06 835.45Z" fill="#D8D2CD"/>
<path d="M117 264.89C117.12 263.18 117.21 261.46 117.3 259.74H116.25C116.53 261.46 116.78 263.17 117 264.89Z" fill="#D8D2CD"/>
<path d="M635.35 566.01C629.82 560.48 615.81 556.75 607.35 556.75H575.59C571.04 556.75 567.35 553.06 567.35 548.51C567.35 543.82 565.47 538.13 562.35 535.01C559.23 531.95 551.54 531.88 546.85 531.88H327.85C323.1 531.88 321.97 534.45 318.85 537.51C315.79 540.63 315.85 544.52 315.85 548.51V603.01C315.85 673.26 341.63 709.93 387.85 729.01C405.88 736.5 421.98 740.67 441.71 740.54C461.44 740.41 481.69 736.43 499.85 729.01C533.42 715.36 549.89 695.46 562.92 659.01C564.1 655.72 567.2 653.51 570.69 653.51H617.36C627.06 653.51 628.97 651.39 635.35 645.01C641.67 638.63 642.17 632.92 642.17 623.29V587.41C642.17 579.34 642.56 573.54 637.35 568.01C637.15 567.75 635.54 566.21 635.35 566.01ZM545.85 560.5V612.01C545.85 668.98 531.24 691.91 490.35 708.51C474.46 714.96 458.77 718.94 441.71 719.01C424.65 719.14 411.41 714.96 395.85 708.51C356.72 692.36 337.85 668.14 337.85 607.47V560.5C337.85 555.95 341.54 552.26 346.09 552.26H554.09C549.54 552.26 545.85 555.95 545.85 560.5ZM621.72 587.41V623.28C621.72 627.32 620.03 631.33 617.36 634C614.69 636.67 609.89 638.12 605.85 638.12H575.59C571.04 638.12 567.35 634.43 567.35 629.88V585.42C567.35 580.87 571.04 577.18 575.59 577.18H615.06C616.54 577.18 617.99 577.58 619.26 578.33C619.82 578.66 620.3 578.95 620.35 579C622.04 580.83 621.72 584.74 621.72 587.41Z" fill="#D8D2CD"/>
<path fill-rule="evenodd" clip-rule="evenodd" d="M645.92 690.67C645.7 687.16 643.09 684.28 639.45 683.52C637.87 683.13 636.57 682.86 636.57 682.86C636.57 682.86 592.14 673.88 537.55 715.3C515.34 732.15 483.47 744.2 456.93 743.64C453.38 743.55 450.04 745.49 448.47 748.53C446.9 751.58 447.41 755.13 449.77 757.53C468.07 776.22 505.14 800.74 561.68 783.94C612.65 768.78 647.61 728.76 645.92 690.67ZM629.04 698.42C624.6 729.99 596.53 756.13 556.91 767.93C525.44 777.3 495.17 768.1 476.65 756.6C497.35 754.42 523.34 747.26 548.5 728.18C580.55 703.85 614.93 698.86 629.04 698.42Z" fill="#D8D2CD"/>
<path fill-rule="evenodd" clip-rule="evenodd" d="M248.319 693.65C248.489 690.17 251.039 687.27 254.639 686.47C256.199 686.06 257.489 685.78 257.489 685.78C257.489 685.78 301.419 676.28 356.099 716.63C378.339 733.04 410.109 744.57 436.409 743.66C439.929 743.53 443.269 745.4 444.869 748.4C446.469 751.4 446.009 754.93 443.699 757.34C425.799 776.12 389.359 800.92 333.079 785.01C282.349 770.66 247.149 731.45 248.319 693.65ZM265.159 701.11C269.979 732.36 298.159 757.91 337.599 769.08C368.929 777.96 398.819 768.43 417.039 756.78C396.479 754.9 370.619 748.14 345.419 729.55C313.319 705.86 279.159 701.36 265.159 701.11Z" fill="#D8D2CD"/>
<path d="M584.85 820.51H295.85V835.51H584.85V820.51Z" fill="#140504"/>
<path d="M101.58 880.03C102.21 880.03 102.53 880.44 102.53 881.25C102.53 882.06 102.52 882.67 102.49 883.07C102.39 883.98 101.98 884.5 101.27 884.63C99.0201 884.96 97.3401 885.12 96.2501 885.12C92.4801 885.12 89.8801 884.06 88.4601 881.93C87.0401 879.8 86.3301 875.96 86.3301 870.42C86.3301 866.37 86.6301 863.28 87.2401 861.15C87.8701 859 88.8701 857.49 90.2401 856.63C91.6301 855.77 93.7001 855.34 96.4301 855.34C99.1901 855.34 101.21 855.77 102.47 856.63C102.72 856.81 102.85 857.02 102.85 857.28C102.85 857.53 102.72 858.01 102.47 858.72C102.24 859.4 102.01 859.9 101.79 860.2C101.59 860.48 101.37 860.62 101.14 860.62C100.91 860.62 100.73 860.61 100.61 860.58C98.7101 860.2 97.0601 860.01 95.6701 860.01C94.3001 860.01 93.4001 860.77 92.9701 862.29C92.5601 863.81 92.3601 866.28 92.3601 869.7C92.3601 873.1 92.4501 875.46 92.6301 876.81C92.8101 878.15 93.1401 879.09 93.6201 879.62C94.1001 880.15 94.8601 880.42 95.9001 880.42C96.9601 880.42 98.1501 880.36 99.4701 880.23C100.83 880.09 101.53 880.03 101.58 880.03Z" fill="#D8D2CD"/>
<path d="M571.18 367H663.18C674.23 367 683.18 372.46 683.18 383.51V396.51C683.18 407.56 674.23 412 663.18 412H571.18C560.13 412 551.18 407.56 551.18 396.51V383.51C551.18 372.46 560.13 367 571.18 367Z" fill="#D8D2CD"/>
<path d="M592.18 382.51H515.18V398.51H592.18V382.51Z" fill="#D8D2CD"/>
<path d="M877 238H13V354H877V238Z" fill="#140504"/>
<path d="M867.963 293C866.779 288.382 836.593 283.133 829.895 282.47L732.488 265.5C732.789 264.27 796.051 273.92 745.703 266.97V236.117C745.703 227.187 734.037 220.206 723.128 216.592L674.121 42.6004C671.337 30.3631 623.996 15.6025 609.43 8.43367C594.864 1.2634 577.163 -1.46565 559.591 0.752061L429.089 17.2104L298.588 0.752061C281.01 -1.4671 263.315 1.2634 248.749 8.43367C234.182 15.6039 196.93 26.2913 194.147 38.5286L155.973 216.592C145.064 220.206 135.049 227.187 135.049 236.117V270C131.746 269.5 128.992 270 124.587 270L42.4312 282.47C35.7338 283.133 1.20988 288.263 0.0236874 292.881C-1.16041 297.5 42.4427 315.5 42.4427 315.5C47.6532 317.445 85.4076 352 429.089 352C772.771 352 830.667 311.945 835.877 310C841.831 307.775 869.147 297.619 867.963 293ZM195.191 260.742C194.614 260.742 185.157 261.5 183.505 260V236.117C173.5 270 191.115 270 196.306 270L429.089 265.5L668 270C668.576 270 719.013 270.383 708 270L693.944 260.742C693.944 261.142 679.102 260.742 678.526 260.742H195.191ZM218.195 41.9167C219.655 35.5069 259.247 29.9083 266.878 26.1522C274.507 22.3976 283.777 20.9665 292.983 22.1282L425.942 38.8965C447.018 42.1021 453.316 38.8965 464.329 37C467.094 38.3761 469.427 35.5 472.589 35.5C477.465 35.5 469.285 36.3502 476.443 34.5C481.486 29.6242 480.848 31.3267 475.342 34.7968C471.487 30.2968 499.019 31 482.443 32.5649L565.196 22.1282C574.4 20.9693 583.672 22.3976 591.301 26.1522C598.932 29.9083 643.478 36.1906 644.937 42.6004L693.944 216.592H181.853L218.195 41.9167ZM429.087 330.272C218.887 330.272 146.97 312.637 81.0425 299.43L196.306 282.47H661.869L784.204 299.43C718.615 312.636 640.286 330.272 429.087 330.272Z" fill="#D8D2CD"/>
<path d="M174 326H151V846H174V326Z" fill="#D8D2CD"/>
<path d="M736 326H713V841H736V326Z" fill="#D8D2CD"/>
<path d="M331.552 164.512H336.16V99.104H332.32C330.613 99.0187 329.461 98.464 328.864 97.44C328.267 96.2453 327.968 94.0693 327.968 90.912C327.968 86.1333 329.376 83.744 332.192 83.744H354.848C358.603 83.744 360.48 85.0667 360.48 87.712C360.48 95.3067 358.987 99.104 356 99.104H352.8L354.08 124.704L354.208 164.512H358.048C361.035 164.597 362.528 165.963 362.528 168.608C362.357 176.203 360.267 180 356.256 180H332.064C330.528 179.915 329.461 179.36 328.864 178.336C328.267 177.141 327.968 174.923 327.968 171.68C327.968 166.901 329.163 164.512 331.552 164.512ZM447.033 164.896C449.166 164.896 450.233 166.261 450.233 168.992C450.233 171.723 450.19 173.771 450.105 175.136C449.764 178.208 448.398 179.957 446.009 180.384C438.414 181.493 432.782 182.048 429.113 182.048C416.398 182.048 407.652 178.464 402.873 171.296C398.094 164.128 395.705 151.2 395.705 132.512C395.705 118.859 396.729 108.448 398.777 101.28C400.91 94.0267 404.281 88.9493 408.889 86.048C413.582 83.1467 420.537 81.696 429.753 81.696C439.054 81.696 445.838 83.1467 450.105 86.048C450.958 86.6453 451.385 87.3707 451.385 88.224C451.385 89.0773 450.958 90.6987 450.105 93.088C449.337 95.392 448.569 97.056 447.801 98.08C447.118 99.0187 446.393 99.488 445.625 99.488C444.857 99.488 444.26 99.4453 443.833 99.36C437.433 98.08 431.886 97.44 427.193 97.44C422.585 97.44 419.556 100 418.105 105.12C416.74 110.24 416.057 118.56 416.057 130.08C416.057 141.515 416.356 149.493 416.953 154.016C417.55 158.539 418.66 161.696 420.281 163.488C421.902 165.28 424.462 166.176 427.961 166.176C431.545 166.176 435.556 165.963 439.993 165.536C444.516 165.109 446.862 164.896 447.033 164.896ZM486.719 170.656C484.927 168.437 484.031 166.773 484.031 165.664C484.031 164.469 485.012 162.891 486.975 160.928C489.023 158.88 490.346 157.771 490.943 157.6C491.626 157.429 492.266 157.344 492.863 157.344C493.46 157.344 494.442 157.728 495.807 158.496C502.122 163.445 507.668 165.92 512.447 165.92C517.226 165.92 520.34 164.811 521.791 162.592C523.242 160.373 523.967 157.472 523.967 153.888C523.967 150.304 522.687 147.403 520.127 145.184C517.567 142.965 513.343 140.277 507.455 137.12C501.652 133.963 496.575 129.867 492.223 124.832C487.871 119.797 485.695 114.592 485.695 109.216C485.695 99.6587 488.17 92.704 493.119 88.352C498.154 83.9147 505.492 81.696 515.135 81.696C521.023 81.696 526.783 83.104 532.415 85.92C535.402 87.1147 536.81 88.352 536.639 89.632C536.554 90.144 536.468 90.912 536.383 91.936C534.762 96.544 533.524 99.1893 532.671 99.872C532.415 100.043 531.818 100.128 530.879 100.128C530.026 100.128 527.679 99.4453 523.839 98.08C519.999 96.6293 516.714 95.904 513.983 95.904C511.338 95.904 509.119 96.8427 507.327 98.72C505.535 100.597 504.639 103.243 504.639 106.656C504.639 110.069 506.175 113.184 509.247 116C512.319 118.731 517.055 121.589 523.455 124.576C530.196 128.075 535.231 131.701 538.559 135.456C541.972 139.211 543.679 144.245 543.679 150.56C543.679 171.552 534.804 182.048 517.055 182.048C503.828 182.048 493.716 178.251 486.719 170.656Z" fill="#D8D2CD"/>
<path d="M100.124 882.644H101.42V864.248H100.34C99.86 864.224 99.536 864.068 99.368 863.78C99.2 863.444 99.116 862.832 99.116 861.944C99.116 860.6 99.512 859.928 100.304 859.928H106.676C107.732 859.928 108.26 860.3 108.26 861.044C108.26 863.18 107.84 864.248 107 864.248H106.1L106.46 871.448L106.496 882.644H107.576C108.416 882.668 108.836 883.052 108.836 883.796C108.788 885.932 108.2 887 107.072 887H100.268C99.836 886.976 99.536 886.82 99.368 886.532C99.2 886.196 99.116 885.572 99.116 884.66C99.116 883.316 99.452 882.644 100.124 882.644ZM132.603 882.752C133.203 882.752 133.503 883.136 133.503 883.904C133.503 884.672 133.491 885.248 133.467 885.632C133.371 886.496 132.987 886.988 132.315 887.108C130.179 887.42 128.595 887.576 127.563 887.576C123.987 887.576 121.527 886.568 120.183 884.552C118.839 882.536 118.167 878.9 118.167 873.644C118.167 869.804 118.455 866.876 119.031 864.86C119.631 862.82 120.579 861.392 121.875 860.576C123.195 859.76 125.151 859.352 127.743 859.352C130.359 859.352 132.267 859.76 133.467 860.576C133.707 860.744 133.827 860.948 133.827 861.188C133.827 861.428 133.707 861.884 133.467 862.556C133.251 863.204 133.035 863.672 132.819 863.96C132.627 864.224 132.423 864.356 132.207 864.356C131.991 864.356 131.823 864.344 131.703 864.32C129.903 863.96 128.343 863.78 127.023 863.78C125.727 863.78 124.875 864.5 124.467 865.94C124.083 867.38 123.891 869.72 123.891 872.96C123.891 876.176 123.975 878.42 124.143 879.692C124.311 880.964 124.623 881.852 125.079 882.356C125.535 882.86 126.255 883.112 127.239 883.112C128.247 883.112 129.375 883.052 130.623 882.932C131.895 882.812 132.555 882.752 132.603 882.752ZM143.765 884.372C143.261 883.748 143.009 883.28 143.009 882.968C143.009 882.632 143.285 882.188 143.837 881.636C144.413 881.06 144.785 880.748 144.953 880.7C145.145 880.652 145.325 880.628 145.493 880.628C145.661 880.628 145.937 880.736 146.321 880.952C148.097 882.344 149.657 883.04 151.001 883.04C152.345 883.04 153.221 882.728 153.629 882.104C154.037 881.48 154.241 880.664 154.241 879.656C154.241 878.648 153.881 877.832 153.161 877.208C152.441 876.584 151.253 875.828 149.597 874.94C147.965 874.052 146.537 872.9 145.313 871.484C144.089 870.068 143.477 868.604 143.477 867.092C143.477 864.404 144.173 862.448 145.565 861.224C146.981 859.976 149.045 859.352 151.757 859.352C153.413 859.352 155.033 859.748 156.617 860.54C157.457 860.876 157.853 861.224 157.805 861.584C157.781 861.728 157.757 861.944 157.733 862.232C157.277 863.528 156.929 864.272 156.689 864.464C156.617 864.512 156.449 864.536 156.185 864.536C155.945 864.536 155.285 864.344 154.205 863.96C153.125 863.552 152.201 863.348 151.433 863.348C150.689 863.348 150.065 863.612 149.561 864.14C149.057 864.668 148.805 865.412 148.805 866.372C148.805 867.332 149.237 868.208 150.101 869C150.965 869.768 152.297 870.572 154.097 871.412C155.993 872.396 157.409 873.416 158.345 874.472C159.305 875.528 159.785 876.944 159.785 878.72C159.785 884.624 157.289 887.576 152.297 887.576C148.577 887.576 145.733 886.508 143.765 884.372ZM186.932 882.644H188.228V864.248H187.148C186.668 864.224 186.344 864.068 186.176 863.78C186.008 863.444 185.924 862.832 185.924 861.944C185.924 860.6 186.32 859.928 187.112 859.928H193.484C194.54 859.928 195.068 860.3 195.068 861.044C195.068 863.18 194.648 864.248 193.808 864.248H192.908L193.268 871.448L193.304 882.644H194.384C195.224 882.668 195.644 883.052 195.644 883.796C195.596 885.932 195.008 887 193.88 887H187.076C186.644 886.976 186.344 886.82 186.176 886.532C186.008 886.196 185.924 885.572 185.924 884.66C185.924 883.316 186.26 882.644 186.932 882.644ZM219.411 882.752C220.011 882.752 220.311 883.136 220.311 883.904C220.311 884.672 220.299 885.248 220.275 885.632C220.179 886.496 219.795 886.988 219.123 887.108C216.987 887.42 215.403 887.576 214.371 887.576C210.795 887.576 208.335 886.568 206.991 884.552C205.647 882.536 204.975 878.9 204.975 873.644C204.975 869.804 205.263 866.876 205.839 864.86C206.439 862.82 207.387 861.392 208.683 860.576C210.003 859.76 211.959 859.352 214.551 859.352C217.167 859.352 219.075 859.76 220.275 860.576C220.515 860.744 220.635 860.948 220.635 861.188C220.635 861.428 220.515 861.884 220.275 862.556C220.059 863.204 219.843 863.672 219.627 863.96C219.435 864.224 219.231 864.356 219.015 864.356C218.799 864.356 218.631 864.344 218.511 864.32C216.711 863.96 215.151 863.78 213.831 863.78C212.535 863.78 211.683 864.5 211.275 865.94C210.891 867.38 210.699 869.72 210.699 872.96C210.699 876.176 210.783 878.42 210.951 879.692C211.119 880.964 211.431 881.852 211.887 882.356C212.343 882.86 213.063 883.112 214.047 883.112C215.055 883.112 216.183 883.052 217.431 882.932C218.703 882.812 219.363 882.752 219.411 882.752ZM230.573 884.372C230.069 883.748 229.817 883.28 229.817 882.968C229.817 882.632 230.093 882.188 230.645 881.636C231.221 881.06 231.593 880.748 231.761 880.7C231.953 880.652 232.133 880.628 232.301 880.628C232.469 880.628 232.745 880.736 233.129 880.952C234.905 882.344 236.465 883.04 237.809 883.04C239.153 883.04 240.029 882.728 240.437 882.104C240.845 881.48 241.049 880.664 241.049 879.656C241.049 878.648 240.689 877.832 239.969 877.208C239.249 876.584 238.061 875.828 236.405 874.94C234.773 874.052 233.345 872.9 232.121 871.484C230.897 870.068 230.285 868.604 230.285 867.092C230.285 864.404 230.981 862.448 232.373 861.224C233.789 859.976 235.853 859.352 238.565 859.352C240.221 859.352 241.841 859.748 243.425 860.54C244.265 860.876 244.661 861.224 244.613 861.584C244.589 861.728 244.565 861.944 244.541 862.232C244.085 863.528 243.737 864.272 243.497 864.464C243.425 864.512 243.257 864.536 242.993 864.536C242.753 864.536 242.093 864.344 241.013 863.96C239.933 863.552 239.009 863.348 238.241 863.348C237.497 863.348 236.873 863.612 236.369 864.14C235.865 864.668 235.613 865.412 235.613 866.372C235.613 867.332 236.045 868.208 236.909 869C237.773 869.768 239.105 870.572 240.905 871.412C242.801 872.396 244.217 873.416 245.153 874.472C246.113 875.528 246.593 876.944 246.593 878.72C246.593 884.624 244.097 887.576 239.105 887.576C235.385 887.576 232.541 886.508 230.573 884.372ZM273.74 882.644H275.036V864.248H273.956C273.476 864.224 273.152 864.068 272.984 863.78C272.816 863.444 272.732 862.832 272.732 861.944C272.732 860.6 273.128 859.928 273.92 859.928H280.292C281.348 859.928 281.876 860.3 281.876 861.044C281.876 863.18 281.456 864.248 280.616 864.248H279.716L280.076 871.448L280.112 882.644H281.192C282.032 882.668 282.452 883.052 282.452 883.796C282.404 885.932 281.816 887 280.688 887H273.884C273.452 886.976 273.152 886.82 272.984 886.532C272.816 886.196 272.732 885.572 272.732 884.66C272.732 883.316 273.068 882.644 273.74 882.644ZM306.219 882.752C306.819 882.752 307.119 883.136 307.119 883.904C307.119 884.672 307.107 885.248 307.083 885.632C306.987 886.496 306.603 886.988 305.931 887.108C303.795 887.42 302.211 887.576 301.179 887.576C297.603 887.576 295.143 886.568 293.799 884.552C292.455 882.536 291.783 878.9 291.783 873.644C291.783 869.804 292.071 866.876 292.647 864.86C293.247 862.82 294.195 861.392 295.491 860.576C296.811 859.76 298.767 859.352 301.359 859.352C303.975 859.352 305.883 859.76 307.083 860.576C307.323 860.744 307.443 860.948 307.443 861.188C307.443 861.428 307.323 861.884 307.083 862.556C306.867 863.204 306.651 863.672 306.435 863.96C306.243 864.224 306.039 864.356 305.823 864.356C305.607 864.356 305.439 864.344 305.319 864.32C303.519 863.96 301.959 863.78 300.639 863.78C299.343 863.78 298.491 864.5 298.083 865.94C297.699 867.38 297.507 869.72 297.507 872.96C297.507 876.176 297.591 878.42 297.759 879.692C297.927 880.964 298.239 881.852 298.695 882.356C299.151 882.86 299.871 883.112 300.855 883.112C301.863 883.112 302.991 883.052 304.239 882.932C305.511 882.812 306.171 882.752 306.219 882.752ZM317.38 884.372C316.876 883.748 316.624 883.28 316.624 882.968C316.624 882.632 316.9 882.188 317.452 881.636C318.028 881.06 318.4 880.748 318.568 880.7C318.76 880.652 318.94 880.628 319.108 880.628C319.276 880.628 319.552 880.736 319.936 880.952C321.712 882.344 323.272 883.04 324.616 883.04C325.96 883.04 326.836 882.728 327.244 882.104C327.652 881.48 327.856 880.664 327.856 879.656C327.856 878.648 327.496 877.832 326.776 877.208C326.056 876.584 324.868 875.828 323.212 874.94C321.58 874.052 320.152 872.9 318.928 871.484C317.704 870.068 317.092 868.604 317.092 867.092C317.092 864.404 317.788 862.448 319.18 861.224C320.596 859.976 322.66 859.352 325.372 859.352C327.028 859.352 328.648 859.748 330.232 860.54C331.072 860.876 331.468 861.224 331.42 861.584C331.396 861.728 331.372 861.944 331.348 862.232C330.892 863.528 330.544 864.272 330.304 864.464C330.232 864.512 330.064 864.536 329.8 864.536C329.56 864.536 328.9 864.344 327.82 863.96C326.74 863.552 325.816 863.348 325.048 863.348C324.304 863.348 323.68 863.612 323.176 864.14C322.672 864.668 322.42 865.412 322.42 866.372C322.42 867.332 322.852 868.208 323.716 869C324.58 869.768 325.912 870.572 327.712 871.412C329.608 872.396 331.024 873.416 331.96 874.472C332.92 875.528 333.4 876.944 333.4 878.72C333.4 884.624 330.904 887.576 325.912 887.576C322.192 887.576 319.348 886.508 317.38 884.372ZM360.547 882.644H361.843V864.248H360.763C360.283 864.224 359.959 864.068 359.791 863.78C359.623 863.444 359.539 862.832 359.539 861.944C359.539 860.6 359.935 859.928 360.727 859.928H367.099C368.155 859.928 368.683 860.3 368.683 861.044C368.683 863.18 368.263 864.248 367.423 864.248H366.523L366.883 871.448L366.919 882.644H367.999C368.839 882.668 369.259 883.052 369.259 883.796C369.211 885.932 368.623 887 367.495 887H360.691C360.259 886.976 359.959 886.82 359.791 886.532C359.623 886.196 359.539 885.572 359.539 884.66C359.539 883.316 359.875 882.644 360.547 882.644ZM393.026 882.752C393.626 882.752 393.926 883.136 393.926 883.904C393.926 884.672 393.914 885.248 393.89 885.632C393.794 886.496 393.41 886.988 392.738 887.108C390.602 887.42 389.018 887.576 387.986 887.576C384.41 887.576 381.95 886.568 380.606 884.552C379.262 882.536 378.59 878.9 378.59 873.644C378.59 869.804 378.878 866.876 379.454 864.86C380.054 862.82 381.002 861.392 382.298 860.576C383.618 859.76 385.574 859.352 388.166 859.352C390.782 859.352 392.69 859.76 393.89 860.576C394.13 860.744 394.25 860.948 394.25 861.188C394.25 861.428 394.13 861.884 393.89 862.556C393.674 863.204 393.458 863.672 393.242 863.96C393.05 864.224 392.846 864.356 392.63 864.356C392.414 864.356 392.246 864.344 392.126 864.32C390.326 863.96 388.766 863.78 387.446 863.78C386.15 863.78 385.298 864.5 384.89 865.94C384.506 867.38 384.314 869.72 384.314 872.96C384.314 876.176 384.398 878.42 384.566 879.692C384.734 880.964 385.046 881.852 385.502 882.356C385.958 882.86 386.678 883.112 387.662 883.112C388.67 883.112 389.798 883.052 391.046 882.932C392.318 882.812 392.978 882.752 393.026 882.752ZM404.188 884.372C403.684 883.748 403.432 883.28 403.432 882.968C403.432 882.632 403.708 882.188 404.26 881.636C404.836 881.06 405.208 880.748 405.376 880.7C405.568 880.652 405.748 880.628 405.916 880.628C406.084 880.628 406.36 880.736 406.744 880.952C408.52 882.344 410.08 883.04 411.424 883.04C412.768 883.04 413.644 882.728 414.052 882.104C414.46 881.48 414.664 880.664 414.664 879.656C414.664 878.648 414.304 877.832 413.584 877.208C412.864 876.584 411.676 875.828 410.02 874.94C408.388 874.052 406.96 872.9 405.736 871.484C404.512 870.068 403.9 868.604 403.9 867.092C403.9 864.404 404.596 862.448 405.988 861.224C407.404 859.976 409.468 859.352 412.18 859.352C413.836 859.352 415.456 859.748 417.04 860.54C417.88 860.876 418.276 861.224 418.228 861.584C418.204 861.728 418.18 861.944 418.156 862.232C417.7 863.528 417.352 864.272 417.112 864.464C417.04 864.512 416.872 864.536 416.608 864.536C416.368 864.536 415.708 864.344 414.628 863.96C413.548 863.552 412.624 863.348 411.856 863.348C411.112 863.348 410.488 863.612 409.984 864.14C409.48 864.668 409.228 865.412 409.228 866.372C409.228 867.332 409.66 868.208 410.524 869C411.388 869.768 412.72 870.572 414.52 871.412C416.416 872.396 417.832 873.416 418.768 874.472C419.728 875.528 420.208 876.944 420.208 878.72C420.208 884.624 417.712 887.576 412.72 887.576C409 887.576 406.156 886.508 404.188 884.372ZM447.355 882.644H448.651V864.248H447.571C447.091 864.224 446.767 864.068 446.599 863.78C446.431 863.444 446.347 862.832 446.347 861.944C446.347 860.6 446.743 859.928 447.535 859.928H453.907C454.963 859.928 455.491 860.3 455.491 861.044C455.491 863.18 455.071 864.248 454.231 864.248H453.331L453.691 871.448L453.727 882.644H454.807C455.647 882.668 456.067 883.052 456.067 883.796C456.019 885.932 455.431 887 454.303 887H447.499C447.067 886.976 446.767 886.82 446.599 886.532C446.431 886.196 446.347 885.572 446.347 884.66C446.347 883.316 446.683 882.644 447.355 882.644ZM479.834 882.752C480.434 882.752 480.734 883.136 480.734 883.904C480.734 884.672 480.722 885.248 480.698 885.632C480.602 886.496 480.218 886.988 479.546 887.108C477.41 887.42 475.826 887.576 474.794 887.576C471.218 887.576 468.758 886.568 467.414 884.552C466.07 882.536 465.398 878.9 465.398 873.644C465.398 869.804 465.686 866.876 466.262 864.86C466.862 862.82 467.81 861.392 469.106 860.576C470.426 859.76 472.382 859.352 474.974 859.352C477.59 859.352 479.498 859.76 480.698 860.576C480.938 860.744 481.058 860.948 481.058 861.188C481.058 861.428 480.938 861.884 480.698 862.556C480.482 863.204 480.266 863.672 480.05 863.96C479.858 864.224 479.654 864.356 479.438 864.356C479.222 864.356 479.054 864.344 478.934 864.32C477.134 863.96 475.574 863.78 474.254 863.78C472.958 863.78 472.106 864.5 471.698 865.94C471.314 867.38 471.122 869.72 471.122 872.96C471.122 876.176 471.206 878.42 471.374 879.692C471.542 880.964 471.854 881.852 472.31 882.356C472.766 882.86 473.486 883.112 474.47 883.112C475.478 883.112 476.606 883.052 477.854 882.932C479.126 882.812 479.786 882.752 479.834 882.752ZM490.996 884.372C490.492 883.748 490.24 883.28 490.24 882.968C490.24 882.632 490.516 882.188 491.068 881.636C491.644 881.06 492.016 880.748 492.184 880.7C492.376 880.652 492.556 880.628 492.724 880.628C492.892 880.628 493.168 880.736 493.552 880.952C495.328 882.344 496.888 883.04 498.232 883.04C499.576 883.04 500.452 882.728 500.86 882.104C501.268 881.48 501.472 880.664 501.472 879.656C501.472 878.648 501.112 877.832 500.392 877.208C499.672 876.584 498.484 875.828 496.828 874.94C495.196 874.052 493.768 872.9 492.544 871.484C491.32 870.068 490.708 868.604 490.708 867.092C490.708 864.404 491.404 862.448 492.796 861.224C494.212 859.976 496.276 859.352 498.988 859.352C500.644 859.352 502.264 859.748 503.848 860.54C504.688 860.876 505.084 861.224 505.036 861.584C505.012 861.728 504.988 861.944 504.964 862.232C504.508 863.528 504.16 864.272 503.92 864.464C503.848 864.512 503.68 864.536 503.416 864.536C503.176 864.536 502.516 864.344 501.436 863.96C500.356 863.552 499.432 863.348 498.664 863.348C497.92 863.348 497.296 863.612 496.792 864.14C496.288 864.668 496.036 865.412 496.036 866.372C496.036 867.332 496.468 868.208 497.332 869C498.196 869.768 499.528 870.572 501.328 871.412C503.224 872.396 504.64 873.416 505.576 874.472C506.536 875.528 507.016 876.944 507.016 878.72C507.016 884.624 504.52 887.576 499.528 887.576C495.808 887.576 492.964 886.508 490.996 884.372ZM534.163 882.644H535.459V864.248H534.379C533.899 864.224 533.575 864.068 533.407 863.78C533.239 863.444 533.155 862.832 533.155 861.944C533.155 860.6 533.551 859.928 534.343 859.928H540.715C541.771 859.928 542.299 860.3 542.299 861.044C542.299 863.18 541.879 864.248 541.039 864.248H540.139L540.499 871.448L540.535 882.644H541.615C542.455 882.668 542.875 883.052 542.875 883.796C542.827 885.932 542.239 887 541.111 887H534.307C533.875 886.976 533.575 886.82 533.407 886.532C533.239 886.196 533.155 885.572 533.155 884.66C533.155 883.316 533.491 882.644 534.163 882.644ZM566.642 882.752C567.242 882.752 567.542 883.136 567.542 883.904C567.542 884.672 567.53 885.248 567.506 885.632C567.41 886.496 567.026 886.988 566.354 887.108C564.218 887.42 562.634 887.576 561.602 887.576C558.026 887.576 555.566 886.568 554.222 884.552C552.878 882.536 552.206 878.9 552.206 873.644C552.206 869.804 552.494 866.876 553.07 864.86C553.67 862.82 554.618 861.392 555.914 860.576C557.234 859.76 559.19 859.352 561.782 859.352C564.398 859.352 566.306 859.76 567.506 860.576C567.746 860.744 567.866 860.948 567.866 861.188C567.866 861.428 567.746 861.884 567.506 862.556C567.29 863.204 567.074 863.672 566.858 863.96C566.666 864.224 566.462 864.356 566.246 864.356C566.03 864.356 565.862 864.344 565.742 864.32C563.942 863.96 562.382 863.78 561.062 863.78C559.766 863.78 558.914 864.5 558.506 865.94C558.122 867.38 557.93 869.72 557.93 872.96C557.93 876.176 558.014 878.42 558.182 879.692C558.35 880.964 558.662 881.852 559.118 882.356C559.574 882.86 560.294 883.112 561.278 883.112C562.286 883.112 563.414 883.052 564.662 882.932C565.934 882.812 566.594 882.752 566.642 882.752ZM577.804 884.372C577.3 883.748 577.048 883.28 577.048 882.968C577.048 882.632 577.324 882.188 577.876 881.636C578.452 881.06 578.824 880.748 578.992 880.7C579.184 880.652 579.364 880.628 579.532 880.628C579.7 880.628 579.976 880.736 580.36 880.952C582.136 882.344 583.696 883.04 585.04 883.04C586.384 883.04 587.26 882.728 587.668 882.104C588.076 881.48 588.28 880.664 588.28 879.656C588.28 878.648 587.92 877.832 587.2 877.208C586.48 876.584 585.292 875.828 583.636 874.94C582.004 874.052 580.576 872.9 579.352 871.484C578.128 870.068 577.516 868.604 577.516 867.092C577.516 864.404 578.212 862.448 579.604 861.224C581.02 859.976 583.084 859.352 585.796 859.352C587.452 859.352 589.072 859.748 590.656 860.54C591.496 860.876 591.892 861.224 591.844 861.584C591.82 861.728 591.796 861.944 591.772 862.232C591.316 863.528 590.968 864.272 590.728 864.464C590.656 864.512 590.488 864.536 590.224 864.536C589.984 864.536 589.324 864.344 588.244 863.96C587.164 863.552 586.24 863.348 585.472 863.348C584.728 863.348 584.104 863.612 583.6 864.14C583.096 864.668 582.844 865.412 582.844 866.372C582.844 867.332 583.276 868.208 584.14 869C585.004 869.768 586.336 870.572 588.136 871.412C590.032 872.396 591.448 873.416 592.384 874.472C593.344 875.528 593.824 876.944 593.824 878.72C593.824 884.624 591.328 887.576 586.336 887.576C582.616 887.576 579.772 886.508 577.804 884.372ZM620.971 882.644H622.267V864.248H621.187C620.707 864.224 620.383 864.068 620.215 863.78C620.047 863.444 619.963 862.832 619.963 861.944C619.963 860.6 620.359 859.928 621.151 859.928H627.523C628.579 859.928 629.107 860.3 629.107 861.044C629.107 863.18 628.687 864.248 627.847 864.248H626.947L627.307 871.448L627.343 882.644H628.423C629.263 882.668 629.683 883.052 629.683 883.796C629.635 885.932 629.047 887 627.919 887H621.115C620.683 886.976 620.383 886.82 620.215 886.532C620.047 886.196 619.963 885.572 619.963 884.66C619.963 883.316 620.299 882.644 620.971 882.644ZM653.45 882.752C654.05 882.752 654.35 883.136 654.35 883.904C654.35 884.672 654.338 885.248 654.314 885.632C654.218 886.496 653.834 886.988 653.162 887.108C651.026 887.42 649.442 887.576 648.41 887.576C644.834 887.576 642.374 886.568 641.03 884.552C639.686 882.536 639.014 878.9 639.014 873.644C639.014 869.804 639.302 866.876 639.878 864.86C640.478 862.82 641.426 861.392 642.722 860.576C644.042 859.76 645.998 859.352 648.59 859.352C651.206 859.352 653.114 859.76 654.314 860.576C654.554 860.744 654.674 860.948 654.674 861.188C654.674 861.428 654.554 861.884 654.314 862.556C654.098 863.204 653.882 863.672 653.666 863.96C653.474 864.224 653.27 864.356 653.054 864.356C652.838 864.356 652.67 864.344 652.55 864.32C650.75 863.96 649.19 863.78 647.87 863.78C646.574 863.78 645.722 864.5 645.314 865.94C644.93 867.38 644.738 869.72 644.738 872.96C644.738 876.176 644.822 878.42 644.99 879.692C645.158 880.964 645.47 881.852 645.926 882.356C646.382 882.86 647.102 883.112 648.086 883.112C649.094 883.112 650.222 883.052 651.47 882.932C652.742 882.812 653.402 882.752 653.45 882.752ZM664.612 884.372C664.108 883.748 663.856 883.28 663.856 882.968C663.856 882.632 664.132 882.188 664.684 881.636C665.26 881.06 665.632 880.748 665.8 880.7C665.992 880.652 666.172 880.628 666.34 880.628C666.508 880.628 666.784 880.736 667.168 880.952C668.944 882.344 670.504 883.04 671.848 883.04C673.192 883.04 674.068 882.728 674.476 882.104C674.884 881.48 675.088 880.664 675.088 879.656C675.088 878.648 674.728 877.832 674.008 877.208C673.288 876.584 672.1 875.828 670.444 874.94C668.812 874.052 667.384 872.9 666.16 871.484C664.936 870.068 664.324 868.604 664.324 867.092C664.324 864.404 665.02 862.448 666.412 861.224C667.828 859.976 669.892 859.352 672.604 859.352C674.26 859.352 675.88 859.748 677.464 860.54C678.304 860.876 678.7 861.224 678.652 861.584C678.628 861.728 678.604 861.944 678.58 862.232C678.124 863.528 677.776 864.272 677.536 864.464C677.464 864.512 677.296 864.536 677.032 864.536C676.792 864.536 676.132 864.344 675.052 863.96C673.972 863.552 673.048 863.348 672.28 863.348C671.536 863.348 670.912 863.612 670.408 864.14C669.904 864.668 669.652 865.412 669.652 866.372C669.652 867.332 670.084 868.208 670.948 869C671.812 869.768 673.144 870.572 674.944 871.412C676.84 872.396 678.256 873.416 679.192 874.472C680.152 875.528 680.632 876.944 680.632 878.72C680.632 884.624 678.136 887.576 673.144 887.576C669.424 887.576 666.58 886.508 664.612 884.372ZM707.779 882.644H709.075V864.248H707.995C707.515 864.224 707.191 864.068 707.023 863.78C706.855 863.444 706.771 862.832 706.771 861.944C706.771 860.6 707.167 859.928 707.959 859.928H714.331C715.387 859.928 715.915 860.3 715.915 861.044C715.915 863.18 715.495 864.248 714.655 864.248H713.755L714.115 871.448L714.151 882.644H715.231C716.071 882.668 716.491 883.052 716.491 883.796C716.443 885.932 715.855 887 714.727 887H707.923C707.491 886.976 707.191 886.82 707.023 886.532C706.855 886.196 706.771 885.572 706.771 884.66C706.771 883.316 707.107 882.644 707.779 882.644ZM740.258 882.752C740.858 882.752 741.158 883.136 741.158 883.904C741.158 884.672 741.146 885.248 741.122 885.632C741.026 886.496 740.642 886.988 739.97 887.108C737.834 887.42 736.25 887.576 735.218 887.576C731.642 887.576 729.182 886.568 727.838 884.552C726.494 882.536 725.822 878.9 725.822 873.644C725.822 869.804 726.11 866.876 726.686 864.86C727.286 862.82 728.234 861.392 729.53 860.576C730.85 859.76 732.806 859.352 735.398 859.352C738.014 859.352 739.922 859.76 741.122 860.576C741.362 860.744 741.482 860.948 741.482 861.188C741.482 861.428 741.362 861.884 741.122 862.556C740.906 863.204 740.69 863.672 740.474 863.96C740.282 864.224 740.078 864.356 739.862 864.356C739.646 864.356 739.478 864.344 739.358 864.32C737.558 863.96 735.998 863.78 734.678 863.78C733.382 863.78 732.53 864.5 732.122 865.94C731.738 867.38 731.546 869.72 731.546 872.96C731.546 876.176 731.63 878.42 731.798 879.692C731.966 880.964 732.278 881.852 732.734 882.356C733.19 882.86 733.91 883.112 734.894 883.112C735.902 883.112 737.03 883.052 738.278 882.932C739.55 882.812 740.21 882.752 740.258 882.752ZM751.419 884.372C750.915 883.748 750.663 883.28 750.663 882.968C750.663 882.632 750.939 882.188 751.491 881.636C752.067 881.06 752.439 880.748 752.607 880.7C752.799 880.652 752.979 880.628 753.147 880.628C753.315 880.628 753.591 880.736 753.975 880.952C755.751 882.344 757.311 883.04 758.655 883.04C759.999 883.04 760.875 882.728 761.283 882.104C761.691 881.48 761.895 880.664 761.895 879.656C761.895 878.648 761.535 877.832 760.815 877.208C760.095 876.584 758.907 875.828 757.251 874.94C755.619 874.052 754.191 872.9 752.967 871.484C751.743 870.068 751.131 868.604 751.131 867.092C751.131 864.404 751.827 862.448 753.219 861.224C754.635 859.976 756.699 859.352 759.411 859.352C761.067 859.352 762.687 859.748 764.271 860.54C765.111 860.876 765.507 861.224 765.459 861.584C765.435 861.728 765.411 861.944 765.387 862.232C764.931 863.528 764.583 864.272 764.343 864.464C764.271 864.512 764.103 864.536 763.839 864.536C763.599 864.536 762.939 864.344 761.859 863.96C760.779 863.552 759.855 863.348 759.087 863.348C758.343 863.348 757.719 863.612 757.215 864.14C756.711 864.668 756.459 865.412 756.459 866.372C756.459 867.332 756.891 868.208 757.755 869C758.619 869.768 759.951 870.572 761.751 871.412C763.647 872.396 765.063 873.416 765.999 874.472C766.959 875.528 767.439 876.944 767.439 878.72C767.439 884.624 764.943 887.576 759.951 887.576C756.231 887.576 753.387 886.508 751.419 884.372Z" fill="#140504"/>
</g>
<defs>
<clipPath id="clip0_426_53">
<rect width="877" height="908" fill="white"/>
</clipPath>
</defs>
</svg>
