<svg width="997" height="921" viewBox="0 0 997 921" fill="none" xmlns="http://www.w3.org/2000/svg">
<g clip-path="url(#clip0_426_87)">
<path d="M142.23 192.61C142.37 192.62 142.52 192.64 142.66 192.66C142.87 191.11 143.07 189.56 143.28 188.01C142.95 189.56 142.6 191.09 142.23 192.61Z" fill="black"/>
<path d="M848.6 848.46H773.64C773.71 848.13 790.5 848.78 790.5 848.46V302.92C790.5 302.42 790.5 299 790.5 299C781 308 777.5 308.967 769 309L216.5 302.92C216.76 314.94 207.39 296.78 207.36 308.8C207.36 310.45 206.67 311.69 205.66 312.51V847.35C205.66 847.74 205.66 848.07 205.73 848.46H133.24C128.69 848.46 125 852.15 125 856.7V911.77C125 916.32 128.69 920.01 133.24 920.01H848.6C853.15 920.01 856.84 916.32 856.84 911.77V856.7C856.84 852.15 853.15 848.46 848.6 848.46ZM434.31 376.82C434.31 372.27 432.95 305.352 437.5 305.352L557.88 306.677V428.57C557.88 433.12 554.19 436.81 549.64 436.81H442.55C438 436.81 434.31 433.12 434.31 428.57V376.82ZM601.06 848.45C594.2 848.45 590.34 840.56 594.56 835.15L608.46 817.31C612.68 811.9 608.82 804.01 601.96 804.01H394.23C387.23 804.01 383.42 812.18 387.92 817.55L402.49 834.92C406.99 840.28 403.17 848.46 396.17 848.46L227.47 848.4C227.54 848.07 227.54 847.68 227.54 847.29V302.92C227.54 298.37 233.95 302.92 238.5 302.92L276 303.575C280.55 303.575 277.782 303.594 284.5 303.668L288 303.707C292.5 303.756 295.45 303.839 300 303.839L422.59 305.188V434.42C422.59 442.21 428.9 448.52 436.69 448.52H447.88C452.43 448.52 456.12 452.21 456.12 456.76V476.41C456.12 480.96 459.81 484.65 464.36 484.65H473.34C477.89 484.65 481.58 480.96 481.58 476.41V456.76C481.58 452.21 485.27 448.52 489.82 448.52H502.38C506.93 448.52 510.62 452.21 510.62 456.76V476.41C510.62 480.96 514.31 484.65 518.86 484.65H527.84C532.39 484.65 536.08 480.96 536.08 476.41V456.76C536.08 452.21 539.77 448.52 544.32 448.52H555.44C563.23 448.52 569.54 442.21 569.54 434.42V306.805L660 307.8C664.55 307.8 692 308.153 699 308.23L700.68 308.698C706.5 308.312 714.45 308.45 719 308.45L741.5 308.698C746.05 308.698 763 308.934 769 309V847.5C769 847.83 769 848.14 769 848.46L601.06 848.45Z" fill="black"/>
<path d="M171 277.89C171.12 276.18 171.21 274.46 171.3 272.74H170.25C170.53 274.46 170.78 276.17 171 277.89Z" fill="black"/>
<path d="M689.35 579.01C683.82 573.48 669.81 569.75 661.35 569.75H629.59C625.04 569.75 621.35 566.06 621.35 561.51C621.35 556.82 619.47 551.13 616.35 548.01C613.23 544.95 605.54 544.88 600.85 544.88H381.85C377.1 544.88 375.97 547.45 372.85 550.51C369.79 553.63 369.85 557.52 369.85 561.51V616.01C369.85 686.26 395.63 722.93 441.85 742.01C459.88 749.5 475.98 753.67 495.71 753.54C515.44 753.41 535.69 749.43 553.85 742.01C587.42 728.36 603.89 708.46 616.92 672.01C618.1 668.72 621.2 666.51 624.69 666.51H671.36C681.06 666.51 682.97 664.39 689.35 658.01C695.67 651.63 696.17 645.92 696.17 636.29V600.41C696.17 592.34 696.56 586.54 691.35 581.01C691.15 580.75 689.54 579.21 689.35 579.01ZM599.85 573.5V625.01C599.85 681.98 585.24 704.91 544.35 721.51C528.46 727.96 512.77 731.94 495.71 732.01C478.65 732.14 465.41 727.96 449.85 721.51C410.72 705.36 391.85 681.14 391.85 620.47V573.5C391.85 568.95 395.54 565.26 400.09 565.26H608.09C603.54 565.26 599.85 568.95 599.85 573.5ZM675.72 600.41V636.28C675.72 640.32 674.03 644.33 671.36 647C668.69 649.67 663.89 651.12 659.85 651.12H629.59C625.04 651.12 621.35 647.43 621.35 642.88V598.42C621.35 593.87 625.04 590.18 629.59 590.18H669.06C670.54 590.18 671.99 590.58 673.26 591.33C673.82 591.66 674.3 591.95 674.35 592C676.04 593.83 675.72 597.74 675.72 600.41Z" fill="black"/>
<path fill-rule="evenodd" clip-rule="evenodd" d="M699.92 703.67C699.7 700.16 697.09 697.28 693.45 696.52C691.87 696.13 690.57 695.86 690.57 695.86C690.57 695.86 646.14 686.88 591.55 728.3C569.34 745.15 537.47 757.2 510.93 756.64C507.38 756.55 504.04 758.49 502.47 761.53C500.9 764.58 501.41 768.13 503.77 770.53C522.07 789.22 559.14 813.74 615.68 796.94C666.65 781.78 701.61 741.76 699.92 703.67ZM683.04 711.42C678.6 742.99 650.53 769.13 610.91 780.93C579.44 790.3 549.17 781.1 530.65 769.6C551.35 767.42 577.34 760.26 602.5 741.18C634.55 716.85 668.93 711.86 683.04 711.42Z" fill="black"/>
<path fill-rule="evenodd" clip-rule="evenodd" d="M302.319 706.65C302.489 703.17 305.039 700.27 308.639 699.47C310.199 699.06 311.489 698.78 311.489 698.78C311.489 698.78 355.419 689.28 410.099 729.63C432.339 746.04 464.109 757.57 490.409 756.66C493.929 756.53 497.269 758.4 498.869 761.4C500.469 764.4 500.009 767.93 497.699 770.34C479.799 789.12 443.359 813.92 387.079 798.01C336.349 783.66 301.149 744.45 302.319 706.65ZM319.159 714.11C323.979 745.36 352.159 770.91 391.599 782.08C422.929 790.96 452.819 781.43 471.039 769.78C450.479 767.9 424.619 761.14 399.419 742.55C367.319 718.86 333.159 714.36 319.159 714.11Z" fill="black"/>
<path d="M638.85 833.51H349.85V848.51H638.85V833.51Z" fill="#F5F5F5"/>
<path d="M155.58 893.03C156.21 893.03 156.53 893.44 156.53 894.25C156.53 895.06 156.52 895.67 156.49 896.07C156.39 896.98 155.98 897.5 155.27 897.63C153.02 897.96 151.34 898.12 150.25 898.12C146.48 898.12 143.88 897.06 142.46 894.93C141.04 892.8 140.33 888.96 140.33 883.42C140.33 879.37 140.63 876.28 141.24 874.15C141.87 872 142.87 870.49 144.24 869.63C145.63 868.77 147.7 868.34 150.43 868.34C153.19 868.34 155.21 868.77 156.47 869.63C156.72 869.81 156.85 870.02 156.85 870.28C156.85 870.53 156.72 871.01 156.47 871.72C156.24 872.4 156.01 872.9 155.79 873.2C155.59 873.48 155.37 873.62 155.14 873.62C154.91 873.62 154.73 873.61 154.61 873.58C152.71 873.2 151.06 873.01 149.67 873.01C148.3 873.01 147.4 873.77 146.97 875.29C146.56 876.81 146.36 879.28 146.36 882.7C146.36 886.1 146.45 888.46 146.63 889.81C146.81 891.15 147.14 892.09 147.62 892.62C148.1 893.15 148.86 893.42 149.9 893.42C150.96 893.42 152.15 893.36 153.47 893.23C154.83 893.09 155.53 893.03 155.58 893.03Z" fill="black"/>
<path d="M625.18 380H717.18C728.23 380 737.18 385.46 737.18 396.51V409.51C737.18 420.56 728.23 425 717.18 425H625.18C614.13 425 605.18 420.56 605.18 409.51V396.51C605.18 385.46 614.13 380 625.18 380Z" fill="black"/>
<path d="M646.18 395.51H569.18V411.51H646.18V395.51Z" fill="black"/>
<path d="M931 253H67V369H931V253Z" fill="#F5F5F5"/>
<path d="M503.498 282.333C421.081 282.333 320.258 277.093 209.426 260.147L202 259.01L203.292 254.054C204.771 248.44 239.886 115.693 293.055 41.7605C294.885 39.1848 297.01 36.6269 299.513 33.9623C326.286 5.62934 379.805 -6.82296 429.61 3.71087C469.972 12.2374 512.647 12.2729 553.035 3.78194L553.439 3.69311C603.217 -6.80519 658.216 6.25108 684.236 34.7262C685.527 36.1295 686.684 37.4973 687.788 38.8828C718.677 77.9273 760.653 146.957 785.3 254.16L786 257.216L782.341 259.134C778.547 261.124 736.679 267.128 736.275 267.181C710.847 270.751 669.491 275.69 616.994 278.923C585.136 280.877 546.873 282.333 503.498 282.333ZM220.566 250.892C509.014 293.773 728.23 258.441 768.322 251.123C743.89 148.023 703.394 81.5511 673.527 43.8034C672.585 42.6132 671.589 41.4408 670.486 40.2329C648.314 15.9855 601.334 4.88326 558.686 13.7828L558.282 13.8717C514.584 23.091 468.411 23.091 424.74 13.8539C381.957 4.81222 336.107 15.3993 313.262 39.5934C311.11 41.8849 309.28 44.0876 307.693 46.308C261.116 111.021 227.562 225.703 220.566 250.892Z" fill="black"/>
<path d="M498.478 366C366.644 366 242.637 357.349 149.29 341.628C25.8899 320.845 0 295.461 0 277.821C0 225.01 163.715 218.918 230.5 213.5L271.194 217.5L283.5 219.5C277.776 241.012 281.97 242.862 280.192 250.892C512.616 293.773 689.292 258.441 721.6 251.123C718.586 235.402 719.838 236.117 716 221L742 218.5L771 209.5C836.375 214.989 997 225.756 997 277.804C997 295.443 971.089 320.827 847.71 341.61C754.32 357.331 630.313 366 498.478 366ZM268.5 224C86.2081 239.525 13.01 254.658 13.01 277.804C13.01 284.838 23.0277 309.476 151.913 331.183C244.415 346.762 367.489 355.342 498.478 355.342C629.467 355.342 752.542 346.762 845.043 331.183C973.929 309.476 983.947 284.838 983.947 277.804C983.947 255.031 913.541 238.203 735.304 222.5C738.86 237.048 732.528 239.132 735.304 254.142L735.868 257.198L732.919 259.116C729.861 261.106 696.122 267.11 695.797 267.163C675.306 270.734 641.979 275.672 599.674 278.923C525.062 284.625 407.495 286.01 271.194 260.164L265.209 259.027L266.25 254.071C266.293 253.858 261.626 250.415 268.5 224Z" fill="black"/>
<path d="M508.475 282.706C427.618 282.706 328.651 277.36 219.916 260.129L213 259.028L213.871 254.285C217.804 232.613 224.378 217.532 224.668 216.892L226.621 212.469L233.406 213.126C236.521 213.428 546.885 243.005 766.333 213.18L774.121 212.114L775.678 217.354C775.731 217.514 780.72 234.496 785.023 254.125L786 258.601L779.585 259.969C777.13 260.484 718.605 272.865 619.955 279.171C588.568 281.232 551.029 282.706 508.475 282.706ZM230.528 250.856C511.511 294.235 728.689 258.512 768.287 251.14C765.779 240.109 763.166 230.375 761.608 224.708C558.632 250.785 285.12 228.527 238.131 224.353C236.178 229.558 232.983 239.008 230.528 250.856Z" fill="black"/>
<path d="M791 346H769V850H791V346Z" fill="black"/>
<path d="M228 344H206V850H228V344Z" fill="black"/>
<path d="M392.552 172.512H397.16V107.104H393.32C391.613 107.019 390.461 106.464 389.864 105.44C389.267 104.245 388.968 102.069 388.968 98.912C388.968 94.1333 390.376 91.744 393.192 91.744H415.848C419.603 91.744 421.48 93.0667 421.48 95.712C421.48 103.307 419.987 107.104 417 107.104H413.8L415.08 132.704L415.208 172.512H419.048C422.035 172.597 423.528 173.963 423.528 176.608C423.357 184.203 421.267 188 417.256 188H393.064C391.528 187.915 390.461 187.36 389.864 186.336C389.267 185.141 388.968 182.923 388.968 179.68C388.968 174.901 390.163 172.512 392.552 172.512ZM508.033 172.896C510.166 172.896 511.233 174.261 511.233 176.992C511.233 179.723 511.19 181.771 511.105 183.136C510.764 186.208 509.398 187.957 507.009 188.384C499.414 189.493 493.782 190.048 490.113 190.048C477.398 190.048 468.652 186.464 463.873 179.296C459.094 172.128 456.705 159.2 456.705 140.512C456.705 126.859 457.729 116.448 459.777 109.28C461.91 102.027 465.281 96.9493 469.889 94.048C474.582 91.1467 481.537 89.696 490.753 89.696C500.054 89.696 506.838 91.1467 511.105 94.048C511.958 94.6453 512.385 95.3707 512.385 96.224C512.385 97.0773 511.958 98.6987 511.105 101.088C510.337 103.392 509.569 105.056 508.801 106.08C508.118 107.019 507.393 107.488 506.625 107.488C505.857 107.488 505.26 107.445 504.833 107.36C498.433 106.08 492.886 105.44 488.193 105.44C483.585 105.44 480.556 108 479.105 113.12C477.74 118.24 477.057 126.56 477.057 138.08C477.057 149.515 477.356 157.493 477.953 162.016C478.55 166.539 479.66 169.696 481.281 171.488C482.902 173.28 485.462 174.176 488.961 174.176C492.545 174.176 496.556 173.963 500.993 173.536C505.516 173.109 507.862 172.896 508.033 172.896ZM547.719 178.656C545.927 176.437 545.031 174.773 545.031 173.664C545.031 172.469 546.012 170.891 547.975 168.928C550.023 166.88 551.346 165.771 551.943 165.6C552.626 165.429 553.266 165.344 553.863 165.344C554.46 165.344 555.442 165.728 556.807 166.496C563.122 171.445 568.668 173.92 573.447 173.92C578.226 173.92 581.34 172.811 582.791 170.592C584.242 168.373 584.967 165.472 584.967 161.888C584.967 158.304 583.687 155.403 581.127 153.184C578.567 150.965 574.343 148.277 568.455 145.12C562.652 141.963 557.575 137.867 553.223 132.832C548.871 127.797 546.695 122.592 546.695 117.216C546.695 107.659 549.17 100.704 554.119 96.352C559.154 91.9147 566.492 89.696 576.135 89.696C582.023 89.696 587.783 91.104 593.415 93.92C596.402 95.1147 597.81 96.352 597.639 97.632C597.554 98.144 597.468 98.912 597.383 99.936C595.762 104.544 594.524 107.189 593.671 107.872C593.415 108.043 592.818 108.128 591.879 108.128C591.026 108.128 588.679 107.445 584.839 106.08C580.999 104.629 577.714 103.904 574.983 103.904C572.338 103.904 570.119 104.843 568.327 106.72C566.535 108.597 565.639 111.243 565.639 114.656C565.639 118.069 567.175 121.184 570.247 124C573.319 126.731 578.055 129.589 584.455 132.576C591.196 136.075 596.231 139.701 599.559 143.456C602.972 147.211 604.679 152.245 604.679 158.56C604.679 179.552 595.804 190.048 578.055 190.048C564.828 190.048 554.716 186.251 547.719 178.656Z" fill="#322214"/>
<path d="M159.124 893.644H160.42V875.248H159.34C158.86 875.224 158.536 875.068 158.368 874.78C158.2 874.444 158.116 873.832 158.116 872.944C158.116 871.6 158.512 870.928 159.304 870.928H165.676C166.732 870.928 167.26 871.3 167.26 872.044C167.26 874.18 166.84 875.248 166 875.248H165.1L165.46 882.448L165.496 893.644H166.576C167.416 893.668 167.836 894.052 167.836 894.796C167.788 896.932 167.2 898 166.072 898H159.268C158.836 897.976 158.536 897.82 158.368 897.532C158.2 897.196 158.116 896.572 158.116 895.66C158.116 894.316 158.452 893.644 159.124 893.644ZM191.603 893.752C192.203 893.752 192.503 894.136 192.503 894.904C192.503 895.672 192.491 896.248 192.467 896.632C192.371 897.496 191.987 897.988 191.315 898.108C189.179 898.42 187.595 898.576 186.563 898.576C182.987 898.576 180.527 897.568 179.183 895.552C177.839 893.536 177.167 889.9 177.167 884.644C177.167 880.804 177.455 877.876 178.031 875.86C178.631 873.82 179.579 872.392 180.875 871.576C182.195 870.76 184.151 870.352 186.743 870.352C189.359 870.352 191.267 870.76 192.467 871.576C192.707 871.744 192.827 871.948 192.827 872.188C192.827 872.428 192.707 872.884 192.467 873.556C192.251 874.204 192.035 874.672 191.819 874.96C191.627 875.224 191.423 875.356 191.207 875.356C190.991 875.356 190.823 875.344 190.703 875.32C188.903 874.96 187.343 874.78 186.023 874.78C184.727 874.78 183.875 875.5 183.467 876.94C183.083 878.38 182.891 880.72 182.891 883.96C182.891 887.176 182.975 889.42 183.143 890.692C183.311 891.964 183.623 892.852 184.079 893.356C184.535 893.86 185.255 894.112 186.239 894.112C187.247 894.112 188.375 894.052 189.623 893.932C190.895 893.812 191.555 893.752 191.603 893.752ZM202.765 895.372C202.261 894.748 202.009 894.28 202.009 893.968C202.009 893.632 202.285 893.188 202.837 892.636C203.413 892.06 203.785 891.748 203.953 891.7C204.145 891.652 204.325 891.628 204.493 891.628C204.661 891.628 204.937 891.736 205.321 891.952C207.097 893.344 208.657 894.04 210.001 894.04C211.345 894.04 212.221 893.728 212.629 893.104C213.037 892.48 213.241 891.664 213.241 890.656C213.241 889.648 212.881 888.832 212.161 888.208C211.441 887.584 210.253 886.828 208.597 885.94C206.965 885.052 205.537 883.9 204.313 882.484C203.089 881.068 202.477 879.604 202.477 878.092C202.477 875.404 203.173 873.448 204.565 872.224C205.981 870.976 208.045 870.352 210.757 870.352C212.413 870.352 214.033 870.748 215.617 871.54C216.457 871.876 216.853 872.224 216.805 872.584C216.781 872.728 216.757 872.944 216.733 873.232C216.277 874.528 215.929 875.272 215.689 875.464C215.617 875.512 215.449 875.536 215.185 875.536C214.945 875.536 214.285 875.344 213.205 874.96C212.125 874.552 211.201 874.348 210.433 874.348C209.689 874.348 209.065 874.612 208.561 875.14C208.057 875.668 207.805 876.412 207.805 877.372C207.805 878.332 208.237 879.208 209.101 880C209.965 880.768 211.297 881.572 213.097 882.412C214.993 883.396 216.409 884.416 217.345 885.472C218.305 886.528 218.785 887.944 218.785 889.72C218.785 895.624 216.289 898.576 211.297 898.576C207.577 898.576 204.733 897.508 202.765 895.372ZM245.932 893.644H247.228V875.248H246.148C245.668 875.224 245.344 875.068 245.176 874.78C245.008 874.444 244.924 873.832 244.924 872.944C244.924 871.6 245.32 870.928 246.112 870.928H252.484C253.54 870.928 254.068 871.3 254.068 872.044C254.068 874.18 253.648 875.248 252.808 875.248H251.908L252.268 882.448L252.304 893.644H253.384C254.224 893.668 254.644 894.052 254.644 894.796C254.596 896.932 254.008 898 252.88 898H246.076C245.644 897.976 245.344 897.82 245.176 897.532C245.008 897.196 244.924 896.572 244.924 895.66C244.924 894.316 245.26 893.644 245.932 893.644ZM278.411 893.752C279.011 893.752 279.311 894.136 279.311 894.904C279.311 895.672 279.299 896.248 279.275 896.632C279.179 897.496 278.795 897.988 278.123 898.108C275.987 898.42 274.403 898.576 273.371 898.576C269.795 898.576 267.335 897.568 265.991 895.552C264.647 893.536 263.975 889.9 263.975 884.644C263.975 880.804 264.263 877.876 264.839 875.86C265.439 873.82 266.387 872.392 267.683 871.576C269.003 870.76 270.959 870.352 273.551 870.352C276.167 870.352 278.075 870.76 279.275 871.576C279.515 871.744 279.635 871.948 279.635 872.188C279.635 872.428 279.515 872.884 279.275 873.556C279.059 874.204 278.843 874.672 278.627 874.96C278.435 875.224 278.231 875.356 278.015 875.356C277.799 875.356 277.631 875.344 277.511 875.32C275.711 874.96 274.151 874.78 272.831 874.78C271.535 874.78 270.683 875.5 270.275 876.94C269.891 878.38 269.699 880.72 269.699 883.96C269.699 887.176 269.783 889.42 269.951 890.692C270.119 891.964 270.431 892.852 270.887 893.356C271.343 893.86 272.063 894.112 273.047 894.112C274.055 894.112 275.183 894.052 276.431 893.932C277.703 893.812 278.363 893.752 278.411 893.752ZM289.573 895.372C289.069 894.748 288.817 894.28 288.817 893.968C288.817 893.632 289.093 893.188 289.645 892.636C290.221 892.06 290.593 891.748 290.761 891.7C290.953 891.652 291.133 891.628 291.301 891.628C291.469 891.628 291.745 891.736 292.129 891.952C293.905 893.344 295.465 894.04 296.809 894.04C298.153 894.04 299.029 893.728 299.437 893.104C299.845 892.48 300.049 891.664 300.049 890.656C300.049 889.648 299.689 888.832 298.969 888.208C298.249 887.584 297.061 886.828 295.405 885.94C293.773 885.052 292.345 883.9 291.121 882.484C289.897 881.068 289.285 879.604 289.285 878.092C289.285 875.404 289.981 873.448 291.373 872.224C292.789 870.976 294.853 870.352 297.565 870.352C299.221 870.352 300.841 870.748 302.425 871.54C303.265 871.876 303.661 872.224 303.613 872.584C303.589 872.728 303.565 872.944 303.541 873.232C303.085 874.528 302.737 875.272 302.497 875.464C302.425 875.512 302.257 875.536 301.993 875.536C301.753 875.536 301.093 875.344 300.013 874.96C298.933 874.552 298.009 874.348 297.241 874.348C296.497 874.348 295.873 874.612 295.369 875.14C294.865 875.668 294.613 876.412 294.613 877.372C294.613 878.332 295.045 879.208 295.909 880C296.773 880.768 298.105 881.572 299.905 882.412C301.801 883.396 303.217 884.416 304.153 885.472C305.113 886.528 305.593 887.944 305.593 889.72C305.593 895.624 303.097 898.576 298.105 898.576C294.385 898.576 291.541 897.508 289.573 895.372ZM332.74 893.644H334.036V875.248H332.956C332.476 875.224 332.152 875.068 331.984 874.78C331.816 874.444 331.732 873.832 331.732 872.944C331.732 871.6 332.128 870.928 332.92 870.928H339.292C340.348 870.928 340.876 871.3 340.876 872.044C340.876 874.18 340.456 875.248 339.616 875.248H338.716L339.076 882.448L339.112 893.644H340.192C341.032 893.668 341.452 894.052 341.452 894.796C341.404 896.932 340.816 898 339.688 898H332.884C332.452 897.976 332.152 897.82 331.984 897.532C331.816 897.196 331.732 896.572 331.732 895.66C331.732 894.316 332.068 893.644 332.74 893.644ZM365.219 893.752C365.819 893.752 366.119 894.136 366.119 894.904C366.119 895.672 366.107 896.248 366.083 896.632C365.987 897.496 365.603 897.988 364.931 898.108C362.795 898.42 361.211 898.576 360.179 898.576C356.603 898.576 354.143 897.568 352.799 895.552C351.455 893.536 350.783 889.9 350.783 884.644C350.783 880.804 351.071 877.876 351.647 875.86C352.247 873.82 353.195 872.392 354.491 871.576C355.811 870.76 357.767 870.352 360.359 870.352C362.975 870.352 364.883 870.76 366.083 871.576C366.323 871.744 366.443 871.948 366.443 872.188C366.443 872.428 366.323 872.884 366.083 873.556C365.867 874.204 365.651 874.672 365.435 874.96C365.243 875.224 365.039 875.356 364.823 875.356C364.607 875.356 364.439 875.344 364.319 875.32C362.519 874.96 360.959 874.78 359.639 874.78C358.343 874.78 357.491 875.5 357.083 876.94C356.699 878.38 356.507 880.72 356.507 883.96C356.507 887.176 356.591 889.42 356.759 890.692C356.927 891.964 357.239 892.852 357.695 893.356C358.151 893.86 358.871 894.112 359.855 894.112C360.863 894.112 361.991 894.052 363.239 893.932C364.511 893.812 365.171 893.752 365.219 893.752ZM376.38 895.372C375.876 894.748 375.624 894.28 375.624 893.968C375.624 893.632 375.9 893.188 376.452 892.636C377.028 892.06 377.4 891.748 377.568 891.7C377.76 891.652 377.94 891.628 378.108 891.628C378.276 891.628 378.552 891.736 378.936 891.952C380.712 893.344 382.272 894.04 383.616 894.04C384.96 894.04 385.836 893.728 386.244 893.104C386.652 892.48 386.856 891.664 386.856 890.656C386.856 889.648 386.496 888.832 385.776 888.208C385.056 887.584 383.868 886.828 382.212 885.94C380.58 885.052 379.152 883.9 377.928 882.484C376.704 881.068 376.092 879.604 376.092 878.092C376.092 875.404 376.788 873.448 378.18 872.224C379.596 870.976 381.66 870.352 384.372 870.352C386.028 870.352 387.648 870.748 389.232 871.54C390.072 871.876 390.468 872.224 390.42 872.584C390.396 872.728 390.372 872.944 390.348 873.232C389.892 874.528 389.544 875.272 389.304 875.464C389.232 875.512 389.064 875.536 388.8 875.536C388.56 875.536 387.9 875.344 386.82 874.96C385.74 874.552 384.816 874.348 384.048 874.348C383.304 874.348 382.68 874.612 382.176 875.14C381.672 875.668 381.42 876.412 381.42 877.372C381.42 878.332 381.852 879.208 382.716 880C383.58 880.768 384.912 881.572 386.712 882.412C388.608 883.396 390.024 884.416 390.96 885.472C391.92 886.528 392.4 887.944 392.4 889.72C392.4 895.624 389.904 898.576 384.912 898.576C381.192 898.576 378.348 897.508 376.38 895.372ZM419.547 893.644H420.843V875.248H419.763C419.283 875.224 418.959 875.068 418.791 874.78C418.623 874.444 418.539 873.832 418.539 872.944C418.539 871.6 418.935 870.928 419.727 870.928H426.099C427.155 870.928 427.683 871.3 427.683 872.044C427.683 874.18 427.263 875.248 426.423 875.248H425.523L425.883 882.448L425.919 893.644H426.999C427.839 893.668 428.259 894.052 428.259 894.796C428.211 896.932 427.623 898 426.495 898H419.691C419.259 897.976 418.959 897.82 418.791 897.532C418.623 897.196 418.539 896.572 418.539 895.66C418.539 894.316 418.875 893.644 419.547 893.644ZM452.026 893.752C452.626 893.752 452.926 894.136 452.926 894.904C452.926 895.672 452.914 896.248 452.89 896.632C452.794 897.496 452.41 897.988 451.738 898.108C449.602 898.42 448.018 898.576 446.986 898.576C443.41 898.576 440.95 897.568 439.606 895.552C438.262 893.536 437.59 889.9 437.59 884.644C437.59 880.804 437.878 877.876 438.454 875.86C439.054 873.82 440.002 872.392 441.298 871.576C442.618 870.76 444.574 870.352 447.166 870.352C449.782 870.352 451.69 870.76 452.89 871.576C453.13 871.744 453.25 871.948 453.25 872.188C453.25 872.428 453.13 872.884 452.89 873.556C452.674 874.204 452.458 874.672 452.242 874.96C452.05 875.224 451.846 875.356 451.63 875.356C451.414 875.356 451.246 875.344 451.126 875.32C449.326 874.96 447.766 874.78 446.446 874.78C445.15 874.78 444.298 875.5 443.89 876.94C443.506 878.38 443.314 880.72 443.314 883.96C443.314 887.176 443.398 889.42 443.566 890.692C443.734 891.964 444.046 892.852 444.502 893.356C444.958 893.86 445.678 894.112 446.662 894.112C447.67 894.112 448.798 894.052 450.046 893.932C451.318 893.812 451.978 893.752 452.026 893.752ZM463.188 895.372C462.684 894.748 462.432 894.28 462.432 893.968C462.432 893.632 462.708 893.188 463.26 892.636C463.836 892.06 464.208 891.748 464.376 891.7C464.568 891.652 464.748 891.628 464.916 891.628C465.084 891.628 465.36 891.736 465.744 891.952C467.52 893.344 469.08 894.04 470.424 894.04C471.768 894.04 472.644 893.728 473.052 893.104C473.46 892.48 473.664 891.664 473.664 890.656C473.664 889.648 473.304 888.832 472.584 888.208C471.864 887.584 470.676 886.828 469.02 885.94C467.388 885.052 465.96 883.9 464.736 882.484C463.512 881.068 462.9 879.604 462.9 878.092C462.9 875.404 463.596 873.448 464.988 872.224C466.404 870.976 468.468 870.352 471.18 870.352C472.836 870.352 474.456 870.748 476.04 871.54C476.88 871.876 477.276 872.224 477.228 872.584C477.204 872.728 477.18 872.944 477.156 873.232C476.7 874.528 476.352 875.272 476.112 875.464C476.04 875.512 475.872 875.536 475.608 875.536C475.368 875.536 474.708 875.344 473.628 874.96C472.548 874.552 471.624 874.348 470.856 874.348C470.112 874.348 469.488 874.612 468.984 875.14C468.48 875.668 468.228 876.412 468.228 877.372C468.228 878.332 468.66 879.208 469.524 880C470.388 880.768 471.72 881.572 473.52 882.412C475.416 883.396 476.832 884.416 477.768 885.472C478.728 886.528 479.208 887.944 479.208 889.72C479.208 895.624 476.712 898.576 471.72 898.576C468 898.576 465.156 897.508 463.188 895.372ZM506.355 893.644H507.651V875.248H506.571C506.091 875.224 505.767 875.068 505.599 874.78C505.431 874.444 505.347 873.832 505.347 872.944C505.347 871.6 505.743 870.928 506.535 870.928H512.907C513.963 870.928 514.491 871.3 514.491 872.044C514.491 874.18 514.071 875.248 513.231 875.248H512.331L512.691 882.448L512.727 893.644H513.807C514.647 893.668 515.067 894.052 515.067 894.796C515.019 896.932 514.431 898 513.303 898H506.499C506.067 897.976 505.767 897.82 505.599 897.532C505.431 897.196 505.347 896.572 505.347 895.66C505.347 894.316 505.683 893.644 506.355 893.644ZM538.834 893.752C539.434 893.752 539.734 894.136 539.734 894.904C539.734 895.672 539.722 896.248 539.698 896.632C539.602 897.496 539.218 897.988 538.546 898.108C536.41 898.42 534.826 898.576 533.794 898.576C530.218 898.576 527.758 897.568 526.414 895.552C525.07 893.536 524.398 889.9 524.398 884.644C524.398 880.804 524.686 877.876 525.262 875.86C525.862 873.82 526.81 872.392 528.106 871.576C529.426 870.76 531.382 870.352 533.974 870.352C536.59 870.352 538.498 870.76 539.698 871.576C539.938 871.744 540.058 871.948 540.058 872.188C540.058 872.428 539.938 872.884 539.698 873.556C539.482 874.204 539.266 874.672 539.05 874.96C538.858 875.224 538.654 875.356 538.438 875.356C538.222 875.356 538.054 875.344 537.934 875.32C536.134 874.96 534.574 874.78 533.254 874.78C531.958 874.78 531.106 875.5 530.698 876.94C530.314 878.38 530.122 880.72 530.122 883.96C530.122 887.176 530.206 889.42 530.374 890.692C530.542 891.964 530.854 892.852 531.31 893.356C531.766 893.86 532.486 894.112 533.47 894.112C534.478 894.112 535.606 894.052 536.854 893.932C538.126 893.812 538.786 893.752 538.834 893.752ZM549.996 895.372C549.492 894.748 549.24 894.28 549.24 893.968C549.24 893.632 549.516 893.188 550.068 892.636C550.644 892.06 551.016 891.748 551.184 891.7C551.376 891.652 551.556 891.628 551.724 891.628C551.892 891.628 552.168 891.736 552.552 891.952C554.328 893.344 555.888 894.04 557.232 894.04C558.576 894.04 559.452 893.728 559.86 893.104C560.268 892.48 560.472 891.664 560.472 890.656C560.472 889.648 560.112 888.832 559.392 888.208C558.672 887.584 557.484 886.828 555.828 885.94C554.196 885.052 552.768 883.9 551.544 882.484C550.32 881.068 549.708 879.604 549.708 878.092C549.708 875.404 550.404 873.448 551.796 872.224C553.212 870.976 555.276 870.352 557.988 870.352C559.644 870.352 561.264 870.748 562.848 871.54C563.688 871.876 564.084 872.224 564.036 872.584C564.012 872.728 563.988 872.944 563.964 873.232C563.508 874.528 563.16 875.272 562.92 875.464C562.848 875.512 562.68 875.536 562.416 875.536C562.176 875.536 561.516 875.344 560.436 874.96C559.356 874.552 558.432 874.348 557.664 874.348C556.92 874.348 556.296 874.612 555.792 875.14C555.288 875.668 555.036 876.412 555.036 877.372C555.036 878.332 555.468 879.208 556.332 880C557.196 880.768 558.528 881.572 560.328 882.412C562.224 883.396 563.64 884.416 564.576 885.472C565.536 886.528 566.016 887.944 566.016 889.72C566.016 895.624 563.52 898.576 558.528 898.576C554.808 898.576 551.964 897.508 549.996 895.372ZM593.163 893.644H594.459V875.248H593.379C592.899 875.224 592.575 875.068 592.407 874.78C592.239 874.444 592.155 873.832 592.155 872.944C592.155 871.6 592.551 870.928 593.343 870.928H599.715C600.771 870.928 601.299 871.3 601.299 872.044C601.299 874.18 600.879 875.248 600.039 875.248H599.139L599.499 882.448L599.535 893.644H600.615C601.455 893.668 601.875 894.052 601.875 894.796C601.827 896.932 601.239 898 600.111 898H593.307C592.875 897.976 592.575 897.82 592.407 897.532C592.239 897.196 592.155 896.572 592.155 895.66C592.155 894.316 592.491 893.644 593.163 893.644ZM625.642 893.752C626.242 893.752 626.542 894.136 626.542 894.904C626.542 895.672 626.53 896.248 626.506 896.632C626.41 897.496 626.026 897.988 625.354 898.108C623.218 898.42 621.634 898.576 620.602 898.576C617.026 898.576 614.566 897.568 613.222 895.552C611.878 893.536 611.206 889.9 611.206 884.644C611.206 880.804 611.494 877.876 612.07 875.86C612.67 873.82 613.618 872.392 614.914 871.576C616.234 870.76 618.19 870.352 620.782 870.352C623.398 870.352 625.306 870.76 626.506 871.576C626.746 871.744 626.866 871.948 626.866 872.188C626.866 872.428 626.746 872.884 626.506 873.556C626.29 874.204 626.074 874.672 625.858 874.96C625.666 875.224 625.462 875.356 625.246 875.356C625.03 875.356 624.862 875.344 624.742 875.32C622.942 874.96 621.382 874.78 620.062 874.78C618.766 874.78 617.914 875.5 617.506 876.94C617.122 878.38 616.93 880.72 616.93 883.96C616.93 887.176 617.014 889.42 617.182 890.692C617.35 891.964 617.662 892.852 618.118 893.356C618.574 893.86 619.294 894.112 620.278 894.112C621.286 894.112 622.414 894.052 623.662 893.932C624.934 893.812 625.594 893.752 625.642 893.752ZM636.804 895.372C636.3 894.748 636.048 894.28 636.048 893.968C636.048 893.632 636.324 893.188 636.876 892.636C637.452 892.06 637.824 891.748 637.992 891.7C638.184 891.652 638.364 891.628 638.532 891.628C638.7 891.628 638.976 891.736 639.36 891.952C641.136 893.344 642.696 894.04 644.04 894.04C645.384 894.04 646.26 893.728 646.668 893.104C647.076 892.48 647.28 891.664 647.28 890.656C647.28 889.648 646.92 888.832 646.2 888.208C645.48 887.584 644.292 886.828 642.636 885.94C641.004 885.052 639.576 883.9 638.352 882.484C637.128 881.068 636.516 879.604 636.516 878.092C636.516 875.404 637.212 873.448 638.604 872.224C640.02 870.976 642.084 870.352 644.796 870.352C646.452 870.352 648.072 870.748 649.656 871.54C650.496 871.876 650.892 872.224 650.844 872.584C650.82 872.728 650.796 872.944 650.772 873.232C650.316 874.528 649.968 875.272 649.728 875.464C649.656 875.512 649.488 875.536 649.224 875.536C648.984 875.536 648.324 875.344 647.244 874.96C646.164 874.552 645.24 874.348 644.472 874.348C643.728 874.348 643.104 874.612 642.6 875.14C642.096 875.668 641.844 876.412 641.844 877.372C641.844 878.332 642.276 879.208 643.14 880C644.004 880.768 645.336 881.572 647.136 882.412C649.032 883.396 650.448 884.416 651.384 885.472C652.344 886.528 652.824 887.944 652.824 889.72C652.824 895.624 650.328 898.576 645.336 898.576C641.616 898.576 638.772 897.508 636.804 895.372ZM679.971 893.644H681.267V875.248H680.187C679.707 875.224 679.383 875.068 679.215 874.78C679.047 874.444 678.963 873.832 678.963 872.944C678.963 871.6 679.359 870.928 680.151 870.928H686.523C687.579 870.928 688.107 871.3 688.107 872.044C688.107 874.18 687.687 875.248 686.847 875.248H685.947L686.307 882.448L686.343 893.644H687.423C688.263 893.668 688.683 894.052 688.683 894.796C688.635 896.932 688.047 898 686.919 898H680.115C679.683 897.976 679.383 897.82 679.215 897.532C679.047 897.196 678.963 896.572 678.963 895.66C678.963 894.316 679.299 893.644 679.971 893.644ZM712.45 893.752C713.05 893.752 713.35 894.136 713.35 894.904C713.35 895.672 713.338 896.248 713.314 896.632C713.218 897.496 712.834 897.988 712.162 898.108C710.026 898.42 708.442 898.576 707.41 898.576C703.834 898.576 701.374 897.568 700.03 895.552C698.686 893.536 698.014 889.9 698.014 884.644C698.014 880.804 698.302 877.876 698.878 875.86C699.478 873.82 700.426 872.392 701.722 871.576C703.042 870.76 704.998 870.352 707.59 870.352C710.206 870.352 712.114 870.76 713.314 871.576C713.554 871.744 713.674 871.948 713.674 872.188C713.674 872.428 713.554 872.884 713.314 873.556C713.098 874.204 712.882 874.672 712.666 874.96C712.474 875.224 712.27 875.356 712.054 875.356C711.838 875.356 711.67 875.344 711.55 875.32C709.75 874.96 708.19 874.78 706.87 874.78C705.574 874.78 704.722 875.5 704.314 876.94C703.93 878.38 703.738 880.72 703.738 883.96C703.738 887.176 703.822 889.42 703.99 890.692C704.158 891.964 704.47 892.852 704.926 893.356C705.382 893.86 706.102 894.112 707.086 894.112C708.094 894.112 709.222 894.052 710.47 893.932C711.742 893.812 712.402 893.752 712.45 893.752ZM723.612 895.372C723.108 894.748 722.856 894.28 722.856 893.968C722.856 893.632 723.132 893.188 723.684 892.636C724.26 892.06 724.632 891.748 724.8 891.7C724.992 891.652 725.172 891.628 725.34 891.628C725.508 891.628 725.784 891.736 726.168 891.952C727.944 893.344 729.504 894.04 730.848 894.04C732.192 894.04 733.068 893.728 733.476 893.104C733.884 892.48 734.088 891.664 734.088 890.656C734.088 889.648 733.728 888.832 733.008 888.208C732.288 887.584 731.1 886.828 729.444 885.94C727.812 885.052 726.384 883.9 725.16 882.484C723.936 881.068 723.324 879.604 723.324 878.092C723.324 875.404 724.02 873.448 725.412 872.224C726.828 870.976 728.892 870.352 731.604 870.352C733.26 870.352 734.88 870.748 736.464 871.54C737.304 871.876 737.7 872.224 737.652 872.584C737.628 872.728 737.604 872.944 737.58 873.232C737.124 874.528 736.776 875.272 736.536 875.464C736.464 875.512 736.296 875.536 736.032 875.536C735.792 875.536 735.132 875.344 734.052 874.96C732.972 874.552 732.048 874.348 731.28 874.348C730.536 874.348 729.912 874.612 729.408 875.14C728.904 875.668 728.652 876.412 728.652 877.372C728.652 878.332 729.084 879.208 729.948 880C730.812 880.768 732.144 881.572 733.944 882.412C735.84 883.396 737.256 884.416 738.192 885.472C739.152 886.528 739.632 887.944 739.632 889.72C739.632 895.624 737.136 898.576 732.144 898.576C728.424 898.576 725.58 897.508 723.612 895.372ZM766.779 893.644H768.075V875.248H766.995C766.515 875.224 766.191 875.068 766.023 874.78C765.855 874.444 765.771 873.832 765.771 872.944C765.771 871.6 766.167 870.928 766.959 870.928H773.331C774.387 870.928 774.915 871.3 774.915 872.044C774.915 874.18 774.495 875.248 773.655 875.248H772.755L773.115 882.448L773.151 893.644H774.231C775.071 893.668 775.491 894.052 775.491 894.796C775.443 896.932 774.855 898 773.727 898H766.923C766.491 897.976 766.191 897.82 766.023 897.532C765.855 897.196 765.771 896.572 765.771 895.66C765.771 894.316 766.107 893.644 766.779 893.644ZM799.258 893.752C799.858 893.752 800.158 894.136 800.158 894.904C800.158 895.672 800.146 896.248 800.122 896.632C800.026 897.496 799.642 897.988 798.97 898.108C796.834 898.42 795.25 898.576 794.218 898.576C790.642 898.576 788.182 897.568 786.838 895.552C785.494 893.536 784.822 889.9 784.822 884.644C784.822 880.804 785.11 877.876 785.686 875.86C786.286 873.82 787.234 872.392 788.53 871.576C789.85 870.76 791.806 870.352 794.398 870.352C797.014 870.352 798.922 870.76 800.122 871.576C800.362 871.744 800.482 871.948 800.482 872.188C800.482 872.428 800.362 872.884 800.122 873.556C799.906 874.204 799.69 874.672 799.474 874.96C799.282 875.224 799.078 875.356 798.862 875.356C798.646 875.356 798.478 875.344 798.358 875.32C796.558 874.96 794.998 874.78 793.678 874.78C792.382 874.78 791.53 875.5 791.122 876.94C790.738 878.38 790.546 880.72 790.546 883.96C790.546 887.176 790.63 889.42 790.798 890.692C790.966 891.964 791.278 892.852 791.734 893.356C792.19 893.86 792.91 894.112 793.894 894.112C794.902 894.112 796.03 894.052 797.278 893.932C798.55 893.812 799.21 893.752 799.258 893.752ZM810.419 895.372C809.915 894.748 809.663 894.28 809.663 893.968C809.663 893.632 809.939 893.188 810.491 892.636C811.067 892.06 811.439 891.748 811.607 891.7C811.799 891.652 811.979 891.628 812.147 891.628C812.315 891.628 812.591 891.736 812.975 891.952C814.751 893.344 816.311 894.04 817.655 894.04C818.999 894.04 819.875 893.728 820.283 893.104C820.691 892.48 820.895 891.664 820.895 890.656C820.895 889.648 820.535 888.832 819.815 888.208C819.095 887.584 817.907 886.828 816.251 885.94C814.619 885.052 813.191 883.9 811.967 882.484C810.743 881.068 810.131 879.604 810.131 878.092C810.131 875.404 810.827 873.448 812.219 872.224C813.635 870.976 815.699 870.352 818.411 870.352C820.067 870.352 821.687 870.748 823.271 871.54C824.111 871.876 824.507 872.224 824.459 872.584C824.435 872.728 824.411 872.944 824.387 873.232C823.931 874.528 823.583 875.272 823.343 875.464C823.271 875.512 823.103 875.536 822.839 875.536C822.599 875.536 821.939 875.344 820.859 874.96C819.779 874.552 818.855 874.348 818.087 874.348C817.343 874.348 816.719 874.612 816.215 875.14C815.711 875.668 815.459 876.412 815.459 877.372C815.459 878.332 815.891 879.208 816.755 880C817.619 880.768 818.951 881.572 820.751 882.412C822.647 883.396 824.063 884.416 824.999 885.472C825.959 886.528 826.439 887.944 826.439 889.72C826.439 895.624 823.943 898.576 818.951 898.576C815.231 898.576 812.387 897.508 810.419 895.372Z" fill="white"/>
</g>
<defs>
<clipPath id="clip0_426_87">
<rect width="997" height="921" fill="white"/>
</clipPath>
</defs>
</svg>
