<svg width="720" height="760" viewBox="0 0 720 760" fill="none" xmlns="http://www.w3.org/2000/svg">
<path fill-rule="evenodd" clip-rule="evenodd" d="M466.957 98.9359C476.938 102.173 483.713 111.439 483.761 121.932C483.961 126.536 483.977 130.283 483.977 130.283C483.977 130.283 483.817 258.06 332.523 375.684C270.977 423.534 217.598 501.315 203.656 574.037C201.824 583.761 194.296 591.424 184.6 593.418C174.904 595.412 164.967 591.349 159.44 583.121C116.323 519.227 67.4265 399.819 148.963 258.418C222.486 130.923 358.234 65.7249 466.957 98.9359Z" fill="black"/>
<path fill-rule="evenodd" clip-rule="evenodd" d="M253.86 661.733C243.431 658.396 236.328 648.724 236.285 637.773C236.077 633.51 236.054 630.148 236.054 630.148C236.054 630.148 236.214 502.372 387.508 384.748C448.501 337.329 501.47 260.509 515.987 188.365C517.997 178.31 525.872 170.444 535.942 168.477C546.017 166.501 556.283 170.796 561.935 179.356C604.732 243.729 651.742 362.106 571.067 502.013C497.715 629.188 362.46 694.382 253.86 661.733Z" fill="black"/>
</svg>
