<svg width="873" height="922" viewBox="0 0 873 922" fill="none" xmlns="http://www.w3.org/2000/svg">
<path d="M84.2305 194.6C84.3705 194.61 84.5205 194.63 84.6605 194.65C84.8705 193.1 85.0705 191.55 85.2805 190C84.9505 191.55 84.6005 193.08 84.2305 194.6Z" fill="#322214"/>
<path d="M790.6 850.45L726 850.44C746 850.822 732.5 850.77 732.5 850.45V304.91C732.5 304.41 732.5 300.99 732.5 300.99C723 309.99 731 314.467 722.5 314.5L158.5 304.91C158.76 316.93 149.39 298.77 149.36 310.79C149.36 312.44 148.67 313.68 147.66 314.5V849.34C147.66 849.73 147.66 850.06 147.73 850.45H75.24C70.69 850.45 67 854.14 67 858.69V913.76C67 918.31 70.69 922 75.24 922H790.6C795.15 922 798.84 918.31 798.84 913.76V858.69C798.84 854.14 795.15 850.45 790.6 850.45ZM376.31 378.81C376.31 374.26 374.95 307.342 379.5 307.342L499.88 308.667V430.56C499.88 435.11 496.19 438.8 491.64 438.8H384.55C380 438.8 376.31 435.11 376.31 430.56V378.81ZM543.06 850.44C536.2 850.44 532.34 842.55 536.56 837.14L550.46 819.3C554.68 813.89 550.82 806 543.96 806H336.23C329.23 806 325.42 814.17 329.92 819.54L344.49 836.91C348.99 842.27 345.17 850.45 338.17 850.45L169.47 850.39C168 850.49 159.358 850.39 158.5 850.39V304.91C158.5 300.36 175.95 304.91 180.5 304.91L218 305.565C222.55 305.565 219.782 305.585 226.5 305.658L230 305.697C234.5 305.746 237.45 305.829 242 305.829L364.59 307.178V436.41C364.59 444.2 370.9 450.51 378.69 450.51H389.88C394.43 450.51 398.12 454.2 398.12 458.75V478.4C398.12 482.95 401.81 486.64 406.36 486.64H415.34C419.89 486.64 423.58 482.95 423.58 478.4V458.75C423.58 454.2 427.27 450.51 431.82 450.51H444.38C448.93 450.51 452.62 454.2 452.62 458.75V478.4C452.62 482.95 456.31 486.64 460.86 486.64H469.84C474.39 486.64 478.08 482.95 478.08 478.4V458.75C478.08 454.2 481.77 450.51 486.32 450.51H497.44C505.23 450.51 511.54 444.2 511.54 436.41V308.795L602 309.791C606.55 309.791 634 310.143 641 310.22L642.68 310.688C648.5 310.302 656.45 310.44 661 310.44L683.5 310.688C688.05 310.688 716.5 314.434 722.5 314.5V850.45C719.5 850.45 710.5 850.49 709 850.45L543.06 850.44Z" fill="#322214"/>
<path d="M113 279.88C113.12 278.17 113.21 276.45 113.3 274.73H112.25C112.53 276.45 112.78 278.16 113 279.88Z" fill="#322214"/>
<path d="M629 582.49C623.47 576.96 611.96 575.49 603.5 575.49H571.59C567.04 575.49 563.35 568.05 563.35 563.5C563.35 558.81 561.47 553.12 558.35 550C555.23 546.94 547.54 546.87 542.85 546.87H323.85C319.1 546.87 317.97 549.44 314.85 552.5C311.79 555.62 311.85 559.51 311.85 563.5V618C311.85 688.25 337.63 724.92 383.85 744C401.88 751.49 417.98 755.66 437.71 755.53C457.44 755.4 477.69 751.42 495.85 744C529.42 730.35 545.89 710.45 558.92 674C560.1 670.71 563.2 668.5 566.69 668.5H613.36C623.06 668.5 619.62 665.37 626 658.99C632.32 652.61 633.35 647.9 633.35 638.27V600.41C633.35 592.34 633.35 595.98 633.35 588.99C633.5 588.49 629.19 582.69 629 582.49ZM548 575.49V626.99C548 683.96 528.89 710.89 488 727.49C472.11 733.94 454.77 736.92 437.71 736.99C420.65 737.12 405.06 733.94 389.5 727.49C350.37 711.34 328.5 678.67 328.5 618V575.49C328.5 570.94 323.95 559.49 328.5 559.49H548C543.45 559.49 548 570.94 548 575.49ZM617.72 602.4V638.27C617.72 642.31 616.03 646.32 613.36 648.99C610.69 651.66 605.89 653.11 601.85 653.11H571.59C567.04 653.11 563.35 649.42 563.35 644.87V600.41C563.35 595.86 567.04 592.17 571.59 592.17H611.06C612.54 592.17 613.99 592.57 615.26 593.32C615.82 593.65 616.3 593.94 616.35 593.99C618.04 595.82 617.72 599.73 617.72 602.4Z" fill="#322214"/>
<path fill-rule="evenodd" clip-rule="evenodd" d="M641.92 705.66C641.7 702.15 639.09 699.27 635.45 698.51C633.87 698.12 632.57 697.85 632.57 697.85C632.57 697.85 588.14 688.87 533.55 730.29C511.34 747.14 479.47 759.19 452.93 758.63C449.38 758.54 446.04 760.48 444.47 763.52C442.9 766.57 443.41 770.12 445.77 772.52C464.07 791.21 501.14 815.73 557.68 798.93C608.65 783.77 643.61 743.75 641.92 705.66ZM628 709.49C623.56 741.06 593.62 773.69 554 785.49C522.53 794.86 484.02 784.02 465.5 772.52C486.2 770.34 516.34 758.07 541.5 738.99C573.55 714.66 613.89 709.93 628 709.49Z" fill="#322214"/>
<path fill-rule="evenodd" clip-rule="evenodd" d="M244.319 708.64C244.489 705.16 247.039 702.26 250.639 701.46C252.199 701.05 253.489 700.77 253.489 700.77C253.489 700.77 297.419 691.27 352.099 731.62C374.339 748.03 406.109 759.56 432.409 758.65C435.929 758.52 439.269 760.39 440.869 763.39C442.469 766.39 442.009 769.92 439.699 772.33C421.799 791.11 385.359 815.91 329.079 800C278.349 785.65 243.149 746.44 244.319 708.64ZM257.5 712.49C262.32 743.74 294.56 774.32 334 785.49C365.33 794.37 399.78 783.98 418 772.33C397.44 770.45 367.7 758.08 342.5 739.49C310.4 715.8 271.5 712.74 257.5 712.49Z" fill="#322214"/>
<path d="M580.85 835.5H291.85V850.5H580.85V835.5Z" fill="white" fill-opacity="0.9"/>
<path d="M97.5801 895.02C98.2101 895.02 98.5301 895.43 98.5301 896.24C98.5301 897.05 98.5201 897.66 98.4901 898.06C98.3901 898.97 97.9801 899.49 97.2701 899.62C95.0201 899.95 93.3401 900.11 92.2501 900.11C88.4801 900.11 85.8801 899.05 84.4601 896.92C83.0401 894.79 82.3301 890.95 82.3301 885.41C82.3301 881.36 82.6301 878.27 83.2401 876.14C83.8701 873.99 84.8701 872.48 86.2401 871.62C87.6301 870.76 89.7001 870.33 92.4301 870.33C95.1901 870.33 97.2101 870.76 98.4701 871.62C98.7201 871.8 98.8501 872.01 98.8501 872.27C98.8501 872.52 98.7201 873 98.4701 873.71C98.2401 874.39 98.0101 874.89 97.7901 875.19C97.5901 875.47 97.3701 875.61 97.1401 875.61C96.9101 875.61 96.7301 875.6 96.6101 875.57C94.7101 875.19 93.0601 875 91.6701 875C90.3001 875 89.4001 875.76 88.9701 877.28C88.5601 878.8 88.3601 881.27 88.3601 884.69C88.3601 888.09 88.4501 890.45 88.6301 891.8C88.8101 893.14 89.1401 894.08 89.6201 894.61C90.1001 895.14 90.8601 895.41 91.9001 895.41C92.9601 895.41 94.1501 895.35 95.4701 895.22C96.8301 895.08 97.5301 895.02 97.5801 895.02Z" fill="#322214"/>
<path d="M567.18 381.99H659.18C670.23 381.99 679.18 387.45 679.18 398.5V411.5C679.18 422.55 670.23 426.99 659.18 426.99H567.18C556.13 426.99 547.18 422.55 547.18 411.5V398.5C547.18 387.45 556.13 381.99 567.18 381.99Z" fill="#322214"/>
<path d="M588.18 397.5H511.18V413.5H588.18V397.5Z" fill="#322214"/>
<path d="M720 253H118V369H720V253Z" fill="#F5F5F5"/>
<path d="M161 318.99H147V857.99H161V318.99Z" fill="#322214"/>
<path d="M734 262H720V857H734V262Z" fill="#322214"/>
<path d="M531.9 259.668L117.504 296.52L126.56 398.355L540.956 361.504L531.9 259.668Z" fill="#F5F5F5"/>
<path d="M392.863 136.327C360.375 138.547 327.903 141.891 295.615 146.396C264.373 150.752 232.219 155.415 202.299 164.181C173.833 172.518 147.914 184.927 122.967 197.74C99.897 209.588 76.3935 222.016 59.1693 238.123C43.4243 252.845 33.5594 271.13 36.8102 288.555C40.0858 306.122 57.3975 318.212 80.3115 324.515C105.368 331.402 134.292 332.624 161.948 331.869C191.842 331.055 221.735 327.486 251.472 323.643C282.887 319.581 314.245 315.693 345.779 312.695C378.112 309.619 410.476 307.058 442.81 304.123C475.099 301.188 507.389 297.876 539.498 293.287C571.524 288.713 603.245 281.882 635.498 278.778C665.502 275.888 696.11 276.817 723.692 265.038C747.714 254.78 766.508 238.316 783.785 223.187C800.986 208.12 818.942 190.116 822.642 171.275C824.497 161.83 821.487 153.248 811.788 146.993C802.282 140.863 790.055 136.253 778.623 131.91C755.227 123.025 729.847 116.532 703.279 112.466C673.963 107.982 643.292 106.778 612.771 106.593C551.977 106.225 489.984 111.444 430.586 125.588C416.184 129.015 402.009 132.991 388.127 137.488C382.63 139.267 385.731 144.965 391.258 143.177C446.476 125.3 505.789 116.455 564.64 113.748C594.506 112.376 624.411 112.503 653.867 114.06C681.803 115.539 709.002 119.006 734.834 125.405C758.871 131.36 782.846 139.402 802.623 150.227C807.644 152.975 811.595 156.268 813.191 160.714C814.742 165.034 814.132 169.734 812.733 174.219C809.928 183.189 803.71 191.924 796.783 199.951C789.722 208.14 781.273 215.813 772.541 223.247C763.859 230.638 754.98 238 745.379 244.856C735.905 251.623 725.248 257.964 713.149 262.277C699.443 267.161 684.601 269.011 669.841 270.119C654.868 271.247 639.933 271.857 624.983 273.641C609.683 275.467 594.51 278.043 579.353 280.621C548.713 285.833 518.016 290.161 487.07 293.503C424.784 300.223 362.279 303.984 300.029 311.213C242.701 317.871 184.249 328.788 127.006 325.059C103.102 323.501 76.4081 319.797 59.8018 307.87C43.2202 295.956 42.1807 277.601 50.6237 261.447C59.7339 244.02 78.9366 229.911 99.4921 217.988C121.859 205.018 145.954 192.766 170.783 182.292C183.675 176.855 197.121 172.059 211.058 168.284C225.636 164.328 240.62 161.461 255.656 158.896C286.218 153.683 317.035 149.519 347.928 146.388C363.131 144.851 378.356 143.568 393.587 142.53C399.492 142.121 398.73 135.923 392.863 136.327Z" fill="#322214" stroke="#322214" stroke-width="10"/>
<path d="M327.434 142.433C320.109 142.24 312.987 143.509 305.765 144.785C299.268 145.929 291.74 147.414 285.61 145.592C279.368 143.732 276.825 138.848 275.178 134.56C273.55 130.307 272.956 125.79 273.089 121.293C273.633 103.358 287.914 84.7191 310.213 73.8522C324.498 66.889 341.761 63.0722 358.102 59.9401C374.647 56.7683 391.478 54.5838 408.316 53.4403C425.422 52.281 442.515 52.2542 459.32 53.3766C475.253 54.4395 492.131 56.0507 506.599 60.3129C521.243 64.6276 530.639 74.0697 530.597 85.4735C530.561 96.0858 520.69 106.937 506.866 112.448C501.637 114.531 504.694 120.249 509.997 118.136C524.035 112.543 534.52 103.3 538.327 92.6301C542.148 81.943 537.998 70.5574 528.085 62.8728C516.771 54.1021 499.181 51.3601 482.548 49.2069C464.365 46.8595 445.628 45.9597 426.778 46.3876C407.943 46.8137 389.039 48.4888 370.343 51.4641C351.738 54.4236 332.265 58.2078 315.111 64.7083C287.394 75.2143 268.17 95.028 264.581 115.982C263.61 121.673 263.685 127.408 265.15 132.9C266.68 138.615 269.175 144.599 275.269 148.598C289.288 157.814 308.817 148.237 325.696 148.686C331.538 148.85 333.283 142.592 327.434 142.433Z" fill="#322214" stroke="#322214" stroke-width="10"/>
<path d="M172.496 330.698C155.663 341.224 135.329 350.717 124.793 364.946C115.533 377.447 114.6 394.244 131.207 402.38C148.092 410.656 172.915 406.738 193.013 404.859C220.197 402.317 247.386 399.565 274.44 395.792C301.555 392.012 328.303 386.04 355.507 382.888C382.103 379.808 409.03 379.009 435.679 377.493C449.123 376.729 462.577 375.864 476.015 375.248C489.515 374.634 502.578 375.224 515.93 375.576C527.215 375.868 538.297 375.288 549.419 372.819C558.91 370.71 567.951 367.344 576.115 363.203C592.908 354.687 606.27 342.644 614.178 329.601C618.561 322.371 620.681 314.974 622.785 307.447C624.942 299.716 627.72 291.754 635.926 285.561C639.446 282.904 643.887 280.878 648.883 280.079C654.688 279.153 654.003 272.951 648.152 273.882C638.1 275.481 629.87 280.175 624.251 286.215C617.949 292.991 615.49 300.648 613.408 308.234C611.401 315.54 609.145 322.628 604.565 329.562C600.469 335.763 595.126 341.582 588.685 346.866C576.198 357.109 559.245 365.314 540.581 368.17C528.741 369.98 517.048 369.307 505.351 368.86C492.399 368.362 479.402 368.795 466.325 369.521C440.468 370.954 414.612 372.402 388.752 373.94C375.941 374.702 363.107 375.604 350.346 377.245C337.409 378.907 324.602 381.267 311.791 383.542C285.71 388.169 259.449 391.733 233.067 394.605C219.987 396.027 206.898 397.31 193.802 398.535C182.773 399.569 171.513 400.997 160.478 401.063C151.177 401.119 141.475 400.195 134.715 395.908C127.98 391.635 126.316 384.783 127.713 378.393C131.004 363.407 148.575 352.789 164.889 343.219C169.209 340.683 173.53 338.153 177.739 335.525C182.254 332.678 177.064 327.845 172.496 330.698Z" fill="#322214" stroke="#322214" stroke-width="10"/>
<path d="M362.657 147.373C369.397 146.264 376.136 145.149 382.876 144.04C388.67 143.084 387.985 136.882 382.145 137.843C375.405 138.952 368.666 140.067 361.926 141.176C356.131 142.132 356.817 148.334 362.657 147.373Z" fill="#322214"/>
<path d="M357.543 150.108C363.414 149.415 362.691 143.217 356.812 143.911C350.94 144.603 351.664 150.801 357.543 150.108Z" fill="#322214"/>
<path d="M319.552 246.512H324.16V181.104H320.32C318.613 181.019 317.461 180.464 316.864 179.44C316.267 178.245 315.968 176.069 315.968 172.912C315.968 168.133 317.376 165.744 320.192 165.744H342.848C346.603 165.744 348.48 167.067 348.48 169.712C348.48 177.307 346.987 181.104 344 181.104H340.8L342.08 206.704L342.208 246.512H346.048C349.035 246.597 350.528 247.963 350.528 250.608C350.357 258.203 348.267 262 344.256 262H320.064C318.528 261.915 317.461 261.36 316.864 260.336C316.267 259.141 315.968 256.923 315.968 253.68C315.968 248.901 317.163 246.512 319.552 246.512ZM435.033 246.896C437.166 246.896 438.233 248.261 438.233 250.992C438.233 253.723 438.19 255.771 438.105 257.136C437.764 260.208 436.398 261.957 434.009 262.384C426.414 263.493 420.782 264.048 417.113 264.048C404.398 264.048 395.652 260.464 390.873 253.296C386.094 246.128 383.705 233.2 383.705 214.512C383.705 200.859 384.729 190.448 386.777 183.28C388.91 176.027 392.281 170.949 396.889 168.048C401.582 165.147 408.537 163.696 417.753 163.696C427.054 163.696 433.838 165.147 438.105 168.048C438.958 168.645 439.385 169.371 439.385 170.224C439.385 171.077 438.958 172.699 438.105 175.088C437.337 177.392 436.569 179.056 435.801 180.08C435.118 181.019 434.393 181.488 433.625 181.488C432.857 181.488 432.26 181.445 431.833 181.36C425.433 180.08 419.886 179.44 415.193 179.44C410.585 179.44 407.556 182 406.105 187.12C404.74 192.24 404.057 200.56 404.057 212.08C404.057 223.515 404.356 231.493 404.953 236.016C405.55 240.539 406.66 243.696 408.281 245.488C409.902 247.28 412.462 248.176 415.961 248.176C419.545 248.176 423.556 247.963 427.993 247.536C432.516 247.109 434.862 246.896 435.033 246.896ZM474.719 252.656C472.927 250.437 472.031 248.773 472.031 247.664C472.031 246.469 473.012 244.891 474.975 242.928C477.023 240.88 478.346 239.771 478.943 239.6C479.626 239.429 480.266 239.344 480.863 239.344C481.46 239.344 482.442 239.728 483.807 240.496C490.122 245.445 495.668 247.92 500.447 247.92C505.226 247.92 508.34 246.811 509.791 244.592C511.242 242.373 511.967 239.472 511.967 235.888C511.967 232.304 510.687 229.403 508.127 227.184C505.567 224.965 501.343 222.277 495.455 219.12C489.652 215.963 484.575 211.867 480.223 206.832C475.871 201.797 473.695 196.592 473.695 191.216C473.695 181.659 476.17 174.704 481.119 170.352C486.154 165.915 493.492 163.696 503.135 163.696C509.023 163.696 514.783 165.104 520.415 167.92C523.402 169.115 524.81 170.352 524.639 171.632C524.554 172.144 524.468 172.912 524.383 173.936C522.762 178.544 521.524 181.189 520.671 181.872C520.415 182.043 519.818 182.128 518.879 182.128C518.026 182.128 515.679 181.445 511.839 180.08C507.999 178.629 504.714 177.904 501.983 177.904C499.338 177.904 497.119 178.843 495.327 180.72C493.535 182.597 492.639 185.243 492.639 188.656C492.639 192.069 494.175 195.184 497.247 198C500.319 200.731 505.055 203.589 511.455 206.576C518.196 210.075 523.231 213.701 526.559 217.456C529.972 221.211 531.679 226.245 531.679 232.56C531.679 253.552 522.804 264.048 505.055 264.048C491.828 264.048 481.716 260.251 474.719 252.656Z" fill="#322214"/>
<path d="M100.124 895.644H101.42V877.248H100.34C99.86 877.224 99.536 877.068 99.368 876.78C99.2 876.444 99.116 875.832 99.116 874.944C99.116 873.6 99.512 872.928 100.304 872.928H106.676C107.732 872.928 108.26 873.3 108.26 874.044C108.26 876.18 107.84 877.248 107 877.248H106.1L106.46 884.448L106.496 895.644H107.576C108.416 895.668 108.836 896.052 108.836 896.796C108.788 898.932 108.2 900 107.072 900H100.268C99.836 899.976 99.536 899.82 99.368 899.532C99.2 899.196 99.116 898.572 99.116 897.66C99.116 896.316 99.452 895.644 100.124 895.644ZM132.603 895.752C133.203 895.752 133.503 896.136 133.503 896.904C133.503 897.672 133.491 898.248 133.467 898.632C133.371 899.496 132.987 899.988 132.315 900.108C130.179 900.42 128.595 900.576 127.563 900.576C123.987 900.576 121.527 899.568 120.183 897.552C118.839 895.536 118.167 891.9 118.167 886.644C118.167 882.804 118.455 879.876 119.031 877.86C119.631 875.82 120.579 874.392 121.875 873.576C123.195 872.76 125.151 872.352 127.743 872.352C130.359 872.352 132.267 872.76 133.467 873.576C133.707 873.744 133.827 873.948 133.827 874.188C133.827 874.428 133.707 874.884 133.467 875.556C133.251 876.204 133.035 876.672 132.819 876.96C132.627 877.224 132.423 877.356 132.207 877.356C131.991 877.356 131.823 877.344 131.703 877.32C129.903 876.96 128.343 876.78 127.023 876.78C125.727 876.78 124.875 877.5 124.467 878.94C124.083 880.38 123.891 882.72 123.891 885.96C123.891 889.176 123.975 891.42 124.143 892.692C124.311 893.964 124.623 894.852 125.079 895.356C125.535 895.86 126.255 896.112 127.239 896.112C128.247 896.112 129.375 896.052 130.623 895.932C131.895 895.812 132.555 895.752 132.603 895.752ZM143.765 897.372C143.261 896.748 143.009 896.28 143.009 895.968C143.009 895.632 143.285 895.188 143.837 894.636C144.413 894.06 144.785 893.748 144.953 893.7C145.145 893.652 145.325 893.628 145.493 893.628C145.661 893.628 145.937 893.736 146.321 893.952C148.097 895.344 149.657 896.04 151.001 896.04C152.345 896.04 153.221 895.728 153.629 895.104C154.037 894.48 154.241 893.664 154.241 892.656C154.241 891.648 153.881 890.832 153.161 890.208C152.441 889.584 151.253 888.828 149.597 887.94C147.965 887.052 146.537 885.9 145.313 884.484C144.089 883.068 143.477 881.604 143.477 880.092C143.477 877.404 144.173 875.448 145.565 874.224C146.981 872.976 149.045 872.352 151.757 872.352C153.413 872.352 155.033 872.748 156.617 873.54C157.457 873.876 157.853 874.224 157.805 874.584C157.781 874.728 157.757 874.944 157.733 875.232C157.277 876.528 156.929 877.272 156.689 877.464C156.617 877.512 156.449 877.536 156.185 877.536C155.945 877.536 155.285 877.344 154.205 876.96C153.125 876.552 152.201 876.348 151.433 876.348C150.689 876.348 150.065 876.612 149.561 877.14C149.057 877.668 148.805 878.412 148.805 879.372C148.805 880.332 149.237 881.208 150.101 882C150.965 882.768 152.297 883.572 154.097 884.412C155.993 885.396 157.409 886.416 158.345 887.472C159.305 888.528 159.785 889.944 159.785 891.72C159.785 897.624 157.289 900.576 152.297 900.576C148.577 900.576 145.733 899.508 143.765 897.372ZM186.932 895.644H188.228V877.248H187.148C186.668 877.224 186.344 877.068 186.176 876.78C186.008 876.444 185.924 875.832 185.924 874.944C185.924 873.6 186.32 872.928 187.112 872.928H193.484C194.54 872.928 195.068 873.3 195.068 874.044C195.068 876.18 194.648 877.248 193.808 877.248H192.908L193.268 884.448L193.304 895.644H194.384C195.224 895.668 195.644 896.052 195.644 896.796C195.596 898.932 195.008 900 193.88 900H187.076C186.644 899.976 186.344 899.82 186.176 899.532C186.008 899.196 185.924 898.572 185.924 897.66C185.924 896.316 186.26 895.644 186.932 895.644ZM219.411 895.752C220.011 895.752 220.311 896.136 220.311 896.904C220.311 897.672 220.299 898.248 220.275 898.632C220.179 899.496 219.795 899.988 219.123 900.108C216.987 900.42 215.403 900.576 214.371 900.576C210.795 900.576 208.335 899.568 206.991 897.552C205.647 895.536 204.975 891.9 204.975 886.644C204.975 882.804 205.263 879.876 205.839 877.86C206.439 875.82 207.387 874.392 208.683 873.576C210.003 872.76 211.959 872.352 214.551 872.352C217.167 872.352 219.075 872.76 220.275 873.576C220.515 873.744 220.635 873.948 220.635 874.188C220.635 874.428 220.515 874.884 220.275 875.556C220.059 876.204 219.843 876.672 219.627 876.96C219.435 877.224 219.231 877.356 219.015 877.356C218.799 877.356 218.631 877.344 218.511 877.32C216.711 876.96 215.151 876.78 213.831 876.78C212.535 876.78 211.683 877.5 211.275 878.94C210.891 880.38 210.699 882.72 210.699 885.96C210.699 889.176 210.783 891.42 210.951 892.692C211.119 893.964 211.431 894.852 211.887 895.356C212.343 895.86 213.063 896.112 214.047 896.112C215.055 896.112 216.183 896.052 217.431 895.932C218.703 895.812 219.363 895.752 219.411 895.752ZM230.573 897.372C230.069 896.748 229.817 896.28 229.817 895.968C229.817 895.632 230.093 895.188 230.645 894.636C231.221 894.06 231.593 893.748 231.761 893.7C231.953 893.652 232.133 893.628 232.301 893.628C232.469 893.628 232.745 893.736 233.129 893.952C234.905 895.344 236.465 896.04 237.809 896.04C239.153 896.04 240.029 895.728 240.437 895.104C240.845 894.48 241.049 893.664 241.049 892.656C241.049 891.648 240.689 890.832 239.969 890.208C239.249 889.584 238.061 888.828 236.405 887.94C234.773 887.052 233.345 885.9 232.121 884.484C230.897 883.068 230.285 881.604 230.285 880.092C230.285 877.404 230.981 875.448 232.373 874.224C233.789 872.976 235.853 872.352 238.565 872.352C240.221 872.352 241.841 872.748 243.425 873.54C244.265 873.876 244.661 874.224 244.613 874.584C244.589 874.728 244.565 874.944 244.541 875.232C244.085 876.528 243.737 877.272 243.497 877.464C243.425 877.512 243.257 877.536 242.993 877.536C242.753 877.536 242.093 877.344 241.013 876.96C239.933 876.552 239.009 876.348 238.241 876.348C237.497 876.348 236.873 876.612 236.369 877.14C235.865 877.668 235.613 878.412 235.613 879.372C235.613 880.332 236.045 881.208 236.909 882C237.773 882.768 239.105 883.572 240.905 884.412C242.801 885.396 244.217 886.416 245.153 887.472C246.113 888.528 246.593 889.944 246.593 891.72C246.593 897.624 244.097 900.576 239.105 900.576C235.385 900.576 232.541 899.508 230.573 897.372ZM273.74 895.644H275.036V877.248H273.956C273.476 877.224 273.152 877.068 272.984 876.78C272.816 876.444 272.732 875.832 272.732 874.944C272.732 873.6 273.128 872.928 273.92 872.928H280.292C281.348 872.928 281.876 873.3 281.876 874.044C281.876 876.18 281.456 877.248 280.616 877.248H279.716L280.076 884.448L280.112 895.644H281.192C282.032 895.668 282.452 896.052 282.452 896.796C282.404 898.932 281.816 900 280.688 900H273.884C273.452 899.976 273.152 899.82 272.984 899.532C272.816 899.196 272.732 898.572 272.732 897.66C272.732 896.316 273.068 895.644 273.74 895.644ZM306.219 895.752C306.819 895.752 307.119 896.136 307.119 896.904C307.119 897.672 307.107 898.248 307.083 898.632C306.987 899.496 306.603 899.988 305.931 900.108C303.795 900.42 302.211 900.576 301.179 900.576C297.603 900.576 295.143 899.568 293.799 897.552C292.455 895.536 291.783 891.9 291.783 886.644C291.783 882.804 292.071 879.876 292.647 877.86C293.247 875.82 294.195 874.392 295.491 873.576C296.811 872.76 298.767 872.352 301.359 872.352C303.975 872.352 305.883 872.76 307.083 873.576C307.323 873.744 307.443 873.948 307.443 874.188C307.443 874.428 307.323 874.884 307.083 875.556C306.867 876.204 306.651 876.672 306.435 876.96C306.243 877.224 306.039 877.356 305.823 877.356C305.607 877.356 305.439 877.344 305.319 877.32C303.519 876.96 301.959 876.78 300.639 876.78C299.343 876.78 298.491 877.5 298.083 878.94C297.699 880.38 297.507 882.72 297.507 885.96C297.507 889.176 297.591 891.42 297.759 892.692C297.927 893.964 298.239 894.852 298.695 895.356C299.151 895.86 299.871 896.112 300.855 896.112C301.863 896.112 302.991 896.052 304.239 895.932C305.511 895.812 306.171 895.752 306.219 895.752ZM317.38 897.372C316.876 896.748 316.624 896.28 316.624 895.968C316.624 895.632 316.9 895.188 317.452 894.636C318.028 894.06 318.4 893.748 318.568 893.7C318.76 893.652 318.94 893.628 319.108 893.628C319.276 893.628 319.552 893.736 319.936 893.952C321.712 895.344 323.272 896.04 324.616 896.04C325.96 896.04 326.836 895.728 327.244 895.104C327.652 894.48 327.856 893.664 327.856 892.656C327.856 891.648 327.496 890.832 326.776 890.208C326.056 889.584 324.868 888.828 323.212 887.94C321.58 887.052 320.152 885.9 318.928 884.484C317.704 883.068 317.092 881.604 317.092 880.092C317.092 877.404 317.788 875.448 319.18 874.224C320.596 872.976 322.66 872.352 325.372 872.352C327.028 872.352 328.648 872.748 330.232 873.54C331.072 873.876 331.468 874.224 331.42 874.584C331.396 874.728 331.372 874.944 331.348 875.232C330.892 876.528 330.544 877.272 330.304 877.464C330.232 877.512 330.064 877.536 329.8 877.536C329.56 877.536 328.9 877.344 327.82 876.96C326.74 876.552 325.816 876.348 325.048 876.348C324.304 876.348 323.68 876.612 323.176 877.14C322.672 877.668 322.42 878.412 322.42 879.372C322.42 880.332 322.852 881.208 323.716 882C324.58 882.768 325.912 883.572 327.712 884.412C329.608 885.396 331.024 886.416 331.96 887.472C332.92 888.528 333.4 889.944 333.4 891.72C333.4 897.624 330.904 900.576 325.912 900.576C322.192 900.576 319.348 899.508 317.38 897.372ZM360.547 895.644H361.843V877.248H360.763C360.283 877.224 359.959 877.068 359.791 876.78C359.623 876.444 359.539 875.832 359.539 874.944C359.539 873.6 359.935 872.928 360.727 872.928H367.099C368.155 872.928 368.683 873.3 368.683 874.044C368.683 876.18 368.263 877.248 367.423 877.248H366.523L366.883 884.448L366.919 895.644H367.999C368.839 895.668 369.259 896.052 369.259 896.796C369.211 898.932 368.623 900 367.495 900H360.691C360.259 899.976 359.959 899.82 359.791 899.532C359.623 899.196 359.539 898.572 359.539 897.66C359.539 896.316 359.875 895.644 360.547 895.644ZM393.026 895.752C393.626 895.752 393.926 896.136 393.926 896.904C393.926 897.672 393.914 898.248 393.89 898.632C393.794 899.496 393.41 899.988 392.738 900.108C390.602 900.42 389.018 900.576 387.986 900.576C384.41 900.576 381.95 899.568 380.606 897.552C379.262 895.536 378.59 891.9 378.59 886.644C378.59 882.804 378.878 879.876 379.454 877.86C380.054 875.82 381.002 874.392 382.298 873.576C383.618 872.76 385.574 872.352 388.166 872.352C390.782 872.352 392.69 872.76 393.89 873.576C394.13 873.744 394.25 873.948 394.25 874.188C394.25 874.428 394.13 874.884 393.89 875.556C393.674 876.204 393.458 876.672 393.242 876.96C393.05 877.224 392.846 877.356 392.63 877.356C392.414 877.356 392.246 877.344 392.126 877.32C390.326 876.96 388.766 876.78 387.446 876.78C386.15 876.78 385.298 877.5 384.89 878.94C384.506 880.38 384.314 882.72 384.314 885.96C384.314 889.176 384.398 891.42 384.566 892.692C384.734 893.964 385.046 894.852 385.502 895.356C385.958 895.86 386.678 896.112 387.662 896.112C388.67 896.112 389.798 896.052 391.046 895.932C392.318 895.812 392.978 895.752 393.026 895.752ZM404.188 897.372C403.684 896.748 403.432 896.28 403.432 895.968C403.432 895.632 403.708 895.188 404.26 894.636C404.836 894.06 405.208 893.748 405.376 893.7C405.568 893.652 405.748 893.628 405.916 893.628C406.084 893.628 406.36 893.736 406.744 893.952C408.52 895.344 410.08 896.04 411.424 896.04C412.768 896.04 413.644 895.728 414.052 895.104C414.46 894.48 414.664 893.664 414.664 892.656C414.664 891.648 414.304 890.832 413.584 890.208C412.864 889.584 411.676 888.828 410.02 887.94C408.388 887.052 406.96 885.9 405.736 884.484C404.512 883.068 403.9 881.604 403.9 880.092C403.9 877.404 404.596 875.448 405.988 874.224C407.404 872.976 409.468 872.352 412.18 872.352C413.836 872.352 415.456 872.748 417.04 873.54C417.88 873.876 418.276 874.224 418.228 874.584C418.204 874.728 418.18 874.944 418.156 875.232C417.7 876.528 417.352 877.272 417.112 877.464C417.04 877.512 416.872 877.536 416.608 877.536C416.368 877.536 415.708 877.344 414.628 876.96C413.548 876.552 412.624 876.348 411.856 876.348C411.112 876.348 410.488 876.612 409.984 877.14C409.48 877.668 409.228 878.412 409.228 879.372C409.228 880.332 409.66 881.208 410.524 882C411.388 882.768 412.72 883.572 414.52 884.412C416.416 885.396 417.832 886.416 418.768 887.472C419.728 888.528 420.208 889.944 420.208 891.72C420.208 897.624 417.712 900.576 412.72 900.576C409 900.576 406.156 899.508 404.188 897.372ZM447.355 895.644H448.651V877.248H447.571C447.091 877.224 446.767 877.068 446.599 876.78C446.431 876.444 446.347 875.832 446.347 874.944C446.347 873.6 446.743 872.928 447.535 872.928H453.907C454.963 872.928 455.491 873.3 455.491 874.044C455.491 876.18 455.071 877.248 454.231 877.248H453.331L453.691 884.448L453.727 895.644H454.807C455.647 895.668 456.067 896.052 456.067 896.796C456.019 898.932 455.431 900 454.303 900H447.499C447.067 899.976 446.767 899.82 446.599 899.532C446.431 899.196 446.347 898.572 446.347 897.66C446.347 896.316 446.683 895.644 447.355 895.644ZM479.834 895.752C480.434 895.752 480.734 896.136 480.734 896.904C480.734 897.672 480.722 898.248 480.698 898.632C480.602 899.496 480.218 899.988 479.546 900.108C477.41 900.42 475.826 900.576 474.794 900.576C471.218 900.576 468.758 899.568 467.414 897.552C466.07 895.536 465.398 891.9 465.398 886.644C465.398 882.804 465.686 879.876 466.262 877.86C466.862 875.82 467.81 874.392 469.106 873.576C470.426 872.76 472.382 872.352 474.974 872.352C477.59 872.352 479.498 872.76 480.698 873.576C480.938 873.744 481.058 873.948 481.058 874.188C481.058 874.428 480.938 874.884 480.698 875.556C480.482 876.204 480.266 876.672 480.05 876.96C479.858 877.224 479.654 877.356 479.438 877.356C479.222 877.356 479.054 877.344 478.934 877.32C477.134 876.96 475.574 876.78 474.254 876.78C472.958 876.78 472.106 877.5 471.698 878.94C471.314 880.38 471.122 882.72 471.122 885.96C471.122 889.176 471.206 891.42 471.374 892.692C471.542 893.964 471.854 894.852 472.31 895.356C472.766 895.86 473.486 896.112 474.47 896.112C475.478 896.112 476.606 896.052 477.854 895.932C479.126 895.812 479.786 895.752 479.834 895.752ZM490.996 897.372C490.492 896.748 490.24 896.28 490.24 895.968C490.24 895.632 490.516 895.188 491.068 894.636C491.644 894.06 492.016 893.748 492.184 893.7C492.376 893.652 492.556 893.628 492.724 893.628C492.892 893.628 493.168 893.736 493.552 893.952C495.328 895.344 496.888 896.04 498.232 896.04C499.576 896.04 500.452 895.728 500.86 895.104C501.268 894.48 501.472 893.664 501.472 892.656C501.472 891.648 501.112 890.832 500.392 890.208C499.672 889.584 498.484 888.828 496.828 887.94C495.196 887.052 493.768 885.9 492.544 884.484C491.32 883.068 490.708 881.604 490.708 880.092C490.708 877.404 491.404 875.448 492.796 874.224C494.212 872.976 496.276 872.352 498.988 872.352C500.644 872.352 502.264 872.748 503.848 873.54C504.688 873.876 505.084 874.224 505.036 874.584C505.012 874.728 504.988 874.944 504.964 875.232C504.508 876.528 504.16 877.272 503.92 877.464C503.848 877.512 503.68 877.536 503.416 877.536C503.176 877.536 502.516 877.344 501.436 876.96C500.356 876.552 499.432 876.348 498.664 876.348C497.92 876.348 497.296 876.612 496.792 877.14C496.288 877.668 496.036 878.412 496.036 879.372C496.036 880.332 496.468 881.208 497.332 882C498.196 882.768 499.528 883.572 501.328 884.412C503.224 885.396 504.64 886.416 505.576 887.472C506.536 888.528 507.016 889.944 507.016 891.72C507.016 897.624 504.52 900.576 499.528 900.576C495.808 900.576 492.964 899.508 490.996 897.372ZM534.163 895.644H535.459V877.248H534.379C533.899 877.224 533.575 877.068 533.407 876.78C533.239 876.444 533.155 875.832 533.155 874.944C533.155 873.6 533.551 872.928 534.343 872.928H540.715C541.771 872.928 542.299 873.3 542.299 874.044C542.299 876.18 541.879 877.248 541.039 877.248H540.139L540.499 884.448L540.535 895.644H541.615C542.455 895.668 542.875 896.052 542.875 896.796C542.827 898.932 542.239 900 541.111 900H534.307C533.875 899.976 533.575 899.82 533.407 899.532C533.239 899.196 533.155 898.572 533.155 897.66C533.155 896.316 533.491 895.644 534.163 895.644ZM566.642 895.752C567.242 895.752 567.542 896.136 567.542 896.904C567.542 897.672 567.53 898.248 567.506 898.632C567.41 899.496 567.026 899.988 566.354 900.108C564.218 900.42 562.634 900.576 561.602 900.576C558.026 900.576 555.566 899.568 554.222 897.552C552.878 895.536 552.206 891.9 552.206 886.644C552.206 882.804 552.494 879.876 553.07 877.86C553.67 875.82 554.618 874.392 555.914 873.576C557.234 872.76 559.19 872.352 561.782 872.352C564.398 872.352 566.306 872.76 567.506 873.576C567.746 873.744 567.866 873.948 567.866 874.188C567.866 874.428 567.746 874.884 567.506 875.556C567.29 876.204 567.074 876.672 566.858 876.96C566.666 877.224 566.462 877.356 566.246 877.356C566.03 877.356 565.862 877.344 565.742 877.32C563.942 876.96 562.382 876.78 561.062 876.78C559.766 876.78 558.914 877.5 558.506 878.94C558.122 880.38 557.93 882.72 557.93 885.96C557.93 889.176 558.014 891.42 558.182 892.692C558.35 893.964 558.662 894.852 559.118 895.356C559.574 895.86 560.294 896.112 561.278 896.112C562.286 896.112 563.414 896.052 564.662 895.932C565.934 895.812 566.594 895.752 566.642 895.752ZM577.804 897.372C577.3 896.748 577.048 896.28 577.048 895.968C577.048 895.632 577.324 895.188 577.876 894.636C578.452 894.06 578.824 893.748 578.992 893.7C579.184 893.652 579.364 893.628 579.532 893.628C579.7 893.628 579.976 893.736 580.36 893.952C582.136 895.344 583.696 896.04 585.04 896.04C586.384 896.04 587.26 895.728 587.668 895.104C588.076 894.48 588.28 893.664 588.28 892.656C588.28 891.648 587.92 890.832 587.2 890.208C586.48 889.584 585.292 888.828 583.636 887.94C582.004 887.052 580.576 885.9 579.352 884.484C578.128 883.068 577.516 881.604 577.516 880.092C577.516 877.404 578.212 875.448 579.604 874.224C581.02 872.976 583.084 872.352 585.796 872.352C587.452 872.352 589.072 872.748 590.656 873.54C591.496 873.876 591.892 874.224 591.844 874.584C591.82 874.728 591.796 874.944 591.772 875.232C591.316 876.528 590.968 877.272 590.728 877.464C590.656 877.512 590.488 877.536 590.224 877.536C589.984 877.536 589.324 877.344 588.244 876.96C587.164 876.552 586.24 876.348 585.472 876.348C584.728 876.348 584.104 876.612 583.6 877.14C583.096 877.668 582.844 878.412 582.844 879.372C582.844 880.332 583.276 881.208 584.14 882C585.004 882.768 586.336 883.572 588.136 884.412C590.032 885.396 591.448 886.416 592.384 887.472C593.344 888.528 593.824 889.944 593.824 891.72C593.824 897.624 591.328 900.576 586.336 900.576C582.616 900.576 579.772 899.508 577.804 897.372ZM620.971 895.644H622.267V877.248H621.187C620.707 877.224 620.383 877.068 620.215 876.78C620.047 876.444 619.963 875.832 619.963 874.944C619.963 873.6 620.359 872.928 621.151 872.928H627.523C628.579 872.928 629.107 873.3 629.107 874.044C629.107 876.18 628.687 877.248 627.847 877.248H626.947L627.307 884.448L627.343 895.644H628.423C629.263 895.668 629.683 896.052 629.683 896.796C629.635 898.932 629.047 900 627.919 900H621.115C620.683 899.976 620.383 899.82 620.215 899.532C620.047 899.196 619.963 898.572 619.963 897.66C619.963 896.316 620.299 895.644 620.971 895.644ZM653.45 895.752C654.05 895.752 654.35 896.136 654.35 896.904C654.35 897.672 654.338 898.248 654.314 898.632C654.218 899.496 653.834 899.988 653.162 900.108C651.026 900.42 649.442 900.576 648.41 900.576C644.834 900.576 642.374 899.568 641.03 897.552C639.686 895.536 639.014 891.9 639.014 886.644C639.014 882.804 639.302 879.876 639.878 877.86C640.478 875.82 641.426 874.392 642.722 873.576C644.042 872.76 645.998 872.352 648.59 872.352C651.206 872.352 653.114 872.76 654.314 873.576C654.554 873.744 654.674 873.948 654.674 874.188C654.674 874.428 654.554 874.884 654.314 875.556C654.098 876.204 653.882 876.672 653.666 876.96C653.474 877.224 653.27 877.356 653.054 877.356C652.838 877.356 652.67 877.344 652.55 877.32C650.75 876.96 649.19 876.78 647.87 876.78C646.574 876.78 645.722 877.5 645.314 878.94C644.93 880.38 644.738 882.72 644.738 885.96C644.738 889.176 644.822 891.42 644.99 892.692C645.158 893.964 645.47 894.852 645.926 895.356C646.382 895.86 647.102 896.112 648.086 896.112C649.094 896.112 650.222 896.052 651.47 895.932C652.742 895.812 653.402 895.752 653.45 895.752ZM664.612 897.372C664.108 896.748 663.856 896.28 663.856 895.968C663.856 895.632 664.132 895.188 664.684 894.636C665.26 894.06 665.632 893.748 665.8 893.7C665.992 893.652 666.172 893.628 666.34 893.628C666.508 893.628 666.784 893.736 667.168 893.952C668.944 895.344 670.504 896.04 671.848 896.04C673.192 896.04 674.068 895.728 674.476 895.104C674.884 894.48 675.088 893.664 675.088 892.656C675.088 891.648 674.728 890.832 674.008 890.208C673.288 889.584 672.1 888.828 670.444 887.94C668.812 887.052 667.384 885.9 666.16 884.484C664.936 883.068 664.324 881.604 664.324 880.092C664.324 877.404 665.02 875.448 666.412 874.224C667.828 872.976 669.892 872.352 672.604 872.352C674.26 872.352 675.88 872.748 677.464 873.54C678.304 873.876 678.7 874.224 678.652 874.584C678.628 874.728 678.604 874.944 678.58 875.232C678.124 876.528 677.776 877.272 677.536 877.464C677.464 877.512 677.296 877.536 677.032 877.536C676.792 877.536 676.132 877.344 675.052 876.96C673.972 876.552 673.048 876.348 672.28 876.348C671.536 876.348 670.912 876.612 670.408 877.14C669.904 877.668 669.652 878.412 669.652 879.372C669.652 880.332 670.084 881.208 670.948 882C671.812 882.768 673.144 883.572 674.944 884.412C676.84 885.396 678.256 886.416 679.192 887.472C680.152 888.528 680.632 889.944 680.632 891.72C680.632 897.624 678.136 900.576 673.144 900.576C669.424 900.576 666.58 899.508 664.612 897.372ZM707.779 895.644H709.075V877.248H707.995C707.515 877.224 707.191 877.068 707.023 876.78C706.855 876.444 706.771 875.832 706.771 874.944C706.771 873.6 707.167 872.928 707.959 872.928H714.331C715.387 872.928 715.915 873.3 715.915 874.044C715.915 876.18 715.495 877.248 714.655 877.248H713.755L714.115 884.448L714.151 895.644H715.231C716.071 895.668 716.491 896.052 716.491 896.796C716.443 898.932 715.855 900 714.727 900H707.923C707.491 899.976 707.191 899.82 707.023 899.532C706.855 899.196 706.771 898.572 706.771 897.66C706.771 896.316 707.107 895.644 707.779 895.644ZM740.258 895.752C740.858 895.752 741.158 896.136 741.158 896.904C741.158 897.672 741.146 898.248 741.122 898.632C741.026 899.496 740.642 899.988 739.97 900.108C737.834 900.42 736.25 900.576 735.218 900.576C731.642 900.576 729.182 899.568 727.838 897.552C726.494 895.536 725.822 891.9 725.822 886.644C725.822 882.804 726.11 879.876 726.686 877.86C727.286 875.82 728.234 874.392 729.53 873.576C730.85 872.76 732.806 872.352 735.398 872.352C738.014 872.352 739.922 872.76 741.122 873.576C741.362 873.744 741.482 873.948 741.482 874.188C741.482 874.428 741.362 874.884 741.122 875.556C740.906 876.204 740.69 876.672 740.474 876.96C740.282 877.224 740.078 877.356 739.862 877.356C739.646 877.356 739.478 877.344 739.358 877.32C737.558 876.96 735.998 876.78 734.678 876.78C733.382 876.78 732.53 877.5 732.122 878.94C731.738 880.38 731.546 882.72 731.546 885.96C731.546 889.176 731.63 891.42 731.798 892.692C731.966 893.964 732.278 894.852 732.734 895.356C733.19 895.86 733.91 896.112 734.894 896.112C735.902 896.112 737.03 896.052 738.278 895.932C739.55 895.812 740.21 895.752 740.258 895.752ZM751.419 897.372C750.915 896.748 750.663 896.28 750.663 895.968C750.663 895.632 750.939 895.188 751.491 894.636C752.067 894.06 752.439 893.748 752.607 893.7C752.799 893.652 752.979 893.628 753.147 893.628C753.315 893.628 753.591 893.736 753.975 893.952C755.751 895.344 757.311 896.04 758.655 896.04C759.999 896.04 760.875 895.728 761.283 895.104C761.691 894.48 761.895 893.664 761.895 892.656C761.895 891.648 761.535 890.832 760.815 890.208C760.095 889.584 758.907 888.828 757.251 887.94C755.619 887.052 754.191 885.9 752.967 884.484C751.743 883.068 751.131 881.604 751.131 880.092C751.131 877.404 751.827 875.448 753.219 874.224C754.635 872.976 756.699 872.352 759.411 872.352C761.067 872.352 762.687 872.748 764.271 873.54C765.111 873.876 765.507 874.224 765.459 874.584C765.435 874.728 765.411 874.944 765.387 875.232C764.931 876.528 764.583 877.272 764.343 877.464C764.271 877.512 764.103 877.536 763.839 877.536C763.599 877.536 762.939 877.344 761.859 876.96C760.779 876.552 759.855 876.348 759.087 876.348C758.343 876.348 757.719 876.612 757.215 877.14C756.711 877.668 756.459 878.412 756.459 879.372C756.459 880.332 756.891 881.208 757.755 882C758.619 882.768 759.951 883.572 761.751 884.412C763.647 885.396 765.063 886.416 765.999 887.472C766.959 888.528 767.439 889.944 767.439 891.72C767.439 897.624 764.943 900.576 759.951 900.576C756.231 900.576 753.387 899.508 751.419 897.372Z" fill="white"/>
</svg>
