<svg width="864" height="991" viewBox="0 0 864 991" fill="none" xmlns="http://www.w3.org/2000/svg">
<path d="M75.2305 262.61C75.3705 262.62 75.5205 262.64 75.6605 262.66C75.8705 261.11 76.0705 259.56 76.2805 258.01C75.9505 259.56 75.6005 261.09 75.2305 262.61Z" fill="#322214"/>
<path d="M781.6 918.46L717 918.45C737 918.831 723.5 918.78 723.5 918.46V372.92C723.5 372.42 723.5 369 723.5 369C714 378 722 382.477 713.5 382.51L149.5 372.92C149.76 384.94 140.39 366.78 140.36 378.8C140.36 380.45 139.67 381.69 138.66 382.51V917.35C138.66 917.74 138.66 918.07 138.73 918.46H66.24C61.69 918.46 58 922.15 58 926.7V981.77C58 986.32 61.69 990.01 66.24 990.01H781.6C786.15 990.01 789.84 986.32 789.84 981.77V926.7C789.84 922.15 786.15 918.46 781.6 918.46ZM367.31 446.82C367.31 442.27 365.95 375.352 370.5 375.352L490.88 376.677V498.57C490.88 503.12 487.19 506.81 482.64 506.81H375.55C371 506.81 367.31 503.12 367.31 498.57V446.82ZM534.06 918.45C527.2 918.45 523.34 910.56 527.56 905.15L541.46 887.31C545.68 881.9 541.82 874.01 534.96 874.01H327.23C320.23 874.01 316.42 882.18 320.92 887.55L335.49 904.92C339.99 910.28 336.17 918.46 329.17 918.46L160.47 918.4C159 918.5 150.358 918.4 149.5 918.4V372.92C149.5 368.37 166.95 372.92 171.5 372.92L209 373.575C213.55 373.575 210.782 373.594 217.5 373.668L221 373.707C225.5 373.756 228.45 373.839 233 373.839L355.59 375.188V504.42C355.59 512.21 361.9 518.52 369.69 518.52H380.88C385.43 518.52 389.12 522.21 389.12 526.76V546.41C389.12 550.96 392.81 554.65 397.36 554.65H406.34C410.89 554.65 414.58 550.96 414.58 546.41V526.76C414.58 522.21 418.27 518.52 422.82 518.52H435.38C439.93 518.52 443.62 522.21 443.62 526.76V546.41C443.62 550.96 447.31 554.65 451.86 554.65H460.84C465.39 554.65 469.08 550.96 469.08 546.41V526.76C469.08 522.21 472.77 518.52 477.32 518.52H488.44C496.23 518.52 502.54 512.21 502.54 504.42V376.805L593 377.8C597.55 377.8 625 378.153 632 378.23L633.68 378.698C639.5 378.312 647.45 378.45 652 378.45L674.5 378.698C679.05 378.698 707.5 382.444 713.5 382.51V918.46C710.5 918.46 701.5 918.5 700 918.46L534.06 918.45Z" fill="#322214"/>
<path d="M104 347.89C104.12 346.18 104.21 344.46 104.3 342.74H103.25C103.53 344.46 103.78 346.17 104 347.89Z" fill="#322214"/>
<path d="M620 650.5C614.47 644.97 602.96 643.5 594.5 643.5H562.59C558.04 643.5 554.35 636.06 554.35 631.51C554.35 626.82 552.47 621.13 549.35 618.01C546.23 614.95 538.54 614.88 533.85 614.88H314.85C310.1 614.88 308.97 617.45 305.85 620.51C302.79 623.63 302.85 627.52 302.85 631.51V686.01C302.85 756.26 328.63 792.93 374.85 812.01C392.88 819.5 408.98 823.67 428.71 823.54C448.44 823.41 468.69 819.43 486.85 812.01C520.42 798.36 536.89 778.46 549.92 742.01C551.1 738.72 554.2 736.51 557.69 736.51H604.36C614.06 736.51 610.62 733.38 617 727C623.32 720.62 624.35 715.91 624.35 706.28V668.42C624.35 660.35 624.35 663.99 624.35 657C624.5 656.5 620.19 650.7 620 650.5ZM539 643.5V695C539 751.97 519.89 778.9 479 795.5C463.11 801.95 445.77 804.93 428.71 805C411.65 805.13 396.06 801.95 380.5 795.5C341.37 779.35 319.5 746.68 319.5 686.01V643.5C319.5 638.95 314.95 627.5 319.5 627.5H539C534.45 627.5 539 638.95 539 643.5ZM608.72 670.41V706.28C608.72 710.32 607.03 714.33 604.36 717C601.69 719.67 596.89 721.12 592.85 721.12H562.59C558.04 721.12 554.35 717.43 554.35 712.88V668.42C554.35 663.87 558.04 660.18 562.59 660.18H602.06C603.54 660.18 604.99 660.58 606.26 661.33C606.82 661.66 607.3 661.95 607.35 662C609.04 663.83 608.72 667.74 608.72 670.41Z" fill="#322214"/>
<path fill-rule="evenodd" clip-rule="evenodd" d="M632.92 773.67C632.7 770.16 630.09 767.28 626.45 766.52C624.87 766.13 623.57 765.86 623.57 765.86C623.57 765.86 579.14 756.88 524.55 798.3C502.34 815.15 470.47 827.2 443.93 826.64C440.38 826.55 437.04 828.49 435.47 831.53C433.9 834.58 434.41 838.13 436.77 840.53C455.07 859.22 492.14 883.74 548.68 866.94C599.65 851.78 634.61 811.76 632.92 773.67ZM619 777.5C614.56 809.07 584.62 841.7 545 853.5C513.53 862.87 475.02 852.03 456.5 840.53C477.2 838.35 507.34 826.08 532.5 807C564.55 782.67 604.89 777.94 619 777.5Z" fill="#322214"/>
<path fill-rule="evenodd" clip-rule="evenodd" d="M235.319 776.65C235.489 773.17 238.039 770.27 241.639 769.47C243.199 769.06 244.489 768.78 244.489 768.78C244.489 768.78 288.419 759.28 343.099 799.63C365.339 816.04 397.109 827.57 423.409 826.66C426.929 826.53 430.269 828.4 431.869 831.4C433.469 834.4 433.009 837.93 430.699 840.34C412.799 859.12 376.359 883.92 320.079 868.01C269.349 853.66 234.149 814.45 235.319 776.65ZM248.5 780.5C253.32 811.75 285.56 842.33 325 853.5C356.33 862.38 390.78 851.99 409 840.34C388.44 838.46 358.7 826.09 333.5 807.5C301.4 783.81 262.5 780.75 248.5 780.5Z" fill="#322214"/>
<path d="M571.85 903.51H282.85V918.51H571.85V903.51Z" fill="white" fill-opacity="0.9"/>
<path d="M88.5801 963.03C89.2101 963.03 89.5301 963.44 89.5301 964.25C89.5301 965.06 89.5201 965.67 89.4901 966.07C89.3901 966.98 88.9801 967.5 88.2701 967.63C86.0201 967.96 84.3401 968.12 83.2501 968.12C79.4801 968.12 76.8801 967.06 75.4601 964.93C74.0401 962.8 73.3301 958.96 73.3301 953.42C73.3301 949.37 73.6301 946.28 74.2401 944.15C74.8701 942 75.8701 940.49 77.2401 939.63C78.6301 938.77 80.7001 938.34 83.4301 938.34C86.1901 938.34 88.2101 938.77 89.4701 939.63C89.7201 939.81 89.8501 940.02 89.8501 940.28C89.8501 940.53 89.7201 941.01 89.4701 941.72C89.2401 942.4 89.0101 942.9 88.7901 943.2C88.5901 943.48 88.3701 943.62 88.1401 943.62C87.9101 943.62 87.7301 943.61 87.6101 943.58C85.7101 943.2 84.0601 943.01 82.6701 943.01C81.3001 943.01 80.4001 943.77 79.9701 945.29C79.5601 946.81 79.3601 949.28 79.3601 952.7C79.3601 956.1 79.4501 958.46 79.6301 959.81C79.8101 961.15 80.1401 962.09 80.6201 962.62C81.1001 963.15 81.8601 963.42 82.9001 963.42C83.9601 963.42 85.1501 963.36 86.4701 963.23C87.8301 963.09 88.5301 963.03 88.5801 963.03Z" fill="#322214"/>
<path d="M558.18 450H650.18C661.23 450 670.18 455.46 670.18 466.51V479.51C670.18 490.56 661.23 495 650.18 495H558.18C547.13 495 538.18 490.56 538.18 479.51V466.51C538.18 455.46 547.13 450 558.18 450Z" fill="#322214"/>
<path d="M579.18 465.51H502.18V481.51H579.18V465.51Z" fill="#322214"/>
<path d="M864 321H0V437H864V321Z" fill="white" fill-opacity="0.2"/>
<path d="M152 387H138V926H152V387Z" fill="#322214"/>
<path d="M725 348H711V925H725V348Z" fill="#322214"/>
<path d="M818.747 243.44C808.017 218.052 783.156 210.697 757.056 203.104C697.398 189.938 637.548 178.595 578.598 169.938C567.193 168.265 557.402 167.074 545.951 165.938C550.526 158.478 562.345 149.272 560.787 140.5C558.753 129.088 557.755 125.429 551.5 115.483C544.8 104.83 517.582 98.0976 505.287 97.0001C497.981 96.3478 491.594 95.6663 484.287 94.9218C476.628 94.139 470.393 93.4942 462.787 92.3199C447.76 90.0098 431.006 91.0384 415.803 92.3201C400.776 93.5864 379.746 95.6663 365.287 99.8951C351.058 104.055 340.556 106.99 326.787 112.5C314.907 117.258 305.946 126.565 298.678 137.463C291.157 148.745 290.443 163.082 298.379 174.325C299.098 169.938 295.917 173.938 301.098 177.438C254.504 183.401 218.699 194.241 172.443 202.438C141.92 207.841 110.256 218.289 80.358 230.153C63.2745 240.118 39.1415 266.132 25.7873 283.776C10.5145 303.961 28.5519 331.542 44.2929 349.263C72.9625 364.683 68.181 358.812 92.4948 366.011C111.137 371.536 116.363 364.207 135.535 366.011C124.537 379.603 118 395 113 410C110.49 414.689 110 424.267 110.5 427C110.5 433.5 111.5 437.333 113.5 441C119.5 452 127.661 453.941 135.535 455.514C158.153 460.027 182.152 457.103 204.746 453.956C228.669 450.625 252.43 446.243 276.628 445.552C301.51 444.838 326.353 446.964 351.189 448.169C375.426 449.343 399.463 449.152 423.531 445.782C447.868 442.375 471.583 435.158 496.142 433.5C520.602 431.85 541.086 426.119 565.787 423C578.287 421 585.893 419.366 598.787 418C608.78 416.941 627.787 415 642.287 410C660.124 396.126 661.5 384.53 661.5 355.642C687.94 351.996 715.395 357.847 740.239 347.839C770.343 339.772 777.287 340.348 796.443 322.688C813.044 307.362 829.292 268.391 818.747 243.44ZM141.13 402.236C141.045 402.19 140.953 402.151 140.861 402.113C141.122 401.683 141.383 401.246 141.652 400.816C141.483 401.292 141.299 401.767 141.13 402.236ZM149.626 449.689C149.856 449.627 150.071 449.558 150.294 449.482C150.593 449.612 150.892 449.712 151.192 449.789C150.67 449.766 150.148 449.727 149.626 449.689ZM539.182 154.885C539.336 156.19 539.451 157.494 539.497 158.791C539.451 158.761 539.405 158.73 539.359 158.707C539.259 157.947 539.098 157.195 538.891 156.443C539.014 155.921 539.113 155.399 539.182 154.885ZM452.304 101.338C451.805 101.338 451.314 101.346 450.815 101.338C450.746 101.307 450.685 101.269 450.616 101.246C450.408 101.161 450.201 101.092 449.986 101.016C450.769 101.123 451.536 101.23 452.304 101.338ZM439.027 99.8951C438.819 99.9258 438.612 99.9565 438.405 99.9872C437.123 99.9104 435.826 100.026 434.575 100.34C434.23 100.072 433.861 99.8414 433.485 99.6342C435.335 99.6879 437.177 99.7723 439.027 99.8951ZM437.875 127.946C437.638 128.369 437.407 128.791 437.185 129.228C437.108 129.113 437.023 129.006 436.931 128.898C437.261 128.599 437.576 128.276 437.875 127.946ZM434.836 174.018C434.836 174.456 434.898 174.893 435.013 175.3C434.161 175.354 433.317 175.4 432.465 175.453C433.286 175.031 434.076 174.548 434.836 174.018ZM417.668 155.092C417.767 155.368 417.913 155.637 418.074 155.89C417.691 155.936 417.315 155.99 416.931 156.067C417.177 155.737 417.422 155.414 417.668 155.092ZM401.766 176.766C402.157 176.958 402.579 177.088 403.024 177.157C403.078 177.196 403.124 177.226 403.178 177.257C402.065 177.326 400.952 177.395 399.839 177.456C400.484 177.226 401.121 176.996 401.766 176.766ZM171.315 368.474C171.192 368.666 171.085 368.866 170.969 369.057C170.854 368.82 170.709 368.605 170.555 368.405C170.816 368.421 171.069 368.436 171.33 368.451C171.322 368.459 171.322 368.467 171.315 368.474ZM172.443 449.627C172.466 449.597 172.497 449.566 172.52 449.528C173.187 449.32 173.824 449.052 174.431 448.737C174.5 448.998 174.584 449.251 174.684 449.497C173.94 449.543 173.187 449.589 172.443 449.627ZM191.814 447.947C192.09 447.678 192.367 447.402 192.635 447.118C193.057 447.394 193.533 447.578 194.032 447.678C193.295 447.77 192.559 447.854 191.814 447.947ZM219.159 369.303C218.753 369.28 218.323 369.326 217.87 369.457C217.74 369.495 217.617 369.549 217.486 369.587C217.133 369.341 216.757 369.119 216.366 368.927C217.563 368.896 218.76 368.858 219.965 368.82C219.681 368.973 219.42 369.134 219.159 369.303ZM226.711 368.942C226.489 368.919 226.266 368.912 226.036 368.912C225.944 368.812 225.852 368.72 225.752 368.628C226.167 368.612 226.581 368.597 226.995 368.582C226.903 368.704 226.804 368.82 226.711 368.942ZM243.895 440.602C244.041 440.487 244.187 440.372 244.333 440.257C244.609 440.349 244.893 440.41 245.177 440.448C244.747 440.502 244.317 440.548 243.895 440.602ZM249.482 367.791C249.321 367.691 249.152 367.599 248.976 367.523C249.413 367.5 249.859 367.469 250.296 367.446C250.012 367.546 249.743 367.661 249.482 367.791ZM270.043 438.361C270.212 438.207 270.381 438.046 270.534 437.877C270.673 438.031 270.818 438.177 270.972 438.315C270.665 438.33 270.35 438.345 270.043 438.361ZM281.156 366.011C280.834 365.834 280.489 365.696 280.12 365.604C280.673 365.573 281.218 365.535 281.77 365.504C281.555 365.673 281.348 365.834 281.156 366.011ZM290.067 426.734C289.031 426.818 288.041 427.094 287.135 427.57C287.143 427.401 287.143 427.225 287.127 427.056C288.34 427.079 289.583 426.603 290.489 425.429C290.719 425.129 290.934 424.83 291.149 424.531C291.172 424.654 291.203 424.776 291.241 424.892C290.834 425.49 290.45 426.112 290.067 426.734ZM340.36 409.45C340.321 409.611 340.298 409.772 340.283 409.933C340.26 409.918 340.237 409.903 340.214 409.895C340.221 409.373 340.122 408.905 339.937 408.491C340.022 408.345 340.106 408.191 340.198 408.045C340.475 407.577 340.636 407.117 340.705 406.672C340.82 406.748 340.943 406.81 341.066 406.879C340.812 407.723 340.582 408.583 340.36 409.45ZM366.009 364.376C365.218 363.624 364.167 363.148 363.131 363.163C363.123 363.156 363.123 363.156 363.115 363.148C363.737 363.163 364.351 363.163 364.973 363.186C366.085 363.217 367.198 363.263 368.303 363.294C367.536 363.363 366.745 363.685 366.009 364.376ZM371.903 363.915C371.558 363.677 371.189 363.493 370.798 363.378C371.811 363.409 372.824 363.44 373.837 363.478C373.192 363.608 372.548 363.754 371.903 363.915ZM388.872 364.629C388.711 364.729 388.557 364.836 388.396 364.936C388.304 364.637 388.189 364.345 388.035 364.077C388.695 364.107 389.348 364.146 390.008 364.176C389.632 364.261 389.248 364.407 388.872 364.629ZM397.245 364.76C396.946 364.691 396.646 364.645 396.355 364.645C396.04 364.645 395.741 364.66 395.441 364.683C395.326 364.591 395.204 364.514 395.081 364.437C396.009 364.483 396.938 364.529 397.867 364.583C397.66 364.644 397.452 364.698 397.245 364.76ZM403.239 431.438C403.155 431.538 403.078 431.638 403.001 431.745C402.848 431.684 402.687 431.622 402.525 431.576C402.671 431.292 402.809 431.001 402.94 430.717C403.063 430.886 403.201 431.047 403.347 431.193C403.316 431.277 403.277 431.354 403.239 431.438ZM499.35 377.293C498.406 377.837 497.478 378.405 496.557 378.996C496.48 378.981 496.396 378.958 496.319 378.95C496.28 378.705 496.227 378.467 496.142 378.229C496.411 378.206 496.68 378.198 496.948 378.167C497.838 378.075 498.614 377.661 499.228 377.07C499.366 377.062 499.496 377.047 499.634 377.039C499.542 377.124 499.45 377.208 499.35 377.293ZM505.176 386.157C504.999 385.635 504.692 385.151 504.301 384.737C504.5 384.668 504.7 384.599 504.892 384.53C505.091 384.99 505.367 385.397 505.705 385.735C505.529 385.873 505.352 386.019 505.176 386.157ZM510.648 391.568C510.417 392.074 510.302 392.596 510.287 393.095C510.126 392.803 509.942 392.519 509.719 392.266L510.663 391.522L510.648 391.568ZM515.882 368.681C515.751 368.451 515.598 368.236 515.421 368.037C516.78 367.991 518.146 367.945 519.504 367.891C518.299 368.152 517.087 368.42 515.882 368.681ZM535.276 367.4C535.015 367.392 534.754 367.4 534.493 367.415C534.271 367.323 534.04 367.254 533.802 367.2C534.493 367.162 535.184 367.123 535.875 367.085C535.667 367.185 535.475 367.292 535.276 367.4ZM541.086 402.688C541.462 401.898 541.799 401.084 542.106 400.24C542.329 399.626 542.39 399.066 542.337 398.559C542.344 398.559 542.352 398.559 542.36 398.559C542.544 398.674 542.705 398.882 542.828 399.204C543.166 400.125 542.053 401.591 541.086 402.688ZM621.663 359.065C620.09 359.264 620.307 355.501 618.787 356C618.618 355.847 616.559 359.794 616.368 359.664C618.156 359.449 619.944 359.226 621.732 359.011C621.709 359.027 621.686 359.05 621.663 359.065ZM801.663 266.692C796.443 279.98 796.469 295.31 786.952 303.707C777.382 312.149 765.45 319.961 754.483 326.485C731.459 340.184 693.998 334.422 667.842 339.772C640.121 345.443 618.494 351.659 590.388 354.629C561.094 357.73 531.73 360.469 502.259 360.976C442.818 362.004 383.668 353.693 324.204 355.642C273.236 357.315 225.778 352.432 174.787 349.5C169.787 348.5 172.787 349 167.787 348C166.65 347.772 166.787 347.5 165.287 347C162.287 346.5 163.787 346.5 162.013 345.941C135.005 343.017 97.7597 350.108 72.9624 338.819C51.074 328.857 42.4 334.238 37.6493 308.927C35.5004 297.468 55.4462 274.523 63.2745 265.743C70.2586 257.9 75.7926 253.522 85.578 250.083C96.6297 246.208 102.618 237.27 114.061 234.898C128.605 231.89 135.044 228.739 149.626 225.953C207.632 214.879 252.537 202.338 311.111 194.809C315.01 194.31 318.909 193.834 322.807 193.351C324.864 194.379 326.929 195.354 328.978 196.29C331.065 197.242 336.612 197.409 339.459 197.409C341.117 197.179 347.052 197.469 351.323 196.935C361.146 195.707 360.798 196.045 370.629 194.817C371.728 194.817 378.415 194.088 379.321 194.088C408.592 194.018 429.165 189.406 458.26 186.213C471.468 184.763 484.638 182.99 497.762 180.91C507.685 180.972 517.609 181.302 527.54 182.015C528.637 182.092 529.727 182.184 530.825 182.269C531.899 183.489 533.649 184.088 535.476 183.051C535.667 182.944 535.852 182.821 536.043 182.706C590.273 187.51 643.437 200.266 697.398 207.166C711.627 208.984 725.91 218.027 740.239 218.764C754.115 219.485 761.849 227.857 775.563 230.42C786.615 232.485 790.319 233.516 796.443 243.44C803.512 254.975 801.663 252.456 801.663 266.692Z" fill="#322214"/>
<path d="M311.552 302.512H316.16V237.104H312.32C310.613 237.019 309.461 236.464 308.864 235.44C308.267 234.245 307.968 232.069 307.968 228.912C307.968 224.133 309.376 221.744 312.192 221.744H334.848C338.603 221.744 340.48 223.067 340.48 225.712C340.48 233.307 338.987 237.104 336 237.104H332.8L334.08 262.704L334.208 302.512H338.048C341.035 302.597 342.528 303.963 342.528 306.608C342.357 314.203 340.267 318 336.256 318H312.064C310.528 317.915 309.461 317.36 308.864 316.336C308.267 315.141 307.968 312.923 307.968 309.68C307.968 304.901 309.163 302.512 311.552 302.512ZM427.033 302.896C429.166 302.896 430.233 304.261 430.233 306.992C430.233 309.723 430.19 311.771 430.105 313.136C429.764 316.208 428.398 317.957 426.009 318.384C418.414 319.493 412.782 320.048 409.113 320.048C396.398 320.048 387.652 316.464 382.873 309.296C378.094 302.128 375.705 289.2 375.705 270.512C375.705 256.859 376.729 246.448 378.777 239.28C380.91 232.027 384.281 226.949 388.889 224.048C393.582 221.147 400.537 219.696 409.753 219.696C419.054 219.696 425.838 221.147 430.105 224.048C430.958 224.645 431.385 225.371 431.385 226.224C431.385 227.077 430.958 228.699 430.105 231.088C429.337 233.392 428.569 235.056 427.801 236.08C427.118 237.019 426.393 237.488 425.625 237.488C424.857 237.488 424.26 237.445 423.833 237.36C417.433 236.08 411.886 235.44 407.193 235.44C402.585 235.44 399.556 238 398.105 243.12C396.74 248.24 396.057 256.56 396.057 268.08C396.057 279.515 396.356 287.493 396.953 292.016C397.55 296.539 398.66 299.696 400.281 301.488C401.902 303.28 404.462 304.176 407.961 304.176C411.545 304.176 415.556 303.963 419.993 303.536C424.516 303.109 426.862 302.896 427.033 302.896ZM466.719 308.656C464.927 306.437 464.031 304.773 464.031 303.664C464.031 302.469 465.012 300.891 466.975 298.928C469.023 296.88 470.346 295.771 470.943 295.6C471.626 295.429 472.266 295.344 472.863 295.344C473.46 295.344 474.442 295.728 475.807 296.496C482.122 301.445 487.668 303.92 492.447 303.92C497.226 303.92 500.34 302.811 501.791 300.592C503.242 298.373 503.967 295.472 503.967 291.888C503.967 288.304 502.687 285.403 500.127 283.184C497.567 280.965 493.343 278.277 487.455 275.12C481.652 271.963 476.575 267.867 472.223 262.832C467.871 257.797 465.695 252.592 465.695 247.216C465.695 237.659 468.17 230.704 473.119 226.352C478.154 221.915 485.492 219.696 495.135 219.696C501.023 219.696 506.783 221.104 512.415 223.92C515.402 225.115 516.81 226.352 516.639 227.632C516.554 228.144 516.468 228.912 516.383 229.936C514.762 234.544 513.524 237.189 512.671 237.872C512.415 238.043 511.818 238.128 510.879 238.128C510.026 238.128 507.679 237.445 503.839 236.08C499.999 234.629 496.714 233.904 493.983 233.904C491.338 233.904 489.119 234.843 487.327 236.72C485.535 238.597 484.639 241.243 484.639 244.656C484.639 248.069 486.175 251.184 489.247 254C492.319 256.731 497.055 259.589 503.455 262.576C510.196 266.075 515.231 269.701 518.559 273.456C521.972 277.211 523.679 282.245 523.679 288.56C523.679 309.552 514.804 320.048 497.055 320.048C483.828 320.048 473.716 316.251 466.719 308.656Z" fill="#322214"/>
<path d="M92.124 964.644H93.42V946.248H92.34C91.86 946.224 91.536 946.068 91.368 945.78C91.2 945.444 91.116 944.832 91.116 943.944C91.116 942.6 91.512 941.928 92.304 941.928H98.676C99.732 941.928 100.26 942.3 100.26 943.044C100.26 945.18 99.84 946.248 99 946.248H98.1L98.46 953.448L98.496 964.644H99.576C100.416 964.668 100.836 965.052 100.836 965.796C100.788 967.932 100.2 969 99.072 969H92.268C91.836 968.976 91.536 968.82 91.368 968.532C91.2 968.196 91.116 967.572 91.116 966.66C91.116 965.316 91.452 964.644 92.124 964.644ZM124.603 964.752C125.203 964.752 125.503 965.136 125.503 965.904C125.503 966.672 125.491 967.248 125.467 967.632C125.371 968.496 124.987 968.988 124.315 969.108C122.179 969.42 120.595 969.576 119.563 969.576C115.987 969.576 113.527 968.568 112.183 966.552C110.839 964.536 110.167 960.9 110.167 955.644C110.167 951.804 110.455 948.876 111.031 946.86C111.631 944.82 112.579 943.392 113.875 942.576C115.195 941.76 117.151 941.352 119.743 941.352C122.359 941.352 124.267 941.76 125.467 942.576C125.707 942.744 125.827 942.948 125.827 943.188C125.827 943.428 125.707 943.884 125.467 944.556C125.251 945.204 125.035 945.672 124.819 945.96C124.627 946.224 124.423 946.356 124.207 946.356C123.991 946.356 123.823 946.344 123.703 946.32C121.903 945.96 120.343 945.78 119.023 945.78C117.727 945.78 116.875 946.5 116.467 947.94C116.083 949.38 115.891 951.72 115.891 954.96C115.891 958.176 115.975 960.42 116.143 961.692C116.311 962.964 116.623 963.852 117.079 964.356C117.535 964.86 118.255 965.112 119.239 965.112C120.247 965.112 121.375 965.052 122.623 964.932C123.895 964.812 124.555 964.752 124.603 964.752ZM135.765 966.372C135.261 965.748 135.009 965.28 135.009 964.968C135.009 964.632 135.285 964.188 135.837 963.636C136.413 963.06 136.785 962.748 136.953 962.7C137.145 962.652 137.325 962.628 137.493 962.628C137.661 962.628 137.937 962.736 138.321 962.952C140.097 964.344 141.657 965.04 143.001 965.04C144.345 965.04 145.221 964.728 145.629 964.104C146.037 963.48 146.241 962.664 146.241 961.656C146.241 960.648 145.881 959.832 145.161 959.208C144.441 958.584 143.253 957.828 141.597 956.94C139.965 956.052 138.537 954.9 137.313 953.484C136.089 952.068 135.477 950.604 135.477 949.092C135.477 946.404 136.173 944.448 137.565 943.224C138.981 941.976 141.045 941.352 143.757 941.352C145.413 941.352 147.033 941.748 148.617 942.54C149.457 942.876 149.853 943.224 149.805 943.584C149.781 943.728 149.757 943.944 149.733 944.232C149.277 945.528 148.929 946.272 148.689 946.464C148.617 946.512 148.449 946.536 148.185 946.536C147.945 946.536 147.285 946.344 146.205 945.96C145.125 945.552 144.201 945.348 143.433 945.348C142.689 945.348 142.065 945.612 141.561 946.14C141.057 946.668 140.805 947.412 140.805 948.372C140.805 949.332 141.237 950.208 142.101 951C142.965 951.768 144.297 952.572 146.097 953.412C147.993 954.396 149.409 955.416 150.345 956.472C151.305 957.528 151.785 958.944 151.785 960.72C151.785 966.624 149.289 969.576 144.297 969.576C140.577 969.576 137.733 968.508 135.765 966.372ZM178.932 964.644H180.228V946.248H179.148C178.668 946.224 178.344 946.068 178.176 945.78C178.008 945.444 177.924 944.832 177.924 943.944C177.924 942.6 178.32 941.928 179.112 941.928H185.484C186.54 941.928 187.068 942.3 187.068 943.044C187.068 945.18 186.648 946.248 185.808 946.248H184.908L185.268 953.448L185.304 964.644H186.384C187.224 964.668 187.644 965.052 187.644 965.796C187.596 967.932 187.008 969 185.88 969H179.076C178.644 968.976 178.344 968.82 178.176 968.532C178.008 968.196 177.924 967.572 177.924 966.66C177.924 965.316 178.26 964.644 178.932 964.644ZM211.411 964.752C212.011 964.752 212.311 965.136 212.311 965.904C212.311 966.672 212.299 967.248 212.275 967.632C212.179 968.496 211.795 968.988 211.123 969.108C208.987 969.42 207.403 969.576 206.371 969.576C202.795 969.576 200.335 968.568 198.991 966.552C197.647 964.536 196.975 960.9 196.975 955.644C196.975 951.804 197.263 948.876 197.839 946.86C198.439 944.82 199.387 943.392 200.683 942.576C202.003 941.76 203.959 941.352 206.551 941.352C209.167 941.352 211.075 941.76 212.275 942.576C212.515 942.744 212.635 942.948 212.635 943.188C212.635 943.428 212.515 943.884 212.275 944.556C212.059 945.204 211.843 945.672 211.627 945.96C211.435 946.224 211.231 946.356 211.015 946.356C210.799 946.356 210.631 946.344 210.511 946.32C208.711 945.96 207.151 945.78 205.831 945.78C204.535 945.78 203.683 946.5 203.275 947.94C202.891 949.38 202.699 951.72 202.699 954.96C202.699 958.176 202.783 960.42 202.951 961.692C203.119 962.964 203.431 963.852 203.887 964.356C204.343 964.86 205.063 965.112 206.047 965.112C207.055 965.112 208.183 965.052 209.431 964.932C210.703 964.812 211.363 964.752 211.411 964.752ZM222.573 966.372C222.069 965.748 221.817 965.28 221.817 964.968C221.817 964.632 222.093 964.188 222.645 963.636C223.221 963.06 223.593 962.748 223.761 962.7C223.953 962.652 224.133 962.628 224.301 962.628C224.469 962.628 224.745 962.736 225.129 962.952C226.905 964.344 228.465 965.04 229.809 965.04C231.153 965.04 232.029 964.728 232.437 964.104C232.845 963.48 233.049 962.664 233.049 961.656C233.049 960.648 232.689 959.832 231.969 959.208C231.249 958.584 230.061 957.828 228.405 956.94C226.773 956.052 225.345 954.9 224.121 953.484C222.897 952.068 222.285 950.604 222.285 949.092C222.285 946.404 222.981 944.448 224.373 943.224C225.789 941.976 227.853 941.352 230.565 941.352C232.221 941.352 233.841 941.748 235.425 942.54C236.265 942.876 236.661 943.224 236.613 943.584C236.589 943.728 236.565 943.944 236.541 944.232C236.085 945.528 235.737 946.272 235.497 946.464C235.425 946.512 235.257 946.536 234.993 946.536C234.753 946.536 234.093 946.344 233.013 945.96C231.933 945.552 231.009 945.348 230.241 945.348C229.497 945.348 228.873 945.612 228.369 946.14C227.865 946.668 227.613 947.412 227.613 948.372C227.613 949.332 228.045 950.208 228.909 951C229.773 951.768 231.105 952.572 232.905 953.412C234.801 954.396 236.217 955.416 237.153 956.472C238.113 957.528 238.593 958.944 238.593 960.72C238.593 966.624 236.097 969.576 231.105 969.576C227.385 969.576 224.541 968.508 222.573 966.372ZM265.74 964.644H267.036V946.248H265.956C265.476 946.224 265.152 946.068 264.984 945.78C264.816 945.444 264.732 944.832 264.732 943.944C264.732 942.6 265.128 941.928 265.92 941.928H272.292C273.348 941.928 273.876 942.3 273.876 943.044C273.876 945.18 273.456 946.248 272.616 946.248H271.716L272.076 953.448L272.112 964.644H273.192C274.032 964.668 274.452 965.052 274.452 965.796C274.404 967.932 273.816 969 272.688 969H265.884C265.452 968.976 265.152 968.82 264.984 968.532C264.816 968.196 264.732 967.572 264.732 966.66C264.732 965.316 265.068 964.644 265.74 964.644ZM298.219 964.752C298.819 964.752 299.119 965.136 299.119 965.904C299.119 966.672 299.107 967.248 299.083 967.632C298.987 968.496 298.603 968.988 297.931 969.108C295.795 969.42 294.211 969.576 293.179 969.576C289.603 969.576 287.143 968.568 285.799 966.552C284.455 964.536 283.783 960.9 283.783 955.644C283.783 951.804 284.071 948.876 284.647 946.86C285.247 944.82 286.195 943.392 287.491 942.576C288.811 941.76 290.767 941.352 293.359 941.352C295.975 941.352 297.883 941.76 299.083 942.576C299.323 942.744 299.443 942.948 299.443 943.188C299.443 943.428 299.323 943.884 299.083 944.556C298.867 945.204 298.651 945.672 298.435 945.96C298.243 946.224 298.039 946.356 297.823 946.356C297.607 946.356 297.439 946.344 297.319 946.32C295.519 945.96 293.959 945.78 292.639 945.78C291.343 945.78 290.491 946.5 290.083 947.94C289.699 949.38 289.507 951.72 289.507 954.96C289.507 958.176 289.591 960.42 289.759 961.692C289.927 962.964 290.239 963.852 290.695 964.356C291.151 964.86 291.871 965.112 292.855 965.112C293.863 965.112 294.991 965.052 296.239 964.932C297.511 964.812 298.171 964.752 298.219 964.752ZM309.38 966.372C308.876 965.748 308.624 965.28 308.624 964.968C308.624 964.632 308.9 964.188 309.452 963.636C310.028 963.06 310.4 962.748 310.568 962.7C310.76 962.652 310.94 962.628 311.108 962.628C311.276 962.628 311.552 962.736 311.936 962.952C313.712 964.344 315.272 965.04 316.616 965.04C317.96 965.04 318.836 964.728 319.244 964.104C319.652 963.48 319.856 962.664 319.856 961.656C319.856 960.648 319.496 959.832 318.776 959.208C318.056 958.584 316.868 957.828 315.212 956.94C313.58 956.052 312.152 954.9 310.928 953.484C309.704 952.068 309.092 950.604 309.092 949.092C309.092 946.404 309.788 944.448 311.18 943.224C312.596 941.976 314.66 941.352 317.372 941.352C319.028 941.352 320.648 941.748 322.232 942.54C323.072 942.876 323.468 943.224 323.42 943.584C323.396 943.728 323.372 943.944 323.348 944.232C322.892 945.528 322.544 946.272 322.304 946.464C322.232 946.512 322.064 946.536 321.8 946.536C321.56 946.536 320.9 946.344 319.82 945.96C318.74 945.552 317.816 945.348 317.048 945.348C316.304 945.348 315.68 945.612 315.176 946.14C314.672 946.668 314.42 947.412 314.42 948.372C314.42 949.332 314.852 950.208 315.716 951C316.58 951.768 317.912 952.572 319.712 953.412C321.608 954.396 323.024 955.416 323.96 956.472C324.92 957.528 325.4 958.944 325.4 960.72C325.4 966.624 322.904 969.576 317.912 969.576C314.192 969.576 311.348 968.508 309.38 966.372ZM352.547 964.644H353.843V946.248H352.763C352.283 946.224 351.959 946.068 351.791 945.78C351.623 945.444 351.539 944.832 351.539 943.944C351.539 942.6 351.935 941.928 352.727 941.928H359.099C360.155 941.928 360.683 942.3 360.683 943.044C360.683 945.18 360.263 946.248 359.423 946.248H358.523L358.883 953.448L358.919 964.644H359.999C360.839 964.668 361.259 965.052 361.259 965.796C361.211 967.932 360.623 969 359.495 969H352.691C352.259 968.976 351.959 968.82 351.791 968.532C351.623 968.196 351.539 967.572 351.539 966.66C351.539 965.316 351.875 964.644 352.547 964.644ZM385.026 964.752C385.626 964.752 385.926 965.136 385.926 965.904C385.926 966.672 385.914 967.248 385.89 967.632C385.794 968.496 385.41 968.988 384.738 969.108C382.602 969.42 381.018 969.576 379.986 969.576C376.41 969.576 373.95 968.568 372.606 966.552C371.262 964.536 370.59 960.9 370.59 955.644C370.59 951.804 370.878 948.876 371.454 946.86C372.054 944.82 373.002 943.392 374.298 942.576C375.618 941.76 377.574 941.352 380.166 941.352C382.782 941.352 384.69 941.76 385.89 942.576C386.13 942.744 386.25 942.948 386.25 943.188C386.25 943.428 386.13 943.884 385.89 944.556C385.674 945.204 385.458 945.672 385.242 945.96C385.05 946.224 384.846 946.356 384.63 946.356C384.414 946.356 384.246 946.344 384.126 946.32C382.326 945.96 380.766 945.78 379.446 945.78C378.15 945.78 377.298 946.5 376.89 947.94C376.506 949.38 376.314 951.72 376.314 954.96C376.314 958.176 376.398 960.42 376.566 961.692C376.734 962.964 377.046 963.852 377.502 964.356C377.958 964.86 378.678 965.112 379.662 965.112C380.67 965.112 381.798 965.052 383.046 964.932C384.318 964.812 384.978 964.752 385.026 964.752ZM396.188 966.372C395.684 965.748 395.432 965.28 395.432 964.968C395.432 964.632 395.708 964.188 396.26 963.636C396.836 963.06 397.208 962.748 397.376 962.7C397.568 962.652 397.748 962.628 397.916 962.628C398.084 962.628 398.36 962.736 398.744 962.952C400.52 964.344 402.08 965.04 403.424 965.04C404.768 965.04 405.644 964.728 406.052 964.104C406.46 963.48 406.664 962.664 406.664 961.656C406.664 960.648 406.304 959.832 405.584 959.208C404.864 958.584 403.676 957.828 402.02 956.94C400.388 956.052 398.96 954.9 397.736 953.484C396.512 952.068 395.9 950.604 395.9 949.092C395.9 946.404 396.596 944.448 397.988 943.224C399.404 941.976 401.468 941.352 404.18 941.352C405.836 941.352 407.456 941.748 409.04 942.54C409.88 942.876 410.276 943.224 410.228 943.584C410.204 943.728 410.18 943.944 410.156 944.232C409.7 945.528 409.352 946.272 409.112 946.464C409.04 946.512 408.872 946.536 408.608 946.536C408.368 946.536 407.708 946.344 406.628 945.96C405.548 945.552 404.624 945.348 403.856 945.348C403.112 945.348 402.488 945.612 401.984 946.14C401.48 946.668 401.228 947.412 401.228 948.372C401.228 949.332 401.66 950.208 402.524 951C403.388 951.768 404.72 952.572 406.52 953.412C408.416 954.396 409.832 955.416 410.768 956.472C411.728 957.528 412.208 958.944 412.208 960.72C412.208 966.624 409.712 969.576 404.72 969.576C401 969.576 398.156 968.508 396.188 966.372ZM439.355 964.644H440.651V946.248H439.571C439.091 946.224 438.767 946.068 438.599 945.78C438.431 945.444 438.347 944.832 438.347 943.944C438.347 942.6 438.743 941.928 439.535 941.928H445.907C446.963 941.928 447.491 942.3 447.491 943.044C447.491 945.18 447.071 946.248 446.231 946.248H445.331L445.691 953.448L445.727 964.644H446.807C447.647 964.668 448.067 965.052 448.067 965.796C448.019 967.932 447.431 969 446.303 969H439.499C439.067 968.976 438.767 968.82 438.599 968.532C438.431 968.196 438.347 967.572 438.347 966.66C438.347 965.316 438.683 964.644 439.355 964.644ZM471.834 964.752C472.434 964.752 472.734 965.136 472.734 965.904C472.734 966.672 472.722 967.248 472.698 967.632C472.602 968.496 472.218 968.988 471.546 969.108C469.41 969.42 467.826 969.576 466.794 969.576C463.218 969.576 460.758 968.568 459.414 966.552C458.07 964.536 457.398 960.9 457.398 955.644C457.398 951.804 457.686 948.876 458.262 946.86C458.862 944.82 459.81 943.392 461.106 942.576C462.426 941.76 464.382 941.352 466.974 941.352C469.59 941.352 471.498 941.76 472.698 942.576C472.938 942.744 473.058 942.948 473.058 943.188C473.058 943.428 472.938 943.884 472.698 944.556C472.482 945.204 472.266 945.672 472.05 945.96C471.858 946.224 471.654 946.356 471.438 946.356C471.222 946.356 471.054 946.344 470.934 946.32C469.134 945.96 467.574 945.78 466.254 945.78C464.958 945.78 464.106 946.5 463.698 947.94C463.314 949.38 463.122 951.72 463.122 954.96C463.122 958.176 463.206 960.42 463.374 961.692C463.542 962.964 463.854 963.852 464.31 964.356C464.766 964.86 465.486 965.112 466.47 965.112C467.478 965.112 468.606 965.052 469.854 964.932C471.126 964.812 471.786 964.752 471.834 964.752ZM482.996 966.372C482.492 965.748 482.24 965.28 482.24 964.968C482.24 964.632 482.516 964.188 483.068 963.636C483.644 963.06 484.016 962.748 484.184 962.7C484.376 962.652 484.556 962.628 484.724 962.628C484.892 962.628 485.168 962.736 485.552 962.952C487.328 964.344 488.888 965.04 490.232 965.04C491.576 965.04 492.452 964.728 492.86 964.104C493.268 963.48 493.472 962.664 493.472 961.656C493.472 960.648 493.112 959.832 492.392 959.208C491.672 958.584 490.484 957.828 488.828 956.94C487.196 956.052 485.768 954.9 484.544 953.484C483.32 952.068 482.708 950.604 482.708 949.092C482.708 946.404 483.404 944.448 484.796 943.224C486.212 941.976 488.276 941.352 490.988 941.352C492.644 941.352 494.264 941.748 495.848 942.54C496.688 942.876 497.084 943.224 497.036 943.584C497.012 943.728 496.988 943.944 496.964 944.232C496.508 945.528 496.16 946.272 495.92 946.464C495.848 946.512 495.68 946.536 495.416 946.536C495.176 946.536 494.516 946.344 493.436 945.96C492.356 945.552 491.432 945.348 490.664 945.348C489.92 945.348 489.296 945.612 488.792 946.14C488.288 946.668 488.036 947.412 488.036 948.372C488.036 949.332 488.468 950.208 489.332 951C490.196 951.768 491.528 952.572 493.328 953.412C495.224 954.396 496.64 955.416 497.576 956.472C498.536 957.528 499.016 958.944 499.016 960.72C499.016 966.624 496.52 969.576 491.528 969.576C487.808 969.576 484.964 968.508 482.996 966.372ZM526.163 964.644H527.459V946.248H526.379C525.899 946.224 525.575 946.068 525.407 945.78C525.239 945.444 525.155 944.832 525.155 943.944C525.155 942.6 525.551 941.928 526.343 941.928H532.715C533.771 941.928 534.299 942.3 534.299 943.044C534.299 945.18 533.879 946.248 533.039 946.248H532.139L532.499 953.448L532.535 964.644H533.615C534.455 964.668 534.875 965.052 534.875 965.796C534.827 967.932 534.239 969 533.111 969H526.307C525.875 968.976 525.575 968.82 525.407 968.532C525.239 968.196 525.155 967.572 525.155 966.66C525.155 965.316 525.491 964.644 526.163 964.644ZM558.642 964.752C559.242 964.752 559.542 965.136 559.542 965.904C559.542 966.672 559.53 967.248 559.506 967.632C559.41 968.496 559.026 968.988 558.354 969.108C556.218 969.42 554.634 969.576 553.602 969.576C550.026 969.576 547.566 968.568 546.222 966.552C544.878 964.536 544.206 960.9 544.206 955.644C544.206 951.804 544.494 948.876 545.07 946.86C545.67 944.82 546.618 943.392 547.914 942.576C549.234 941.76 551.19 941.352 553.782 941.352C556.398 941.352 558.306 941.76 559.506 942.576C559.746 942.744 559.866 942.948 559.866 943.188C559.866 943.428 559.746 943.884 559.506 944.556C559.29 945.204 559.074 945.672 558.858 945.96C558.666 946.224 558.462 946.356 558.246 946.356C558.03 946.356 557.862 946.344 557.742 946.32C555.942 945.96 554.382 945.78 553.062 945.78C551.766 945.78 550.914 946.5 550.506 947.94C550.122 949.38 549.93 951.72 549.93 954.96C549.93 958.176 550.014 960.42 550.182 961.692C550.35 962.964 550.662 963.852 551.118 964.356C551.574 964.86 552.294 965.112 553.278 965.112C554.286 965.112 555.414 965.052 556.662 964.932C557.934 964.812 558.594 964.752 558.642 964.752ZM569.804 966.372C569.3 965.748 569.048 965.28 569.048 964.968C569.048 964.632 569.324 964.188 569.876 963.636C570.452 963.06 570.824 962.748 570.992 962.7C571.184 962.652 571.364 962.628 571.532 962.628C571.7 962.628 571.976 962.736 572.36 962.952C574.136 964.344 575.696 965.04 577.04 965.04C578.384 965.04 579.26 964.728 579.668 964.104C580.076 963.48 580.28 962.664 580.28 961.656C580.28 960.648 579.92 959.832 579.2 959.208C578.48 958.584 577.292 957.828 575.636 956.94C574.004 956.052 572.576 954.9 571.352 953.484C570.128 952.068 569.516 950.604 569.516 949.092C569.516 946.404 570.212 944.448 571.604 943.224C573.02 941.976 575.084 941.352 577.796 941.352C579.452 941.352 581.072 941.748 582.656 942.54C583.496 942.876 583.892 943.224 583.844 943.584C583.82 943.728 583.796 943.944 583.772 944.232C583.316 945.528 582.968 946.272 582.728 946.464C582.656 946.512 582.488 946.536 582.224 946.536C581.984 946.536 581.324 946.344 580.244 945.96C579.164 945.552 578.24 945.348 577.472 945.348C576.728 945.348 576.104 945.612 575.6 946.14C575.096 946.668 574.844 947.412 574.844 948.372C574.844 949.332 575.276 950.208 576.14 951C577.004 951.768 578.336 952.572 580.136 953.412C582.032 954.396 583.448 955.416 584.384 956.472C585.344 957.528 585.824 958.944 585.824 960.72C585.824 966.624 583.328 969.576 578.336 969.576C574.616 969.576 571.772 968.508 569.804 966.372ZM612.971 964.644H614.267V946.248H613.187C612.707 946.224 612.383 946.068 612.215 945.78C612.047 945.444 611.963 944.832 611.963 943.944C611.963 942.6 612.359 941.928 613.151 941.928H619.523C620.579 941.928 621.107 942.3 621.107 943.044C621.107 945.18 620.687 946.248 619.847 946.248H618.947L619.307 953.448L619.343 964.644H620.423C621.263 964.668 621.683 965.052 621.683 965.796C621.635 967.932 621.047 969 619.919 969H613.115C612.683 968.976 612.383 968.82 612.215 968.532C612.047 968.196 611.963 967.572 611.963 966.66C611.963 965.316 612.299 964.644 612.971 964.644ZM645.45 964.752C646.05 964.752 646.35 965.136 646.35 965.904C646.35 966.672 646.338 967.248 646.314 967.632C646.218 968.496 645.834 968.988 645.162 969.108C643.026 969.42 641.442 969.576 640.41 969.576C636.834 969.576 634.374 968.568 633.03 966.552C631.686 964.536 631.014 960.9 631.014 955.644C631.014 951.804 631.302 948.876 631.878 946.86C632.478 944.82 633.426 943.392 634.722 942.576C636.042 941.76 637.998 941.352 640.59 941.352C643.206 941.352 645.114 941.76 646.314 942.576C646.554 942.744 646.674 942.948 646.674 943.188C646.674 943.428 646.554 943.884 646.314 944.556C646.098 945.204 645.882 945.672 645.666 945.96C645.474 946.224 645.27 946.356 645.054 946.356C644.838 946.356 644.67 946.344 644.55 946.32C642.75 945.96 641.19 945.78 639.87 945.78C638.574 945.78 637.722 946.5 637.314 947.94C636.93 949.38 636.738 951.72 636.738 954.96C636.738 958.176 636.822 960.42 636.99 961.692C637.158 962.964 637.47 963.852 637.926 964.356C638.382 964.86 639.102 965.112 640.086 965.112C641.094 965.112 642.222 965.052 643.47 964.932C644.742 964.812 645.402 964.752 645.45 964.752ZM656.612 966.372C656.108 965.748 655.856 965.28 655.856 964.968C655.856 964.632 656.132 964.188 656.684 963.636C657.26 963.06 657.632 962.748 657.8 962.7C657.992 962.652 658.172 962.628 658.34 962.628C658.508 962.628 658.784 962.736 659.168 962.952C660.944 964.344 662.504 965.04 663.848 965.04C665.192 965.04 666.068 964.728 666.476 964.104C666.884 963.48 667.088 962.664 667.088 961.656C667.088 960.648 666.728 959.832 666.008 959.208C665.288 958.584 664.1 957.828 662.444 956.94C660.812 956.052 659.384 954.9 658.16 953.484C656.936 952.068 656.324 950.604 656.324 949.092C656.324 946.404 657.02 944.448 658.412 943.224C659.828 941.976 661.892 941.352 664.604 941.352C666.26 941.352 667.88 941.748 669.464 942.54C670.304 942.876 670.7 943.224 670.652 943.584C670.628 943.728 670.604 943.944 670.58 944.232C670.124 945.528 669.776 946.272 669.536 946.464C669.464 946.512 669.296 946.536 669.032 946.536C668.792 946.536 668.132 946.344 667.052 945.96C665.972 945.552 665.048 945.348 664.28 945.348C663.536 945.348 662.912 945.612 662.408 946.14C661.904 946.668 661.652 947.412 661.652 948.372C661.652 949.332 662.084 950.208 662.948 951C663.812 951.768 665.144 952.572 666.944 953.412C668.84 954.396 670.256 955.416 671.192 956.472C672.152 957.528 672.632 958.944 672.632 960.72C672.632 966.624 670.136 969.576 665.144 969.576C661.424 969.576 658.58 968.508 656.612 966.372ZM699.779 964.644H701.075V946.248H699.995C699.515 946.224 699.191 946.068 699.023 945.78C698.855 945.444 698.771 944.832 698.771 943.944C698.771 942.6 699.167 941.928 699.959 941.928H706.331C707.387 941.928 707.915 942.3 707.915 943.044C707.915 945.18 707.495 946.248 706.655 946.248H705.755L706.115 953.448L706.151 964.644H707.231C708.071 964.668 708.491 965.052 708.491 965.796C708.443 967.932 707.855 969 706.727 969H699.923C699.491 968.976 699.191 968.82 699.023 968.532C698.855 968.196 698.771 967.572 698.771 966.66C698.771 965.316 699.107 964.644 699.779 964.644ZM732.258 964.752C732.858 964.752 733.158 965.136 733.158 965.904C733.158 966.672 733.146 967.248 733.122 967.632C733.026 968.496 732.642 968.988 731.97 969.108C729.834 969.42 728.25 969.576 727.218 969.576C723.642 969.576 721.182 968.568 719.838 966.552C718.494 964.536 717.822 960.9 717.822 955.644C717.822 951.804 718.11 948.876 718.686 946.86C719.286 944.82 720.234 943.392 721.53 942.576C722.85 941.76 724.806 941.352 727.398 941.352C730.014 941.352 731.922 941.76 733.122 942.576C733.362 942.744 733.482 942.948 733.482 943.188C733.482 943.428 733.362 943.884 733.122 944.556C732.906 945.204 732.69 945.672 732.474 945.96C732.282 946.224 732.078 946.356 731.862 946.356C731.646 946.356 731.478 946.344 731.358 946.32C729.558 945.96 727.998 945.78 726.678 945.78C725.382 945.78 724.53 946.5 724.122 947.94C723.738 949.38 723.546 951.72 723.546 954.96C723.546 958.176 723.63 960.42 723.798 961.692C723.966 962.964 724.278 963.852 724.734 964.356C725.19 964.86 725.91 965.112 726.894 965.112C727.902 965.112 729.03 965.052 730.278 964.932C731.55 964.812 732.21 964.752 732.258 964.752ZM743.419 966.372C742.915 965.748 742.663 965.28 742.663 964.968C742.663 964.632 742.939 964.188 743.491 963.636C744.067 963.06 744.439 962.748 744.607 962.7C744.799 962.652 744.979 962.628 745.147 962.628C745.315 962.628 745.591 962.736 745.975 962.952C747.751 964.344 749.311 965.04 750.655 965.04C751.999 965.04 752.875 964.728 753.283 964.104C753.691 963.48 753.895 962.664 753.895 961.656C753.895 960.648 753.535 959.832 752.815 959.208C752.095 958.584 750.907 957.828 749.251 956.94C747.619 956.052 746.191 954.9 744.967 953.484C743.743 952.068 743.131 950.604 743.131 949.092C743.131 946.404 743.827 944.448 745.219 943.224C746.635 941.976 748.699 941.352 751.411 941.352C753.067 941.352 754.687 941.748 756.271 942.54C757.111 942.876 757.507 943.224 757.459 943.584C757.435 943.728 757.411 943.944 757.387 944.232C756.931 945.528 756.583 946.272 756.343 946.464C756.271 946.512 756.103 946.536 755.839 946.536C755.599 946.536 754.939 946.344 753.859 945.96C752.779 945.552 751.855 945.348 751.087 945.348C750.343 945.348 749.719 945.612 749.215 946.14C748.711 946.668 748.459 947.412 748.459 948.372C748.459 949.332 748.891 950.208 749.755 951C750.619 951.768 751.951 952.572 753.751 953.412C755.647 954.396 757.063 955.416 757.999 956.472C758.959 957.528 759.439 958.944 759.439 960.72C759.439 966.624 756.943 969.576 751.951 969.576C748.231 969.576 745.387 968.508 743.419 966.372Z" fill="white"/>
</svg>
