<svg width="939" height="977" viewBox="0 0 939 977" fill="none" xmlns="http://www.w3.org/2000/svg">
<g clip-path="url(#clip0_426_180)">
<path d="M113.23 248.61C113.37 248.62 113.52 248.64 113.66 248.66C113.87 247.11 114.07 245.56 114.28 244.01C113.95 245.56 113.6 247.09 113.23 248.61Z" fill="#D8D2CD"/>
<path d="M819.6 904.46L755 904.45C775 904.831 761.5 904.78 761.5 904.46V358.92C761.5 358.42 761.5 355 761.5 355C752 364 760 368.477 751.5 368.51L187.5 358.92C187.76 370.94 178.39 352.78 178.36 364.8C178.36 366.45 177.67 367.69 176.66 368.51V903.35C176.66 903.74 176.66 904.07 176.73 904.46H104.24C99.69 904.46 96 908.15 96 912.7V967.77C96 972.32 99.69 976.01 104.24 976.01H819.6C824.15 976.01 827.84 972.32 827.84 967.77V912.7C827.84 908.15 824.15 904.46 819.6 904.46ZM405.31 432.82C405.31 428.27 403.95 361.352 408.5 361.352L528.88 362.677V484.57C528.88 489.12 525.19 492.81 520.64 492.81H413.55C409 492.81 405.31 489.12 405.31 484.57V432.82ZM572.06 904.45C565.2 904.45 561.34 896.56 565.56 891.15L579.46 873.31C583.68 867.9 579.82 860.01 572.96 860.01H365.23C358.23 860.01 354.42 868.18 358.92 873.55L373.49 890.92C377.99 896.28 374.17 904.46 367.17 904.46L198.47 904.4C197 904.5 188.358 904.4 187.5 904.4V358.92C187.5 354.37 204.95 358.92 209.5 358.92L247 359.575C251.55 359.575 248.782 359.594 255.5 359.668L259 359.707C263.5 359.756 266.45 359.839 271 359.839L393.59 361.188V490.42C393.59 498.21 399.9 504.52 407.69 504.52H418.88C423.43 504.52 427.12 508.21 427.12 512.76V532.41C427.12 536.96 430.81 540.65 435.36 540.65H444.34C448.89 540.65 452.58 536.96 452.58 532.41V512.76C452.58 508.21 456.27 504.52 460.82 504.52H473.38C477.93 504.52 481.62 508.21 481.62 512.76V532.41C481.62 536.96 485.31 540.65 489.86 540.65H498.84C503.39 540.65 507.08 536.96 507.08 532.41V512.76C507.08 508.21 510.77 504.52 515.32 504.52H526.44C534.23 504.52 540.54 498.21 540.54 490.42V362.805L631 363.8C635.55 363.8 663 364.153 670 364.23L671.68 364.698C677.5 364.312 685.45 364.45 690 364.45L712.5 364.698C717.05 364.698 745.5 368.444 751.5 368.51V904.46C748.5 904.46 739.5 904.5 738 904.46L572.06 904.45Z" fill="#D8D2CD"/>
<path d="M142 333.89C142.12 332.18 142.21 330.46 142.3 328.74H141.25C141.53 330.46 141.78 332.17 142 333.89Z" fill="#D8D2CD"/>
<path d="M658 636.5C652.47 630.97 640.96 629.5 632.5 629.5H600.59C596.04 629.5 592.35 622.06 592.35 617.51C592.35 612.82 590.47 607.13 587.35 604.01C584.23 600.95 576.54 600.88 571.85 600.88H352.85C348.1 600.88 346.97 603.45 343.85 606.51C340.79 609.63 340.85 613.52 340.85 617.51V672.01C340.85 742.26 366.63 778.93 412.85 798.01C430.88 805.5 446.98 809.67 466.71 809.54C486.44 809.41 506.69 805.43 524.85 798.01C558.42 784.36 574.89 764.46 587.92 728.01C589.1 724.72 592.2 722.51 595.69 722.51H642.36C652.06 722.51 648.62 719.38 655 713C661.32 706.62 662.35 701.91 662.35 692.28V654.42C662.35 646.35 662.35 649.99 662.35 643C662.5 642.5 658.19 636.7 658 636.5ZM577 629.5V681C577 737.97 557.89 764.9 517 781.5C501.11 787.95 483.77 790.93 466.71 791C449.65 791.13 434.06 787.95 418.5 781.5C379.37 765.35 357.5 732.68 357.5 672.01V629.5C357.5 624.95 352.95 613.5 357.5 613.5H577C572.45 613.5 577 624.95 577 629.5ZM646.72 656.41V692.28C646.72 696.32 645.03 700.33 642.36 703C639.69 705.67 634.89 707.12 630.85 707.12H600.59C596.04 707.12 592.35 703.43 592.35 698.88V654.42C592.35 649.87 596.04 646.18 600.59 646.18H640.06C641.54 646.18 642.99 646.58 644.26 647.33C644.82 647.66 645.3 647.95 645.35 648C647.04 649.83 646.72 653.74 646.72 656.41Z" fill="#D8D2CD"/>
<path fill-rule="evenodd" clip-rule="evenodd" d="M670.92 759.67C670.7 756.16 668.09 753.28 664.45 752.52C662.87 752.13 661.57 751.86 661.57 751.86C661.57 751.86 617.14 742.88 562.55 784.3C540.34 801.15 508.47 813.2 481.93 812.64C478.38 812.55 475.04 814.49 473.47 817.53C471.9 820.58 472.41 824.13 474.77 826.53C493.07 845.22 530.14 869.74 586.68 852.94C637.65 837.78 672.61 797.76 670.92 759.67ZM657 763.5C652.56 795.07 622.62 827.7 583 839.5C551.53 848.87 513.02 838.03 494.5 826.53C515.2 824.35 545.34 812.08 570.5 793C602.55 768.67 642.89 763.94 657 763.5Z" fill="#D8D2CD"/>
<path fill-rule="evenodd" clip-rule="evenodd" d="M273.319 762.65C273.489 759.17 276.039 756.27 279.639 755.47C281.199 755.06 282.489 754.78 282.489 754.78C282.489 754.78 326.419 745.28 381.099 785.63C403.339 802.04 435.109 813.57 461.409 812.66C464.929 812.53 468.269 814.4 469.869 817.4C471.469 820.4 471.009 823.93 468.699 826.34C450.799 845.12 414.359 869.92 358.079 854.01C307.349 839.66 272.149 800.45 273.319 762.65ZM286.5 766.5C291.32 797.75 323.56 828.33 363 839.5C394.33 848.38 428.78 837.99 447 826.34C426.44 824.46 396.7 812.09 371.5 793.5C339.4 769.81 300.5 766.75 286.5 766.5Z" fill="#D8D2CD"/>
<path d="M609.85 889.51H320.85V904.51H609.85V889.51Z" fill="#322214"/>
<path d="M126.58 949.03C127.21 949.03 127.53 949.44 127.53 950.25C127.53 951.06 127.52 951.67 127.49 952.07C127.39 952.98 126.98 953.5 126.27 953.63C124.02 953.96 122.34 954.12 121.25 954.12C117.48 954.12 114.88 953.06 113.46 950.93C112.04 948.8 111.33 944.96 111.33 939.42C111.33 935.37 111.63 932.28 112.24 930.15C112.87 928 113.87 926.49 115.24 925.63C116.63 924.77 118.7 924.34 121.43 924.34C124.19 924.34 126.21 924.77 127.47 925.63C127.72 925.81 127.85 926.02 127.85 926.28C127.85 926.53 127.72 927.01 127.47 927.72C127.24 928.4 127.01 928.9 126.79 929.2C126.59 929.48 126.37 929.62 126.14 929.62C125.91 929.62 125.73 929.61 125.61 929.58C123.71 929.2 122.06 929.01 120.67 929.01C119.3 929.01 118.4 929.77 117.97 931.29C117.56 932.81 117.36 935.28 117.36 938.7C117.36 942.1 117.45 944.46 117.63 945.81C117.81 947.15 118.14 948.09 118.62 948.62C119.1 949.15 119.86 949.42 120.9 949.42C121.96 949.42 123.15 949.36 124.47 949.23C125.83 949.09 126.53 949.03 126.58 949.03Z" fill="#D8D2CD"/>
<path d="M596.18 436H688.18C699.23 436 708.18 441.46 708.18 452.51V465.51C708.18 476.56 699.23 481 688.18 481H596.18C585.13 481 576.18 476.56 576.18 465.51V452.51C576.18 441.46 585.13 436 596.18 436Z" fill="#D8D2CD"/>
<path d="M617.18 451.51H540.18V467.51H617.18V451.51Z" fill="#D8D2CD"/>
<path d="M902 307H38V423H902V307Z" fill="#140504"/>
<path d="M190 349H176V912H190V349Z" fill="#D8D2CD"/>
<path d="M763 344H749V911H763V344Z" fill="#D8D2CD"/>
<path d="M718.928 230.661C705.004 173.822 660.985 0 575.575 0C555.033 0 536.707 5.87298 521.286 13.8654C506.407 21.5214 488.215 25.668 469.505 25.668C450.796 25.668 432.604 21.5214 417.725 13.8654C402.304 5.94231 383.978 0 363.436 0C278.04 0 234.021 173.783 220.068 230.641C276.998 243.11 357.581 253.538 469.491 253.538C581.4 253.538 662.042 243.13 718.928 230.661ZM928.603 193.838C924.227 191.854 918.989 190.921 913.732 191.19C908.475 191.46 903.506 192.916 899.624 195.324C898.157 196.215 751.032 285.231 469.476 285.231C189.489 285.231 40.7071 196.156 39.2105 195.264C35.3184 192.892 30.3617 191.468 25.1306 191.218C19.8995 190.969 14.6953 191.909 10.3479 193.888C6.00042 195.868 2.76002 198.773 1.14338 202.14C-0.473256 205.507 -0.373048 209.143 1.42803 212.467C2.49914 214.468 114.878 412 469.491 412C824.103 412 936.482 214.468 937.553 212.467C939.371 209.135 939.479 205.488 937.859 202.11C936.238 198.731 932.984 195.819 928.617 193.838H928.603Z" fill="#D8D2CD"/>
<path d="M369.552 174.512H374.16V109.104H370.32C368.613 109.019 367.461 108.464 366.864 107.44C366.267 106.245 365.968 104.069 365.968 100.912C365.968 96.1333 367.376 93.744 370.192 93.744H392.848C396.603 93.744 398.48 95.0667 398.48 97.712C398.48 105.307 396.987 109.104 394 109.104H390.8L392.08 134.704L392.208 174.512H396.048C399.035 174.597 400.528 175.963 400.528 178.608C400.357 186.203 398.267 190 394.256 190H370.064C368.528 189.915 367.461 189.36 366.864 188.336C366.267 187.141 365.968 184.923 365.968 181.68C365.968 176.901 367.163 174.512 369.552 174.512ZM485.033 174.896C487.166 174.896 488.233 176.261 488.233 178.992C488.233 181.723 488.19 183.771 488.105 185.136C487.764 188.208 486.398 189.957 484.009 190.384C476.414 191.493 470.782 192.048 467.113 192.048C454.398 192.048 445.652 188.464 440.873 181.296C436.094 174.128 433.705 161.2 433.705 142.512C433.705 128.859 434.729 118.448 436.777 111.28C438.91 104.027 442.281 98.9493 446.889 96.048C451.582 93.1467 458.537 91.696 467.753 91.696C477.054 91.696 483.838 93.1467 488.105 96.048C488.958 96.6453 489.385 97.3707 489.385 98.224C489.385 99.0773 488.958 100.699 488.105 103.088C487.337 105.392 486.569 107.056 485.801 108.08C485.118 109.019 484.393 109.488 483.625 109.488C482.857 109.488 482.26 109.445 481.833 109.36C475.433 108.08 469.886 107.44 465.193 107.44C460.585 107.44 457.556 110 456.105 115.12C454.74 120.24 454.057 128.56 454.057 140.08C454.057 151.515 454.356 159.493 454.953 164.016C455.55 168.539 456.66 171.696 458.281 173.488C459.902 175.28 462.462 176.176 465.961 176.176C469.545 176.176 473.556 175.963 477.993 175.536C482.516 175.109 484.862 174.896 485.033 174.896ZM524.719 180.656C522.927 178.437 522.031 176.773 522.031 175.664C522.031 174.469 523.012 172.891 524.975 170.928C527.023 168.88 528.346 167.771 528.943 167.6C529.626 167.429 530.266 167.344 530.863 167.344C531.46 167.344 532.442 167.728 533.807 168.496C540.122 173.445 545.668 175.92 550.447 175.92C555.226 175.92 558.34 174.811 559.791 172.592C561.242 170.373 561.967 167.472 561.967 163.888C561.967 160.304 560.687 157.403 558.127 155.184C555.567 152.965 551.343 150.277 545.455 147.12C539.652 143.963 534.575 139.867 530.223 134.832C525.871 129.797 523.695 124.592 523.695 119.216C523.695 109.659 526.17 102.704 531.119 98.352C536.154 93.9147 543.492 91.696 553.135 91.696C559.023 91.696 564.783 93.104 570.415 95.92C573.402 97.1147 574.81 98.352 574.639 99.632C574.554 100.144 574.468 100.912 574.383 101.936C572.762 106.544 571.524 109.189 570.671 109.872C570.415 110.043 569.818 110.128 568.879 110.128C568.026 110.128 565.679 109.445 561.839 108.08C557.999 106.629 554.714 105.904 551.983 105.904C549.338 105.904 547.119 106.843 545.327 108.72C543.535 110.597 542.639 113.243 542.639 116.656C542.639 120.069 544.175 123.184 547.247 126C550.319 128.731 555.055 131.589 561.455 134.576C568.196 138.075 573.231 141.701 576.559 145.456C579.972 149.211 581.679 154.245 581.679 160.56C581.679 181.552 572.804 192.048 555.055 192.048C541.828 192.048 531.716 188.251 524.719 180.656Z" fill="#322214"/>
<path d="M130.124 949.644H131.42V931.248H130.34C129.86 931.224 129.536 931.068 129.368 930.78C129.2 930.444 129.116 929.832 129.116 928.944C129.116 927.6 129.512 926.928 130.304 926.928H136.676C137.732 926.928 138.26 927.3 138.26 928.044C138.26 930.18 137.84 931.248 137 931.248H136.1L136.46 938.448L136.496 949.644H137.576C138.416 949.668 138.836 950.052 138.836 950.796C138.788 952.932 138.2 954 137.072 954H130.268C129.836 953.976 129.536 953.82 129.368 953.532C129.2 953.196 129.116 952.572 129.116 951.66C129.116 950.316 129.452 949.644 130.124 949.644ZM162.603 949.752C163.203 949.752 163.503 950.136 163.503 950.904C163.503 951.672 163.491 952.248 163.467 952.632C163.371 953.496 162.987 953.988 162.315 954.108C160.179 954.42 158.595 954.576 157.563 954.576C153.987 954.576 151.527 953.568 150.183 951.552C148.839 949.536 148.167 945.9 148.167 940.644C148.167 936.804 148.455 933.876 149.031 931.86C149.631 929.82 150.579 928.392 151.875 927.576C153.195 926.76 155.151 926.352 157.743 926.352C160.359 926.352 162.267 926.76 163.467 927.576C163.707 927.744 163.827 927.948 163.827 928.188C163.827 928.428 163.707 928.884 163.467 929.556C163.251 930.204 163.035 930.672 162.819 930.96C162.627 931.224 162.423 931.356 162.207 931.356C161.991 931.356 161.823 931.344 161.703 931.32C159.903 930.96 158.343 930.78 157.023 930.78C155.727 930.78 154.875 931.5 154.467 932.94C154.083 934.38 153.891 936.72 153.891 939.96C153.891 943.176 153.975 945.42 154.143 946.692C154.311 947.964 154.623 948.852 155.079 949.356C155.535 949.86 156.255 950.112 157.239 950.112C158.247 950.112 159.375 950.052 160.623 949.932C161.895 949.812 162.555 949.752 162.603 949.752ZM173.765 951.372C173.261 950.748 173.009 950.28 173.009 949.968C173.009 949.632 173.285 949.188 173.837 948.636C174.413 948.06 174.785 947.748 174.953 947.7C175.145 947.652 175.325 947.628 175.493 947.628C175.661 947.628 175.937 947.736 176.321 947.952C178.097 949.344 179.657 950.04 181.001 950.04C182.345 950.04 183.221 949.728 183.629 949.104C184.037 948.48 184.241 947.664 184.241 946.656C184.241 945.648 183.881 944.832 183.161 944.208C182.441 943.584 181.253 942.828 179.597 941.94C177.965 941.052 176.537 939.9 175.313 938.484C174.089 937.068 173.477 935.604 173.477 934.092C173.477 931.404 174.173 929.448 175.565 928.224C176.981 926.976 179.045 926.352 181.757 926.352C183.413 926.352 185.033 926.748 186.617 927.54C187.457 927.876 187.853 928.224 187.805 928.584C187.781 928.728 187.757 928.944 187.733 929.232C187.277 930.528 186.929 931.272 186.689 931.464C186.617 931.512 186.449 931.536 186.185 931.536C185.945 931.536 185.285 931.344 184.205 930.96C183.125 930.552 182.201 930.348 181.433 930.348C180.689 930.348 180.065 930.612 179.561 931.14C179.057 931.668 178.805 932.412 178.805 933.372C178.805 934.332 179.237 935.208 180.101 936C180.965 936.768 182.297 937.572 184.097 938.412C185.993 939.396 187.409 940.416 188.345 941.472C189.305 942.528 189.785 943.944 189.785 945.72C189.785 951.624 187.289 954.576 182.297 954.576C178.577 954.576 175.733 953.508 173.765 951.372ZM216.932 949.644H218.228V931.248H217.148C216.668 931.224 216.344 931.068 216.176 930.78C216.008 930.444 215.924 929.832 215.924 928.944C215.924 927.6 216.32 926.928 217.112 926.928H223.484C224.54 926.928 225.068 927.3 225.068 928.044C225.068 930.18 224.648 931.248 223.808 931.248H222.908L223.268 938.448L223.304 949.644H224.384C225.224 949.668 225.644 950.052 225.644 950.796C225.596 952.932 225.008 954 223.88 954H217.076C216.644 953.976 216.344 953.82 216.176 953.532C216.008 953.196 215.924 952.572 215.924 951.66C215.924 950.316 216.26 949.644 216.932 949.644ZM249.411 949.752C250.011 949.752 250.311 950.136 250.311 950.904C250.311 951.672 250.299 952.248 250.275 952.632C250.179 953.496 249.795 953.988 249.123 954.108C246.987 954.42 245.403 954.576 244.371 954.576C240.795 954.576 238.335 953.568 236.991 951.552C235.647 949.536 234.975 945.9 234.975 940.644C234.975 936.804 235.263 933.876 235.839 931.86C236.439 929.82 237.387 928.392 238.683 927.576C240.003 926.76 241.959 926.352 244.551 926.352C247.167 926.352 249.075 926.76 250.275 927.576C250.515 927.744 250.635 927.948 250.635 928.188C250.635 928.428 250.515 928.884 250.275 929.556C250.059 930.204 249.843 930.672 249.627 930.96C249.435 931.224 249.231 931.356 249.015 931.356C248.799 931.356 248.631 931.344 248.511 931.32C246.711 930.96 245.151 930.78 243.831 930.78C242.535 930.78 241.683 931.5 241.275 932.94C240.891 934.38 240.699 936.72 240.699 939.96C240.699 943.176 240.783 945.42 240.951 946.692C241.119 947.964 241.431 948.852 241.887 949.356C242.343 949.86 243.063 950.112 244.047 950.112C245.055 950.112 246.183 950.052 247.431 949.932C248.703 949.812 249.363 949.752 249.411 949.752ZM260.573 951.372C260.069 950.748 259.817 950.28 259.817 949.968C259.817 949.632 260.093 949.188 260.645 948.636C261.221 948.06 261.593 947.748 261.761 947.7C261.953 947.652 262.133 947.628 262.301 947.628C262.469 947.628 262.745 947.736 263.129 947.952C264.905 949.344 266.465 950.04 267.809 950.04C269.153 950.04 270.029 949.728 270.437 949.104C270.845 948.48 271.049 947.664 271.049 946.656C271.049 945.648 270.689 944.832 269.969 944.208C269.249 943.584 268.061 942.828 266.405 941.94C264.773 941.052 263.345 939.9 262.121 938.484C260.897 937.068 260.285 935.604 260.285 934.092C260.285 931.404 260.981 929.448 262.373 928.224C263.789 926.976 265.853 926.352 268.565 926.352C270.221 926.352 271.841 926.748 273.425 927.54C274.265 927.876 274.661 928.224 274.613 928.584C274.589 928.728 274.565 928.944 274.541 929.232C274.085 930.528 273.737 931.272 273.497 931.464C273.425 931.512 273.257 931.536 272.993 931.536C272.753 931.536 272.093 931.344 271.013 930.96C269.933 930.552 269.009 930.348 268.241 930.348C267.497 930.348 266.873 930.612 266.369 931.14C265.865 931.668 265.613 932.412 265.613 933.372C265.613 934.332 266.045 935.208 266.909 936C267.773 936.768 269.105 937.572 270.905 938.412C272.801 939.396 274.217 940.416 275.153 941.472C276.113 942.528 276.593 943.944 276.593 945.72C276.593 951.624 274.097 954.576 269.105 954.576C265.385 954.576 262.541 953.508 260.573 951.372ZM303.74 949.644H305.036V931.248H303.956C303.476 931.224 303.152 931.068 302.984 930.78C302.816 930.444 302.732 929.832 302.732 928.944C302.732 927.6 303.128 926.928 303.92 926.928H310.292C311.348 926.928 311.876 927.3 311.876 928.044C311.876 930.18 311.456 931.248 310.616 931.248H309.716L310.076 938.448L310.112 949.644H311.192C312.032 949.668 312.452 950.052 312.452 950.796C312.404 952.932 311.816 954 310.688 954H303.884C303.452 953.976 303.152 953.82 302.984 953.532C302.816 953.196 302.732 952.572 302.732 951.66C302.732 950.316 303.068 949.644 303.74 949.644ZM336.219 949.752C336.819 949.752 337.119 950.136 337.119 950.904C337.119 951.672 337.107 952.248 337.083 952.632C336.987 953.496 336.603 953.988 335.931 954.108C333.795 954.42 332.211 954.576 331.179 954.576C327.603 954.576 325.143 953.568 323.799 951.552C322.455 949.536 321.783 945.9 321.783 940.644C321.783 936.804 322.071 933.876 322.647 931.86C323.247 929.82 324.195 928.392 325.491 927.576C326.811 926.76 328.767 926.352 331.359 926.352C333.975 926.352 335.883 926.76 337.083 927.576C337.323 927.744 337.443 927.948 337.443 928.188C337.443 928.428 337.323 928.884 337.083 929.556C336.867 930.204 336.651 930.672 336.435 930.96C336.243 931.224 336.039 931.356 335.823 931.356C335.607 931.356 335.439 931.344 335.319 931.32C333.519 930.96 331.959 930.78 330.639 930.78C329.343 930.78 328.491 931.5 328.083 932.94C327.699 934.38 327.507 936.72 327.507 939.96C327.507 943.176 327.591 945.42 327.759 946.692C327.927 947.964 328.239 948.852 328.695 949.356C329.151 949.86 329.871 950.112 330.855 950.112C331.863 950.112 332.991 950.052 334.239 949.932C335.511 949.812 336.171 949.752 336.219 949.752ZM347.38 951.372C346.876 950.748 346.624 950.28 346.624 949.968C346.624 949.632 346.9 949.188 347.452 948.636C348.028 948.06 348.4 947.748 348.568 947.7C348.76 947.652 348.94 947.628 349.108 947.628C349.276 947.628 349.552 947.736 349.936 947.952C351.712 949.344 353.272 950.04 354.616 950.04C355.96 950.04 356.836 949.728 357.244 949.104C357.652 948.48 357.856 947.664 357.856 946.656C357.856 945.648 357.496 944.832 356.776 944.208C356.056 943.584 354.868 942.828 353.212 941.94C351.58 941.052 350.152 939.9 348.928 938.484C347.704 937.068 347.092 935.604 347.092 934.092C347.092 931.404 347.788 929.448 349.18 928.224C350.596 926.976 352.66 926.352 355.372 926.352C357.028 926.352 358.648 926.748 360.232 927.54C361.072 927.876 361.468 928.224 361.42 928.584C361.396 928.728 361.372 928.944 361.348 929.232C360.892 930.528 360.544 931.272 360.304 931.464C360.232 931.512 360.064 931.536 359.8 931.536C359.56 931.536 358.9 931.344 357.82 930.96C356.74 930.552 355.816 930.348 355.048 930.348C354.304 930.348 353.68 930.612 353.176 931.14C352.672 931.668 352.42 932.412 352.42 933.372C352.42 934.332 352.852 935.208 353.716 936C354.58 936.768 355.912 937.572 357.712 938.412C359.608 939.396 361.024 940.416 361.96 941.472C362.92 942.528 363.4 943.944 363.4 945.72C363.4 951.624 360.904 954.576 355.912 954.576C352.192 954.576 349.348 953.508 347.38 951.372ZM390.547 949.644H391.843V931.248H390.763C390.283 931.224 389.959 931.068 389.791 930.78C389.623 930.444 389.539 929.832 389.539 928.944C389.539 927.6 389.935 926.928 390.727 926.928H397.099C398.155 926.928 398.683 927.3 398.683 928.044C398.683 930.18 398.263 931.248 397.423 931.248H396.523L396.883 938.448L396.919 949.644H397.999C398.839 949.668 399.259 950.052 399.259 950.796C399.211 952.932 398.623 954 397.495 954H390.691C390.259 953.976 389.959 953.82 389.791 953.532C389.623 953.196 389.539 952.572 389.539 951.66C389.539 950.316 389.875 949.644 390.547 949.644ZM423.026 949.752C423.626 949.752 423.926 950.136 423.926 950.904C423.926 951.672 423.914 952.248 423.89 952.632C423.794 953.496 423.41 953.988 422.738 954.108C420.602 954.42 419.018 954.576 417.986 954.576C414.41 954.576 411.95 953.568 410.606 951.552C409.262 949.536 408.59 945.9 408.59 940.644C408.59 936.804 408.878 933.876 409.454 931.86C410.054 929.82 411.002 928.392 412.298 927.576C413.618 926.76 415.574 926.352 418.166 926.352C420.782 926.352 422.69 926.76 423.89 927.576C424.13 927.744 424.25 927.948 424.25 928.188C424.25 928.428 424.13 928.884 423.89 929.556C423.674 930.204 423.458 930.672 423.242 930.96C423.05 931.224 422.846 931.356 422.63 931.356C422.414 931.356 422.246 931.344 422.126 931.32C420.326 930.96 418.766 930.78 417.446 930.78C416.15 930.78 415.298 931.5 414.89 932.94C414.506 934.38 414.314 936.72 414.314 939.96C414.314 943.176 414.398 945.42 414.566 946.692C414.734 947.964 415.046 948.852 415.502 949.356C415.958 949.86 416.678 950.112 417.662 950.112C418.67 950.112 419.798 950.052 421.046 949.932C422.318 949.812 422.978 949.752 423.026 949.752ZM434.188 951.372C433.684 950.748 433.432 950.28 433.432 949.968C433.432 949.632 433.708 949.188 434.26 948.636C434.836 948.06 435.208 947.748 435.376 947.7C435.568 947.652 435.748 947.628 435.916 947.628C436.084 947.628 436.36 947.736 436.744 947.952C438.52 949.344 440.08 950.04 441.424 950.04C442.768 950.04 443.644 949.728 444.052 949.104C444.46 948.48 444.664 947.664 444.664 946.656C444.664 945.648 444.304 944.832 443.584 944.208C442.864 943.584 441.676 942.828 440.02 941.94C438.388 941.052 436.96 939.9 435.736 938.484C434.512 937.068 433.9 935.604 433.9 934.092C433.9 931.404 434.596 929.448 435.988 928.224C437.404 926.976 439.468 926.352 442.18 926.352C443.836 926.352 445.456 926.748 447.04 927.54C447.88 927.876 448.276 928.224 448.228 928.584C448.204 928.728 448.18 928.944 448.156 929.232C447.7 930.528 447.352 931.272 447.112 931.464C447.04 931.512 446.872 931.536 446.608 931.536C446.368 931.536 445.708 931.344 444.628 930.96C443.548 930.552 442.624 930.348 441.856 930.348C441.112 930.348 440.488 930.612 439.984 931.14C439.48 931.668 439.228 932.412 439.228 933.372C439.228 934.332 439.66 935.208 440.524 936C441.388 936.768 442.72 937.572 444.52 938.412C446.416 939.396 447.832 940.416 448.768 941.472C449.728 942.528 450.208 943.944 450.208 945.72C450.208 951.624 447.712 954.576 442.72 954.576C439 954.576 436.156 953.508 434.188 951.372ZM477.355 949.644H478.651V931.248H477.571C477.091 931.224 476.767 931.068 476.599 930.78C476.431 930.444 476.347 929.832 476.347 928.944C476.347 927.6 476.743 926.928 477.535 926.928H483.907C484.963 926.928 485.491 927.3 485.491 928.044C485.491 930.18 485.071 931.248 484.231 931.248H483.331L483.691 938.448L483.727 949.644H484.807C485.647 949.668 486.067 950.052 486.067 950.796C486.019 952.932 485.431 954 484.303 954H477.499C477.067 953.976 476.767 953.82 476.599 953.532C476.431 953.196 476.347 952.572 476.347 951.66C476.347 950.316 476.683 949.644 477.355 949.644ZM509.834 949.752C510.434 949.752 510.734 950.136 510.734 950.904C510.734 951.672 510.722 952.248 510.698 952.632C510.602 953.496 510.218 953.988 509.546 954.108C507.41 954.42 505.826 954.576 504.794 954.576C501.218 954.576 498.758 953.568 497.414 951.552C496.07 949.536 495.398 945.9 495.398 940.644C495.398 936.804 495.686 933.876 496.262 931.86C496.862 929.82 497.81 928.392 499.106 927.576C500.426 926.76 502.382 926.352 504.974 926.352C507.59 926.352 509.498 926.76 510.698 927.576C510.938 927.744 511.058 927.948 511.058 928.188C511.058 928.428 510.938 928.884 510.698 929.556C510.482 930.204 510.266 930.672 510.05 930.96C509.858 931.224 509.654 931.356 509.438 931.356C509.222 931.356 509.054 931.344 508.934 931.32C507.134 930.96 505.574 930.78 504.254 930.78C502.958 930.78 502.106 931.5 501.698 932.94C501.314 934.38 501.122 936.72 501.122 939.96C501.122 943.176 501.206 945.42 501.374 946.692C501.542 947.964 501.854 948.852 502.31 949.356C502.766 949.86 503.486 950.112 504.47 950.112C505.478 950.112 506.606 950.052 507.854 949.932C509.126 949.812 509.786 949.752 509.834 949.752ZM520.996 951.372C520.492 950.748 520.24 950.28 520.24 949.968C520.24 949.632 520.516 949.188 521.068 948.636C521.644 948.06 522.016 947.748 522.184 947.7C522.376 947.652 522.556 947.628 522.724 947.628C522.892 947.628 523.168 947.736 523.552 947.952C525.328 949.344 526.888 950.04 528.232 950.04C529.576 950.04 530.452 949.728 530.86 949.104C531.268 948.48 531.472 947.664 531.472 946.656C531.472 945.648 531.112 944.832 530.392 944.208C529.672 943.584 528.484 942.828 526.828 941.94C525.196 941.052 523.768 939.9 522.544 938.484C521.32 937.068 520.708 935.604 520.708 934.092C520.708 931.404 521.404 929.448 522.796 928.224C524.212 926.976 526.276 926.352 528.988 926.352C530.644 926.352 532.264 926.748 533.848 927.54C534.688 927.876 535.084 928.224 535.036 928.584C535.012 928.728 534.988 928.944 534.964 929.232C534.508 930.528 534.16 931.272 533.92 931.464C533.848 931.512 533.68 931.536 533.416 931.536C533.176 931.536 532.516 931.344 531.436 930.96C530.356 930.552 529.432 930.348 528.664 930.348C527.92 930.348 527.296 930.612 526.792 931.14C526.288 931.668 526.036 932.412 526.036 933.372C526.036 934.332 526.468 935.208 527.332 936C528.196 936.768 529.528 937.572 531.328 938.412C533.224 939.396 534.64 940.416 535.576 941.472C536.536 942.528 537.016 943.944 537.016 945.72C537.016 951.624 534.52 954.576 529.528 954.576C525.808 954.576 522.964 953.508 520.996 951.372ZM564.163 949.644H565.459V931.248H564.379C563.899 931.224 563.575 931.068 563.407 930.78C563.239 930.444 563.155 929.832 563.155 928.944C563.155 927.6 563.551 926.928 564.343 926.928H570.715C571.771 926.928 572.299 927.3 572.299 928.044C572.299 930.18 571.879 931.248 571.039 931.248H570.139L570.499 938.448L570.535 949.644H571.615C572.455 949.668 572.875 950.052 572.875 950.796C572.827 952.932 572.239 954 571.111 954H564.307C563.875 953.976 563.575 953.82 563.407 953.532C563.239 953.196 563.155 952.572 563.155 951.66C563.155 950.316 563.491 949.644 564.163 949.644ZM596.642 949.752C597.242 949.752 597.542 950.136 597.542 950.904C597.542 951.672 597.53 952.248 597.506 952.632C597.41 953.496 597.026 953.988 596.354 954.108C594.218 954.42 592.634 954.576 591.602 954.576C588.026 954.576 585.566 953.568 584.222 951.552C582.878 949.536 582.206 945.9 582.206 940.644C582.206 936.804 582.494 933.876 583.07 931.86C583.67 929.82 584.618 928.392 585.914 927.576C587.234 926.76 589.19 926.352 591.782 926.352C594.398 926.352 596.306 926.76 597.506 927.576C597.746 927.744 597.866 927.948 597.866 928.188C597.866 928.428 597.746 928.884 597.506 929.556C597.29 930.204 597.074 930.672 596.858 930.96C596.666 931.224 596.462 931.356 596.246 931.356C596.03 931.356 595.862 931.344 595.742 931.32C593.942 930.96 592.382 930.78 591.062 930.78C589.766 930.78 588.914 931.5 588.506 932.94C588.122 934.38 587.93 936.72 587.93 939.96C587.93 943.176 588.014 945.42 588.182 946.692C588.35 947.964 588.662 948.852 589.118 949.356C589.574 949.86 590.294 950.112 591.278 950.112C592.286 950.112 593.414 950.052 594.662 949.932C595.934 949.812 596.594 949.752 596.642 949.752ZM607.804 951.372C607.3 950.748 607.048 950.28 607.048 949.968C607.048 949.632 607.324 949.188 607.876 948.636C608.452 948.06 608.824 947.748 608.992 947.7C609.184 947.652 609.364 947.628 609.532 947.628C609.7 947.628 609.976 947.736 610.36 947.952C612.136 949.344 613.696 950.04 615.04 950.04C616.384 950.04 617.26 949.728 617.668 949.104C618.076 948.48 618.28 947.664 618.28 946.656C618.28 945.648 617.92 944.832 617.2 944.208C616.48 943.584 615.292 942.828 613.636 941.94C612.004 941.052 610.576 939.9 609.352 938.484C608.128 937.068 607.516 935.604 607.516 934.092C607.516 931.404 608.212 929.448 609.604 928.224C611.02 926.976 613.084 926.352 615.796 926.352C617.452 926.352 619.072 926.748 620.656 927.54C621.496 927.876 621.892 928.224 621.844 928.584C621.82 928.728 621.796 928.944 621.772 929.232C621.316 930.528 620.968 931.272 620.728 931.464C620.656 931.512 620.488 931.536 620.224 931.536C619.984 931.536 619.324 931.344 618.244 930.96C617.164 930.552 616.24 930.348 615.472 930.348C614.728 930.348 614.104 930.612 613.6 931.14C613.096 931.668 612.844 932.412 612.844 933.372C612.844 934.332 613.276 935.208 614.14 936C615.004 936.768 616.336 937.572 618.136 938.412C620.032 939.396 621.448 940.416 622.384 941.472C623.344 942.528 623.824 943.944 623.824 945.72C623.824 951.624 621.328 954.576 616.336 954.576C612.616 954.576 609.772 953.508 607.804 951.372ZM650.971 949.644H652.267V931.248H651.187C650.707 931.224 650.383 931.068 650.215 930.78C650.047 930.444 649.963 929.832 649.963 928.944C649.963 927.6 650.359 926.928 651.151 926.928H657.523C658.579 926.928 659.107 927.3 659.107 928.044C659.107 930.18 658.687 931.248 657.847 931.248H656.947L657.307 938.448L657.343 949.644H658.423C659.263 949.668 659.683 950.052 659.683 950.796C659.635 952.932 659.047 954 657.919 954H651.115C650.683 953.976 650.383 953.82 650.215 953.532C650.047 953.196 649.963 952.572 649.963 951.66C649.963 950.316 650.299 949.644 650.971 949.644ZM683.45 949.752C684.05 949.752 684.35 950.136 684.35 950.904C684.35 951.672 684.338 952.248 684.314 952.632C684.218 953.496 683.834 953.988 683.162 954.108C681.026 954.42 679.442 954.576 678.41 954.576C674.834 954.576 672.374 953.568 671.03 951.552C669.686 949.536 669.014 945.9 669.014 940.644C669.014 936.804 669.302 933.876 669.878 931.86C670.478 929.82 671.426 928.392 672.722 927.576C674.042 926.76 675.998 926.352 678.59 926.352C681.206 926.352 683.114 926.76 684.314 927.576C684.554 927.744 684.674 927.948 684.674 928.188C684.674 928.428 684.554 928.884 684.314 929.556C684.098 930.204 683.882 930.672 683.666 930.96C683.474 931.224 683.27 931.356 683.054 931.356C682.838 931.356 682.67 931.344 682.55 931.32C680.75 930.96 679.19 930.78 677.87 930.78C676.574 930.78 675.722 931.5 675.314 932.94C674.93 934.38 674.738 936.72 674.738 939.96C674.738 943.176 674.822 945.42 674.99 946.692C675.158 947.964 675.47 948.852 675.926 949.356C676.382 949.86 677.102 950.112 678.086 950.112C679.094 950.112 680.222 950.052 681.47 949.932C682.742 949.812 683.402 949.752 683.45 949.752ZM694.612 951.372C694.108 950.748 693.856 950.28 693.856 949.968C693.856 949.632 694.132 949.188 694.684 948.636C695.26 948.06 695.632 947.748 695.8 947.7C695.992 947.652 696.172 947.628 696.34 947.628C696.508 947.628 696.784 947.736 697.168 947.952C698.944 949.344 700.504 950.04 701.848 950.04C703.192 950.04 704.068 949.728 704.476 949.104C704.884 948.48 705.088 947.664 705.088 946.656C705.088 945.648 704.728 944.832 704.008 944.208C703.288 943.584 702.1 942.828 700.444 941.94C698.812 941.052 697.384 939.9 696.16 938.484C694.936 937.068 694.324 935.604 694.324 934.092C694.324 931.404 695.02 929.448 696.412 928.224C697.828 926.976 699.892 926.352 702.604 926.352C704.26 926.352 705.88 926.748 707.464 927.54C708.304 927.876 708.7 928.224 708.652 928.584C708.628 928.728 708.604 928.944 708.58 929.232C708.124 930.528 707.776 931.272 707.536 931.464C707.464 931.512 707.296 931.536 707.032 931.536C706.792 931.536 706.132 931.344 705.052 930.96C703.972 930.552 703.048 930.348 702.28 930.348C701.536 930.348 700.912 930.612 700.408 931.14C699.904 931.668 699.652 932.412 699.652 933.372C699.652 934.332 700.084 935.208 700.948 936C701.812 936.768 703.144 937.572 704.944 938.412C706.84 939.396 708.256 940.416 709.192 941.472C710.152 942.528 710.632 943.944 710.632 945.72C710.632 951.624 708.136 954.576 703.144 954.576C699.424 954.576 696.58 953.508 694.612 951.372ZM737.779 949.644H739.075V931.248H737.995C737.515 931.224 737.191 931.068 737.023 930.78C736.855 930.444 736.771 929.832 736.771 928.944C736.771 927.6 737.167 926.928 737.959 926.928H744.331C745.387 926.928 745.915 927.3 745.915 928.044C745.915 930.18 745.495 931.248 744.655 931.248H743.755L744.115 938.448L744.151 949.644H745.231C746.071 949.668 746.491 950.052 746.491 950.796C746.443 952.932 745.855 954 744.727 954H737.923C737.491 953.976 737.191 953.82 737.023 953.532C736.855 953.196 736.771 952.572 736.771 951.66C736.771 950.316 737.107 949.644 737.779 949.644ZM770.258 949.752C770.858 949.752 771.158 950.136 771.158 950.904C771.158 951.672 771.146 952.248 771.122 952.632C771.026 953.496 770.642 953.988 769.97 954.108C767.834 954.42 766.25 954.576 765.218 954.576C761.642 954.576 759.182 953.568 757.838 951.552C756.494 949.536 755.822 945.9 755.822 940.644C755.822 936.804 756.11 933.876 756.686 931.86C757.286 929.82 758.234 928.392 759.53 927.576C760.85 926.76 762.806 926.352 765.398 926.352C768.014 926.352 769.922 926.76 771.122 927.576C771.362 927.744 771.482 927.948 771.482 928.188C771.482 928.428 771.362 928.884 771.122 929.556C770.906 930.204 770.69 930.672 770.474 930.96C770.282 931.224 770.078 931.356 769.862 931.356C769.646 931.356 769.478 931.344 769.358 931.32C767.558 930.96 765.998 930.78 764.678 930.78C763.382 930.78 762.53 931.5 762.122 932.94C761.738 934.38 761.546 936.72 761.546 939.96C761.546 943.176 761.63 945.42 761.798 946.692C761.966 947.964 762.278 948.852 762.734 949.356C763.19 949.86 763.91 950.112 764.894 950.112C765.902 950.112 767.03 950.052 768.278 949.932C769.55 949.812 770.21 949.752 770.258 949.752ZM781.419 951.372C780.915 950.748 780.663 950.28 780.663 949.968C780.663 949.632 780.939 949.188 781.491 948.636C782.067 948.06 782.439 947.748 782.607 947.7C782.799 947.652 782.979 947.628 783.147 947.628C783.315 947.628 783.591 947.736 783.975 947.952C785.751 949.344 787.311 950.04 788.655 950.04C789.999 950.04 790.875 949.728 791.283 949.104C791.691 948.48 791.895 947.664 791.895 946.656C791.895 945.648 791.535 944.832 790.815 944.208C790.095 943.584 788.907 942.828 787.251 941.94C785.619 941.052 784.191 939.9 782.967 938.484C781.743 937.068 781.131 935.604 781.131 934.092C781.131 931.404 781.827 929.448 783.219 928.224C784.635 926.976 786.699 926.352 789.411 926.352C791.067 926.352 792.687 926.748 794.271 927.54C795.111 927.876 795.507 928.224 795.459 928.584C795.435 928.728 795.411 928.944 795.387 929.232C794.931 930.528 794.583 931.272 794.343 931.464C794.271 931.512 794.103 931.536 793.839 931.536C793.599 931.536 792.939 931.344 791.859 930.96C790.779 930.552 789.855 930.348 789.087 930.348C788.343 930.348 787.719 930.612 787.215 931.14C786.711 931.668 786.459 932.412 786.459 933.372C786.459 934.332 786.891 935.208 787.755 936C788.619 936.768 789.951 937.572 791.751 938.412C793.647 939.396 795.063 940.416 795.999 941.472C796.959 942.528 797.439 943.944 797.439 945.72C797.439 951.624 794.943 954.576 789.951 954.576C786.231 954.576 783.387 953.508 781.419 951.372Z" fill="#140504"/>
</g>
<defs>
<clipPath id="clip0_426_180">
<rect width="939" height="977" fill="white"/>
</clipPath>
</defs>
</svg>
