<svg width="892" height="908" viewBox="0 0 892 908" fill="none" xmlns="http://www.w3.org/2000/svg">
<g clip-path="url(#clip0_426_145)">
<path d="M103.23 179.61C103.37 179.62 103.52 179.64 103.66 179.66C103.87 178.11 104.07 176.56 104.28 175.01C103.95 176.56 103.6 178.09 103.23 179.61Z" fill="black"/>
<path d="M809.6 835.46H734.64C734.71 835.13 751.5 835.78 751.5 835.46V289.92C751.5 289.42 751.5 286 751.5 286C742 295 738.5 295.967 730 296L177.5 289.92C177.76 301.94 168.39 283.78 168.36 295.8C168.36 297.45 167.67 298.69 166.66 299.51V834.35C166.66 834.74 166.66 835.07 166.73 835.46H94.24C89.69 835.46 86 839.15 86 843.7V898.77C86 903.32 89.69 907.01 94.24 907.01H809.6C814.15 907.01 817.84 903.32 817.84 898.77V843.7C817.84 839.15 814.15 835.46 809.6 835.46ZM395.31 363.82C395.31 359.27 393.95 292.352 398.5 292.352L518.88 293.677V415.57C518.88 420.12 515.19 423.81 510.64 423.81H403.55C399 423.81 395.31 420.12 395.31 415.57V363.82ZM562.06 835.45C555.2 835.45 551.34 827.56 555.56 822.15L569.46 804.31C573.68 798.9 569.82 791.01 562.96 791.01H355.23C348.23 791.01 344.42 799.18 348.92 804.55L363.49 821.92C367.99 827.28 364.17 835.46 357.17 835.46L188.47 835.4C188.54 835.07 188.54 834.68 188.54 834.29V289.92C188.54 285.37 194.95 289.92 199.5 289.92L237 290.575C241.55 290.575 238.782 290.594 245.5 290.668L249 290.707C253.5 290.756 256.45 290.839 261 290.839L383.59 292.188V421.42C383.59 429.21 389.9 435.52 397.69 435.52H408.88C413.43 435.52 417.12 439.21 417.12 443.76V463.41C417.12 467.96 420.81 471.65 425.36 471.65H434.34C438.89 471.65 442.58 467.96 442.58 463.41V443.76C442.58 439.21 446.27 435.52 450.82 435.52H463.38C467.93 435.52 471.62 439.21 471.62 443.76V463.41C471.62 467.96 475.31 471.65 479.86 471.65H488.84C493.39 471.65 497.08 467.96 497.08 463.41V443.76C497.08 439.21 500.77 435.52 505.32 435.52H516.44C524.23 435.52 530.54 429.21 530.54 421.42V293.805L621 294.801C625.55 294.801 653 295.153 660 295.23L661.68 295.698C667.5 295.312 675.45 295.45 680 295.45L702.5 295.698C707.05 295.698 724 295.934 730 296V834.5C730 834.83 730 835.14 730 835.46L562.06 835.45Z" fill="black"/>
<path d="M132 264.89C132.12 263.18 132.21 261.46 132.3 259.74H131.25C131.53 261.46 131.78 263.17 132 264.89Z" fill="black"/>
<path d="M650.35 566.01C644.82 560.48 630.81 556.75 622.35 556.75H590.59C586.04 556.75 582.35 553.06 582.35 548.51C582.35 543.82 580.47 538.13 577.35 535.01C574.23 531.95 566.54 531.88 561.85 531.88H342.85C338.1 531.88 336.97 534.45 333.85 537.51C330.79 540.63 330.85 544.52 330.85 548.51V603.01C330.85 673.26 356.63 709.93 402.85 729.01C420.88 736.5 436.98 740.67 456.71 740.54C476.44 740.41 496.69 736.43 514.85 729.01C548.42 715.36 564.89 695.46 577.92 659.01C579.1 655.72 582.2 653.51 585.69 653.51H632.36C642.06 653.51 643.97 651.39 650.35 645.01C656.67 638.63 657.17 632.92 657.17 623.29V587.41C657.17 579.34 657.56 573.54 652.35 568.01C652.15 567.75 650.54 566.21 650.35 566.01ZM560.85 560.5V612.01C560.85 668.98 546.24 691.91 505.35 708.51C489.46 714.96 473.77 718.94 456.71 719.01C439.65 719.14 426.41 714.96 410.85 708.51C371.72 692.36 352.85 668.14 352.85 607.47V560.5C352.85 555.95 356.54 552.26 361.09 552.26H569.09C564.54 552.26 560.85 555.95 560.85 560.5ZM636.72 587.41V623.28C636.72 627.32 635.03 631.33 632.36 634C629.69 636.67 624.89 638.12 620.85 638.12H590.59C586.04 638.12 582.35 634.43 582.35 629.88V585.42C582.35 580.87 586.04 577.18 590.59 577.18H630.06C631.54 577.18 632.99 577.58 634.26 578.33C634.82 578.66 635.3 578.95 635.35 579C637.04 580.83 636.72 584.74 636.72 587.41Z" fill="black"/>
<path fill-rule="evenodd" clip-rule="evenodd" d="M660.92 690.67C660.7 687.16 658.09 684.28 654.45 683.52C652.87 683.13 651.57 682.86 651.57 682.86C651.57 682.86 607.14 673.88 552.55 715.3C530.34 732.15 498.47 744.2 471.93 743.64C468.38 743.55 465.04 745.49 463.47 748.53C461.9 751.58 462.41 755.13 464.77 757.53C483.07 776.22 520.14 800.74 576.68 783.94C627.65 768.78 662.61 728.76 660.92 690.67ZM644.04 698.42C639.6 729.99 611.53 756.13 571.91 767.93C540.44 777.3 510.17 768.1 491.65 756.6C512.35 754.42 538.34 747.26 563.5 728.18C595.55 703.85 629.93 698.86 644.04 698.42Z" fill="black"/>
<path fill-rule="evenodd" clip-rule="evenodd" d="M263.319 693.65C263.489 690.17 266.039 687.27 269.639 686.47C271.199 686.06 272.489 685.78 272.489 685.78C272.489 685.78 316.419 676.28 371.099 716.63C393.339 733.04 425.109 744.57 451.409 743.66C454.929 743.53 458.269 745.4 459.869 748.4C461.469 751.4 461.009 754.93 458.699 757.34C440.799 776.12 404.359 800.92 348.079 785.01C297.349 770.66 262.149 731.45 263.319 693.65ZM280.159 701.11C284.979 732.36 313.159 757.91 352.599 769.08C383.929 777.96 413.819 768.43 432.039 756.78C411.479 754.9 385.619 748.14 360.419 729.55C328.319 705.86 294.159 701.36 280.159 701.11Z" fill="black"/>
<path d="M599.85 820.51H310.85V835.51H599.85V820.51Z" fill="#F5F5F5"/>
<path d="M116.58 880.03C117.21 880.03 117.53 880.44 117.53 881.25C117.53 882.06 117.52 882.67 117.49 883.07C117.39 883.98 116.98 884.5 116.27 884.63C114.02 884.96 112.34 885.12 111.25 885.12C107.48 885.12 104.88 884.06 103.46 881.93C102.04 879.8 101.33 875.96 101.33 870.42C101.33 866.37 101.63 863.28 102.24 861.15C102.87 859 103.87 857.49 105.24 856.63C106.63 855.77 108.7 855.34 111.43 855.34C114.19 855.34 116.21 855.77 117.47 856.63C117.72 856.81 117.85 857.02 117.85 857.28C117.85 857.53 117.72 858.01 117.47 858.72C117.24 859.4 117.01 859.9 116.79 860.2C116.59 860.48 116.37 860.62 116.14 860.62C115.91 860.62 115.73 860.61 115.61 860.58C113.71 860.2 112.06 860.01 110.67 860.01C109.3 860.01 108.4 860.77 107.97 862.29C107.56 863.81 107.36 866.28 107.36 869.7C107.36 873.1 107.45 875.46 107.63 876.81C107.81 878.15 108.14 879.09 108.62 879.62C109.1 880.15 109.86 880.42 110.9 880.42C111.96 880.42 113.15 880.36 114.47 880.23C115.83 880.09 116.53 880.03 116.58 880.03Z" fill="black"/>
<path d="M586.18 367H678.18C689.23 367 698.18 372.46 698.18 383.51V396.51C698.18 407.56 689.23 412 678.18 412H586.18C575.13 412 566.18 407.56 566.18 396.51V383.51C566.18 372.46 575.13 367 586.18 367Z" fill="black"/>
<path d="M607.18 382.51H530.18V398.51H607.18V382.51Z" fill="black"/>
<path d="M892 238H28V354H892V238Z" fill="#F5F5F5"/>
<path d="M751.5 318H730V799H751.5V318Z" fill="black"/>
<path d="M189 322H166V837H189V322Z" fill="black"/>
<path d="M888.777 292.881C887.688 288.263 882.792 284.692 876.634 284.029L723.452 265.5C723.728 264.27 781.893 273.92 735.602 266.97V236.117C735.602 227.187 724.876 220.206 714.845 216.592L669.788 42.6004C667.228 30.3631 623.702 15.6025 610.309 8.43367C596.917 1.2634 580.642 -1.46565 564.487 0.752061L444.501 17.2104L324.515 0.752061C308.354 -1.4671 292.085 1.2634 278.692 8.43367C265.3 15.6039 231.049 26.2913 228.49 38.5286L193.393 216.592C183.362 220.206 174.155 227.187 174.155 236.117V270C171.117 269.5 168.586 270 164.536 270L12.3658 284.029C6.20809 284.692 1.3138 288.263 0.223195 292.881C-0.86549 297.5 2.09911 302.124 7.57518 304.349C12.3658 306.294 128.513 352 444.501 352C760.489 352 876.636 306.294 881.427 304.349C886.901 302.124 889.865 297.5 888.777 292.881ZM229.45 260.742C228.92 260.742 220.225 261.5 218.706 260V236.117C218.706 235.717 228.92 236.117 229.45 236.117H659.548C660.078 236.117 698.138 236.5 688.013 236.117V260.742C688.013 261.142 674.368 260.742 673.838 260.742H229.45ZM250.601 41.9167C251.943 35.5069 288.345 29.9083 295.361 26.1522C302.375 22.3976 310.898 20.9665 319.362 22.1282L441.607 38.8965C460.985 42.1021 466.776 38.8965 476.901 37C479.443 38.3761 481.588 35.5 484.495 35.5C488.978 35.5 481.457 36.3502 488.039 34.5C492.676 29.6242 492.089 31.3267 487.026 34.7968C483.482 30.2968 508.796 31 493.555 32.5649L569.64 22.1282C578.102 20.9693 586.627 22.3976 593.641 26.1522C600.657 29.9083 641.613 36.1906 642.956 42.6004L688.013 216.592H217.187L250.601 41.9167ZM444.499 330.272C251.237 330.272 134.03 312.605 73.4147 299.398L230.475 282.47H658.523L815.883 299.43C755.579 312.636 638.679 330.272 444.499 330.272Z" fill="black"/>
<path d="M348.552 164.512H353.16V99.104H349.32C347.613 99.0187 346.461 98.464 345.864 97.44C345.267 96.2453 344.968 94.0693 344.968 90.912C344.968 86.1333 346.376 83.744 349.192 83.744H371.848C375.603 83.744 377.48 85.0667 377.48 87.712C377.48 95.3067 375.987 99.104 373 99.104H369.8L371.08 124.704L371.208 164.512H375.048C378.035 164.597 379.528 165.963 379.528 168.608C379.357 176.203 377.267 180 373.256 180H349.064C347.528 179.915 346.461 179.36 345.864 178.336C345.267 177.141 344.968 174.923 344.968 171.68C344.968 166.901 346.163 164.512 348.552 164.512ZM464.033 164.896C466.166 164.896 467.233 166.261 467.233 168.992C467.233 171.723 467.19 173.771 467.105 175.136C466.764 178.208 465.398 179.957 463.009 180.384C455.414 181.493 449.782 182.048 446.113 182.048C433.398 182.048 424.652 178.464 419.873 171.296C415.094 164.128 412.705 151.2 412.705 132.512C412.705 118.859 413.729 108.448 415.777 101.28C417.91 94.0267 421.281 88.9493 425.889 86.048C430.582 83.1467 437.537 81.696 446.753 81.696C456.054 81.696 462.838 83.1467 467.105 86.048C467.958 86.6453 468.385 87.3707 468.385 88.224C468.385 89.0773 467.958 90.6987 467.105 93.088C466.337 95.392 465.569 97.056 464.801 98.08C464.118 99.0187 463.393 99.488 462.625 99.488C461.857 99.488 461.26 99.4453 460.833 99.36C454.433 98.08 448.886 97.44 444.193 97.44C439.585 97.44 436.556 100 435.105 105.12C433.74 110.24 433.057 118.56 433.057 130.08C433.057 141.515 433.356 149.493 433.953 154.016C434.55 158.539 435.66 161.696 437.281 163.488C438.902 165.28 441.462 166.176 444.961 166.176C448.545 166.176 452.556 165.963 456.993 165.536C461.516 165.109 463.862 164.896 464.033 164.896ZM503.719 170.656C501.927 168.437 501.031 166.773 501.031 165.664C501.031 164.469 502.012 162.891 503.975 160.928C506.023 158.88 507.346 157.771 507.943 157.6C508.626 157.429 509.266 157.344 509.863 157.344C510.46 157.344 511.442 157.728 512.807 158.496C519.122 163.445 524.668 165.92 529.447 165.92C534.226 165.92 537.34 164.811 538.791 162.592C540.242 160.373 540.967 157.472 540.967 153.888C540.967 150.304 539.687 147.403 537.127 145.184C534.567 142.965 530.343 140.277 524.455 137.12C518.652 133.963 513.575 129.867 509.223 124.832C504.871 119.797 502.695 114.592 502.695 109.216C502.695 99.6587 505.17 92.704 510.119 88.352C515.154 83.9147 522.492 81.696 532.135 81.696C538.023 81.696 543.783 83.104 549.415 85.92C552.402 87.1147 553.81 88.352 553.639 89.632C553.554 90.144 553.468 90.912 553.383 91.936C551.762 96.544 550.524 99.1893 549.671 99.872C549.415 100.043 548.818 100.128 547.879 100.128C547.026 100.128 544.679 99.4453 540.839 98.08C536.999 96.6293 533.714 95.904 530.983 95.904C528.338 95.904 526.119 96.8427 524.327 98.72C522.535 100.597 521.639 103.243 521.639 106.656C521.639 110.069 523.175 113.184 526.247 116C529.319 118.731 534.055 121.589 540.455 124.576C547.196 128.075 552.231 131.701 555.559 135.456C558.972 139.211 560.679 144.245 560.679 150.56C560.679 171.552 551.804 182.048 534.055 182.048C520.828 182.048 510.716 178.251 503.719 170.656Z" fill="#322214"/>
<path d="M119.124 881.644H120.42V863.248H119.34C118.86 863.224 118.536 863.068 118.368 862.78C118.2 862.444 118.116 861.832 118.116 860.944C118.116 859.6 118.512 858.928 119.304 858.928H125.676C126.732 858.928 127.26 859.3 127.26 860.044C127.26 862.18 126.84 863.248 126 863.248H125.1L125.46 870.448L125.496 881.644H126.576C127.416 881.668 127.836 882.052 127.836 882.796C127.788 884.932 127.2 886 126.072 886H119.268C118.836 885.976 118.536 885.82 118.368 885.532C118.2 885.196 118.116 884.572 118.116 883.66C118.116 882.316 118.452 881.644 119.124 881.644ZM151.603 881.752C152.203 881.752 152.503 882.136 152.503 882.904C152.503 883.672 152.491 884.248 152.467 884.632C152.371 885.496 151.987 885.988 151.315 886.108C149.179 886.42 147.595 886.576 146.563 886.576C142.987 886.576 140.527 885.568 139.183 883.552C137.839 881.536 137.167 877.9 137.167 872.644C137.167 868.804 137.455 865.876 138.031 863.86C138.631 861.82 139.579 860.392 140.875 859.576C142.195 858.76 144.151 858.352 146.743 858.352C149.359 858.352 151.267 858.76 152.467 859.576C152.707 859.744 152.827 859.948 152.827 860.188C152.827 860.428 152.707 860.884 152.467 861.556C152.251 862.204 152.035 862.672 151.819 862.96C151.627 863.224 151.423 863.356 151.207 863.356C150.991 863.356 150.823 863.344 150.703 863.32C148.903 862.96 147.343 862.78 146.023 862.78C144.727 862.78 143.875 863.5 143.467 864.94C143.083 866.38 142.891 868.72 142.891 871.96C142.891 875.176 142.975 877.42 143.143 878.692C143.311 879.964 143.623 880.852 144.079 881.356C144.535 881.86 145.255 882.112 146.239 882.112C147.247 882.112 148.375 882.052 149.623 881.932C150.895 881.812 151.555 881.752 151.603 881.752ZM162.765 883.372C162.261 882.748 162.009 882.28 162.009 881.968C162.009 881.632 162.285 881.188 162.837 880.636C163.413 880.06 163.785 879.748 163.953 879.7C164.145 879.652 164.325 879.628 164.493 879.628C164.661 879.628 164.937 879.736 165.321 879.952C167.097 881.344 168.657 882.04 170.001 882.04C171.345 882.04 172.221 881.728 172.629 881.104C173.037 880.48 173.241 879.664 173.241 878.656C173.241 877.648 172.881 876.832 172.161 876.208C171.441 875.584 170.253 874.828 168.597 873.94C166.965 873.052 165.537 871.9 164.313 870.484C163.089 869.068 162.477 867.604 162.477 866.092C162.477 863.404 163.173 861.448 164.565 860.224C165.981 858.976 168.045 858.352 170.757 858.352C172.413 858.352 174.033 858.748 175.617 859.54C176.457 859.876 176.853 860.224 176.805 860.584C176.781 860.728 176.757 860.944 176.733 861.232C176.277 862.528 175.929 863.272 175.689 863.464C175.617 863.512 175.449 863.536 175.185 863.536C174.945 863.536 174.285 863.344 173.205 862.96C172.125 862.552 171.201 862.348 170.433 862.348C169.689 862.348 169.065 862.612 168.561 863.14C168.057 863.668 167.805 864.412 167.805 865.372C167.805 866.332 168.237 867.208 169.101 868C169.965 868.768 171.297 869.572 173.097 870.412C174.993 871.396 176.409 872.416 177.345 873.472C178.305 874.528 178.785 875.944 178.785 877.72C178.785 883.624 176.289 886.576 171.297 886.576C167.577 886.576 164.733 885.508 162.765 883.372ZM205.932 881.644H207.228V863.248H206.148C205.668 863.224 205.344 863.068 205.176 862.78C205.008 862.444 204.924 861.832 204.924 860.944C204.924 859.6 205.32 858.928 206.112 858.928H212.484C213.54 858.928 214.068 859.3 214.068 860.044C214.068 862.18 213.648 863.248 212.808 863.248H211.908L212.268 870.448L212.304 881.644H213.384C214.224 881.668 214.644 882.052 214.644 882.796C214.596 884.932 214.008 886 212.88 886H206.076C205.644 885.976 205.344 885.82 205.176 885.532C205.008 885.196 204.924 884.572 204.924 883.66C204.924 882.316 205.26 881.644 205.932 881.644ZM238.411 881.752C239.011 881.752 239.311 882.136 239.311 882.904C239.311 883.672 239.299 884.248 239.275 884.632C239.179 885.496 238.795 885.988 238.123 886.108C235.987 886.42 234.403 886.576 233.371 886.576C229.795 886.576 227.335 885.568 225.991 883.552C224.647 881.536 223.975 877.9 223.975 872.644C223.975 868.804 224.263 865.876 224.839 863.86C225.439 861.82 226.387 860.392 227.683 859.576C229.003 858.76 230.959 858.352 233.551 858.352C236.167 858.352 238.075 858.76 239.275 859.576C239.515 859.744 239.635 859.948 239.635 860.188C239.635 860.428 239.515 860.884 239.275 861.556C239.059 862.204 238.843 862.672 238.627 862.96C238.435 863.224 238.231 863.356 238.015 863.356C237.799 863.356 237.631 863.344 237.511 863.32C235.711 862.96 234.151 862.78 232.831 862.78C231.535 862.78 230.683 863.5 230.275 864.94C229.891 866.38 229.699 868.72 229.699 871.96C229.699 875.176 229.783 877.42 229.951 878.692C230.119 879.964 230.431 880.852 230.887 881.356C231.343 881.86 232.063 882.112 233.047 882.112C234.055 882.112 235.183 882.052 236.431 881.932C237.703 881.812 238.363 881.752 238.411 881.752ZM249.573 883.372C249.069 882.748 248.817 882.28 248.817 881.968C248.817 881.632 249.093 881.188 249.645 880.636C250.221 880.06 250.593 879.748 250.761 879.7C250.953 879.652 251.133 879.628 251.301 879.628C251.469 879.628 251.745 879.736 252.129 879.952C253.905 881.344 255.465 882.04 256.809 882.04C258.153 882.04 259.029 881.728 259.437 881.104C259.845 880.48 260.049 879.664 260.049 878.656C260.049 877.648 259.689 876.832 258.969 876.208C258.249 875.584 257.061 874.828 255.405 873.94C253.773 873.052 252.345 871.9 251.121 870.484C249.897 869.068 249.285 867.604 249.285 866.092C249.285 863.404 249.981 861.448 251.373 860.224C252.789 858.976 254.853 858.352 257.565 858.352C259.221 858.352 260.841 858.748 262.425 859.54C263.265 859.876 263.661 860.224 263.613 860.584C263.589 860.728 263.565 860.944 263.541 861.232C263.085 862.528 262.737 863.272 262.497 863.464C262.425 863.512 262.257 863.536 261.993 863.536C261.753 863.536 261.093 863.344 260.013 862.96C258.933 862.552 258.009 862.348 257.241 862.348C256.497 862.348 255.873 862.612 255.369 863.14C254.865 863.668 254.613 864.412 254.613 865.372C254.613 866.332 255.045 867.208 255.909 868C256.773 868.768 258.105 869.572 259.905 870.412C261.801 871.396 263.217 872.416 264.153 873.472C265.113 874.528 265.593 875.944 265.593 877.72C265.593 883.624 263.097 886.576 258.105 886.576C254.385 886.576 251.541 885.508 249.573 883.372ZM292.74 881.644H294.036V863.248H292.956C292.476 863.224 292.152 863.068 291.984 862.78C291.816 862.444 291.732 861.832 291.732 860.944C291.732 859.6 292.128 858.928 292.92 858.928H299.292C300.348 858.928 300.876 859.3 300.876 860.044C300.876 862.18 300.456 863.248 299.616 863.248H298.716L299.076 870.448L299.112 881.644H300.192C301.032 881.668 301.452 882.052 301.452 882.796C301.404 884.932 300.816 886 299.688 886H292.884C292.452 885.976 292.152 885.82 291.984 885.532C291.816 885.196 291.732 884.572 291.732 883.66C291.732 882.316 292.068 881.644 292.74 881.644ZM325.219 881.752C325.819 881.752 326.119 882.136 326.119 882.904C326.119 883.672 326.107 884.248 326.083 884.632C325.987 885.496 325.603 885.988 324.931 886.108C322.795 886.42 321.211 886.576 320.179 886.576C316.603 886.576 314.143 885.568 312.799 883.552C311.455 881.536 310.783 877.9 310.783 872.644C310.783 868.804 311.071 865.876 311.647 863.86C312.247 861.82 313.195 860.392 314.491 859.576C315.811 858.76 317.767 858.352 320.359 858.352C322.975 858.352 324.883 858.76 326.083 859.576C326.323 859.744 326.443 859.948 326.443 860.188C326.443 860.428 326.323 860.884 326.083 861.556C325.867 862.204 325.651 862.672 325.435 862.96C325.243 863.224 325.039 863.356 324.823 863.356C324.607 863.356 324.439 863.344 324.319 863.32C322.519 862.96 320.959 862.78 319.639 862.78C318.343 862.78 317.491 863.5 317.083 864.94C316.699 866.38 316.507 868.72 316.507 871.96C316.507 875.176 316.591 877.42 316.759 878.692C316.927 879.964 317.239 880.852 317.695 881.356C318.151 881.86 318.871 882.112 319.855 882.112C320.863 882.112 321.991 882.052 323.239 881.932C324.511 881.812 325.171 881.752 325.219 881.752ZM336.38 883.372C335.876 882.748 335.624 882.28 335.624 881.968C335.624 881.632 335.9 881.188 336.452 880.636C337.028 880.06 337.4 879.748 337.568 879.7C337.76 879.652 337.94 879.628 338.108 879.628C338.276 879.628 338.552 879.736 338.936 879.952C340.712 881.344 342.272 882.04 343.616 882.04C344.96 882.04 345.836 881.728 346.244 881.104C346.652 880.48 346.856 879.664 346.856 878.656C346.856 877.648 346.496 876.832 345.776 876.208C345.056 875.584 343.868 874.828 342.212 873.94C340.58 873.052 339.152 871.9 337.928 870.484C336.704 869.068 336.092 867.604 336.092 866.092C336.092 863.404 336.788 861.448 338.18 860.224C339.596 858.976 341.66 858.352 344.372 858.352C346.028 858.352 347.648 858.748 349.232 859.54C350.072 859.876 350.468 860.224 350.42 860.584C350.396 860.728 350.372 860.944 350.348 861.232C349.892 862.528 349.544 863.272 349.304 863.464C349.232 863.512 349.064 863.536 348.8 863.536C348.56 863.536 347.9 863.344 346.82 862.96C345.74 862.552 344.816 862.348 344.048 862.348C343.304 862.348 342.68 862.612 342.176 863.14C341.672 863.668 341.42 864.412 341.42 865.372C341.42 866.332 341.852 867.208 342.716 868C343.58 868.768 344.912 869.572 346.712 870.412C348.608 871.396 350.024 872.416 350.96 873.472C351.92 874.528 352.4 875.944 352.4 877.72C352.4 883.624 349.904 886.576 344.912 886.576C341.192 886.576 338.348 885.508 336.38 883.372ZM379.547 881.644H380.843V863.248H379.763C379.283 863.224 378.959 863.068 378.791 862.78C378.623 862.444 378.539 861.832 378.539 860.944C378.539 859.6 378.935 858.928 379.727 858.928H386.099C387.155 858.928 387.683 859.3 387.683 860.044C387.683 862.18 387.263 863.248 386.423 863.248H385.523L385.883 870.448L385.919 881.644H386.999C387.839 881.668 388.259 882.052 388.259 882.796C388.211 884.932 387.623 886 386.495 886H379.691C379.259 885.976 378.959 885.82 378.791 885.532C378.623 885.196 378.539 884.572 378.539 883.66C378.539 882.316 378.875 881.644 379.547 881.644ZM412.026 881.752C412.626 881.752 412.926 882.136 412.926 882.904C412.926 883.672 412.914 884.248 412.89 884.632C412.794 885.496 412.41 885.988 411.738 886.108C409.602 886.42 408.018 886.576 406.986 886.576C403.41 886.576 400.95 885.568 399.606 883.552C398.262 881.536 397.59 877.9 397.59 872.644C397.59 868.804 397.878 865.876 398.454 863.86C399.054 861.82 400.002 860.392 401.298 859.576C402.618 858.76 404.574 858.352 407.166 858.352C409.782 858.352 411.69 858.76 412.89 859.576C413.13 859.744 413.25 859.948 413.25 860.188C413.25 860.428 413.13 860.884 412.89 861.556C412.674 862.204 412.458 862.672 412.242 862.96C412.05 863.224 411.846 863.356 411.63 863.356C411.414 863.356 411.246 863.344 411.126 863.32C409.326 862.96 407.766 862.78 406.446 862.78C405.15 862.78 404.298 863.5 403.89 864.94C403.506 866.38 403.314 868.72 403.314 871.96C403.314 875.176 403.398 877.42 403.566 878.692C403.734 879.964 404.046 880.852 404.502 881.356C404.958 881.86 405.678 882.112 406.662 882.112C407.67 882.112 408.798 882.052 410.046 881.932C411.318 881.812 411.978 881.752 412.026 881.752ZM423.188 883.372C422.684 882.748 422.432 882.28 422.432 881.968C422.432 881.632 422.708 881.188 423.26 880.636C423.836 880.06 424.208 879.748 424.376 879.7C424.568 879.652 424.748 879.628 424.916 879.628C425.084 879.628 425.36 879.736 425.744 879.952C427.52 881.344 429.08 882.04 430.424 882.04C431.768 882.04 432.644 881.728 433.052 881.104C433.46 880.48 433.664 879.664 433.664 878.656C433.664 877.648 433.304 876.832 432.584 876.208C431.864 875.584 430.676 874.828 429.02 873.94C427.388 873.052 425.96 871.9 424.736 870.484C423.512 869.068 422.9 867.604 422.9 866.092C422.9 863.404 423.596 861.448 424.988 860.224C426.404 858.976 428.468 858.352 431.18 858.352C432.836 858.352 434.456 858.748 436.04 859.54C436.88 859.876 437.276 860.224 437.228 860.584C437.204 860.728 437.18 860.944 437.156 861.232C436.7 862.528 436.352 863.272 436.112 863.464C436.04 863.512 435.872 863.536 435.608 863.536C435.368 863.536 434.708 863.344 433.628 862.96C432.548 862.552 431.624 862.348 430.856 862.348C430.112 862.348 429.488 862.612 428.984 863.14C428.48 863.668 428.228 864.412 428.228 865.372C428.228 866.332 428.66 867.208 429.524 868C430.388 868.768 431.72 869.572 433.52 870.412C435.416 871.396 436.832 872.416 437.768 873.472C438.728 874.528 439.208 875.944 439.208 877.72C439.208 883.624 436.712 886.576 431.72 886.576C428 886.576 425.156 885.508 423.188 883.372ZM466.355 881.644H467.651V863.248H466.571C466.091 863.224 465.767 863.068 465.599 862.78C465.431 862.444 465.347 861.832 465.347 860.944C465.347 859.6 465.743 858.928 466.535 858.928H472.907C473.963 858.928 474.491 859.3 474.491 860.044C474.491 862.18 474.071 863.248 473.231 863.248H472.331L472.691 870.448L472.727 881.644H473.807C474.647 881.668 475.067 882.052 475.067 882.796C475.019 884.932 474.431 886 473.303 886H466.499C466.067 885.976 465.767 885.82 465.599 885.532C465.431 885.196 465.347 884.572 465.347 883.66C465.347 882.316 465.683 881.644 466.355 881.644ZM498.834 881.752C499.434 881.752 499.734 882.136 499.734 882.904C499.734 883.672 499.722 884.248 499.698 884.632C499.602 885.496 499.218 885.988 498.546 886.108C496.41 886.42 494.826 886.576 493.794 886.576C490.218 886.576 487.758 885.568 486.414 883.552C485.07 881.536 484.398 877.9 484.398 872.644C484.398 868.804 484.686 865.876 485.262 863.86C485.862 861.82 486.81 860.392 488.106 859.576C489.426 858.76 491.382 858.352 493.974 858.352C496.59 858.352 498.498 858.76 499.698 859.576C499.938 859.744 500.058 859.948 500.058 860.188C500.058 860.428 499.938 860.884 499.698 861.556C499.482 862.204 499.266 862.672 499.05 862.96C498.858 863.224 498.654 863.356 498.438 863.356C498.222 863.356 498.054 863.344 497.934 863.32C496.134 862.96 494.574 862.78 493.254 862.78C491.958 862.78 491.106 863.5 490.698 864.94C490.314 866.38 490.122 868.72 490.122 871.96C490.122 875.176 490.206 877.42 490.374 878.692C490.542 879.964 490.854 880.852 491.31 881.356C491.766 881.86 492.486 882.112 493.47 882.112C494.478 882.112 495.606 882.052 496.854 881.932C498.126 881.812 498.786 881.752 498.834 881.752ZM509.996 883.372C509.492 882.748 509.24 882.28 509.24 881.968C509.24 881.632 509.516 881.188 510.068 880.636C510.644 880.06 511.016 879.748 511.184 879.7C511.376 879.652 511.556 879.628 511.724 879.628C511.892 879.628 512.168 879.736 512.552 879.952C514.328 881.344 515.888 882.04 517.232 882.04C518.576 882.04 519.452 881.728 519.86 881.104C520.268 880.48 520.472 879.664 520.472 878.656C520.472 877.648 520.112 876.832 519.392 876.208C518.672 875.584 517.484 874.828 515.828 873.94C514.196 873.052 512.768 871.9 511.544 870.484C510.32 869.068 509.708 867.604 509.708 866.092C509.708 863.404 510.404 861.448 511.796 860.224C513.212 858.976 515.276 858.352 517.988 858.352C519.644 858.352 521.264 858.748 522.848 859.54C523.688 859.876 524.084 860.224 524.036 860.584C524.012 860.728 523.988 860.944 523.964 861.232C523.508 862.528 523.16 863.272 522.92 863.464C522.848 863.512 522.68 863.536 522.416 863.536C522.176 863.536 521.516 863.344 520.436 862.96C519.356 862.552 518.432 862.348 517.664 862.348C516.92 862.348 516.296 862.612 515.792 863.14C515.288 863.668 515.036 864.412 515.036 865.372C515.036 866.332 515.468 867.208 516.332 868C517.196 868.768 518.528 869.572 520.328 870.412C522.224 871.396 523.64 872.416 524.576 873.472C525.536 874.528 526.016 875.944 526.016 877.72C526.016 883.624 523.52 886.576 518.528 886.576C514.808 886.576 511.964 885.508 509.996 883.372ZM553.163 881.644H554.459V863.248H553.379C552.899 863.224 552.575 863.068 552.407 862.78C552.239 862.444 552.155 861.832 552.155 860.944C552.155 859.6 552.551 858.928 553.343 858.928H559.715C560.771 858.928 561.299 859.3 561.299 860.044C561.299 862.18 560.879 863.248 560.039 863.248H559.139L559.499 870.448L559.535 881.644H560.615C561.455 881.668 561.875 882.052 561.875 882.796C561.827 884.932 561.239 886 560.111 886H553.307C552.875 885.976 552.575 885.82 552.407 885.532C552.239 885.196 552.155 884.572 552.155 883.66C552.155 882.316 552.491 881.644 553.163 881.644ZM585.642 881.752C586.242 881.752 586.542 882.136 586.542 882.904C586.542 883.672 586.53 884.248 586.506 884.632C586.41 885.496 586.026 885.988 585.354 886.108C583.218 886.42 581.634 886.576 580.602 886.576C577.026 886.576 574.566 885.568 573.222 883.552C571.878 881.536 571.206 877.9 571.206 872.644C571.206 868.804 571.494 865.876 572.07 863.86C572.67 861.82 573.618 860.392 574.914 859.576C576.234 858.76 578.19 858.352 580.782 858.352C583.398 858.352 585.306 858.76 586.506 859.576C586.746 859.744 586.866 859.948 586.866 860.188C586.866 860.428 586.746 860.884 586.506 861.556C586.29 862.204 586.074 862.672 585.858 862.96C585.666 863.224 585.462 863.356 585.246 863.356C585.03 863.356 584.862 863.344 584.742 863.32C582.942 862.96 581.382 862.78 580.062 862.78C578.766 862.78 577.914 863.5 577.506 864.94C577.122 866.38 576.93 868.72 576.93 871.96C576.93 875.176 577.014 877.42 577.182 878.692C577.35 879.964 577.662 880.852 578.118 881.356C578.574 881.86 579.294 882.112 580.278 882.112C581.286 882.112 582.414 882.052 583.662 881.932C584.934 881.812 585.594 881.752 585.642 881.752ZM596.804 883.372C596.3 882.748 596.048 882.28 596.048 881.968C596.048 881.632 596.324 881.188 596.876 880.636C597.452 880.06 597.824 879.748 597.992 879.7C598.184 879.652 598.364 879.628 598.532 879.628C598.7 879.628 598.976 879.736 599.36 879.952C601.136 881.344 602.696 882.04 604.04 882.04C605.384 882.04 606.26 881.728 606.668 881.104C607.076 880.48 607.28 879.664 607.28 878.656C607.28 877.648 606.92 876.832 606.2 876.208C605.48 875.584 604.292 874.828 602.636 873.94C601.004 873.052 599.576 871.9 598.352 870.484C597.128 869.068 596.516 867.604 596.516 866.092C596.516 863.404 597.212 861.448 598.604 860.224C600.02 858.976 602.084 858.352 604.796 858.352C606.452 858.352 608.072 858.748 609.656 859.54C610.496 859.876 610.892 860.224 610.844 860.584C610.82 860.728 610.796 860.944 610.772 861.232C610.316 862.528 609.968 863.272 609.728 863.464C609.656 863.512 609.488 863.536 609.224 863.536C608.984 863.536 608.324 863.344 607.244 862.96C606.164 862.552 605.24 862.348 604.472 862.348C603.728 862.348 603.104 862.612 602.6 863.14C602.096 863.668 601.844 864.412 601.844 865.372C601.844 866.332 602.276 867.208 603.14 868C604.004 868.768 605.336 869.572 607.136 870.412C609.032 871.396 610.448 872.416 611.384 873.472C612.344 874.528 612.824 875.944 612.824 877.72C612.824 883.624 610.328 886.576 605.336 886.576C601.616 886.576 598.772 885.508 596.804 883.372ZM639.971 881.644H641.267V863.248H640.187C639.707 863.224 639.383 863.068 639.215 862.78C639.047 862.444 638.963 861.832 638.963 860.944C638.963 859.6 639.359 858.928 640.151 858.928H646.523C647.579 858.928 648.107 859.3 648.107 860.044C648.107 862.18 647.687 863.248 646.847 863.248H645.947L646.307 870.448L646.343 881.644H647.423C648.263 881.668 648.683 882.052 648.683 882.796C648.635 884.932 648.047 886 646.919 886H640.115C639.683 885.976 639.383 885.82 639.215 885.532C639.047 885.196 638.963 884.572 638.963 883.66C638.963 882.316 639.299 881.644 639.971 881.644ZM672.45 881.752C673.05 881.752 673.35 882.136 673.35 882.904C673.35 883.672 673.338 884.248 673.314 884.632C673.218 885.496 672.834 885.988 672.162 886.108C670.026 886.42 668.442 886.576 667.41 886.576C663.834 886.576 661.374 885.568 660.03 883.552C658.686 881.536 658.014 877.9 658.014 872.644C658.014 868.804 658.302 865.876 658.878 863.86C659.478 861.82 660.426 860.392 661.722 859.576C663.042 858.76 664.998 858.352 667.59 858.352C670.206 858.352 672.114 858.76 673.314 859.576C673.554 859.744 673.674 859.948 673.674 860.188C673.674 860.428 673.554 860.884 673.314 861.556C673.098 862.204 672.882 862.672 672.666 862.96C672.474 863.224 672.27 863.356 672.054 863.356C671.838 863.356 671.67 863.344 671.55 863.32C669.75 862.96 668.19 862.78 666.87 862.78C665.574 862.78 664.722 863.5 664.314 864.94C663.93 866.38 663.738 868.72 663.738 871.96C663.738 875.176 663.822 877.42 663.99 878.692C664.158 879.964 664.47 880.852 664.926 881.356C665.382 881.86 666.102 882.112 667.086 882.112C668.094 882.112 669.222 882.052 670.47 881.932C671.742 881.812 672.402 881.752 672.45 881.752ZM683.612 883.372C683.108 882.748 682.856 882.28 682.856 881.968C682.856 881.632 683.132 881.188 683.684 880.636C684.26 880.06 684.632 879.748 684.8 879.7C684.992 879.652 685.172 879.628 685.34 879.628C685.508 879.628 685.784 879.736 686.168 879.952C687.944 881.344 689.504 882.04 690.848 882.04C692.192 882.04 693.068 881.728 693.476 881.104C693.884 880.48 694.088 879.664 694.088 878.656C694.088 877.648 693.728 876.832 693.008 876.208C692.288 875.584 691.1 874.828 689.444 873.94C687.812 873.052 686.384 871.9 685.16 870.484C683.936 869.068 683.324 867.604 683.324 866.092C683.324 863.404 684.02 861.448 685.412 860.224C686.828 858.976 688.892 858.352 691.604 858.352C693.26 858.352 694.88 858.748 696.464 859.54C697.304 859.876 697.7 860.224 697.652 860.584C697.628 860.728 697.604 860.944 697.58 861.232C697.124 862.528 696.776 863.272 696.536 863.464C696.464 863.512 696.296 863.536 696.032 863.536C695.792 863.536 695.132 863.344 694.052 862.96C692.972 862.552 692.048 862.348 691.28 862.348C690.536 862.348 689.912 862.612 689.408 863.14C688.904 863.668 688.652 864.412 688.652 865.372C688.652 866.332 689.084 867.208 689.948 868C690.812 868.768 692.144 869.572 693.944 870.412C695.84 871.396 697.256 872.416 698.192 873.472C699.152 874.528 699.632 875.944 699.632 877.72C699.632 883.624 697.136 886.576 692.144 886.576C688.424 886.576 685.58 885.508 683.612 883.372ZM726.779 881.644H728.075V863.248H726.995C726.515 863.224 726.191 863.068 726.023 862.78C725.855 862.444 725.771 861.832 725.771 860.944C725.771 859.6 726.167 858.928 726.959 858.928H733.331C734.387 858.928 734.915 859.3 734.915 860.044C734.915 862.18 734.495 863.248 733.655 863.248H732.755L733.115 870.448L733.151 881.644H734.231C735.071 881.668 735.491 882.052 735.491 882.796C735.443 884.932 734.855 886 733.727 886H726.923C726.491 885.976 726.191 885.82 726.023 885.532C725.855 885.196 725.771 884.572 725.771 883.66C725.771 882.316 726.107 881.644 726.779 881.644ZM759.258 881.752C759.858 881.752 760.158 882.136 760.158 882.904C760.158 883.672 760.146 884.248 760.122 884.632C760.026 885.496 759.642 885.988 758.97 886.108C756.834 886.42 755.25 886.576 754.218 886.576C750.642 886.576 748.182 885.568 746.838 883.552C745.494 881.536 744.822 877.9 744.822 872.644C744.822 868.804 745.11 865.876 745.686 863.86C746.286 861.82 747.234 860.392 748.53 859.576C749.85 858.76 751.806 858.352 754.398 858.352C757.014 858.352 758.922 858.76 760.122 859.576C760.362 859.744 760.482 859.948 760.482 860.188C760.482 860.428 760.362 860.884 760.122 861.556C759.906 862.204 759.69 862.672 759.474 862.96C759.282 863.224 759.078 863.356 758.862 863.356C758.646 863.356 758.478 863.344 758.358 863.32C756.558 862.96 754.998 862.78 753.678 862.78C752.382 862.78 751.53 863.5 751.122 864.94C750.738 866.38 750.546 868.72 750.546 871.96C750.546 875.176 750.63 877.42 750.798 878.692C750.966 879.964 751.278 880.852 751.734 881.356C752.19 881.86 752.91 882.112 753.894 882.112C754.902 882.112 756.03 882.052 757.278 881.932C758.55 881.812 759.21 881.752 759.258 881.752ZM770.419 883.372C769.915 882.748 769.663 882.28 769.663 881.968C769.663 881.632 769.939 881.188 770.491 880.636C771.067 880.06 771.439 879.748 771.607 879.7C771.799 879.652 771.979 879.628 772.147 879.628C772.315 879.628 772.591 879.736 772.975 879.952C774.751 881.344 776.311 882.04 777.655 882.04C778.999 882.04 779.875 881.728 780.283 881.104C780.691 880.48 780.895 879.664 780.895 878.656C780.895 877.648 780.535 876.832 779.815 876.208C779.095 875.584 777.907 874.828 776.251 873.94C774.619 873.052 773.191 871.9 771.967 870.484C770.743 869.068 770.131 867.604 770.131 866.092C770.131 863.404 770.827 861.448 772.219 860.224C773.635 858.976 775.699 858.352 778.411 858.352C780.067 858.352 781.687 858.748 783.271 859.54C784.111 859.876 784.507 860.224 784.459 860.584C784.435 860.728 784.411 860.944 784.387 861.232C783.931 862.528 783.583 863.272 783.343 863.464C783.271 863.512 783.103 863.536 782.839 863.536C782.599 863.536 781.939 863.344 780.859 862.96C779.779 862.552 778.855 862.348 778.087 862.348C777.343 862.348 776.719 862.612 776.215 863.14C775.711 863.668 775.459 864.412 775.459 865.372C775.459 866.332 775.891 867.208 776.755 868C777.619 868.768 778.951 869.572 780.751 870.412C782.647 871.396 784.063 872.416 784.999 873.472C785.959 874.528 786.439 875.944 786.439 877.72C786.439 883.624 783.943 886.576 778.951 886.576C775.231 886.576 772.387 885.508 770.419 883.372Z" fill="white"/>
</g>
<defs>
<clipPath id="clip0_426_145">
<rect width="892" height="908" fill="white"/>
</clipPath>
</defs>
</svg>
