<svg width="906" height="943" viewBox="0 0 906 943" fill="none" xmlns="http://www.w3.org/2000/svg">
<g clip-path="url(#clip0_426_197)">
<path d="M103.23 214.61C103.37 214.62 103.52 214.64 103.66 214.66C103.87 213.11 104.07 211.56 104.28 210.01C103.95 211.56 103.6 213.09 103.23 214.61Z" fill="#322214"/>
<path d="M809.6 870.46L745 870.45C765 870.831 751.5 870.78 751.5 870.46V324.92C751.5 324.42 751.5 321 751.5 321C742 330 750 334.477 741.5 334.51L177.5 324.92C177.76 336.94 168.39 318.78 168.36 330.8C168.36 332.45 167.67 333.69 166.66 334.51V869.35C166.66 869.74 166.66 870.07 166.73 870.46H94.24C89.69 870.46 86 874.15 86 878.7V933.77C86 938.32 89.69 942.01 94.24 942.01H809.6C814.15 942.01 817.84 938.32 817.84 933.77V878.7C817.84 874.15 814.15 870.46 809.6 870.46ZM395.31 398.82C395.31 394.27 393.95 327.352 398.5 327.352L518.88 328.677V450.57C518.88 455.12 515.19 458.81 510.64 458.81H403.55C399 458.81 395.31 455.12 395.31 450.57V398.82ZM562.06 870.45C555.2 870.45 551.34 862.56 555.56 857.15L569.46 839.31C573.68 833.9 569.82 826.01 562.96 826.01H355.23C348.23 826.01 344.42 834.18 348.92 839.55L363.49 856.92C367.99 862.28 364.17 870.46 357.17 870.46L188.47 870.4C187 870.5 178.358 870.4 177.5 870.4V324.92C177.5 320.37 194.95 324.92 199.5 324.92L237 325.575C241.55 325.575 238.782 325.594 245.5 325.668L249 325.707C253.5 325.756 256.45 325.839 261 325.839L383.59 327.188V456.42C383.59 464.21 389.9 470.52 397.69 470.52H408.88C413.43 470.52 417.12 474.21 417.12 478.76V498.41C417.12 502.96 420.81 506.65 425.36 506.65H434.34C438.89 506.65 442.58 502.96 442.58 498.41V478.76C442.58 474.21 446.27 470.52 450.82 470.52H463.38C467.93 470.52 471.62 474.21 471.62 478.76V498.41C471.62 502.96 475.31 506.65 479.86 506.65H488.84C493.39 506.65 497.08 502.96 497.08 498.41V478.76C497.08 474.21 500.77 470.52 505.32 470.52H516.44C524.23 470.52 530.54 464.21 530.54 456.42V328.805L621 329.8C625.55 329.8 653 330.153 660 330.23L661.68 330.698C667.5 330.312 675.45 330.45 680 330.45L702.5 330.698C707.05 330.698 735.5 334.444 741.5 334.51V870.46C738.5 870.46 729.5 870.5 728 870.46L562.06 870.45Z" fill="#322214"/>
<path d="M132 299.89C132.12 298.18 132.21 296.46 132.3 294.74H131.25C131.53 296.46 131.78 298.17 132 299.89Z" fill="#322214"/>
<path d="M648 602.5C642.47 596.97 630.96 595.5 622.5 595.5H590.59C586.04 595.5 582.35 588.06 582.35 583.51C582.35 578.82 580.47 573.13 577.35 570.01C574.23 566.95 566.54 566.88 561.85 566.88H342.85C338.1 566.88 336.97 569.45 333.85 572.51C330.79 575.63 330.85 579.52 330.85 583.51V638.01C330.85 708.26 356.63 744.93 402.85 764.01C420.88 771.5 436.98 775.67 456.71 775.54C476.44 775.41 496.69 771.43 514.85 764.01C548.42 750.36 564.89 730.46 577.92 694.01C579.1 690.72 582.2 688.51 585.69 688.51H632.36C642.06 688.51 638.62 685.38 645 679C651.32 672.62 652.35 667.91 652.35 658.28V620.42C652.35 612.35 652.35 615.99 652.35 609C652.5 608.5 648.19 602.7 648 602.5ZM567 595.5V647C567 703.97 547.89 730.9 507 747.5C491.11 753.95 473.77 756.93 456.71 757C439.65 757.13 424.06 753.95 408.5 747.5C369.37 731.35 347.5 698.68 347.5 638.01V595.5C347.5 590.95 342.95 579.5 347.5 579.5H567C562.45 579.5 567 590.95 567 595.5ZM636.72 622.41V658.28C636.72 662.32 635.03 666.33 632.36 669C629.69 671.67 624.89 673.12 620.85 673.12H590.59C586.04 673.12 582.35 669.43 582.35 664.88V620.42C582.35 615.87 586.04 612.18 590.59 612.18H630.06C631.54 612.18 632.99 612.58 634.26 613.33C634.82 613.66 635.3 613.95 635.35 614C637.04 615.83 636.72 619.74 636.72 622.41Z" fill="#322214"/>
<path fill-rule="evenodd" clip-rule="evenodd" d="M660.92 725.67C660.7 722.16 658.09 719.28 654.45 718.52C652.87 718.13 651.57 717.86 651.57 717.86C651.57 717.86 607.14 708.88 552.55 750.3C530.34 767.15 498.47 779.2 471.93 778.64C468.38 778.55 465.04 780.49 463.47 783.53C461.9 786.58 462.41 790.13 464.77 792.53C483.07 811.22 520.14 835.74 576.68 818.94C627.65 803.78 662.61 763.76 660.92 725.67ZM647 729.5C642.56 761.07 612.62 793.7 573 805.5C541.53 814.87 503.02 804.03 484.5 792.53C505.2 790.35 535.34 778.08 560.5 759C592.55 734.67 632.89 729.94 647 729.5Z" fill="#322214"/>
<path fill-rule="evenodd" clip-rule="evenodd" d="M263.319 728.65C263.489 725.17 266.039 722.27 269.639 721.47C271.199 721.06 272.489 720.78 272.489 720.78C272.489 720.78 316.419 711.28 371.099 751.63C393.339 768.04 425.109 779.57 451.409 778.66C454.929 778.53 458.269 780.4 459.869 783.4C461.469 786.4 461.009 789.93 458.699 792.34C440.799 811.12 404.359 835.92 348.079 820.01C297.349 805.66 262.149 766.45 263.319 728.65ZM276.5 732.5C281.32 763.75 313.56 794.33 353 805.5C384.33 814.38 418.78 803.99 437 792.34C416.44 790.46 386.7 778.09 361.5 759.5C329.4 735.81 290.5 732.75 276.5 732.5Z" fill="#322214"/>
<path d="M599.85 855.51H310.85V870.51H599.85V855.51Z" fill="#D8D2CD"/>
<path d="M116.58 915.03C117.21 915.03 117.53 915.44 117.53 916.25C117.53 917.06 117.52 917.67 117.49 918.07C117.39 918.98 116.98 919.5 116.27 919.63C114.02 919.96 112.34 920.12 111.25 920.12C107.48 920.12 104.88 919.06 103.46 916.93C102.04 914.8 101.33 910.96 101.33 905.42C101.33 901.37 101.63 898.28 102.24 896.15C102.87 894 103.87 892.49 105.24 891.63C106.63 890.77 108.7 890.34 111.43 890.34C114.19 890.34 116.21 890.77 117.47 891.63C117.72 891.81 117.85 892.02 117.85 892.28C117.85 892.53 117.72 893.01 117.47 893.72C117.24 894.4 117.01 894.9 116.79 895.2C116.59 895.48 116.37 895.62 116.14 895.62C115.91 895.62 115.73 895.61 115.61 895.58C113.71 895.2 112.06 895.01 110.67 895.01C109.3 895.01 108.4 895.77 107.97 897.29C107.56 898.81 107.36 901.28 107.36 904.7C107.36 908.1 107.45 910.46 107.63 911.81C107.81 913.15 108.14 914.09 108.62 914.62C109.1 915.15 109.86 915.42 110.9 915.42C111.96 915.42 113.15 915.36 114.47 915.23C115.83 915.09 116.53 915.03 116.58 915.03Z" fill="#322214"/>
<path d="M586.18 402H678.18C689.23 402 698.18 407.46 698.18 418.51V431.51C698.18 442.56 689.23 447 678.18 447H586.18C575.13 447 566.18 442.56 566.18 431.51V418.51C566.18 407.46 575.13 402 586.18 402Z" fill="#322214"/>
<path d="M607.18 417.51H530.18V433.51H607.18V417.51Z" fill="#322214"/>
<path d="M892 273H28V389H892V273Z" fill="#D8D2CD"/>
<path d="M873.642 195.024C859.641 195.024 842.082 199.904 819.846 206.07C798.445 212.013 774.193 218.76 746.419 223.088C732.794 225.206 722.726 225.277 712.429 223.325C713.346 218.473 709.715 213.614 709.715 208.812V100.236C709.715 44.9679 656.35 0.0071737 585.747 0.0071737H583.061L580.796 1.14125C580.191 1.44989 518.794 31.8328 450.877 32.5721L448.521 32.5865C382.228 32.5865 326.13 1.65804 325.571 1.34222L323.169 0H320.234C249.622 0 196.047 44.9679 196.047 100.236V208.812C196.047 213.441 192.59 218.071 193.406 222.658C178.965 226.096 165.733 226.512 154.373 223.863C139.06 220.289 124.93 216.643 111.277 213.126C79.5062 204.95 54.4192 198.498 35.7599 198.498C19.4479 198.498 0 203.881 0 229.512C0 277.007 200.879 398 452.995 398C694.274 398 906 292.991 906 229.512C906 220.985 906 195.024 873.642 195.024ZM317.456 14.384C329.761 20.8151 383.722 46.9346 448.53 46.9346L451.143 46.9202C517.262 46.2024 575.771 20.3055 588.305 14.3768C647.639 15.4391 695.475 53.5452 695.475 100.236V208.812C695.475 209.027 695.429 209.257 695.429 209.472C656.864 232.799 561.192 249.243 453.005 249.243C342.571 249.243 248.366 232.125 211.451 208.029C211.13 208.238 210.855 208.467 210.543 208.675V100.243C210.534 53.617 258.251 15.5468 317.456 14.384ZM453.005 383.645C213.918 383.645 18.3476 267.281 18.3476 229.527C18.3476 215.509 24.4726 212.86 35.7691 212.86C51.4851 212.86 76.5445 219.306 105.556 226.777C118.695 230.158 133.586 233.984 149.146 237.616C163.212 240.91 179.12 240.63 196.047 236.955C208.939 269.212 319.043 294.391 453.005 294.391C586.132 294.391 695.686 269.52 709.715 237.558C721.855 239.69 734.463 239.604 750.023 237.164C779.089 232.627 805.102 225.399 826.008 219.6C845.758 214.116 862.813 209.379 873.66 209.379C879.584 209.379 887.68 209.379 887.68 229.527C887.662 274.214 699.537 383.645 453.005 383.645Z" fill="#322214"/>
<path d="M180 339H166V878H180V339Z" fill="#322214"/>
<path d="M753 339H739V877H753V339Z" fill="#322214"/>
<path d="M353.552 183.512H358.16V118.104H354.32C352.613 118.019 351.461 117.464 350.864 116.44C350.267 115.245 349.968 113.069 349.968 109.912C349.968 105.133 351.376 102.744 354.192 102.744H376.848C380.603 102.744 382.48 104.067 382.48 106.712C382.48 114.307 380.987 118.104 378 118.104H374.8L376.08 143.704L376.208 183.512H380.048C383.035 183.597 384.528 184.963 384.528 187.608C384.357 195.203 382.267 199 378.256 199H354.064C352.528 198.915 351.461 198.36 350.864 197.336C350.267 196.141 349.968 193.923 349.968 190.68C349.968 185.901 351.163 183.512 353.552 183.512ZM469.033 183.896C471.166 183.896 472.233 185.261 472.233 187.992C472.233 190.723 472.19 192.771 472.105 194.136C471.764 197.208 470.398 198.957 468.009 199.384C460.414 200.493 454.782 201.048 451.113 201.048C438.398 201.048 429.652 197.464 424.873 190.296C420.094 183.128 417.705 170.2 417.705 151.512C417.705 137.859 418.729 127.448 420.777 120.28C422.91 113.027 426.281 107.949 430.889 105.048C435.582 102.147 442.537 100.696 451.753 100.696C461.054 100.696 467.838 102.147 472.105 105.048C472.958 105.645 473.385 106.371 473.385 107.224C473.385 108.077 472.958 109.699 472.105 112.088C471.337 114.392 470.569 116.056 469.801 117.08C469.118 118.019 468.393 118.488 467.625 118.488C466.857 118.488 466.26 118.445 465.833 118.36C459.433 117.08 453.886 116.44 449.193 116.44C444.585 116.44 441.556 119 440.105 124.12C438.74 129.24 438.057 137.56 438.057 149.08C438.057 160.515 438.356 168.493 438.953 173.016C439.55 177.539 440.66 180.696 442.281 182.488C443.902 184.28 446.462 185.176 449.961 185.176C453.545 185.176 457.556 184.963 461.993 184.536C466.516 184.109 468.862 183.896 469.033 183.896ZM508.719 189.656C506.927 187.437 506.031 185.773 506.031 184.664C506.031 183.469 507.012 181.891 508.975 179.928C511.023 177.88 512.346 176.771 512.943 176.6C513.626 176.429 514.266 176.344 514.863 176.344C515.46 176.344 516.442 176.728 517.807 177.496C524.122 182.445 529.668 184.92 534.447 184.92C539.226 184.92 542.34 183.811 543.791 181.592C545.242 179.373 545.967 176.472 545.967 172.888C545.967 169.304 544.687 166.403 542.127 164.184C539.567 161.965 535.343 159.277 529.455 156.12C523.652 152.963 518.575 148.867 514.223 143.832C509.871 138.797 507.695 133.592 507.695 128.216C507.695 118.659 510.17 111.704 515.119 107.352C520.154 102.915 527.492 100.696 537.135 100.696C543.023 100.696 548.783 102.104 554.415 104.92C557.402 106.115 558.81 107.352 558.639 108.632C558.554 109.144 558.468 109.912 558.383 110.936C556.762 115.544 555.524 118.189 554.671 118.872C554.415 119.043 553.818 119.128 552.879 119.128C552.026 119.128 549.679 118.445 545.839 117.08C541.999 115.629 538.714 114.904 535.983 114.904C533.338 114.904 531.119 115.843 529.327 117.72C527.535 119.597 526.639 122.243 526.639 125.656C526.639 129.069 528.175 132.184 531.247 135C534.319 137.731 539.055 140.589 545.455 143.576C552.196 147.075 557.231 150.701 560.559 154.456C563.972 158.211 565.679 163.245 565.679 169.56C565.679 190.552 556.804 201.048 539.055 201.048C525.828 201.048 515.716 197.251 508.719 189.656Z" fill="#322214"/>
<path d="M123.124 914.644H124.42V896.248H123.34C122.86 896.224 122.536 896.068 122.368 895.78C122.2 895.444 122.116 894.832 122.116 893.944C122.116 892.6 122.512 891.928 123.304 891.928H129.676C130.732 891.928 131.26 892.3 131.26 893.044C131.26 895.18 130.84 896.248 130 896.248H129.1L129.46 903.448L129.496 914.644H130.576C131.416 914.668 131.836 915.052 131.836 915.796C131.788 917.932 131.2 919 130.072 919H123.268C122.836 918.976 122.536 918.82 122.368 918.532C122.2 918.196 122.116 917.572 122.116 916.66C122.116 915.316 122.452 914.644 123.124 914.644ZM155.603 914.752C156.203 914.752 156.503 915.136 156.503 915.904C156.503 916.672 156.491 917.248 156.467 917.632C156.371 918.496 155.987 918.988 155.315 919.108C153.179 919.42 151.595 919.576 150.563 919.576C146.987 919.576 144.527 918.568 143.183 916.552C141.839 914.536 141.167 910.9 141.167 905.644C141.167 901.804 141.455 898.876 142.031 896.86C142.631 894.82 143.579 893.392 144.875 892.576C146.195 891.76 148.151 891.352 150.743 891.352C153.359 891.352 155.267 891.76 156.467 892.576C156.707 892.744 156.827 892.948 156.827 893.188C156.827 893.428 156.707 893.884 156.467 894.556C156.251 895.204 156.035 895.672 155.819 895.96C155.627 896.224 155.423 896.356 155.207 896.356C154.991 896.356 154.823 896.344 154.703 896.32C152.903 895.96 151.343 895.78 150.023 895.78C148.727 895.78 147.875 896.5 147.467 897.94C147.083 899.38 146.891 901.72 146.891 904.96C146.891 908.176 146.975 910.42 147.143 911.692C147.311 912.964 147.623 913.852 148.079 914.356C148.535 914.86 149.255 915.112 150.239 915.112C151.247 915.112 152.375 915.052 153.623 914.932C154.895 914.812 155.555 914.752 155.603 914.752ZM166.765 916.372C166.261 915.748 166.009 915.28 166.009 914.968C166.009 914.632 166.285 914.188 166.837 913.636C167.413 913.06 167.785 912.748 167.953 912.7C168.145 912.652 168.325 912.628 168.493 912.628C168.661 912.628 168.937 912.736 169.321 912.952C171.097 914.344 172.657 915.04 174.001 915.04C175.345 915.04 176.221 914.728 176.629 914.104C177.037 913.48 177.241 912.664 177.241 911.656C177.241 910.648 176.881 909.832 176.161 909.208C175.441 908.584 174.253 907.828 172.597 906.94C170.965 906.052 169.537 904.9 168.313 903.484C167.089 902.068 166.477 900.604 166.477 899.092C166.477 896.404 167.173 894.448 168.565 893.224C169.981 891.976 172.045 891.352 174.757 891.352C176.413 891.352 178.033 891.748 179.617 892.54C180.457 892.876 180.853 893.224 180.805 893.584C180.781 893.728 180.757 893.944 180.733 894.232C180.277 895.528 179.929 896.272 179.689 896.464C179.617 896.512 179.449 896.536 179.185 896.536C178.945 896.536 178.285 896.344 177.205 895.96C176.125 895.552 175.201 895.348 174.433 895.348C173.689 895.348 173.065 895.612 172.561 896.14C172.057 896.668 171.805 897.412 171.805 898.372C171.805 899.332 172.237 900.208 173.101 901C173.965 901.768 175.297 902.572 177.097 903.412C178.993 904.396 180.409 905.416 181.345 906.472C182.305 907.528 182.785 908.944 182.785 910.72C182.785 916.624 180.289 919.576 175.297 919.576C171.577 919.576 168.733 918.508 166.765 916.372ZM209.932 914.644H211.228V896.248H210.148C209.668 896.224 209.344 896.068 209.176 895.78C209.008 895.444 208.924 894.832 208.924 893.944C208.924 892.6 209.32 891.928 210.112 891.928H216.484C217.54 891.928 218.068 892.3 218.068 893.044C218.068 895.18 217.648 896.248 216.808 896.248H215.908L216.268 903.448L216.304 914.644H217.384C218.224 914.668 218.644 915.052 218.644 915.796C218.596 917.932 218.008 919 216.88 919H210.076C209.644 918.976 209.344 918.82 209.176 918.532C209.008 918.196 208.924 917.572 208.924 916.66C208.924 915.316 209.26 914.644 209.932 914.644ZM242.411 914.752C243.011 914.752 243.311 915.136 243.311 915.904C243.311 916.672 243.299 917.248 243.275 917.632C243.179 918.496 242.795 918.988 242.123 919.108C239.987 919.42 238.403 919.576 237.371 919.576C233.795 919.576 231.335 918.568 229.991 916.552C228.647 914.536 227.975 910.9 227.975 905.644C227.975 901.804 228.263 898.876 228.839 896.86C229.439 894.82 230.387 893.392 231.683 892.576C233.003 891.76 234.959 891.352 237.551 891.352C240.167 891.352 242.075 891.76 243.275 892.576C243.515 892.744 243.635 892.948 243.635 893.188C243.635 893.428 243.515 893.884 243.275 894.556C243.059 895.204 242.843 895.672 242.627 895.96C242.435 896.224 242.231 896.356 242.015 896.356C241.799 896.356 241.631 896.344 241.511 896.32C239.711 895.96 238.151 895.78 236.831 895.78C235.535 895.78 234.683 896.5 234.275 897.94C233.891 899.38 233.699 901.72 233.699 904.96C233.699 908.176 233.783 910.42 233.951 911.692C234.119 912.964 234.431 913.852 234.887 914.356C235.343 914.86 236.063 915.112 237.047 915.112C238.055 915.112 239.183 915.052 240.431 914.932C241.703 914.812 242.363 914.752 242.411 914.752ZM253.573 916.372C253.069 915.748 252.817 915.28 252.817 914.968C252.817 914.632 253.093 914.188 253.645 913.636C254.221 913.06 254.593 912.748 254.761 912.7C254.953 912.652 255.133 912.628 255.301 912.628C255.469 912.628 255.745 912.736 256.129 912.952C257.905 914.344 259.465 915.04 260.809 915.04C262.153 915.04 263.029 914.728 263.437 914.104C263.845 913.48 264.049 912.664 264.049 911.656C264.049 910.648 263.689 909.832 262.969 909.208C262.249 908.584 261.061 907.828 259.405 906.94C257.773 906.052 256.345 904.9 255.121 903.484C253.897 902.068 253.285 900.604 253.285 899.092C253.285 896.404 253.981 894.448 255.373 893.224C256.789 891.976 258.853 891.352 261.565 891.352C263.221 891.352 264.841 891.748 266.425 892.54C267.265 892.876 267.661 893.224 267.613 893.584C267.589 893.728 267.565 893.944 267.541 894.232C267.085 895.528 266.737 896.272 266.497 896.464C266.425 896.512 266.257 896.536 265.993 896.536C265.753 896.536 265.093 896.344 264.013 895.96C262.933 895.552 262.009 895.348 261.241 895.348C260.497 895.348 259.873 895.612 259.369 896.14C258.865 896.668 258.613 897.412 258.613 898.372C258.613 899.332 259.045 900.208 259.909 901C260.773 901.768 262.105 902.572 263.905 903.412C265.801 904.396 267.217 905.416 268.153 906.472C269.113 907.528 269.593 908.944 269.593 910.72C269.593 916.624 267.097 919.576 262.105 919.576C258.385 919.576 255.541 918.508 253.573 916.372ZM296.74 914.644H298.036V896.248H296.956C296.476 896.224 296.152 896.068 295.984 895.78C295.816 895.444 295.732 894.832 295.732 893.944C295.732 892.6 296.128 891.928 296.92 891.928H303.292C304.348 891.928 304.876 892.3 304.876 893.044C304.876 895.18 304.456 896.248 303.616 896.248H302.716L303.076 903.448L303.112 914.644H304.192C305.032 914.668 305.452 915.052 305.452 915.796C305.404 917.932 304.816 919 303.688 919H296.884C296.452 918.976 296.152 918.82 295.984 918.532C295.816 918.196 295.732 917.572 295.732 916.66C295.732 915.316 296.068 914.644 296.74 914.644ZM329.219 914.752C329.819 914.752 330.119 915.136 330.119 915.904C330.119 916.672 330.107 917.248 330.083 917.632C329.987 918.496 329.603 918.988 328.931 919.108C326.795 919.42 325.211 919.576 324.179 919.576C320.603 919.576 318.143 918.568 316.799 916.552C315.455 914.536 314.783 910.9 314.783 905.644C314.783 901.804 315.071 898.876 315.647 896.86C316.247 894.82 317.195 893.392 318.491 892.576C319.811 891.76 321.767 891.352 324.359 891.352C326.975 891.352 328.883 891.76 330.083 892.576C330.323 892.744 330.443 892.948 330.443 893.188C330.443 893.428 330.323 893.884 330.083 894.556C329.867 895.204 329.651 895.672 329.435 895.96C329.243 896.224 329.039 896.356 328.823 896.356C328.607 896.356 328.439 896.344 328.319 896.32C326.519 895.96 324.959 895.78 323.639 895.78C322.343 895.78 321.491 896.5 321.083 897.94C320.699 899.38 320.507 901.72 320.507 904.96C320.507 908.176 320.591 910.42 320.759 911.692C320.927 912.964 321.239 913.852 321.695 914.356C322.151 914.86 322.871 915.112 323.855 915.112C324.863 915.112 325.991 915.052 327.239 914.932C328.511 914.812 329.171 914.752 329.219 914.752ZM340.38 916.372C339.876 915.748 339.624 915.28 339.624 914.968C339.624 914.632 339.9 914.188 340.452 913.636C341.028 913.06 341.4 912.748 341.568 912.7C341.76 912.652 341.94 912.628 342.108 912.628C342.276 912.628 342.552 912.736 342.936 912.952C344.712 914.344 346.272 915.04 347.616 915.04C348.96 915.04 349.836 914.728 350.244 914.104C350.652 913.48 350.856 912.664 350.856 911.656C350.856 910.648 350.496 909.832 349.776 909.208C349.056 908.584 347.868 907.828 346.212 906.94C344.58 906.052 343.152 904.9 341.928 903.484C340.704 902.068 340.092 900.604 340.092 899.092C340.092 896.404 340.788 894.448 342.18 893.224C343.596 891.976 345.66 891.352 348.372 891.352C350.028 891.352 351.648 891.748 353.232 892.54C354.072 892.876 354.468 893.224 354.42 893.584C354.396 893.728 354.372 893.944 354.348 894.232C353.892 895.528 353.544 896.272 353.304 896.464C353.232 896.512 353.064 896.536 352.8 896.536C352.56 896.536 351.9 896.344 350.82 895.96C349.74 895.552 348.816 895.348 348.048 895.348C347.304 895.348 346.68 895.612 346.176 896.14C345.672 896.668 345.42 897.412 345.42 898.372C345.42 899.332 345.852 900.208 346.716 901C347.58 901.768 348.912 902.572 350.712 903.412C352.608 904.396 354.024 905.416 354.96 906.472C355.92 907.528 356.4 908.944 356.4 910.72C356.4 916.624 353.904 919.576 348.912 919.576C345.192 919.576 342.348 918.508 340.38 916.372ZM383.547 914.644H384.843V896.248H383.763C383.283 896.224 382.959 896.068 382.791 895.78C382.623 895.444 382.539 894.832 382.539 893.944C382.539 892.6 382.935 891.928 383.727 891.928H390.099C391.155 891.928 391.683 892.3 391.683 893.044C391.683 895.18 391.263 896.248 390.423 896.248H389.523L389.883 903.448L389.919 914.644H390.999C391.839 914.668 392.259 915.052 392.259 915.796C392.211 917.932 391.623 919 390.495 919H383.691C383.259 918.976 382.959 918.82 382.791 918.532C382.623 918.196 382.539 917.572 382.539 916.66C382.539 915.316 382.875 914.644 383.547 914.644ZM416.026 914.752C416.626 914.752 416.926 915.136 416.926 915.904C416.926 916.672 416.914 917.248 416.89 917.632C416.794 918.496 416.41 918.988 415.738 919.108C413.602 919.42 412.018 919.576 410.986 919.576C407.41 919.576 404.95 918.568 403.606 916.552C402.262 914.536 401.59 910.9 401.59 905.644C401.59 901.804 401.878 898.876 402.454 896.86C403.054 894.82 404.002 893.392 405.298 892.576C406.618 891.76 408.574 891.352 411.166 891.352C413.782 891.352 415.69 891.76 416.89 892.576C417.13 892.744 417.25 892.948 417.25 893.188C417.25 893.428 417.13 893.884 416.89 894.556C416.674 895.204 416.458 895.672 416.242 895.96C416.05 896.224 415.846 896.356 415.63 896.356C415.414 896.356 415.246 896.344 415.126 896.32C413.326 895.96 411.766 895.78 410.446 895.78C409.15 895.78 408.298 896.5 407.89 897.94C407.506 899.38 407.314 901.72 407.314 904.96C407.314 908.176 407.398 910.42 407.566 911.692C407.734 912.964 408.046 913.852 408.502 914.356C408.958 914.86 409.678 915.112 410.662 915.112C411.67 915.112 412.798 915.052 414.046 914.932C415.318 914.812 415.978 914.752 416.026 914.752ZM427.188 916.372C426.684 915.748 426.432 915.28 426.432 914.968C426.432 914.632 426.708 914.188 427.26 913.636C427.836 913.06 428.208 912.748 428.376 912.7C428.568 912.652 428.748 912.628 428.916 912.628C429.084 912.628 429.36 912.736 429.744 912.952C431.52 914.344 433.08 915.04 434.424 915.04C435.768 915.04 436.644 914.728 437.052 914.104C437.46 913.48 437.664 912.664 437.664 911.656C437.664 910.648 437.304 909.832 436.584 909.208C435.864 908.584 434.676 907.828 433.02 906.94C431.388 906.052 429.96 904.9 428.736 903.484C427.512 902.068 426.9 900.604 426.9 899.092C426.9 896.404 427.596 894.448 428.988 893.224C430.404 891.976 432.468 891.352 435.18 891.352C436.836 891.352 438.456 891.748 440.04 892.54C440.88 892.876 441.276 893.224 441.228 893.584C441.204 893.728 441.18 893.944 441.156 894.232C440.7 895.528 440.352 896.272 440.112 896.464C440.04 896.512 439.872 896.536 439.608 896.536C439.368 896.536 438.708 896.344 437.628 895.96C436.548 895.552 435.624 895.348 434.856 895.348C434.112 895.348 433.488 895.612 432.984 896.14C432.48 896.668 432.228 897.412 432.228 898.372C432.228 899.332 432.66 900.208 433.524 901C434.388 901.768 435.72 902.572 437.52 903.412C439.416 904.396 440.832 905.416 441.768 906.472C442.728 907.528 443.208 908.944 443.208 910.72C443.208 916.624 440.712 919.576 435.72 919.576C432 919.576 429.156 918.508 427.188 916.372ZM470.355 914.644H471.651V896.248H470.571C470.091 896.224 469.767 896.068 469.599 895.78C469.431 895.444 469.347 894.832 469.347 893.944C469.347 892.6 469.743 891.928 470.535 891.928H476.907C477.963 891.928 478.491 892.3 478.491 893.044C478.491 895.18 478.071 896.248 477.231 896.248H476.331L476.691 903.448L476.727 914.644H477.807C478.647 914.668 479.067 915.052 479.067 915.796C479.019 917.932 478.431 919 477.303 919H470.499C470.067 918.976 469.767 918.82 469.599 918.532C469.431 918.196 469.347 917.572 469.347 916.66C469.347 915.316 469.683 914.644 470.355 914.644ZM502.834 914.752C503.434 914.752 503.734 915.136 503.734 915.904C503.734 916.672 503.722 917.248 503.698 917.632C503.602 918.496 503.218 918.988 502.546 919.108C500.41 919.42 498.826 919.576 497.794 919.576C494.218 919.576 491.758 918.568 490.414 916.552C489.07 914.536 488.398 910.9 488.398 905.644C488.398 901.804 488.686 898.876 489.262 896.86C489.862 894.82 490.81 893.392 492.106 892.576C493.426 891.76 495.382 891.352 497.974 891.352C500.59 891.352 502.498 891.76 503.698 892.576C503.938 892.744 504.058 892.948 504.058 893.188C504.058 893.428 503.938 893.884 503.698 894.556C503.482 895.204 503.266 895.672 503.05 895.96C502.858 896.224 502.654 896.356 502.438 896.356C502.222 896.356 502.054 896.344 501.934 896.32C500.134 895.96 498.574 895.78 497.254 895.78C495.958 895.78 495.106 896.5 494.698 897.94C494.314 899.38 494.122 901.72 494.122 904.96C494.122 908.176 494.206 910.42 494.374 911.692C494.542 912.964 494.854 913.852 495.31 914.356C495.766 914.86 496.486 915.112 497.47 915.112C498.478 915.112 499.606 915.052 500.854 914.932C502.126 914.812 502.786 914.752 502.834 914.752ZM513.996 916.372C513.492 915.748 513.24 915.28 513.24 914.968C513.24 914.632 513.516 914.188 514.068 913.636C514.644 913.06 515.016 912.748 515.184 912.7C515.376 912.652 515.556 912.628 515.724 912.628C515.892 912.628 516.168 912.736 516.552 912.952C518.328 914.344 519.888 915.04 521.232 915.04C522.576 915.04 523.452 914.728 523.86 914.104C524.268 913.48 524.472 912.664 524.472 911.656C524.472 910.648 524.112 909.832 523.392 909.208C522.672 908.584 521.484 907.828 519.828 906.94C518.196 906.052 516.768 904.9 515.544 903.484C514.32 902.068 513.708 900.604 513.708 899.092C513.708 896.404 514.404 894.448 515.796 893.224C517.212 891.976 519.276 891.352 521.988 891.352C523.644 891.352 525.264 891.748 526.848 892.54C527.688 892.876 528.084 893.224 528.036 893.584C528.012 893.728 527.988 893.944 527.964 894.232C527.508 895.528 527.16 896.272 526.92 896.464C526.848 896.512 526.68 896.536 526.416 896.536C526.176 896.536 525.516 896.344 524.436 895.96C523.356 895.552 522.432 895.348 521.664 895.348C520.92 895.348 520.296 895.612 519.792 896.14C519.288 896.668 519.036 897.412 519.036 898.372C519.036 899.332 519.468 900.208 520.332 901C521.196 901.768 522.528 902.572 524.328 903.412C526.224 904.396 527.64 905.416 528.576 906.472C529.536 907.528 530.016 908.944 530.016 910.72C530.016 916.624 527.52 919.576 522.528 919.576C518.808 919.576 515.964 918.508 513.996 916.372ZM557.163 914.644H558.459V896.248H557.379C556.899 896.224 556.575 896.068 556.407 895.78C556.239 895.444 556.155 894.832 556.155 893.944C556.155 892.6 556.551 891.928 557.343 891.928H563.715C564.771 891.928 565.299 892.3 565.299 893.044C565.299 895.18 564.879 896.248 564.039 896.248H563.139L563.499 903.448L563.535 914.644H564.615C565.455 914.668 565.875 915.052 565.875 915.796C565.827 917.932 565.239 919 564.111 919H557.307C556.875 918.976 556.575 918.82 556.407 918.532C556.239 918.196 556.155 917.572 556.155 916.66C556.155 915.316 556.491 914.644 557.163 914.644ZM589.642 914.752C590.242 914.752 590.542 915.136 590.542 915.904C590.542 916.672 590.53 917.248 590.506 917.632C590.41 918.496 590.026 918.988 589.354 919.108C587.218 919.42 585.634 919.576 584.602 919.576C581.026 919.576 578.566 918.568 577.222 916.552C575.878 914.536 575.206 910.9 575.206 905.644C575.206 901.804 575.494 898.876 576.07 896.86C576.67 894.82 577.618 893.392 578.914 892.576C580.234 891.76 582.19 891.352 584.782 891.352C587.398 891.352 589.306 891.76 590.506 892.576C590.746 892.744 590.866 892.948 590.866 893.188C590.866 893.428 590.746 893.884 590.506 894.556C590.29 895.204 590.074 895.672 589.858 895.96C589.666 896.224 589.462 896.356 589.246 896.356C589.03 896.356 588.862 896.344 588.742 896.32C586.942 895.96 585.382 895.78 584.062 895.78C582.766 895.78 581.914 896.5 581.506 897.94C581.122 899.38 580.93 901.72 580.93 904.96C580.93 908.176 581.014 910.42 581.182 911.692C581.35 912.964 581.662 913.852 582.118 914.356C582.574 914.86 583.294 915.112 584.278 915.112C585.286 915.112 586.414 915.052 587.662 914.932C588.934 914.812 589.594 914.752 589.642 914.752ZM600.804 916.372C600.3 915.748 600.048 915.28 600.048 914.968C600.048 914.632 600.324 914.188 600.876 913.636C601.452 913.06 601.824 912.748 601.992 912.7C602.184 912.652 602.364 912.628 602.532 912.628C602.7 912.628 602.976 912.736 603.36 912.952C605.136 914.344 606.696 915.04 608.04 915.04C609.384 915.04 610.26 914.728 610.668 914.104C611.076 913.48 611.28 912.664 611.28 911.656C611.28 910.648 610.92 909.832 610.2 909.208C609.48 908.584 608.292 907.828 606.636 906.94C605.004 906.052 603.576 904.9 602.352 903.484C601.128 902.068 600.516 900.604 600.516 899.092C600.516 896.404 601.212 894.448 602.604 893.224C604.02 891.976 606.084 891.352 608.796 891.352C610.452 891.352 612.072 891.748 613.656 892.54C614.496 892.876 614.892 893.224 614.844 893.584C614.82 893.728 614.796 893.944 614.772 894.232C614.316 895.528 613.968 896.272 613.728 896.464C613.656 896.512 613.488 896.536 613.224 896.536C612.984 896.536 612.324 896.344 611.244 895.96C610.164 895.552 609.24 895.348 608.472 895.348C607.728 895.348 607.104 895.612 606.6 896.14C606.096 896.668 605.844 897.412 605.844 898.372C605.844 899.332 606.276 900.208 607.14 901C608.004 901.768 609.336 902.572 611.136 903.412C613.032 904.396 614.448 905.416 615.384 906.472C616.344 907.528 616.824 908.944 616.824 910.72C616.824 916.624 614.328 919.576 609.336 919.576C605.616 919.576 602.772 918.508 600.804 916.372ZM643.971 914.644H645.267V896.248H644.187C643.707 896.224 643.383 896.068 643.215 895.78C643.047 895.444 642.963 894.832 642.963 893.944C642.963 892.6 643.359 891.928 644.151 891.928H650.523C651.579 891.928 652.107 892.3 652.107 893.044C652.107 895.18 651.687 896.248 650.847 896.248H649.947L650.307 903.448L650.343 914.644H651.423C652.263 914.668 652.683 915.052 652.683 915.796C652.635 917.932 652.047 919 650.919 919H644.115C643.683 918.976 643.383 918.82 643.215 918.532C643.047 918.196 642.963 917.572 642.963 916.66C642.963 915.316 643.299 914.644 643.971 914.644ZM676.45 914.752C677.05 914.752 677.35 915.136 677.35 915.904C677.35 916.672 677.338 917.248 677.314 917.632C677.218 918.496 676.834 918.988 676.162 919.108C674.026 919.42 672.442 919.576 671.41 919.576C667.834 919.576 665.374 918.568 664.03 916.552C662.686 914.536 662.014 910.9 662.014 905.644C662.014 901.804 662.302 898.876 662.878 896.86C663.478 894.82 664.426 893.392 665.722 892.576C667.042 891.76 668.998 891.352 671.59 891.352C674.206 891.352 676.114 891.76 677.314 892.576C677.554 892.744 677.674 892.948 677.674 893.188C677.674 893.428 677.554 893.884 677.314 894.556C677.098 895.204 676.882 895.672 676.666 895.96C676.474 896.224 676.27 896.356 676.054 896.356C675.838 896.356 675.67 896.344 675.55 896.32C673.75 895.96 672.19 895.78 670.87 895.78C669.574 895.78 668.722 896.5 668.314 897.94C667.93 899.38 667.738 901.72 667.738 904.96C667.738 908.176 667.822 910.42 667.99 911.692C668.158 912.964 668.47 913.852 668.926 914.356C669.382 914.86 670.102 915.112 671.086 915.112C672.094 915.112 673.222 915.052 674.47 914.932C675.742 914.812 676.402 914.752 676.45 914.752ZM687.612 916.372C687.108 915.748 686.856 915.28 686.856 914.968C686.856 914.632 687.132 914.188 687.684 913.636C688.26 913.06 688.632 912.748 688.8 912.7C688.992 912.652 689.172 912.628 689.34 912.628C689.508 912.628 689.784 912.736 690.168 912.952C691.944 914.344 693.504 915.04 694.848 915.04C696.192 915.04 697.068 914.728 697.476 914.104C697.884 913.48 698.088 912.664 698.088 911.656C698.088 910.648 697.728 909.832 697.008 909.208C696.288 908.584 695.1 907.828 693.444 906.94C691.812 906.052 690.384 904.9 689.16 903.484C687.936 902.068 687.324 900.604 687.324 899.092C687.324 896.404 688.02 894.448 689.412 893.224C690.828 891.976 692.892 891.352 695.604 891.352C697.26 891.352 698.88 891.748 700.464 892.54C701.304 892.876 701.7 893.224 701.652 893.584C701.628 893.728 701.604 893.944 701.58 894.232C701.124 895.528 700.776 896.272 700.536 896.464C700.464 896.512 700.296 896.536 700.032 896.536C699.792 896.536 699.132 896.344 698.052 895.96C696.972 895.552 696.048 895.348 695.28 895.348C694.536 895.348 693.912 895.612 693.408 896.14C692.904 896.668 692.652 897.412 692.652 898.372C692.652 899.332 693.084 900.208 693.948 901C694.812 901.768 696.144 902.572 697.944 903.412C699.84 904.396 701.256 905.416 702.192 906.472C703.152 907.528 703.632 908.944 703.632 910.72C703.632 916.624 701.136 919.576 696.144 919.576C692.424 919.576 689.58 918.508 687.612 916.372ZM730.779 914.644H732.075V896.248H730.995C730.515 896.224 730.191 896.068 730.023 895.78C729.855 895.444 729.771 894.832 729.771 893.944C729.771 892.6 730.167 891.928 730.959 891.928H737.331C738.387 891.928 738.915 892.3 738.915 893.044C738.915 895.18 738.495 896.248 737.655 896.248H736.755L737.115 903.448L737.151 914.644H738.231C739.071 914.668 739.491 915.052 739.491 915.796C739.443 917.932 738.855 919 737.727 919H730.923C730.491 918.976 730.191 918.82 730.023 918.532C729.855 918.196 729.771 917.572 729.771 916.66C729.771 915.316 730.107 914.644 730.779 914.644ZM763.258 914.752C763.858 914.752 764.158 915.136 764.158 915.904C764.158 916.672 764.146 917.248 764.122 917.632C764.026 918.496 763.642 918.988 762.97 919.108C760.834 919.42 759.25 919.576 758.218 919.576C754.642 919.576 752.182 918.568 750.838 916.552C749.494 914.536 748.822 910.9 748.822 905.644C748.822 901.804 749.11 898.876 749.686 896.86C750.286 894.82 751.234 893.392 752.53 892.576C753.85 891.76 755.806 891.352 758.398 891.352C761.014 891.352 762.922 891.76 764.122 892.576C764.362 892.744 764.482 892.948 764.482 893.188C764.482 893.428 764.362 893.884 764.122 894.556C763.906 895.204 763.69 895.672 763.474 895.96C763.282 896.224 763.078 896.356 762.862 896.356C762.646 896.356 762.478 896.344 762.358 896.32C760.558 895.96 758.998 895.78 757.678 895.78C756.382 895.78 755.53 896.5 755.122 897.94C754.738 899.38 754.546 901.72 754.546 904.96C754.546 908.176 754.63 910.42 754.798 911.692C754.966 912.964 755.278 913.852 755.734 914.356C756.19 914.86 756.91 915.112 757.894 915.112C758.902 915.112 760.03 915.052 761.278 914.932C762.55 914.812 763.21 914.752 763.258 914.752ZM774.419 916.372C773.915 915.748 773.663 915.28 773.663 914.968C773.663 914.632 773.939 914.188 774.491 913.636C775.067 913.06 775.439 912.748 775.607 912.7C775.799 912.652 775.979 912.628 776.147 912.628C776.315 912.628 776.591 912.736 776.975 912.952C778.751 914.344 780.311 915.04 781.655 915.04C782.999 915.04 783.875 914.728 784.283 914.104C784.691 913.48 784.895 912.664 784.895 911.656C784.895 910.648 784.535 909.832 783.815 909.208C783.095 908.584 781.907 907.828 780.251 906.94C778.619 906.052 777.191 904.9 775.967 903.484C774.743 902.068 774.131 900.604 774.131 899.092C774.131 896.404 774.827 894.448 776.219 893.224C777.635 891.976 779.699 891.352 782.411 891.352C784.067 891.352 785.687 891.748 787.271 892.54C788.111 892.876 788.507 893.224 788.459 893.584C788.435 893.728 788.411 893.944 788.387 894.232C787.931 895.528 787.583 896.272 787.343 896.464C787.271 896.512 787.103 896.536 786.839 896.536C786.599 896.536 785.939 896.344 784.859 895.96C783.779 895.552 782.855 895.348 782.087 895.348C781.343 895.348 780.719 895.612 780.215 896.14C779.711 896.668 779.459 897.412 779.459 898.372C779.459 899.332 779.891 900.208 780.755 901C781.619 901.768 782.951 902.572 784.751 903.412C786.647 904.396 788.063 905.416 788.999 906.472C789.959 907.528 790.439 908.944 790.439 910.72C790.439 916.624 787.943 919.576 782.951 919.576C779.231 919.576 776.387 918.508 774.419 916.372Z" fill="white"/>
</g>
<defs>
<clipPath id="clip0_426_197">
<rect width="906" height="943" fill="white"/>
</clipPath>
</defs>
</svg>
